<?xml version="1.0" encoding="utf-8"?>
<!-- Generator: Adobe Illustrator 16.0.0, SVG Export Plug-In . SVG Version: 6.00 Build 0)  -->
<!DOCTYPE svg PUBLIC "-//W3C//DTD SVG 1.1//EN" "http://www.w3.org/Graphics/SVG/1.1/DTD/svg11.dtd">
<svg version="1.1" id="Layer_1" xmlns="http://www.w3.org/2000/svg" xmlns:xlink="http://www.w3.org/1999/xlink" x="0px" y="0px"
	 width="223.025px" height="283.528px" viewBox="0 0 223.025 283.528" enable-background="new 0 0 223.025 283.528"
	 xml:space="preserve">
<g>
	<path fill="#444A54" d="M145.753,165.348c6.759-4.92,12.528-9.004,18.093-13.285c2.21-1.676,4.736-3.74,1.522-6.676
		c-9.041,3.248-17.209,8.285-26.755,9.201c8.2-4.58,16.684-8.439,25.077-12.486c3.739-1.792,3.818-4.5,0.678-6.987
		c-3.43-2.711-6.715-5.613-10.152-8.364c-0.879-0.681-1.992-1.453-3.01-1.529c-3.824-0.193-7.676-0.157-11.534-0.193
		c-9.388-0.079-17.751-3.588-25.992-7.632c-11.299-5.498-22.673-10.841-34.102-16.074c-1.171-0.536-3.584-0.457-4.277,0.343
		c-5.155,6.11-13.245,10.341-13.245,19.962c0,1.033-1.033,2.133-1.751,3.048c-8.402,10.614-17.21,20.919-25.159,31.835
		c-6.031,8.322-14.465,9.881-23.515,10.914c-1.146,0.156-2.21,0.764-3.331,1.182c1.146,0.721,2.253,2.057,3.438,2.092
		c3.238,0.121,6.569-0.652,9.808-0.455c7.036,0.42,12.566-0.799,16.691-7.709c6.869-11.57,16.068-21.375,25.877-30.54
		c2.554-2.405,5.617-5.077,8.855-5.797c5.998-1.375,12.181-0.04,17.219,3.549c13.283,9.5,26.33,19.356,39.429,29.124
		c0.618,0.455,1.121,2.328,0.766,2.631c-7.481,7.406-14.884,14.852-22.672,21.871c-6.53,5.877-13.659,11.15-20.311,16.91
		c-10.88,9.465-21.294,19.502-32.528,28.598c-8.672,7.086-16.454,15.982-29.1,17.516c2.171,7.748,8.926,9.541,14.084,13.049
		c0.453,0.344,1.864,0.039,2.404-0.457c4.778-4.504,9.582-9.043,14.158-13.744c2.979-3.012,5.383-6.529,8.41-9.502
		c6.634-6.529,13.657-12.709,20.229-19.359c6.994-7.025,13.672-14.424,20.46-21.646c-2.971,5.578-6.716,10.537-10.573,15.342
		c-8.929,11.15-17.751,22.41-26.992,33.287c-5.037,5.953-11.066,10.914-19.082,12.746c-3.703,0.84-5.415,4.699-2.67,6.037
		c5.116,2.484,10.691,3.963,16.148,5.719c1.912,0.613,4.198,0.381,5.998,1.221c8.859,4.199,17.604,8.779,27.676,2.668
		c-0.377,3.588,1.721,5.156,4.778,5.303c3.778,0.193,7.788,0.721,11.372-0.197c2.906-0.719,7.25,0.881,8.631-4.004
		c2.864-10.041,6.028-20.002,8.96-30c1.419-4.807,2.945-9.619,3.824-14.504c1.261-6.949,1.833-13.965,2.866-20.955
		c1.146-7.672,2.41-15.311,3.745-22.943c0.718-4.201,1.717-8.365,2.784-13.549c0.96,1.676,1.639,2.33,1.6,2.906
		c-0.8,9.58-1.721,19.199-2.594,28.779c-0.299,3.549-0.338,7.213-1.072,10.693c-1.571,7.553-0.42,15.418-4.045,22.904
		c-2.098,4.348-0.573,10.344-1.412,15.498c-0.686,4.199-1.991,8.471-3.924,12.213c-1.145,2.174-4.205,3.283-6.225,5.076
		c-2.551,2.252-2.092,4.348,1.146,5.42c2.286,0.723,4.612,1.143,6.904,1.832c6.676,1.99,13.093-2.287,20.082-0.34
		c4.116,1.141,9.12-0.799,13.698-1.531c5.546-0.877,6.535-2.785,5.464-8.205c-1.26-6.297-2.172-12.67-3.133-19.047
		c-1.213-8.129-2.213-16.297-3.463-24.436c-1.492-9.697-3.134-19.395-4.705-29.082c0.498-0.117,1-0.225,1.492-0.34
		c0.386,0.572,0.959,1.109,1.112,1.715c1.413,5.836,2.751,11.646,4.086,17.482c1.757,7.713,3.503,15.381,5.155,23.131
		c1.066,5.156,1.946,10.34,2.973,15.498c1.139,5.957,5.381,11.869-0.12,17.826c-0.415,0.459-0.039,1.639-0.039,3.928
		c7.447-2.172,14.124-4.125,21.341-6.217c-2.872-3.092-5.306-5.723-7.789-8.365c-7.169-7.592-7.211-11.297-0.121-18.898
		c1.146-1.217,2.453-2.33,3.551-3.586c4.004-4.504,8.549-8.705,11.714-13.744c5.266-8.402,3.019-17.367-1.565-25.039
		c-7.828-13.129-16.758-25.574-25.039-38.4c-1.339-2.096-1.72-4.846-2.711-7.789c-0.654,0.342-2.141,0.879-3.473,1.676
		c-7.522,4.387-14.965,8.861-22.479,13.168C148.773,165.991,147.661,165.536,145.753,165.348z M82.113,256.432
		c-2.866,4.281-7.744,6.873-13.819,8.246c15.737-22.828,30.956-44.932,46.228-67.068c0.306,0.121,0.617,0.227,0.918,0.344
		c-1.212,2.404-2.365,4.803-3.625,7.213c-3.742,7.064-7.287,14.201-11.3,21.109C94.598,236.461,88.721,246.694,82.113,256.432z
		 M124.301,212.641c-4.198,12.75-8.549,25.42-12.864,38.139c-1.034,2.945-2.516,5.76-3.248,8.781
		c-1.531,6.297-6.607,8.549-12.138,11.529c5.583-12.445,11.571-23.703,15.237-36.229c3.513-11.945,9.84-23.1,14.918-34.58
		c0.427,0.117,0.841,0.264,1.266,0.42C126.447,204.668,125.594,208.713,124.301,212.641z M151.065,170.272
		c0.688-0.039,1.374-0.08,2.058-0.115c0.535,3.701,1.333,7.404,1.533,11.186c0.262,5.881,0.076,11.834,0.115,17.75
		c0,3.822-0.115,7.633,0.112,11.414c0.499,8.441,1.679,16.832,1.64,25.234c-0.04,9.238-0.722,18.547-1.907,27.711
		c-0.425,3.166-3.21,5.994-4.892,9.006c-0.65-0.197-1.25-0.381-1.902-0.578c0.799-17.066,1.791-34.16,2.33-51.227
		C150.685,203.86,150.792,187.067,151.065,170.272z"/>
	<path fill="#444A54" d="M70.058,16.625c3.244-0.957,5.379-1.57,7.33-2.136c-0.233,1.756-0.42,3.325-0.615,4.884
		c1.714-1.072,3.434-2.136,5.458-3.365c0.542,1.072,1.112,2.252,2.058,4.241c1.181-1.948,2.213-3.401,3.053-4.961
		c0.873-1.675,1.755-2.944,3.666-1.139c7.248,6.833,14.584,13.626,21.795,20.495c1.104,1.072,2.663,2.595,2.63,3.891
		c-0.118,6.296,0.341,12.902-1.338,18.859c-2.364,8.361-6.611,16.19-9.694,24.355c-0.619,1.6-0.229,3.967,0.459,5.693
		c3.398,8.361,6.91,16.646,10.688,24.815c0.957,2.056,2.863,4.505,4.81,5.077c7.129,2.059,14.459,3.512,21.746,4.961
		c1.38,0.263,2.945-0.457,4.432-0.72c-0.879-1.376-1.453-3.052-2.633-4.085c-7.795-6.889-14.25-14.795-19.336-23.889
		c1.574,1.326,3.253,2.515,4.599,4.033c3.624,4.165,6.716,8.862,10.654,12.71c8.667,8.549,17.709,16.718,26.686,24.933
		c1.112,1.036,2.784,1.416,4.237,2.1c0.226-0.385,0.498-0.764,0.727-1.145c-0.842-0.992-1.6-2.055-2.554-2.941
		c-10.579-10-21.073-20.194-31.874-29.973c-7.789-7.025-9.783-15.8-8.09-25.458c1.715-9.961,4.006-19.921,2.787-29.999
		c-0.695-5.537-0.535-11.678-5.611-16.074c-7.102-6.15-13.486-13.282-21.041-18.782c-6.57-4.774-12.521-12.483-22.748-8.858
		C77.301,5.9,72.306,7.473,67.8,12.2c2.512,0,3.965,0,5.837,0C72.457,13.643,71.658,14.676,70.058,16.625z M96.319,9.361
		c4.584,3.472,9.047,7.066,13.743,10.381c6.529,4.621,12.334,9.698,16.61,16.717c3.925,6.49,2.866,13.323,2.364,19.893
		c-0.912,12.31-3.029,24.593-4.67,36.862c-3.678-3.245-1.43-7.476-1.393-11.015c0.041-5.799,1.033-11.569,1.64-17.369
		c0.532-5.234,1.414-10.457,1.526-15.691c0.16-6.716-1.254-13.322-6.408-18.022c-6.451-5.917-13.406-11.257-20.125-16.87
		c-1.449-1.22-2.784-2.516-4.195-3.781C95.718,10.095,96.017,9.752,96.319,9.361z"/>
	<path fill="#444A54" d="M61.164,74.987c0.341,1.569,0.912,3.245,1.867,4.504c5.302,7.026,12.139,11.677,21.453,12.902
		c-2.945,4.348-2.092,6.874,3.092,7.293c0.531,0.036,1.072,0.456,1.6,0.76c6.329,3.624,12.674,7.212,19,10.837
		c0.613-0.264,1.188-0.537,1.762-0.836c-2.559-6.113-5.199-12.137-7.638-18.246c-1.864-4.661-4.044-9.318-5.155-14.202
		C94.93,68.494,86.308,57.844,76.53,56.012c-3.206-0.616-6.291-2.096-9.314-3.432c-3.399-1.492-6.878-1.532-9.051,1.256
		c-1.604,2.056-3.049,6.912-2.093,7.749C60.324,65.367,60.125,70.29,61.164,74.987z M75.944,79.451
		c0.718-1.492,1.411-3.012,1.712-4.62c0.299-1.609,0.074-3.321,0.074-6.15c2.555,0.724,4.422,1.22,7.027,2.028
		c-3.434,3.362-2.405,5.878-0.26,8.402c1.025,1.216,1.713,2.709,2.664,4.238c3.554-1.832,3.666-2.552,0.229-5.154
		c-2.594-1.988-3.506-4.281-1.033-6.873c1.873-1.948,4.164-1.639,5.076,0.8c1.34,3.433,2.444,7.096,2.793,10.761
		c0.492,5.234-0.654,6.297-6.078,6.412c-2.513,0.077-5.077-0.342-7.557-0.875C73.691,86.938,72.999,85.484,75.944,79.451z"/>
	<path fill="#444A54" d="M203.095,188.479c4.385,6.336,7.782,13.361,7.557,21.191c-0.229,7.629-3.787,14.395-8.371,20.377
		c-4.004,5.264-8.506,10.158-12.484,15.422c-1.064,1.451-2.023,4.238-1.332,5.533c3.242,6.152,7.248,11.756,14.239,14.359
		c1.259,0.459,2.218,1.754,3.283,2.67c-1.371,0.613-2.706,1.529-4.118,1.717c-3.744,0.457-7.488,0.613-11.22,0.875
		c0.04,0.498,0.079,1.033,0.113,1.529c5.725,1.6,11.533,1.6,17.177-0.652c1.446-0.572,3.363-2.172,3.406-3.4
		c0.031-1.221-1.721-3.09-3.092-3.666c-7.832-3.207-14.045-8.053-17.631-15.994c8.894-9.004,17.242-18.479,22.06-30.535
		c2.101-5.234,2.979-10.578,1.073-15.918c-1.453-4.043-3.244-8.088-5.609-11.646c-6.957-10.461-14.125-20.73-21.413-30.955
		c-1.881-2.631-4.427-4.807-6.677-7.213c-0.389,0.34-0.76,0.652-1.146,0.953c0.61,1.533,0.957,3.209,1.872,4.504
		C188.171,167.94,195.805,178.098,203.095,188.479z"/>
	<path fill="#444A54" d="M19.253,269.749c5.193,3.781,7.442,3.164,11.328-2.135c0.76-1.033,2.214-1.57,2.867-2.633
		c0.957-1.568,1.878-3.361,1.955-5.076c0.035-0.617-2.451-1.641-3.89-1.949c-5.657-1.221-11.418-2.059-17.03-3.404
		c-4.384-1.033-8.661-2.633-13.02-3.965c-0.347,0.223-0.685,0.455-1.039,0.652c0.96,1.986,1.492,4.5,3.014,5.836
		C8.481,261.54,13.791,265.741,19.253,269.749z"/>
	<path fill="#444A54" d="M33.713,154.92c7.03-9.084,14.357-17.942,21.495-26.911c2.292-2.865,5.155-5.496,4.424-9.844
		c-0.2-1.113,0.718-2.592,1.531-3.549c4.691-5.652,9.501-11.15,14.273-16.717c-0.034-0.42-0.115-0.799-0.262-1.139
		c-1.22,0.459-2.591,0.719-3.664,1.452c-0.912,0.653-1.599,1.716-2.172,2.748c-4.084,7.026-13.398,10.837-12.785,20.809
		c0.04,0.575-0.881,1.179-1.34,1.755c-7.983,10.158-16.068,20.196-23.818,30.5c-3.666,4.879-8.09,7.553-14.24,7.98
		c-3.013,0.195-5.916,1.6-8.9,2.447C18.375,165.418,27.183,163.36,33.713,154.92z"/>
</g>
</svg>
