<?xml version="1.0" encoding="utf-8"?>
<svg version="1.1" id="Layer_1" xmlns="http://www.w3.org/2000/svg" xmlns:xlink="http://www.w3.org/1999/xlink" x="0px" y="0px"
	 width="48px" height="48px" viewBox="0 0 48 48" enable-background="new 0 0 48 48" xml:space="preserve">
<path fill="#434a54" d="M39.977,5.328c-0.189-0.579-0.606-1.109-1.158-2.074c-1.467,3.865-2.046,4.311-3.732,3.809
	c-5.252-1.604-10.338-2.018-15.73,0.164C12.664,9.937,9.017,15.299,5.784,21.131C2.44,27.183,3.547,33.563,8.248,38.65
	c1.82,1.993,4.09,3.041,6.442,4.34c5.279,2.9,15.421,0.579,18.354-2.347c3.763-3.789,6.881-8.294,9.922-12.747
	c2.71-3.952,2.511-9.014,0.938-12.821C42.575,11.878,41.142,8.646,39.977,5.328z M40.64,26.143
	c-2.709,6.132-7.572,10.611-13.048,14.262c-5.668,3.79-14.845,1.631-17.664-3.62c-3.924-7.325-2.103-13.712,2.625-19.731
	c1.744-2.238,3.811-4.257,5.667-6.416c4.122-4.834,9.646-4.144,14.757-3.011c2.045,0.469,3.678,3.315,2.292,6.633
	c-4.091-3.566-8.016-2.928-12.85-1.965c-5.97,1.158-6.938,6.03-9.4,9.452c-1.822,2.54-2.323,7.183-1.355,10.255
	c0.826,2.651,4.254,4.975,7.048,6.441c7.024,3.705,10.53-2.131,14.235-6.273c4.122-4.614,4.784-10.473,4.17-16.418
	c2.625-1.439,4.168,0.494,4.365,2.154C41.802,20.606,41.721,23.705,40.64,26.143z M28.31,28.737
	c-1.023-0.275-1.849-1.185-2.793-1.821c0.219-0.359,0.417-0.749,0.608-1.109c1.107,0.247,2.294,0.275,3.234,0.75
	c0.853,0.417,1.439,1.326,2.153,2.017C30.443,28.652,29.278,29.012,28.31,28.737z M29.278,32.661
	c-1.328,0.332-2.681,0.939-4.009,0.854c-0.494-0.029-0.879-1.659-1.326-2.541c1.715,0,3.403,0,5.116,0
	C29.145,31.524,29.201,32.11,29.278,32.661z M26.768,23.07c-0.029-0.332-0.029-0.662-0.029-0.994
	c2.653-0.305,5.309-0.579,8.043-0.854C34.643,25.004,33.399,25.229,26.768,23.07z M28.643,17.318
	c3.952-1.743,5.498-0.027,6.36,3.099C31.854,21.413,30.635,19.089,28.643,17.318z M17.86,33.818
	c-3.876-0.48-5.215-2.765-3.753-6.323c0.303-0.805,0.141-1.876,0.609-2.483c1.024-1.328,2.13-2.901,3.563-3.538
	c1.109-0.494,3.867,0.029,4.009,0.608c0.471,1.8,0.579,4.068-0.142,5.724C21.177,30.008,19.342,31.829,17.86,33.818z M23.781,36.727
	c-4.199,1.524-5.813,0.761-5.887-2.768C20.294,33.903,22.942,33.312,23.781,36.727z"/>
</svg>
