<?xml version="1.0" encoding="utf-8"?>
<svg version="1.1" id="Layer_1" xmlns="http://www.w3.org/2000/svg" xmlns:xlink="http://www.w3.org/1999/xlink" x="0px" y="0px"
	 width="48px" height="48px" viewBox="0 0 48 48" enable-background="new 0 0 48 48" xml:space="preserve">
<path fill="#434a54" d="M29.054,3.149c-6.848,0-11.509,2.555-15.566,6.051C7.435,14.398,2.298,19.865,2.389,29.14
	c0.09,7.873,10.222,16.888,17.038,16.446c5.838-0.353,10.6-3.021,15.185-6.196c6.696-4.641,10.953-11.095,10.953-19.293
	C45.557,11.608,39.778,2.354,29.054,3.149z M39.075,29.082c-1.563,3.966-4.027,6.543-6.867,9.194
	c-7.203,6.633-19.476,5.346-24.905-2.733c-0.763-1.146-0.877-2.696-1.025-4.138c2.466,5.961,9.715,9.315,17.09,7.662
	C31.24,37.305,39.842,26.47,39.225,18.3c-0.17-2.286-1.792-5.052-3.613-6.516c-7.722-6.192-13.212-4.23-20.238,1.936
	c-3.727,3.262-6.406,7.693-9.138,11.075c0.477-6.192,3.908-11.862,9.811-15.772c2.968-1.993,6.578-3.26,10.072-4.254
	c4.08-1.179,10.342,2.555,12.659,6.313C42.538,17.156,41.562,22.764,39.075,29.082z M20.094,23.913
	c0.877,3.494,0.172,6.788-2.587,9.164c-1.148,1.001-3.374,1.934-4.522,1.471c-1.206-0.472-2.117-2.617-2.436-4.171
	c-1.473-6.867,5.52-15.707,11.277-18.647C19.688,15.979,19.038,19.804,20.094,23.913z M34.957,19.804
	c-2.232,3.494-5.934,3.022-11.54-1.378C27.229,18.858,31.076,19.332,34.957,19.804z M24.623,14.981c3.613,0,6.986,0,10.57,0
	C33.637,18.212,28.406,18.011,24.623,14.981z M34.515,24.032c-3.373,3.496-7.986,2.994-11.097-1.025
	C27.139,23.351,30.668,23.681,34.515,24.032z M32.343,28.846c-3.642,2.586-5.868,2.349-8.428-1.146
	C26.438,28.053,28.964,28.374,32.343,28.846z"/>
</svg>
