<?xml version="1.0" encoding="utf-8"?>
<svg version="1.1" id="Layer_1" xmlns="http://www.w3.org/2000/svg" xmlns:xlink="http://www.w3.org/1999/xlink" x="0px" y="0px"
	 width="48px" height="48px" viewBox="0 0 48 48" enable-background="new 0 0 48 48" xml:space="preserve">
<path fill="#434a54" d="M22.625,45.836c11.082-2.078,20.602-13.539,21.356-25.282c-0.981-3.234-1.328-6.927-3.146-9.551
	c-2.307-3.345-5.394-7.391-8.916-8.4c-5.077-1.445-10.904-0.891-15.872,2.424c-5.365,3.611-8.914,8.372-10.535,14.665
	c-1.88,7.27-2.453,14.399,2.798,20.55C11.976,44.51,16.589,46.964,22.625,45.836z M15.58,8.491c3.345-2.94,5.918-4.759,12.152-4.501
	c1.99,0.286,4.789-0.149,5.801,0.979c2.831,3.289,5.829,6.464,6.381,11.429c0.951,8.63-1.93,15.757-7.213,22.05
	c-4.038,4.88-9.58,7.156-15.843,5.74c-2.138-0.494-4.069-2.71-5.689-4.506C2.596,30.222,6.693,16.339,15.58,8.491z"/>
<path fill="#434a54" d="M24.843,38.791c7.391-4.01,10.905-10.993,11.518-19.335c0.523-4.908-2.168-7.62-6.117-9.639
	c-4.354-2.225-8.164-1.701-11.834,1.556c-5.658,5.047-8.569,11.201-8.43,18.789C10.127,37.643,18.638,42.145,24.843,38.791z
	 M25.681,31.813c-0.402-2.684,1.328-3.957,4.879-3.661C30.59,31.606,29.955,32.102,25.681,31.813z M24.444,27.709
	c-0.812-0.061-1.533-1.009-2.83-1.932c4.56-1.645,8.282-2.999,11.973-4.354c0.148,0.377,0.29,0.721,0.435,1.098
	C31.718,25.779,28.739,28.025,24.444,27.709z M33.965,17.526c0.058,0.635-0.119,1.733-0.517,1.932
	c-3.521,1.645-7.044,3.345-10.735,4.562c-1.789,0.574-2.394-0.723-2.136-3.059c4.304-1.475,8.025-2.771,11.775-3.927
	C32.806,16.891,33.935,17.296,33.965,17.526z M23.804,10.828c1.095-0.665,2.594-0.576,3.928-0.814
	c0.145,0.546,0.286,1.098,0.431,1.642c-1.611,0.895-3.264,1.793-4.905,2.712c-0.316-0.228-0.636-0.436-0.952-0.661
	C22.765,12.734,23,11.292,23.804,10.828z M22.912,15.241c1.988-0.286,3.809-1.556,5.768-2.249c0.923-0.346,1.962-0.403,2.941-0.572
	c-0.197,1.038-0.059,2.366-0.635,3.087c-2.738,3.373-3.898,3.631-10.446,3.059C20.111,16.458,20.656,15.565,22.912,15.241z
	 M14.371,20.76c0.725-1.126,0.031-4.038,3.206-2.363c-0.493,3.957,1.329,6.925,3.118,10.014c1.069,1.878,1.849,4.472,1.475,6.492
	c-0.724,3.722-3.869,4.246-6.404,1.443C12.233,32.477,11.569,25.233,14.371,20.76z"/>
</svg>
