<?xml version="1.0" encoding="utf-8"?>
<svg version="1.1" id="Layer_1" xmlns="http://www.w3.org/2000/svg" xmlns:xlink="http://www.w3.org/1999/xlink" x="0px" y="0px"
	 width="826px" height="104px" viewBox="0 0 826 104" enable-background="new 0 0 826 104" xml:space="preserve">
<g>
	<path fill="#f18500" d="M745.828,92.613c1.346-0.725,2.67-1.812,4.004-3.496c0.359-0.239,0.688-0.343,0.993-0.343
		c1.181,0,2.038,1.54,3.147,2.935L745.828,92.613z"/>
	<path fill="#f18500" d="M736.85,93.665c-0.448-0.24-0.874-0.492-1.262-0.767c0.899,0.249,1.808,0.442,2.707,0.604L736.85,93.665z"
		/>
	<path fill="#f18500" d="M727.843,92.51c-1.175,0-2.447-0.212-3.824-0.674c1.117-0.287,2.223-0.401,3.309-0.401
		c1.335,0,2.646,0.175,3.938,0.434C730.22,92.275,729.083,92.51,727.843,92.51"/>
	<path fill="#f18500" d="M735.588,92.895c-1.433-0.354-2.849-0.748-4.326-1.033c1.52-0.61,2.861-1.588,4.001-2.814
		c-0.826,1.401-1.216,2.854,0.263,3.817L735.588,92.895z"/>
	<path fill="#f18500" d="M735.268,89.047c0.765-1.302,1.99-2.557,2.476-3.347C737.026,86.92,736.199,88.046,735.268,89.047
		 M737.743,85.701c0.021-0.037,0.04-0.067,0.053-0.103C737.784,85.633,737.766,85.664,737.743,85.701"/>
	<path fill="#f18500" d="M750.841,67.442c-5.383,0-12.088-9.19-20.145-10.658c-0.075-0.049-0.141-0.075-0.203-0.075
		c-0.545,0-0.756,1.661-1.072,3.314c-0.321,1.658-0.75,3.314-1.718,3.314c-0.213,0-0.454-0.086-0.73-0.266
		c-6.493-2.183-12.115-5.894-18.092-5.894c-0.188,0-0.376,0-0.561,0.005c-0.248-0.166-0.506-0.238-0.769-0.238
		c-1.271,0-2.734,1.742-4.191,3.491c-1.456,1.745-2.92,3.489-4.188,3.494c-0.267,0-0.524-0.079-0.767-0.245
		c-6.658-2.286-23.595-13.867-14.161-13.867c0.082,0,0.163,0,0.247,0.004c15.002,0.819,24.827,2.892,38.322,3.969
		c11.024,3.172,21.679,7.027,33.002,9.732c0.386,0.033,0.77,0.049,1.148,0.049c2.718,0,5.268-0.758,7.834-1.45
		c-3.797,1.651-7.692,3.281-12.022,4.874C752.151,67.302,751.507,67.442,750.841,67.442"/>
	<path fill="#f18500" d="M799.582,84.42c-3.182,0-6.441-1.031-9.701-2.066l2.76-4.771c3.386,0.247,4.197,2.273,2.04,4.284
		c6.373-4.849,12.596-6.351,18.965-6.351c0.778,0,1.558,0.021,2.341,0.061c-0.351,2.523-0.128,5.392-2.177,6.814l-4.386-2.787
		C806.304,83.243,802.989,84.42,799.582,84.42"/>
	<path fill="#f18500" d="M820.404,76.013c-1.478-0.191-2.967-0.334-4.418-0.437l0.123-0.812l4.444,1.02L820.404,76.013z"/>
	<path fill="#f18500" d="M266.178,104.383c-23.347,0-45.923-2.826-68.6-5.07c-15.352-1.532-30.742-2.782-46.556-2.782
		c-14.058,0-28.457,0.989-43.477,3.659c-2.799,0.413-5.844,0.6-9.079,0.6c-10.881,0-23.894-2.144-36.767-5.189
		c-16.707-3.925-33.162-9.394-44.601-13.018C2.918,70.882,1.462,56.12,4.053,44.561c2.94-11.474,8.9-20.36,9.8-21.244
		C24.448,11.181,32.211,8.555,41.197,8.555c1.163,0,2.352,0.042,3.563,0.114c5.389,0.31,11.344,1.189,18.494,1.189
		c5.954,0,12.743-0.611,20.72-2.67c-8.733,3.139-4.69,8.542,4.756,11.577c4.049,1.299,9.089,2.127,14.502,2.127
		c8.667,0,18.3-2.125,26.357-7.824c11.167-8.363,22.898-11.239,35.046-11.239c8.559,0,17.317,1.427,26.235,3.358
		c19.103,4.17,38.916,10.705,58.156,10.705c2.457,0,4.905-0.107,7.34-0.343c1.637-0.154,3.284-0.219,4.942-0.219
		c9.233,0,18.882,2.087,29.669,2.563c8.567-0.693,17.03-0.996,25.424-0.996c24.139,0,47.694,2.5,71.548,5.338
		c30.511,3.638,61.487,7.836,94.317,7.836c1.738,0,3.478-0.012,5.229-0.033c18.407,0.555,34.51,9.313,50.058,14.126
		c1.788,0.266,3.604,0.375,5.42,0.375c9.706,0,19.557-3.176,27.333-3.179c14.518,0.054,27.04,3.158,39.065,7.043
		c-13.418-1.509-23.215-3.895-38.141-5.243c-0.214-0.012-0.413-0.016-0.602-0.016c-8.646,0,7.674,11.853,14.167,14.338
		c0.26,0.189,0.534,0.271,0.818,0.271c1.264,0,2.743-1.672,4.218-3.347c1.475-1.67,2.953-3.342,4.218-3.342
		c0.283,0,0.554,0.082,0.818,0.268c0.031,0,0.063,0,0.097,0c6.104,0,11.755,4.028,18.351,6.51c0.28,0.196,0.536,0.287,0.755,0.287
		c0.955,0,1.417-1.639,1.767-3.279c0.349-1.638,0.598-3.277,1.128-3.277c0.064,0,0.134,0.03,0.206,0.077
		c8.091,1.744,14.645,11.327,20.053,11.327c0.61,0,1.201-0.121,1.781-0.387c4.351-1.464,8.273-2.978,12.097-4.489
		c1.913-0.45,3.818-0.847,5.81-0.847c0.521,0,1.053,0.03,1.59,0.086l4.941,2.169c-1.255,2.852-1.666,6.288-2.045,9.762
		c0.378-3.475,0.787-6.91,2.045-9.762c11.957,5.038,25.764,9.419,38.612,12.855l-0.151,0.818c-1.191-0.103-2.373-0.154-3.558-0.154
		c-5.946,0-11.806,1.428-17.897,5.823c2.277-1.975,1.547-4.06-1.888-4.426l-2.827,4.689c3.39,1.192,6.782,2.391,10.101,2.391
		c3.244,0,6.417-1.143,9.45-4.529l4.334,2.92c2.071-1.35,1.902-4.235,2.285-6.709c1.456,0.104,2.935,0.31,4.418,0.548
		c-2.977,4.699-12.628,10.975-12.644,10.975c-18.877,0.346-36.633,1.325-53.977,2.614c-1.09-1.418-1.928-3.022-3.137-3.022
		c-0.296,0-0.612,0.099-0.965,0.322c-1.331,1.621-2.681,2.666-4.028,3.358l-7.576,0.622c-0.882-0.19-1.775-0.427-2.683-0.671
		l-0.071-0.042c-1.432-1.017-1.024-2.439-0.159-3.815c-1.18,1.191-2.502,2.129-4.053,2.68c-1.085-0.255-2.191-0.455-3.321-0.529
		c-0.828-0.168-1.646-0.278-2.424-0.278c-2.089,0-3.952,0.77-5.33,3.212l14.509-1.46c-1.335-0.208-2.583-0.388-3.607-0.677
		c-0.112-0.032-0.228-0.067-0.343-0.098c0.173-0.051,0.343-0.109,0.51-0.168c1.47,0.341,2.88,0.779,4.29,1.18l1.246,0.808
		l-17.298,1.581c-1.323-0.229-2.592-0.415-3.623-0.714c-1.918-0.536-3.83-1.08-5.588-1.08c-2.072,0-3.935,0.759-5.321,3.187
		l-3.091,0.31c0.187-0.289,0.403-0.516,0.595-0.832c-0.457,0.284-0.847,0.587-1.156,0.879l-13.097,1.25
		c-2.835-1.732-5.75-3.899-8.68-5.205l-2.936,4.582c-1.186-2.297-2.884-3.815-4.868-4.589c-1.058-0.425-2.201-0.637-3.386-0.637
		c-3.425,0-7.203,1.746-10.419,5.054c1.564,1.154,3.07,1.642,4.506,1.642c3.442,0,6.519-2.819,9.299-6.059
		c1.984,0.773,3.683,2.29,4.868,4.589l2.936-4.582c2.93,1.306,5.845,3.473,8.68,5.21l-26.04,2.322
		c-31.593,3.061-61.833,3.61-92.609,3.61c-8.652,0-17.34-0.044-26.121-0.081c-8.766-0.05-17.613-0.092-26.593-0.092
		c-7.643,0-15.382,0.035-23.238,0.122c-32.092,0.646-63.02,2.089-93.556,4.459C279.205,104.171,272.663,104.383,266.178,104.383
		 M623.695,80.701c-0.48,0.776-1.771,2.043-2.615,3.374C622.051,83.088,622.939,81.932,623.695,80.701 M565.368,79.478
		c0.938,0,1.928,1.108,2.941,2.221c1.017,1.105,2.061,2.213,3.108,2.213c-1.048,0-2.092-1.107-3.107-2.213
		C567.29,80.586,566.305,79.478,565.368,79.478 M571.52,83.912c-0.019,0-0.036,0-0.051,0
		C571.483,83.912,571.501,83.912,571.52,83.912 M573.942,81.174c-0.736,1.776-1.481,2.549-2.227,2.71
		C572.461,83.723,573.206,82.951,573.942,81.174 M574.021,80.985c-0.022,0.045-0.038,0.086-0.054,0.131
		C573.982,81.076,573.998,81.03,574.021,80.985 M564.736,79.669c-0.247,0.149-0.489,0.399-0.727,0.772
		C564.247,80.069,564.489,79.819,564.736,79.669 M564.771,79.649c-0.007,0.009-0.02,0.009-0.029,0.012
		C564.752,79.658,564.765,79.658,564.771,79.649 M679.552,79.525c0.299-0.23,0.6-0.455,0.897-0.667
		C680.188,79.082,679.889,79.303,679.552,79.525 M83.973,7.186c1.012-0.364,2.188-0.695,3.552-0.991
		C86.316,6.556,85.132,6.888,83.973,7.186"/>
	<path fill="#f18500" d="M605.95,89.157c1.381-2.441,3.246-3.211,5.335-3.211c0.777,0,1.593,0.107,2.422,0.272
		c0.919,0.185,1.864,0.437,2.807,0.702c0.121,0.032,0.237,0.067,0.35,0.096c1.018,0.287,2.27,0.471,3.605,0.674L605.95,89.157z"/>
</g>
</svg>
