<?xml version="1.0" encoding="utf-8"?>
<svg version="1.1" id="Layer_1" xmlns="http://www.w3.org/2000/svg" xmlns:xlink="http://www.w3.org/1999/xlink" x="0px" y="0px"
	 width="48px" height="48px" viewBox="0 0 48 48" enable-background="new 0 0 48 48" xml:space="preserve">
<g>
	<path fill="#231F20" d="M40.237,7.763C35.906,3.422,30.131,1.031,24,1.031c-6.131,0-11.906,2.391-16.237,6.731
		C3.431,12.103,1.031,17.869,1.031,24c0,6.131,2.391,11.906,6.731,16.237c4.34,4.331,10.106,6.731,16.237,6.731
		c6.131,0,11.906-2.391,16.237-6.731S46.969,30.131,46.969,24C46.969,17.869,44.578,12.094,40.237,7.763z M44.888,22.969h-8.906
		c-0.085-3.544-0.581-6.956-1.453-9.984c1.696-0.872,3.281-1.969,4.734-3.263C42.544,13.228,44.635,17.859,44.888,22.969z
		 M25.031,25.031h8.896c-0.074,3.263-0.524,6.385-1.303,9.178c-2.4-0.965-4.959-1.527-7.594-1.649V25.031z M37.781,8.288
		c-1.2,1.059-2.513,1.959-3.9,2.709c-0.355-0.994-0.759-1.932-1.209-2.813c-0.891-1.763-1.903-3.207-3.019-4.313
		C32.7,4.725,35.466,6.253,37.781,8.288z M25.031,3.413c2.146,0.478,4.172,2.456,5.803,5.681c0.441,0.872,0.835,1.8,1.182,2.784
		c-2.203,0.91-4.557,1.444-6.984,1.566V3.413z M32.635,13.856c0.769,2.775,1.209,5.878,1.284,9.122h-8.888v-7.462
		C27.675,15.394,30.234,14.822,32.635,13.856z M22.969,22.969h-8.897c0.075-3.244,0.516-6.347,1.285-9.122
		c2.4,0.975,4.969,1.538,7.603,1.65v7.472H22.969z M22.978,3.413v10.031c-2.428-0.122-4.791-0.656-6.984-1.566
		c0.347-0.984,0.741-1.912,1.181-2.784C18.806,5.869,20.831,3.891,22.978,3.413z M18.356,3.872
		c-1.116,1.106-2.128,2.559-3.019,4.313c-0.44,0.881-0.844,1.818-1.209,2.813c-1.387-0.75-2.69-1.65-3.9-2.709
		C12.544,6.253,15.31,4.725,18.356,3.872z M8.747,9.722c1.453,1.294,3.037,2.381,4.734,3.263c-0.872,3.038-1.378,6.44-1.453,9.984
		H3.122C3.375,17.859,5.466,13.228,8.747,9.722z M3.122,25.031h8.906c0.084,3.572,0.59,6.994,1.472,10.041
		c-1.688,0.871-3.272,1.949-4.716,3.243C5.475,34.8,3.375,30.159,3.122,25.031z M10.266,39.75c1.2-1.05,2.503-1.95,3.881-2.69
		c0.356,0.966,0.75,1.894,1.19,2.756c0.891,1.763,1.903,3.206,3.019,4.322C15.328,43.284,12.572,41.766,10.266,39.75z
		 M22.978,44.588c-2.147-0.479-4.172-2.457-5.803-5.682c-0.431-0.854-0.815-1.763-1.162-2.729c2.193-0.909,4.547-1.443,6.965-1.556
		V44.588z M15.384,34.209c-0.778-2.793-1.228-5.915-1.303-9.178h8.897v7.528C20.344,32.672,17.784,33.234,15.384,34.209z
		 M25.041,44.588v-9.966c2.418,0.122,4.771,0.646,6.965,1.556c-0.347,0.966-0.73,1.875-1.162,2.729
		C29.213,42.131,27.188,44.109,25.041,44.588L25.041,44.588z M29.662,44.128c1.116-1.106,2.129-2.56,3.02-4.321
		c0.44-0.863,0.834-1.791,1.19-2.757c1.378,0.741,2.681,1.641,3.881,2.69C35.447,41.766,32.69,43.284,29.662,44.128z M39.244,38.315
		c-1.444-1.284-3.028-2.372-4.716-3.243c0.881-3.047,1.388-6.479,1.472-10.041h8.906C44.644,30.159,42.544,34.8,39.244,38.315z"/>
</g>
</svg>
