<?xml version="1.0" encoding="utf-8"?>
<!-- Generator: Adobe Illustrator 23.0.1, SVG Export Plug-In . SVG Version: 6.00 Build 0)  -->
<svg version="1.1" id="Layer_1" xmlns="http://www.w3.org/2000/svg" xmlns:xlink="http://www.w3.org/1999/xlink" x="0px" y="0px"
	 viewBox="0 0 274 599" style="enable-background:new 0 0 274 599;" xml:space="preserve">
<style type="text/css">
	.st0{fill:#F2F2F2;}
</style>
<g>
	<path class="st0" d="M150.28,310.32c6.93-5.05,12.85-9.24,18.56-13.63c2.27-1.72,4.86-3.84,1.57-6.85
		c-9.28,3.33-17.66,8.5-27.46,9.44c8.42-4.7,17.12-8.66,25.73-12.81c3.84-1.84,3.92-4.62,0.7-7.17c-3.52-2.78-6.89-5.76-10.42-8.58
		c-0.9-0.7-2.04-1.49-3.09-1.57c-3.92-0.2-7.87-0.16-11.83-0.2c-9.63-0.08-18.21-3.68-26.67-7.83
		c-11.59-5.64-23.26-11.12-34.98-16.49c-1.21-0.55-3.68-0.47-4.39,0.35c-5.29,6.27-13.59,10.61-13.59,20.48
		c0,1.06-1.06,2.19-1.8,3.13c-8.62,10.89-17.66,21.46-25.81,32.66c-6.19,8.54-14.84,10.14-24.13,11.2
		c-1.17,0.16-2.27,0.78-3.41,1.21c1.17,0.74,2.31,2.11,3.52,2.15c3.33,0.12,6.74-0.67,10.07-0.47c7.21,0.43,12.89-0.82,17.12-7.91
		c7.05-11.87,16.49-21.93,26.55-31.33c2.62-2.47,5.76-5.21,9.09-5.95c6.15-1.41,12.49-0.04,17.66,3.64
		c13.63,9.75,27.02,19.86,40.46,29.88c0.63,0.47,1.14,2.39,0.78,2.7c-7.68,7.6-15.27,15.24-23.26,22.44
		c-6.7,6.03-14.02,11.44-20.84,17.35c-11.16,9.71-21.85,20.01-33.37,29.34c-8.9,7.27-16.89,16.4-29.86,17.97
		c2.23,7.95,9.16,9.79,14.45,13.39c0.47,0.35,1.92,0.04,2.47-0.47c4.9-4.62,9.83-9.28,14.53-14.1c3.05-3.09,5.52-6.7,8.62-9.75
		c6.81-6.7,14.02-13.04,20.76-19.86c7.17-7.21,14.02-14.8,20.99-22.21c-3.05,5.72-6.89,10.81-10.85,15.74
		c-9.16,11.44-18.21,22.99-27.69,34.15c-5.17,6.11-11.36,11.2-19.58,13.08c-3.8,0.86-5.56,4.82-2.74,6.19
		c5.25,2.55,10.97,4.07,16.57,5.87c1.96,0.63,4.31,0.39,6.15,1.25c9.09,4.31,18.06,9.01,28.4,2.74c-0.39,3.68,1.76,5.29,4.9,5.44
		c3.88,0.2,7.99,0.74,11.67-0.2c2.98-0.74,7.44,0.9,8.85-4.11c2.94-10.3,6.19-20.52,9.2-30.78c1.45-4.93,3.02-9.87,3.92-14.88
		c1.29-7.13,1.88-14.33,2.94-21.5c1.17-7.87,2.47-15.71,3.84-23.54c0.74-4.31,1.76-8.58,2.86-13.9c0.98,1.72,1.68,2.39,1.64,2.98
		c-0.82,9.83-1.76,19.7-2.66,29.53c-0.31,3.64-0.35,7.4-1.1,10.97c-1.61,7.75-0.43,15.82-4.15,23.5c-2.15,4.46-0.59,10.61-1.45,15.9
		c-0.7,4.31-2.04,8.69-4.03,12.53c-1.17,2.23-4.31,3.37-6.38,5.21c-2.62,2.31-2.15,4.46,1.17,5.56c2.35,0.74,4.74,1.17,7.09,1.88
		c6.85,2.04,13.43-2.35,20.6-0.35c4.23,1.17,9.36-0.82,14.06-1.57c5.68-0.9,6.7-2.86,5.6-8.42c-1.29-6.46-2.23-13-3.21-19.54
		c-1.25-8.34-2.27-16.72-3.56-25.07c-1.53-9.95-3.21-19.9-4.82-29.84c0.51-0.12,1.02-0.23,1.53-0.35c0.39,0.59,0.98,1.14,1.14,1.76
		c1.45,5.99,2.82,11.95,4.19,17.94c1.8,7.91,3.6,15.78,5.29,23.73c1.1,5.29,2,10.61,3.05,15.9c1.17,6.11,5.52,12.18-0.12,18.29
		c-0.43,0.47-0.04,1.68-0.04,4.03c7.64-2.23,14.49-4.23,21.89-6.38c-2.94-3.17-5.44-5.87-7.99-8.58c-7.36-7.79-7.4-11.59-0.12-19.39
		c1.17-1.25,2.51-2.39,3.64-3.68c4.11-4.62,8.77-8.93,12.02-14.1c5.4-8.62,3.09-17.82-1.61-25.69
		c-8.03-13.47-17.19-26.24-25.69-39.4c-1.37-2.15-1.76-4.97-2.78-7.99c-0.67,0.35-2.19,0.9-3.56,1.72
		c-7.72,4.5-15.35,9.09-23.07,13.51C153.38,310.98,152.24,310.51,150.28,310.32z M84.99,403.77c-2.94,4.39-7.95,7.05-14.18,8.46
		c16.14-23.42,31.76-46.1,47.43-68.81c0.31,0.12,0.63,0.23,0.94,0.35c-1.25,2.47-2.43,4.93-3.72,7.4
		c-3.84,7.25-7.48,14.57-11.59,21.66C97.8,383.28,91.77,393.78,84.99,403.77z M128.27,358.84c-4.31,13.08-8.77,26.08-13.2,39.13
		c-1.06,3.02-2.58,5.91-3.33,9.01c-1.57,6.46-6.78,8.77-12.45,11.83c5.72-12.77,11.87-24.32,15.63-37.17
		c3.6-12.26,10.1-23.7,15.31-35.48c0.43,0.12,0.86,0.27,1.29,0.43C130.47,350.66,129.6,354.81,128.27,358.84z M155.73,315.37
		c0.7-0.04,1.41-0.08,2.11-0.12c0.55,3.8,1.37,7.6,1.57,11.48c0.27,6.03,0.08,12.14,0.12,18.21c0,3.92-0.12,7.83,0.12,11.71
		c0.51,8.66,1.72,17.27,1.68,25.89c-0.04,9.48-0.74,19.03-1.96,28.43c-0.43,3.25-3.29,6.15-5.01,9.24c-0.67-0.2-1.29-0.39-1.96-0.59
		c0.82-17.51,1.84-35.05,2.39-52.56C155.34,349.83,155.45,332.6,155.73,315.37z"/>
	<path class="st0" d="M14.38,518.13c5.99-2.82,12.02-5.6,18.84-8.77c0,4.78,0,9.05,0,13.71c-2.19,1.49-5.17,3.29-7.79,5.33
		c-4.93,3.8-7.75,9.16-4.03,14.84c1.17,1.8,1.76,4.19,3.29,5.48c2.58,2.19,5.37,6.78,9.09,3.84c4.97-3.92,9.63-8.66,13.08-13.9
		c3.92-5.99,6.46-12.92,12.85-17c4.5-2.9,9.13-5.64,13.71-8.46c0.31,0.39,0.67,0.78,0.98,1.17c-0.63,0.94-1.06,2.08-1.88,2.74
		c-3.88,3.02-7.79,5.91-11.79,8.77c-3.17,2.27-5.33,8.38-3.76,10.93c1.68,2.74,5.91,2.86,10.5,0.74c2.04-0.94,4.5-0.86,6.62-1.68
		c4.58-1.8,4.78,0.63,4.82,4.15c0.12,8.89,0.43,17.78,0.94,26.63c0.16,2.66,1.21,5.29,1.84,7.95c0.59-0.04,1.14-0.08,1.72-0.12
		c2-6.23,4.35-12.34,3.76-19.27c-0.23-2.51,0.55-5.09,0.86-7.64c2.27,0.55,4.78,0.67,6.74,1.76c2.9,1.64,5.29,2.7,7.48-0.67
		c-1.72-7.48-9.16-6.81-13.71-9.79c0-1.96,0-3.72,0-5.52c5.84-0.82,12.06,1.53,16.76-4.07c-0.63-0.9-1.1-2.19-2-2.82
		c-3.05-2.11-6.31-3.99-9.44-5.99c-3.64-2.31-4.27-2.04-5.33,2.39c-0.86-0.98-1.64-2.47-1.21-3.25c1.88-3.49,4.07-6.81,6.19-10.18
		c2.55-3.99,2.19-6.85-2.23-8.19c-3.76-1.14-3.17-2.94-2.82-5.72c1.64,0,3.05-0.08,4.43,0c4.78,0.27,9.56,0.67,14.37,0.9
		c2.66,0.12,4.82-0.9,4.27-4.03c-0.59-3.21-11.44-7.68-14.53-6.19c-3.96,1.92-9.95,1.1-11.48-1.49c-0.9-1.49-1.84-2.94-2.78-4.46
		c0.86-1.33,1.88-2.94,3.29-5.21c-3.6-2.19-6.74-4.07-9.91-5.99c1.64-1.45,3.29-3.02,5.13-4.39c1.96-1.41,4.11-2.55,6.07-3.96
		c4.7-3.29,4.03-8.5-0.9-11.32c-4.74-2.7-8.85-1.21-13.28,0.51c-4.97,1.92-7.52,0.67-9.32-4.11c-1.84-4.9-6.7-7.28-12.06-5.95
		c0.98,3.41-2.74,11.95-5.84,13.36c-5.21,2.35-7.64,7.79-5.25,12.73c1.21,2.55,3.02,5.33,6.85,3.88c5.76-2.19,11.51-4.39,17.27-6.54
		c0.16-0.04,0.51,0.27,0.74,0.43c-4.86,5.72-11.48,10.22-18.64,12.14c-4.15,1.1-5.44,3.68-4.82,7.52c0.55,3.21,2.62,4.74,5.87,4.7
		c0.82,0,1.68,0.23,2.51,0.35c0.16,0.43,0.31,0.9,0.47,1.33c-7.79,4.11-15.47,8.58-23.46,12.3c-7.4,3.41-15.2,6.03-23.5,6.81
		c-1.45,0.12-3.6,1.49-3.88,2.66c-0.35,1.45,0.43,3.68,1.49,4.9C5.21,520.64,8.5,520.91,14.38,518.13z M51.59,507.12
		c6.54-8.54,16.21-10.1,25.93-11.44c0.63-0.08,2.08,1.14,2,1.29c-0.74,1.8-1.25,4.27-2.62,5.01c-4.31,2.31-9.05,3.88-13.55,5.84
		c-2.55,1.1-4.93,2.47-7.44,3.68c-0.82,0.39-1.72,0.67-3.02,1.14c-0.98-0.86-2.27-1.72-3.09-2.94
		C49.59,509.36,50.92,507.99,51.59,507.12z M38.9,535.36c-5.64,7.05-7.6,7.72-12.38,4.39C29.5,534.23,34,532.62,38.9,535.36z"/>
	<path class="st0" d="M14.38,78.66c5.99-2.82,12.02-5.6,18.84-8.77c0,4.78,0,9.05,0,13.71c-2.19,1.49-5.17,3.29-7.79,5.33
		c-4.93,3.8-7.75,9.16-4.03,14.84c1.17,1.8,1.76,4.19,3.29,5.48c2.58,2.19,5.37,6.78,9.09,3.84c4.97-3.92,9.63-8.66,13.08-13.9
		c3.92-5.99,6.46-12.92,12.85-17c4.5-2.9,9.13-5.64,13.71-8.46c0.31,0.39,0.67,0.78,0.98,1.17c-0.63,0.94-1.06,2.08-1.88,2.74
		c-3.88,3.02-7.79,5.91-11.79,8.77c-3.17,2.27-5.33,8.38-3.76,10.93c1.68,2.74,5.91,2.86,10.5,0.74c2.04-0.94,4.5-0.86,6.62-1.68
		c4.58-1.8,4.78,0.63,4.82,4.15c0.12,8.89,0.43,17.78,0.94,26.63c0.16,2.66,1.21,5.29,1.84,7.95c0.59-0.04,1.14-0.08,1.72-0.12
		c2-6.23,4.35-12.34,3.76-19.27c-0.23-2.51,0.55-5.09,0.86-7.64c2.27,0.55,4.78,0.67,6.74,1.76c2.9,1.64,5.29,2.7,7.48-0.67
		c-1.72-7.48-9.16-6.81-13.71-9.79c0-1.96,0-3.72,0-5.52c5.84-0.82,12.06,1.53,16.76-4.07c-0.63-0.9-1.1-2.19-2-2.82
		c-3.05-2.11-6.31-3.99-9.44-5.99c-3.64-2.31-4.27-2.04-5.33,2.39c-0.86-0.98-1.64-2.47-1.21-3.25c1.88-3.49,4.07-6.81,6.19-10.18
		c2.55-3.99,2.19-6.85-2.23-8.19c-3.76-1.14-3.17-2.94-2.82-5.72c1.64,0,3.05-0.08,4.43,0c4.78,0.27,9.56,0.67,14.37,0.9
		c2.66,0.12,4.82-0.9,4.27-4.03c-0.59-3.21-11.44-7.68-14.53-6.19c-3.96,1.92-9.95,1.1-11.48-1.49c-0.9-1.49-1.84-2.94-2.78-4.46
		c0.86-1.33,1.88-2.94,3.29-5.21c-3.6-2.19-6.74-4.07-9.91-5.99c1.64-1.45,3.29-3.02,5.13-4.39c1.96-1.41,4.11-2.55,6.07-3.96
		c4.7-3.29,4.03-8.5-0.9-11.32c-4.74-2.7-8.85-1.21-13.28,0.51c-4.97,1.92-7.52,0.67-9.32-4.11c-1.84-4.9-6.7-7.28-12.06-5.95
		c0.98,3.41-2.74,11.95-5.84,13.36c-5.21,2.35-7.64,7.79-5.25,12.73c1.21,2.55,3.02,5.33,6.85,3.88c5.76-2.19,11.51-4.39,17.27-6.54
		c0.16-0.04,0.51,0.27,0.74,0.43c-4.86,5.72-11.48,10.22-18.64,12.14c-4.15,1.1-5.44,3.68-4.82,7.52c0.55,3.21,2.62,4.74,5.87,4.7
		c0.82,0,1.68,0.23,2.51,0.35c0.16,0.43,0.31,0.9,0.47,1.33c-7.79,4.11-15.47,8.58-23.46,12.3c-7.4,3.41-15.2,6.03-23.5,6.81
		c-1.45,0.12-3.6,1.49-3.88,2.66c-0.35,1.45,0.43,3.68,1.49,4.9C5.21,81.16,8.5,81.44,14.38,78.66z M51.59,67.65
		c6.54-8.54,16.21-10.1,25.93-11.44c0.63-0.08,2.08,1.14,2,1.29c-0.74,1.8-1.25,4.27-2.62,5.01c-4.31,2.31-9.05,3.88-13.55,5.84
		c-2.55,1.1-4.93,2.47-7.44,3.68c-0.82,0.39-1.72,0.67-3.02,1.14c-0.98-0.86-2.27-1.72-3.09-2.94
		C49.59,69.88,50.92,68.51,51.59,67.65z M38.9,95.89c-5.64,7.05-7.6,7.72-12.38,4.39C29.5,94.75,34,93.15,38.9,95.89z"/>
	<path class="st0" d="M72.62,157.73c3.33-0.98,5.52-1.61,7.52-2.19c-0.24,1.8-0.43,3.41-0.63,5.01c1.76-1.1,3.52-2.19,5.6-3.45
		c0.55,1.1,1.14,2.31,2.11,4.35c1.21-2,2.27-3.49,3.13-5.09c0.9-1.72,1.8-3.02,3.76-1.17c7.44,7.01,14.96,13.98,22.36,21.03
		c1.14,1.1,2.74,2.66,2.7,3.99c-0.12,6.46,0.35,13.24-1.37,19.35c-2.43,8.58-6.78,16.61-9.95,24.99c-0.63,1.64-0.23,4.07,0.47,5.84
		c3.49,8.58,7.09,17.08,10.97,25.46c0.98,2.11,2.94,4.62,4.93,5.21c7.32,2.11,14.84,3.6,22.32,5.09c1.41,0.27,3.02-0.47,4.54-0.74
		c-0.9-1.41-1.49-3.13-2.7-4.19c-8-7.07-14.62-15.18-19.84-24.51c1.62,1.36,3.34,2.58,4.72,4.14c3.72,4.27,6.89,9.09,10.93,13.04
		c8.89,8.77,18.17,17.15,27.38,25.58c1.14,1.06,2.86,1.45,4.35,2.15c0.23-0.39,0.51-0.78,0.74-1.17c-0.86-1.02-1.64-2.11-2.62-3.02
		c-10.85-10.26-21.62-20.72-32.7-30.75c-7.99-7.21-10.03-16.21-8.3-26.12c1.76-10.22,4.11-20.44,2.86-30.78
		c-0.71-5.68-0.55-11.98-5.76-16.49c-7.28-6.31-13.83-13.63-21.58-19.27c-6.74-4.9-12.85-12.81-23.34-9.09
		c-5.17,1.8-10.3,3.41-14.92,8.26c2.58,0,4.07,0,5.99,0C75.08,154.67,74.26,155.73,72.62,157.73z M99.56,150.28
		c4.7,3.56,9.28,7.25,14.1,10.65c6.7,4.74,12.65,9.95,17.04,17.15c4.03,6.66,2.94,13.67,2.43,20.41
		c-0.94,12.63-3.11,25.23-4.79,37.82c-3.77-3.33-1.47-7.67-1.43-11.3c0.04-5.95,1.06-11.87,1.68-17.82
		c0.55-5.37,1.45-10.73,1.57-16.1c0.16-6.89-1.29-13.67-6.58-18.49c-6.62-6.07-13.75-11.55-20.64-17.31
		c-1.49-1.25-2.86-2.58-4.31-3.88C98.94,151.03,99.25,150.68,99.56,150.28z"/>
	<path class="st0" d="M237.11,464.51c5.21,0,16.33-2.94,20.6-5.76c5.44-3.72,10.57-7.72,14.14-13.67
		c3.49-5.87,2.19-15.71-1.96-20.21c-6.11-6.66-14.37-8.97-22.36-11.91c-0.98-0.39-2.43,0.16-3.56,0.51
		c-2.04,0.63-4.07,1.37-6.03,2.19c-10.07,4.19-18.17,9.91-21.58,21.35C212.52,449.94,222.58,466.04,237.11,464.51z M222.35,450.41
		c6.03,7.28,13.47,7.95,21.89,8.62C236.29,463.81,225.68,461.22,222.35,450.41z M227.4,443.09c2.51-10.81,13.28-17.7,23.46-15.98
		c-1.96,3.02-4.27,5.84-5.68,9.09c-2.47,5.44-6.07,9.67-11.4,12.26c-1.57,0.74-4.5,1.14-5.44,0.23
		C227.24,447.63,226.97,444.85,227.4,443.09z M246.87,452.57c-3.21-0.9-3.84-3.21-2-7.05c1.68,1.25,3.17,2.11,4.35,3.29
		c0.71,0.74,0.86,2,1.29,3.02C249.29,452.1,247.92,452.88,246.87,452.57z M253.17,447.4c-3.37-1.21-4.7-4.9-3.6-7.99
		c2.39,1.72,4.9,3.52,7.44,5.33c-0.12,0.47-0.27,0.98-0.39,1.49C255.48,446.65,254.07,447.71,253.17,447.4z M254.54,432.83
		c0.08-1.06,1.06-2,1.61-3.02c0.9,0.67,2.11,1.1,2.58,1.96c1.76,3.17,3.37,6.5,0.55,10.26
		C255.72,439.95,254.27,436.78,254.54,432.83z M223.44,432.28c4.62-7.32,11.67-11.67,19.78-14.26c9.6-3.05,23.42,5.4,25.97,15.55
		c1.45,5.87-6.5,17.98-13.08,19.39c2.11-2.43,4.15-4.58,5.99-6.89c6.15-7.75,2.27-19.27-7.4-22.01
		c-14.26-4.03-26.32,2.58-31.33,17.08c-0.43,1.25-1.45,2.31-2.7,4.27C219.68,439.99,221.13,435.92,223.44,432.28z"/>
	<path class="st0" d="M63.49,217.61c0.35,1.61,0.94,3.33,1.92,4.62c5.44,7.21,12.45,11.98,22.01,13.24
		c-3.02,4.46-2.15,7.05,3.17,7.48c0.55,0.04,1.1,0.47,1.64,0.78c6.5,3.72,13,7.4,19.5,11.12c0.63-0.27,1.21-0.55,1.8-0.86
		c-2.62-6.27-5.33-12.45-7.83-18.72c-1.92-4.78-4.15-9.56-5.29-14.57c-2.27-9.75-11.12-20.68-21.15-22.56
		c-3.29-0.63-6.46-2.15-9.56-3.52c-3.49-1.53-7.05-1.57-9.28,1.29c-1.65,2.11-3.13,7.09-2.15,7.95
		C62.63,207.74,62.43,212.79,63.49,217.61z M78.65,222.19c0.74-1.53,1.45-3.09,1.76-4.74s0.08-3.41,0.08-6.31
		c2.62,0.74,4.54,1.25,7.21,2.08c-3.52,3.45-2.47,6.03-0.27,8.62c1.06,1.25,1.76,2.78,2.74,4.35c3.64-1.88,3.76-2.62,0.23-5.29
		c-2.66-2.04-3.6-4.39-1.06-7.05c1.92-2,4.27-1.68,5.21,0.82c1.37,3.52,2.51,7.28,2.86,11.04c0.51,5.37-0.67,6.46-6.23,6.58
		c-2.58,0.08-5.21-0.35-7.75-0.9C76.34,229.87,75.63,228.38,78.65,222.19z"/>
	<path class="st0" d="M188.82,527.1c10.65-1.21,19.86-4.7,25.69-14.53c4.19-7.01,7.09-14.69,5.52-22.56
		c-2.47-12.3-10.77-17.98-23.42-17.98c-17.9-1.25-30.12,11.51-34,27.22C159.17,513.19,174.17,528.78,188.82,527.1z M170.53,493.34
		c6.89-14.49,18.13-19.7,32.63-17.08c3.99,0.7,8.81,5.95,10.26,10.14c4.97,14.53-6.27,37.21-25.85,37.33
		C172.65,524.59,163.64,507.75,170.53,493.34z"/>
	<path class="st0" d="M142.92,544.37c-8.97-0.51-26.52,10.85-29.49,26.16c-1.8,9.28-0.51,17.39,7.05,23.34
		c8.58,6.74,21.42,7.44,29.77,2.27c6.19-3.84,10.42-9.44,13.83-15.74c3.76-6.93,5.8-14.73,2.31-21.58
		C161.99,550.21,154.32,544.45,142.92,544.37z M161.92,568.97c-1.84,9.75-6.42,17.86-14.49,23.58c-3.02,2.11-6.97,2.86-9.16,3.72
		c-12.3-1.1-21.19-8.03-19.47-21.66c1.57-12.42,8.38-19.9,18.64-25.07c6.23-3.13,12.49-1.61,17.82,2.43
		C160.78,556.16,163.25,561.84,161.92,568.97z"/>
	<path class="st0" d="M209.11,334.05c4.5,6.5,7.99,13.71,7.75,21.74c-0.23,7.83-3.88,14.77-8.58,20.91
		c-4.11,5.4-8.73,10.42-12.81,15.82c-1.1,1.49-2.08,4.35-1.37,5.68c3.33,6.31,7.44,12.06,14.61,14.73c1.29,0.47,2.27,1.8,3.37,2.74
		c-1.41,0.63-2.78,1.57-4.23,1.76c-3.84,0.47-7.68,0.63-11.51,0.9c0.04,0.51,0.08,1.06,0.12,1.57c5.87,1.64,11.83,1.64,17.62-0.67
		c1.49-0.59,3.45-2.23,3.49-3.49c0.04-1.25-1.76-3.17-3.17-3.76c-8.03-3.29-14.41-8.26-18.09-16.41
		c9.13-9.24,17.7-18.96,22.64-31.33c2.15-5.37,3.05-10.85,1.1-16.33c-1.49-4.15-3.33-8.3-5.76-11.95
		c-7.13-10.73-14.49-21.27-21.97-31.76c-1.92-2.7-4.54-4.93-6.85-7.4c-0.39,0.35-0.78,0.67-1.17,0.98c0.63,1.57,0.98,3.29,1.92,4.62
		C193.8,312.98,201.63,323.4,209.11,334.05z"/>
	<path class="st0" d="M20.49,417.43c5.33,3.88,7.64,3.25,11.63-2.19c0.78-1.06,2.27-1.61,2.94-2.7c0.98-1.61,1.92-3.45,2-5.21
		c0.04-0.63-2.51-1.68-3.99-2c-5.8-1.25-11.71-2.11-17.47-3.49c-4.5-1.06-8.89-2.7-13.36-4.07c-0.35,0.23-0.7,0.47-1.06,0.67
		c0.98,2.04,1.53,4.62,3.09,5.99C9.44,409.01,14.89,413.32,20.49,417.43z"/>
	<path class="st0" d="M35.33,299.62c7.21-9.32,14.73-18.41,22.05-27.61c2.35-2.94,5.29-5.64,4.54-10.1
		c-0.2-1.14,0.74-2.66,1.57-3.64c4.82-5.8,9.75-11.44,14.65-17.15c-0.04-0.43-0.12-0.82-0.27-1.17c-1.25,0.47-2.66,0.74-3.76,1.49
		c-0.94,0.67-1.64,1.76-2.23,2.82c-4.19,7.21-13.75,11.12-13.12,21.35c0.04,0.59-0.9,1.21-1.37,1.8
		c-8.19,10.42-16.49,20.72-24.44,31.29c-3.76,5.01-8.3,7.75-14.61,8.19c-3.09,0.2-6.07,1.64-9.13,2.51
		C19.59,310.39,28.63,308.28,35.33,299.62z"/>
	<path class="st0" d="M189.1,518.56c12.1-1.33,26.63-18.17,18.64-32c-3.29-5.72-5.44-7.95-13.59-7.95c-0.27,0.04-2.04,0-3.56,0.59
		c-8.66,3.25-14.96,9.16-17.94,17.94c-1.68,4.86-1.8,9.87,1.57,14.45C177.93,516.68,183.57,519.15,189.1,518.56z M200.06,484.76
		c0.94,1.14,1.92,2.27,2.82,3.45c0.7,0.9,1.29,1.92,1.92,2.9c-0.27,0.35-0.51,0.67-0.78,0.98c-1.17-0.51-2.66-0.7-3.45-1.57
		c-1.06-1.1-1.76-2.62-2.31-4.11C198.18,486.13,199.44,485.31,200.06,484.76z M197.56,492.63c1.57,0.51,3.02,1.37,4.54,2
		c2.94,1.25,3.72,2.98,0.7,6.03c-2.47-1.84-5.05-3.64-7.4-5.68c-0.47-0.39-0.35-1.53-0.51-2.31
		C195.79,492.63,196.73,492.36,197.56,492.63z M194.66,499.64c2.66,1.88,4.78,3.41,6.89,4.9c-0.86,0.74-2.19,2.31-2.58,2.11
		c-2-1.06-3.8-2.51-5.48-4.03C193.25,502.39,194.11,500.98,194.66,499.64z M188.08,484.56c0.94-0.31,2.04-0.16,2.43-0.2
		c-0.39,4.7-0.94,8.89-0.98,13c-0.08,3.49-4.74,11.2-8.07,11.98c-1.14,0.27-3.37-0.51-3.76-1.41
		C174.92,501.72,181.62,486.91,188.08,484.56z"/>
	<path class="st0" d="M188.82,95.08c10.65-1.21,19.86-4.7,25.69-14.53c4.19-7.01,7.09-14.69,5.52-22.56
		c-2.47-12.3-10.77-17.98-23.42-17.98c-17.9-1.25-30.12,11.51-34,27.22C159.17,81.18,174.17,96.76,188.82,95.08z M170.53,61.32
		c6.89-14.49,18.13-19.7,32.63-17.08c3.99,0.7,8.81,5.95,10.26,10.14c4.97,14.53-6.27,37.21-25.85,37.33
		C172.65,92.57,163.64,75.73,170.53,61.32z"/>
	<path class="st0" d="M189.1,86.54c12.1-1.33,26.63-18.17,18.64-32c-3.29-5.72-5.44-7.95-13.59-7.95c-0.27,0.04-2.04,0-3.56,0.59
		c-8.66,3.25-14.96,9.16-17.94,17.94c-1.68,4.86-1.8,9.87,1.57,14.45C177.93,84.66,183.57,87.13,189.1,86.54z M200.06,52.74
		c0.94,1.14,1.92,2.27,2.82,3.45c0.7,0.9,1.29,1.92,1.92,2.9c-0.27,0.35-0.51,0.67-0.78,0.98c-1.17-0.51-2.66-0.7-3.45-1.57
		c-1.06-1.1-1.76-2.62-2.31-4.11C198.18,54.11,199.44,53.29,200.06,52.74z M197.56,60.61c1.57,0.51,3.02,1.37,4.54,2
		c2.94,1.25,3.72,2.98,0.7,6.03c-2.47-1.84-5.05-3.64-7.4-5.68c-0.47-0.39-0.35-1.53-0.51-2.31
		C195.79,60.61,196.73,60.34,197.56,60.61z M194.66,67.62c2.66,1.88,4.78,3.41,6.89,4.9c-0.86,0.74-2.19,2.31-2.58,2.11
		c-2-1.06-3.8-2.51-5.48-4.03C193.25,70.37,194.11,68.96,194.66,67.62z M188.08,52.55c0.94-0.31,2.04-0.16,2.43-0.2
		c-0.39,4.7-0.94,8.89-0.98,13c-0.08,3.49-4.74,11.2-8.07,11.98c-1.14,0.27-3.37-0.51-3.76-1.41
		C174.92,69.7,181.62,54.9,188.08,52.55z"/>
	<path class="st0" d="M137.59,553.34c-8.03,2.98-16.84,15.71-14.84,26.4c1.06,5.72,4.23,9.36,8.77,11.48
		c5.01,2.31,10.57,2.15,15.24-1.64c7.21-5.84,11.79-13.04,10.89-22.01C157.76,554.59,149.11,549.11,137.59,553.34z M137.79,581.3
		c-1.49,1.88-3.17,3.6-4.78,5.37c-1.53-1.68-3.45-3.17-4.5-5.13c-2.9-5.25,0.86-17.43,6.97-21.03c0.23,0.2,0.67,0.35,0.67,0.51
		c0.63,6.15,1.21,12.3,1.8,18.45C138.02,580.09,138.1,580.91,137.79,581.3z M145.74,555.81c3.68,0.08,5.4,2.62,6.66,6.15
		c-3.76,0.47-6.93,0.51-8.62-2.86C143.43,558.43,145.07,555.81,145.74,555.81z M142.21,583.89c-0.04-7.4,4.11-4.23,6.7-4.5
		c0.2,0.47,0.43,0.98,0.63,1.45C147.27,581.81,145,582.75,142.21,583.89z M142.65,572.92c3.29,0,6.19,0,9.24,0
		C148.99,577.35,146.01,577.35,142.65,572.92z M147.07,569.63c-3.21,0.43-5.76-1.14-5.68-5.44c3.76,0.39,7.52,0.82,11.32,1.17
		c0.23,0.43,0.43,0.82,0.67,1.21C151.3,567.67,149.26,569.36,147.07,569.63z"/>
</g>
</svg>
