<?xml version="1.0" encoding="utf-8"?>
<!-- Generator: Adobe Illustrator 23.0.1, SVG Export Plug-In . SVG Version: 6.00 Build 0)  -->
<svg version="1.1" id="Layer_1" xmlns="http://www.w3.org/2000/svg" xmlns:xlink="http://www.w3.org/1999/xlink" x="0px" y="0px"
	 viewBox="0 0 274 537" style="enable-background:new 0 0 274 537;" xml:space="preserve">
<style type="text/css">
	.st0{fill:#F2F2F2;}
</style>
<g>
	<g>
		<path class="st0" d="M28.38,203.72c0,0,5.74,4.14,12.39,9.46c10.81,8.63,23.04,14.28,36.15,18.53
			c12.27,3.98,24.43,2.82,36.66,0.99c4.43-0.68,8.91-1.63,10.65-7.36c2.14-7.08,5.34-13.8,8.16-20.92l14.85-48.24
			c1.07-3.14,1.82-5.49,2.65-7.83c2.85-8.11,6.14-15.67,13.58-21.16c22.01-16.19,43.15-33.56,67.03-47.05
			c4.2-2.35,5.94-12.01,2.69-17.42c-7.28-12.25-16.35-23.11-27.55-31.89c-13.9-10.86-28.66-20.32-45.88-25.01
			c-8.47-2.31-16.9-5.45-25.54-6.12c-9.58-0.76-19.56-1.83-28.9,1.75C101.15,3.09,96.28,5,94.93,9.97
			C92,20.75,89.39,31.64,86.97,42.58c-2.61,11.85-5.23,23.74-7.28,35.71c-1.7,9.82-2.53,19.8-4,29.67
			c-0.28,1.83-1.43,3.78-2.65,5.25c-6.22,7.4-12.51,14.75-18.96,21.95c-4.83,5.37-16.63,18.57-16.63,18.57
			c-3.01,3.82-5.31,6.84-7.72,9.74c-4.16,4.93-8.67,9.54-12.51,14.67c-2.3,3.06-0.44,6.4,1.31,9.31
			C21.93,193.1,25.37,198.75,28.38,203.72z M104.55,26.75c1.47,0.4,2.97,0.44,3.88,1.15c9.62,7.6,18.53,16.34,28.9,22.71
			c10.85,6.68,22.92,11.49,34.72,16.42c9.07,3.82,18.57,6.52,28.62,9.98c-19.76,14.12-39.43,28.2-59.11,42.19
			c-0.36-0.28-0.71-0.6-1.07-0.87c0.63-3.42,1.15-6.88,1.94-10.3c3.05-12.92,6.33-25.81,9.11-38.77c0.59-2.66,0.08-7.83-1.03-8.15
			c-3.4-1.03-8.51-1.75-10.85,0.08c-7.21,5.73-13.46,12.73-20.11,19.21c-6.97,6.76-13.94,13.52-22.01,21.35
			c-0.79-3.78-1.94-6.2-1.62-8.39c1.19-8.47,3.21-16.82,4.32-25.29c1.35-10.26,2.1-20.64,3.13-30.94
			C103.68,33.87,104.12,30.61,104.55,26.75z M25.49,178.03c0.16-1.43,0.67-3.06,1.58-4.14c9.82-11.61,19.83-23.07,29.61-34.68
			c7.44-8.83,15.24-17.5,21.73-27.04c2.57-3.82,2.22-9.66,3.05-14.63c1.39-8.43,2.65-16.9,4.08-25.33
			c1.11-6.52,2.3-13.08,3.56-19.57c1.39-7.12,3.05-14.2,4.43-21.32c0.63-3.22,0.63-6.52,1.31-9.74c0.59-2.74,1.7-5.37,2.93-9.19
			c4.16,6.88,4.12,12.05,2.18,18.37c-2.41,7.8-2.73,16.27-4.08,24.42C94.48,63.61,92.9,72,91.52,80.43
			c-0.63,3.94-0.71,7.95-1.5,11.81c-0.4,2.03-1.78,3.86-2.69,5.69c0.95,0.96,2.49,2.35,3.92,3.86c2.34,2.47,8.55,3.1,11.64,0.36
			c8.43-7.52,16.71-15.23,24.9-23.03c5.23-4.97,10.21-10.22,15.28-15.31c0.55,0.24,1.11,0.52,1.66,0.8c-0.51,3.46-0.83,7-1.54,10.42
			c-1.27,6.24-2.73,12.45-4.2,18.65c-1.78,7.56-3.88,15.03-5.38,22.63c-0.44,2.11,0.12,5.29,1.5,6.56c1.94,1.79,4.91,3.18,7.96,1.07
			c8.83-6.08,17.7-12.13,26.53-18.21c2.69-1.87,5.23-3.94,7.92-5.81c9.86-6.76,19.6-13.76,29.77-20.04
			c2.49-1.55,6.49-0.72,9.78-0.99c0.12,0.6,0.28,1.15,0.44,1.71c-5.03,3.74-10.02,7.52-15.08,11.21
			c-12.19,8.83-24.55,17.46-36.54,26.57c-5.9,4.49-12.75,8.95-16.27,15.07c-4.59,8.03-6.33,17.74-9.22,26.76
			c-5.11,15.95-10.1,31.89-15.12,47.84c-1.11,3.58-2.3,7.08-3.21,10.7c-1.46,5.97-5.78,7.36-11.12,7.79
			c-5.42,0.44-10.81,1.55-16.23,1.79c-8.63,0.36-16.94-1.55-24.98-4.73c-13.06-5.17-24.7-12.49-34.24-22.91
			C29.65,194.33,24.58,187.41,25.49,178.03z M273.48,305.25c-1.07-14.23-4.35-28.01-10.46-40.9c-7.6-15.95-16.6-31.04-29.92-42.97
			c-6.55-5.87-12.7-12.46-20.12-16.94c-8.23-4.98-16.68-10.42-26.63-11.41c-4.44-0.41-9.65-0.89-13.07,2.96
			c-7.42,8.33-14.6,16.9-21.63,25.6c-7.61,9.43-15.24,18.89-22.4,28.68c-5.89,8.02-11.08,16.58-16.77,24.75
			c-1.06,1.51-2.96,2.74-4.71,3.5c-8.85,3.83-17.76,7.58-26.73,11.13c-6.71,2.63-23.14,9.15-23.14,9.15
			c-4.39,2.06-7.79,3.74-11.24,5.25c-5.91,2.54-12,4.65-17.72,7.51c-3.42,1.71-3.24,5.53-2.97,8.91c0.53,6.58,1.1,13.18,1.58,18.98
			c0,0,3.3,6.28,6.87,14.03c5.83,12.57,14.26,23.11,24.09,32.8c9.21,9.07,20.6,13.49,32.35,17.34c4.27,1.39,8.69,2.54,12.8-1.8
			c5.06-5.37,10.92-9.95,16.6-15.05L155,350.28c2.35-2.33,4.07-4.09,5.86-5.82c6.16-5.98,12.46-11.26,21.56-12.83
			c26.89-4.6,53.54-10.66,80.89-12C268.12,319.41,273.98,311.54,273.48,305.25z M177.38,218.09c5.23,11.11,9.3,22.94,15.75,33.29
			c6.73,10.85,15.39,20.57,23.75,30.28c6.41,7.49,13.71,14.17,21.17,21.78c-23.95,3.76-47.82,7.52-71.65,11.22
			c-0.2-0.41-0.37-0.85-0.57-1.26c2.09-2.78,4.09-5.64,6.32-8.34c8.48-10.19,17.15-20.25,25.39-30.6c1.72-2.12,3.56-6.97,2.71-7.76
			c-2.59-2.45-6.84-5.39-9.74-4.8c-8.99,1.89-17.7,5.34-26.54,8.16c-9.24,2.92-18.48,5.84-29.19,9.22c0.97-3.74,1.02-6.42,2.28-8.24
			c4.83-7.05,10.35-13.61,15.11-20.69c5.77-8.57,11.06-17.52,16.56-26.27c1.73-2.78,3.57-5.5,5.68-8.75
			C175.55,216.33,176.88,217.04,177.38,218.09z M251.51,314.19c-6.16,1.09-12.3,2.23-18.48,3.26c-14.84,2.42-29.72,4.6-44.51,7.36
			c-7.28,1.37-15.38,2.28-21.26,6.18c-7.68,5.13-13.56,13.02-20.16,19.8c-11.66,11.97-23.22,24-34.81,36.01
			c-2.58,2.7-5.2,5.3-7.63,8.13c-3.96,4.68-8.44,3.99-13.42,1.98c-5.05-2.04-10.36-3.46-15.32-5.68
			c-7.88-3.55-14.47-8.99-20.24-15.45c-9.39-10.49-16.55-22.26-20.45-35.86c-2.38-8.3-3.83-16.77,1.16-24.76
			c0.78-1.21,1.96-2.44,3.26-2.99c13.95-5.98,28-11.73,41.92-17.73c10.59-4.56,21.42-8.81,31.47-14.44c4-2.26,6.28-7.65,9.24-11.72
			c4.99-6.92,9.89-13.93,14.92-20.83c3.89-5.34,7.87-10.67,11.89-15.9c4.41-5.75,9.04-11.33,13.45-17.08c2-2.6,3.47-5.55,5.5-8.13
			c1.75-2.19,3.91-4.04,6.71-6.9c0.66,8.02-1.68,12.63-6.23,17.41c-5.63,5.89-9.68,13.32-14.51,20.01
			c-4.99,6.92-10.14,13.72-15.13,20.64c-2.32,3.24-4.18,6.8-6.6,9.89c-1.26,1.64-3.31,2.65-4.94,3.88c0.43,1.28,1.19,3.22,1.79,5.21
			c0.99,3.25,6.27,6.61,10.25,5.54c10.89-2.94,21.72-6.13,32.52-9.42c6.89-2.1,13.68-4.56,20.48-6.84c0.39,0.46,0.76,0.96,1.13,1.46
			c-2,2.86-3.86,5.89-6.02,8.63c-3.91,5.02-7.98,9.91-12.05,14.8c-4.96,5.96-10.16,11.71-14.88,17.83
			c-1.33,1.69-2.25,4.79-1.57,6.55c0.94,2.47,2.98,5.05,6.64,4.53c10.6-1.48,21.23-2.91,31.83-4.39c3.24-0.46,6.43-1.18,9.67-1.64
			c11.83-1.62,23.65-3.51,35.55-4.57c2.92-0.27,6.13,2.27,9.19,3.5C251.72,313.05,251.62,313.62,251.51,314.19z M226.91,410.39
			c-5.09-8.19-10.15-16.89-18.57-22.31c-3.77-2.39-8.2-5.19-12.98-3.33c-10.37,4.03-20.65,8.4-30.84,12.94
			c-11.04,4.93-22.12,9.88-32.93,15.33c-8.88,4.46-17.37,9.72-26.13,14.39c-1.63,0.86-3.87,1.09-5.78,0.97
			c-9.62-0.63-19.25-1.35-28.84-2.28c-7.17-0.71-24.75-2.4-24.75-2.4c-4.84-0.16-8.63-0.22-12.39-0.45
			c-6.42-0.43-12.79-1.34-19.18-1.39c-3.82-0.04-5.39,3.45-6.68,6.58c-2.5,6.11-4.98,12.24-7.17,17.63c0,0,0.1,7.1-0.22,15.64
			c-0.49,13.86,2.25,27.1,6.63,40.22c4.11,12.28,12.25,21.42,20.98,30.21c3.18,3.18,6.6,6.23,12.22,4.24
			c6.94-2.48,14.23-3.88,21.6-5.83l47.45-16.66c3.15-1,5.48-1.79,7.85-2.51c8.19-2.52,16.19-4.35,25.01-1.59
			c26.04,8.17,52.51,14.93,77.49,26.22c4.37,2,13.15-2.34,15.55-8.17c5.48-13.16,8.79-26.94,9.17-41.21
			c0.44-17.68-0.75-35.23-7.22-51.94C233.99,426.45,231.5,417.77,226.91,410.39z M195.47,480.97c2.33,9.59,5.81,18.88,9.01,29.06
			c-23.04-7.58-46-15.12-68.9-22.7c0.01-0.45,0.05-0.93,0.07-1.38c3.12-1.52,6.19-3.16,9.4-4.55c12.16-5.21,24.43-10.21,36.46-15.67
			c2.49-1.1,6.32-4.59,5.92-5.67c-1.19-3.37-3.66-7.92-6.51-8.72c-8.87-2.42-18.19-3.32-27.33-4.84c-9.55-1.61-19.11-3.23-30.18-5.1
			c2.56-2.88,3.82-5.25,5.76-6.3c7.49-4.07,15.38-7.4,22.82-11.54c9.02-5.01,17.78-10.56,26.64-15.85c2.8-1.68,5.67-3.27,9.02-5.21
			c0.55,1.42,1.41,2.66,1.38,3.82c-0.37,12.29-2.08,24.68-1.02,36.84C189.1,455.89,192.42,468.51,195.47,480.97z M211.61,525.75
			c-5.98-1.84-11.97-3.63-17.94-5.53c-14.31-4.61-28.56-9.46-42.98-13.75c-7.1-2.1-14.74-4.99-21.74-4.2
			c-9.16,1.06-17.97,5.42-26.91,8.44c-15.8,5.35-31.54,10.79-47.3,16.2c-3.52,1.23-7.03,2.35-10.47,3.76
			c-5.65,2.36-9.33-0.3-12.85-4.36c-3.57-4.12-7.66-7.81-11.07-12.05c-5.41-6.76-8.82-14.61-11.05-23
			c-3.62-13.63-4.67-27.38-2-41.28c1.64-8.48,4.17-16.69,12.23-21.53c1.24-0.72,2.85-1.28,4.25-1.18
			c15.13,1.04,30.25,2.33,45.36,3.33c11.49,0.77,23.07,1.92,34.57,1.5c4.59-0.19,9.06-3.95,13.53-6.23
			c7.58-3.89,15.11-7.9,22.71-11.75c5.88-2.98,11.84-5.92,17.79-8.74c6.52-3.11,13.18-5.97,19.7-9.08c2.96-1.4,5.6-3.36,8.58-4.73
			c2.55-1.15,5.31-1.81,9.1-3.09c-3.04,7.45-7.2,10.48-13.42,12.67c-7.68,2.68-14.65,7.45-21.98,11.21
			c-7.58,3.89-15.24,7.59-22.81,11.48c-3.53,1.83-6.79,4.15-10.35,5.8c-1.86,0.88-4.15,0.85-6.15,1.2c-0.2,1.33-0.4,3.41-0.76,5.46
			c-0.59,3.35,2.6,8.75,6.63,9.62c11.03,2.35,22.12,4.45,33.23,6.45c7.09,1.27,14.25,2.18,21.34,3.25c0.14,0.59,0.24,1.2,0.35,1.82
			c-3.08,1.64-6.1,3.49-9.26,4.94c-5.75,2.69-11.59,5.19-17.43,7.69c-7.11,3.05-14.34,5.79-21.32,9.09
			c-1.95,0.9-4.17,3.24-4.36,5.11c-0.28,2.63,0.37,5.86,3.87,7.07c10.12,3.52,20.23,7.1,30.34,10.61c3.1,1.07,6.26,1.88,9.35,2.95
			c11.27,3.95,22.66,7.66,33.74,12.15c2.72,1.09,4.43,4.82,6.6,7.31C212.32,524.83,211.96,525.29,211.61,525.75z"/>
	</g>
</g>
</svg>
