<?xml version="1.0" encoding="utf-8"?>
<!-- Generator: Adobe Illustrator 23.0.1, SVG Export Plug-In . SVG Version: 6.00 Build 0)  -->
<svg version="1.1" id="Layer_1" xmlns="http://www.w3.org/2000/svg" xmlns:xlink="http://www.w3.org/1999/xlink" x="0px" y="0px"
	 viewBox="0 0 1099 30" style="enable-background:new 0 0 1099 30;" xml:space="preserve">
<g>
	<path fill="#ebebeb" d="M491.89,21.61c-0.14-0.04-0.26-0.08-0.34-0.13c-2.05-0.21-3.81-0.22-5.32-0.12
		C488.14,21.47,490.09,21.55,491.89,21.61z"/>
	<path fill="#ebebeb" d="M553.84,23.4c0.81-0.04,1.43-0.17,1.73-0.35C554.93,23.15,554.36,23.27,553.84,23.4z"/>
	<path fill="#ebebeb" d="M557.63,24.81c-0.95-0.08-2.01-0.12-3.04-0.12C555.44,24.76,556.48,24.79,557.63,24.81z"/>
	<path fill="#ebebeb" d="M1098.96,14.58V2.69V0H0v0.17v8.89v0.83v15.82c1.98,0.08,4.12,0.17,4.38-0.69c18.3,0.22,14.62,5.65,36.03,3.72
		l-0.8-0.69c13.58,0.98,21.42,0.24,34,0.9l9.92-1.66c-2.21-0.29-8.16-1.65-5.37-2.47c-1.79,0.64-3.63,0.95-5.49,1.13
		c0.32-0.36-0.89-0.95-1.91-1.2c0.82,0.72-1.09,1.28-2.32,1.32c0.43,0.04,0.81,0.08,1.17,0.1c-2.17,0.12-4.37,0.22-6.59,0.6
		c-0.53-0.47,1.59-0.78,2.51-1.05c-3.13-0.01-4.71,0.77-8.85,0.42c0.2-0.36,4.72-0.76,1.32-1.01l-5.64,1.04
		c-7.53-0.59-3.69-2.64-12.54-2.22c1.64,0.99,4.98,2.42,8.41,2.69c-4.04,0.17,5.38,0.64,1.69,1.19c-5.81-1.5-8.63-0.38-16.37-1.36
		c0.91,0.21,1.15,0.49,3.05,0.6l-2.96,0.13c-0.19-0.02-0.4-0.04-0.65-0.05c0.16,0.02,0.3,0.04,0.45,0.06l-8.09,0.36
		c2.79-0.82-9.27-1.01-8.22-2.26c11.98-0.4,8.45,0.32,22.1-0.26c-3.86-0.32-8.83-1.64-11.15-2.83c-0.12,0.05-0.32,0.08-0.74,0.1
		c-2.08-1.26,0.05-1.57,0.03-3.73c6.22,1.6,10.39,0.37,17.73,1.32c1.37,1.2-4.27,1.47-7.92,1.13l6.46,0.85l-1.27-0.56l14.33-0.21
		c0.99,0.34,2.15,0.62,4.09,0.68c0.76,0.02,1.61,0.02,2.64-0.04c-1.21,0-1.82-0.27-2.04-0.71c10.55-0.17,16.42-1.13,20.33-2.38
		c0.41,0.03,0.86,0.06,1.23,0.09c-1.78,1.14,7.49,2.15,10.75,3.37c-0.15-1.2,5.45-0.67,8.5-1.25c0.51,0.44,0.64,0.93,0.46,1.43
		c10.76-0.36,21.33-0.36,31.43-0.21c2.96,2.55,6.49,3.99,7.99,6.35c6.78,0.5,15.99,0.9,21.89,0.1l-0.54-0.47
		c2.88-0.21,5.53-0.06,7.73,0.23c3.04-0.59-2.07-1.26,0.05-1.57l9.71,0.88c-0.59-1.07-8.77-1.15-12.65-1.26
		c0.73,0.1,2.21,0.29,1.73,0.42c-4.52,0.39-12.92-1.49-14.91,0.02c-2.2-0.29,4.46,1.17-2.99,1.18c-4.99,0.53-6.61-0.86-7.12-1.32
		c-0.08-0.6,7.84-0.75,5.1-1.5c3.88,0.11,5.42,0.9,10.39,0.37c-3.85-0.11-9.06-1.38-11.12-0.46c-7.6-1.19-6.49-4-2.9-4.12
		c-0.86,0.87,13.87,1.22,3.89,2.28c4.47,1.18,12.66,1.26,18.52,2.03l-0.26-0.23l7.28,0.35c-1.02-0.32-3.22-0.61-3.29-1.21l10.07,1.7
		c-5.67-1.14,3.52-0.72,6.11-1.17c1.07,0.93,5.01,1.64,1.22,2.13c-4.25,0.63-2.47-0.52-6.33-0.63l5.46,1.5l0.47-0.14l3.28,1.21
		c7.45-0.01-3.23-2.78,6.3-1.54l-1.25,1.6c11.05-0.13,25.26-1.82,33.07-1c-2.15-0.94-3.08-2.42-0.12-3.27
		c-3.37,0.25-10.14,0.12-14.96-0.07c-0.93,0.27,6.02,1.97,11.27,1.67c-2.32,2.38-11.27-0.97-13.4,0.38l-0.89-0.12l-0.47,0.14
		l1.15,0.15c-0.11,0.11-0.18,0.25-0.22,0.41c-13.38,0.81-9.95-2.68-21.31-1.21c-0.15-1.2-3.22-0.61-3.81-1.68
		c3.37-1.92,15.17,0.21,22.54-0.4c-0.72-0.09-2.17-0.29-2.45-0.52c5.27-0.3,7.44-0.01,11.11,0.46L219,23.91
		c6.42,1.23,3.98-0.86,7.77-1.35c1.46,0.19,6.72-0.1,5.87,0.77l6.86-1.07l-0.34,1.33c3.86,0.12,4.71-0.76,8.21,0.09l0.15,1.2
		l-6.85,0.23c0.1-0.04,0.17-0.08,0.19-0.13c-0.38,0.05-0.7,0.1-1.01,0.16l-1.93,0.07c0.43,0.04,0.77,0.08,1.08,0.12
		c-0.1,0.02-0.2,0.05-0.29,0.08c0.19-0.01,0.36-0.03,0.52-0.04c2.87,0.44,0.62,1.04,5.37,1.3c-5.96-1.37,4.23-0.62,4.82-1.73
		l3.92,0.71l-1-0.33c3.09-0.59,3.67,0.48,7.27,0.36c-4.25,0.63-7.04,1.44-12.44,0.54c3.93,0.71,11.74,1.53,13.65,1.59
		c4.13,0.54,7.02-0.34,10.89-0.44c-7.42-0.55,2.63-3.6-12.26-2.88c0.27,0.23,1.48,0.19,1.95,0.05c-2,1.51-8.92-0.18-12.14-0.79
		c0.84-0.87-2.53-1.12,3.19-1.55c-1.88,0.54,4.8,2.01,10.25,1.34l-0.94-1.89l7.92-0.15l-0.74-0.1c2.99-1.19,8.45,0.31,13.91-0.35
		c3.93,0.71,19.05,0.32,12.53,2.23c4.91-1.13,9.19,0.41,14.53,0.71l-6.61,0.7c-6.63-0.58-10.8-1.63-18.54-2.3l-4.03,1.51
		c9.96-1.4,14.06,2.1,25.12,1.25c4.8,0.79,3.82,0.37,9.28,2.28c0.64-0.51,2.05-0.92,0.77-1.47c10.58,0,25.69-0.39,31.88,1.21
		c7.46-0.01,8.64-2.22,19.1-1.25c2.2,0.29-1.73,1.74,5.2,1.27c0.47-0.14-6.66-1.46,1.05-1.24c5.48,1.5,12.91-0.68,20.05,0.65
		c3.78-0.49,10.32-0.23,8.97-1.39c-5.98,0.2-14.44-0.12-15.72-0.68c0.82,0.7-4.26,0.63,0.14,1.2c-9.04,0.78-5.86-0.77-13.97-0.25
		c-0.55-0.47,4.18-1.23,5.91-0.8c0.04-1.12-8.16-1.1-10.18-1.66l10.78,0.25c2.82,0.67,5.4,1.19,9.36,0.36
		c-0.18-0.06-0.37-0.11-0.56-0.16l2.25,0.05c0.33,0.14,0.76,0.25,1.73,0.27l-0.93-0.26l10.72,0.24c1.42,0.37,3.13,0.7,5.45,0.91
		c-5.66,1.03,1.28,2.73-2.97,3.35c6.52,0.26,11.3,0.1,11.36-1.47c-11.67-1.33-1.62-1.64-10.65-3.13c1.65-0.11,2.92-0.26,3.56-0.45
		c-0.73-0.05-1.37-0.1-1.94-0.16c0.59-0.39,0.43-0.69,3.8-0.86c-0.57,0.25-1.14,0.42,2.59,0.71c-0.45,0.22-1.17,0.43-2.01,0.83
		l7.72,0.22l-0.53-0.47l6.33,0.63c1.5-0.69-0.82-1.09-3.3-1.4c4.93-0.78,5.47,1.15,9.86,0.18c-0.19,0.12-0.29,0.23-0.34,0.32
		c-1.2,0.06-1.61,0.22,0.5,0.8c-3.08,0.17-5.74,0.53-8.62,0.73c-1.23-0.16-2.18-0.41-3.31-0.6l-5.57,0.43
		c7.05,0.72,3.81,1.67,6.8,2.66c6.46-0.34,5.33,0.3,9.39,0.04c-0.14-0.48,1.39-0.89,3.74-1.26c0.79,0.36,0.81,0.78,1.49,1.37
		c7.41,0.15,10.51-0.92,13.86-1.56l-12.93-0.15c1.73-0.21,3.68-0.41,5.66-0.6l34.11,0.39c6.33,1.41,13.04,1.91,21.94,2.41
		c4.99-0.53-3-0.98,0.53-1.71c-1.69,0.13-3.65,0.01-4.75-0.23c0.34-0.1,0.72-0.19,1.11-0.26l3.24,0.04c0.2,0.03,0.4,0.06,0.6,0.09
		c0.03-0.03,0.05-0.05,0.07-0.08l8.86,0.1c-0.95,0.32,2.03,0.28-1.05,1.4c2.61-0.54,8.13-0.04,11.99-0.48
		c0.59,0.05,1.11,0.11,1.47,0.19c-0.46-0.08-0.83-0.15-1.16-0.23c0.97-0.13,1.82-0.32,2.48-0.62l2.2,0.13
		c3.93,0.71,17.69-0.84,14.58,1.32c3.13,0.01,6.86-1.08,11.72-0.64c0.5-0.25,0.66-0.43,0.61-0.58l0.7,0.01
		c-0.3-0.07-0.6-0.13-0.91-0.2c-0.23-0.09-0.55-0.17-1.03-0.22c-2.68-0.55-4.81-1.06-1.12-1.61C546.52,24,545.13,24,543.73,24
		c-0.05-0.06-0.1-0.12-0.15-0.17l7.78,0.17c-1.54-1.32-7.1-0.43-9.98-0.81c0.05-0.07,0.22-0.13,0.55-0.21
		c-0.42-0.11-0.96-0.21-1.63-0.3l5.59-0.19l-4-0.44c0.36,0,0.72-0.01,1.11-0.02C542.44,22,541.93,22,541.44,22l-5.54-0.61
		c1.07,0.19,1.56,0.41,1.66,0.61c-2.06-0.07-3.75-0.21-5.29-0.37c-0.56-0.63-1.5-0.16-5.82-0.88c0.25,0.08,0.29,0.19,0.17,0.29
		c-1.75-0.14-3.69-0.22-6.16-0.17c0.99,0.18,2.62,0.4,4.39,0.66c-0.69,0.09-1.52,0.13-2.38,0.08c-1.16,0.13-2.01,0.14-2.69,0.1
		c2.2,0.11,3.55,0.3,4.43,0.54c-1.44,0.31,0.21,0.57,1.59,0.81c0.19,0.19,0.33,0.39,0.53,0.58c-1.99,0.5-7.58,0.67-8.88,0
		c0.05-0.04,0.12-0.07,0.21-0.1c0.08,0.02,0.15,0.03,0.23,0.05l0.01-0.12c1.37-0.33,4.7-0.38,1.06-1.2l-0.89-0.12l0.06-0.5
		c0.53,0.01,0.96,0.04,1.42,0.06c-2.09-0.18-2.32-0.97-3.96-1.18c-1.42,0.24-3.3,0.43-5.61,0.56l-7.16-0.93
		c1.59,0.34,1.19,0.91,1.33,1.13c-0.25,0-0.49,0.01-0.75,0.01c-2.71-0.79-3.95-0.86-6.77-0.99c0.77-0.88-3.61-0.85-5.4-1.29
		c-2.57,1.08,5.35,0.33,5.38,1.29c-1.04-0.05-2.29-0.11-3.91-0.21c-2.1,1.19,5.77,0.8,7.6,1.77c-9.97-0.46-9.73-0.01-14.07-0.33
		c-0.46-0.08-0.77-0.16-0.85-0.23c-0.07,0.05-0.18,0.09-0.32,0.13c-1.1-0.1-2.47-0.24-4.24-0.44l3.01-0.49
		c-3.99-1.3-8.1,0.52-12.11-0.79l-0.33-1.21c-3.13-0.03-7.38-0.59-9.33-1.24c4.77-0.16,5.78,0.17,11.11,0.47
		c0.75-0.76-3-1.36-3.54-1.44l0.79,0.69c-6.13,0.9-9.28-1.08-16.58-1.1c-4.87-0.84-11.21,0.09-12.76-1.24
		c2.73,0.25,2.95-0.15,3.18-0.54h5.3l1.83,0.3l-1.2,0.04c9.06,1.38,23.44,0.9,35.02,1.22c9.8,1.48,16.54,3.54,28.31,3.5
		c-3.47-0.84,9.78-0.69,2.38-2.25c5.45-0.67,10.82,0.23,10.92,0.83c-4.79,0.16-1.69,0.18-5.73,0.43c2.72,0.75,9,0.78,11.58,0.33
		c-1.2,0.04-0.74-0.09-1-0.32c5.73-0.43,2.74,0.75,6.87,1.09c1.32-1,9.13-0.19,12.91-0.68l5.46,1.5c-3-0.98,5.25-0.3,6.12-1.17
		c3.92,0.71,7.2,1.92,13.18,1.72c-2.47-0.52,5.46-0.67,5.57-1.63c10.25-0.83,16.93,2.8,26.64,1.51c-0.3-0.23-2.25-0.89,0.59-1.1
		c2.23,0.29,6.14,0.21,8.53,0.34l-0.07-0.03c0.05,0.01,0.07,0.02,0.12,0.03c1.17,0.06,1.9,0.19,1.93,0.43
		c4.08,0.99,6.18,1.98,14.22,2.86c-0.6,1.1-7.39,0.61-10.33,0.22l-2.53-1.12c-2.44,1.65-7.25-0.36-9.11,0.19
		c4.81,2.01,18.72,1.65,27.05,2.94c-5.1,1.5-16.16,1.63-25.81,1.36l4.26-0.63l-5.05-0.07l4.9-1.13c-4.78,0.16-8.92-0.18-13.24-0.15
		c5.06,0.07,7.05-1.44,4.18-1.23c-5.65,1.03-5.87-0.77-10.18-0.74c2.4-0.08,5.52-0.07,3.52-0.72c-8.51,1.25-10.8,0.36-18.54,1.71
		c0.97-1.84-9.66-0.28-10.8-1.8l3.59-0.12l-7.6-1.19c-7.03,1.44,6.2,1.59-4.49,2.56c-9.86,0.09-9.59-1.85-17.34-2.06
		c2.55,1.12,8.69,2.12,14.94,2.14l-3.79,0.49c2,0.65,10.65,0.6,14.97,0.58c-7.12-1.32,3.34-0.35,6.6-1.31
		c0.59,1.06-3.99,0.85,1.41,1.75c-5.07-0.07-5.81-0.16-12.26,0.17c4.33-0.11,7.17,0.22,9.4,0.69l-2.65-0.05
		c-0.23,0.43,0.88,0.98,0.83,1.46l7.11,0.08c2.38,0.67,5.07,1.15,9.97,0.84c-5.6-0.53,1.97-1.51,2.65-2.02
		c2.64,0.15,7.99,0.45,10.18,0.74l-2,1.51c7.08,0.73,9.57-2.49,17.73-0.83c1.06,0.93-7.19,0.24-5.73,0.43
		c11.18,1.07,15.23-1.36,25.18-2.42c0.56,0.46,0.43,1.43,3.9,2.28c-1.08-0.93,1.49-1.37-2.41-2.08c3.32-0.36,7.25,0.35,10.18,0.74
		c-6.92,0.47,2.82,1.35,4.09,1.91c3.58-0.12-1.08-0.93-3.29-1.21c2.88-0.22,6.3-1.54,7.93-0.15c0.12-0.96-8.02-2.62-13.35-2.92
		l3.59-0.12c-2.47-0.52-2.94-0.38-6.5-0.27c3.5-0.72,3.16-1.55,2.35-2.24c-0.46,0.14,0.25,0.23-0.19,0.37
		c-2.87,0.22-5.08-0.07-4.41-0.57c-2.57-1.32,3.99-0.77,5.94-1.4c1.47,0.1,2.94,0.2,4.38,0.3l14.89,4.31
		c6.37,0.55,9.25-0.42,14.04-1.01l0.53,0.46c-1.38-0.08-3.01,0-5.1,0.36c8.61,1.33,5.46,1.93,10.64,3.63l-2.01-0.06
		c-0.96,0.28,2.56,0.54,3.31,0.63c-2.07-0.68,2.68-0.46,1.37-1.04l9.85,1.28l-1.88-1.06l-8.18-2.37c-0.81-0.07-1.62-0.13-2.58-0.25
		c-0.62-0.17-1.22-0.35-1.84-0.51c4.29-0.14,7.36-0.56,4.43-1.75c-0.2,0.37-0.93,0.27-2.14,0.32c-0.16-0.15-0.43-0.26-0.78-0.36
		c-0.11-0.07-0.18-0.13-0.27-0.2c5.94,0.42,9.65,0.69,9.99,0.73c-10.08-1.71-0.49-2.03-2.16-4.02l10.18,0.74
		c-6.18,0.57-0.12,0.97,2.07,1.26c0.61-1.11,8.21,0.09,11.78-0.04l-0.26-0.23c3.31-0.36,9.11-0.19,13.23,0.15
		c-0.19,0.37,5.09,2.24,7.62,3.36c-7.08,0.35-2.89,0.83-3.46,1.52c0.73-0.06,2.05-0.06,2.2,0.09c1.01,0.33-1.38,0.41-1.58,0.77
		c-7.52-0.59-15.26-0.81-18.32-2.39c1.38-0.41,2.52-0.08,3.76,0.16c-0.06,0-0.12,0-0.18-0.01l0.28,0.02
		c0.57,0.11,1.17,0.19,1.83,0.16l1.44,0.13c-0.31-0.06-0.66-0.12-1.08-0.16c0.16-0.01,0.32-0.02,0.48-0.05
		c-3.72-1.08-8.53-0.92-14.78-0.95l-2.06,0.91l-6.29-0.56c2.62,0.52,1.03,1.48,7.63,1.73c-0.85,0.87-6.54-0.26-10.59-0.01
		l-2.06-1.26c0.79,0.7-7.86,0.75-1.72,1.75l9.99,1.11l-2.79,0.82l8.45,0.32l-1.99-0.66c13.58,0.98,4.02-2.42,17.69-0.83
		c4.27,1.54,8.87,1.74,17.25,1.46c-6.06-0.39-0.61-1.06-2.89-1.95c6.19-0.57,8.27,0.69,11.47,1.3c1.58-0.78,2.71-1.41-2.82-1.35
		c-0.68-1.66,7.27,0.36,7.78-1.35c18.3,0.22,14.62,5.65,36.03,3.72l-0.8-0.69c13.58,0.98,21.42,0.24,34,0.9l9.92-1.66
		c-2.21-0.29-8.16-1.65-5.37-2.47c-4.83,1.73-9.94,1.06-15.14,1.96c-0.53-0.47,1.59-0.78,2.51-1.05c-3.13-0.01-4.71,0.77-8.85,0.42
		c0.2-0.36,4.72-0.76,1.32-1.01l-5.64,1.04c-7.53-0.59-3.69-2.64-12.54-2.22c1.64,0.99,4.98,2.42,8.41,2.69
		c-4.04,0.17,5.38,0.64,1.69,1.19c-5.81-1.5-8.63-0.38-16.37-1.36c0.91,0.21,1.15,0.49,3.05,0.6l-11.24,0.5
		c2.79-0.82-9.27-1.01-8.22-2.26c11.98-0.4,8.45,0.32,22.1-0.26c-3.86-0.32-8.83-1.64-11.15-2.83c-0.12,0.05-0.32,0.08-0.74,0.1
		c-2.08-1.26,0.05-1.57,0.03-3.73c6.22,1.6,10.39,0.37,17.73,1.32c1.37,1.2-4.27,1.47-7.92,1.13l6.46,0.85l-1.27-0.56l16.43-0.24
		c-3.11-0.09-4.16-0.79-5.78-1.32c2.12-0.03,4.22-0.32,6.46-0.64c-0.48,1.13-0.19,1.93,1.88,1.93c10.57-0.17,16.45-1.13,20.36-2.38
		c0.41,0.03,0.86,0.06,1.23,0.09c-0.69,0.45,0.29,0.87,1.94,1.3c-1.57,0.2-3.09,0.36-4.63,0.38c1.68,0.55,2.76,1.27,5.98,1.37
		c0.76,0.02,1.61,0.02,2.64-0.04c-1.67,0-2.21-0.5-2.13-1.28c2.45,0.53,5.39,1.06,6.95,1.65c-0.15-1.2,5.45-0.67,8.5-1.25
		c0.51,0.44,0.64,0.93,0.46,1.43c2.01-0.07,4.01-0.11,6.01-0.15l1.2,0.53c-5.92,0.44-11.59-1.11-11.17,0.37
		c3.12,1.01,8.28,0.47,11.38,1.48l-3.92,0.5c6.89,1.52,3.55-1.36,11.9-0.27c-3.08,1.23,0.76,0.1,4.33,0.97
		c-2.88,0.85-14.71-0.5-12.22,1.66c4.34,0.97,14.64-2.36,20.38-0.19L883.24,27c5.76-0.13,8.97,0.4,11.44,1
		c0.12,0.16,0.26,0.31,0.37,0.48c0.62,0.05,1.27,0.09,1.93,0.13c0.3,0.08,0.6,0.16,0.9,0.24c0.31-0.06,0.65-0.09,0.98-0.12
		c2.41,0.14,4.97,0.25,7.48,0.29c1.4,0.14,2.78,0.27,4.04,0.31l-0.04-0.31c1.14-0.02,2.24-0.06,3.29-0.13l2.18,0.12
		c-0.23-0.1-0.48-0.16-0.72-0.23c0.65-0.06,1.27-0.12,1.86-0.2l-0.54-0.47c2.88-0.21,5.53-0.06,7.73,0.23
		c3.04-0.59-2.07-1.26,0.05-1.57l9.71,0.88c-0.59-1.07-8.77-1.15-12.65-1.26c0.73,0.1,2.21,0.29,1.73,0.42
		c-1.54,0.13-3.53,0-5.56-0.17c0.4-0.79-2.29-1.7-6.61-1.95c-0.76,0.22-1.21,0.36-1.23,0.53c-0.37-0.04-0.74-0.09-1.11-0.13
		c-2.19-0.52-4.67-1.15-9.91-0.98l3.3,0.64c-0.44,0-0.87,0-1.31,0c-5.59-1.31-4.4-3.66-1.13-3.77c-0.86,0.87,13.87,1.22,3.89,2.28
		c4.47,1.18,12.66,1.26,18.52,2.03l-0.26-0.23l7.28,0.35c-1.02-0.32-3.22-0.61-3.29-1.21l10.07,1.7c-5.67-1.14,3.52-0.72,6.11-1.17
		c1.07,0.93,5.01,1.64,1.22,2.13c-4.25,0.63-2.47-0.52-6.33-0.63l5.46,1.5l0.47-0.14l3.28,1.21c7.45-0.01-3.23-2.78,6.3-1.54
		l-1.25,1.6c11.05-0.13,25.26-1.82,33.07-1c-2.15-0.94-3.08-2.42-0.12-3.27c-3.37,0.25-10.14,0.12-14.96-0.07
		c-0.93,0.27,6.02,1.97,11.27,1.67c-2.56,2.62-13.19-1.72-13.82,0.96c-13.38,0.81-9.95-2.68-21.31-1.21
		c-0.15-1.2-3.22-0.61-3.81-1.68c3.37-1.92,15.17,0.21,22.54-0.4c-0.72-0.09-2.17-0.29-2.45-0.52c5.27-0.3,7.44-0.01,11.11,0.46
		L972,23.91c6.42,1.23,3.98-0.86,7.77-1.35c1.46,0.19,6.72-0.1,5.87,0.77l6.86-1.07l-0.34,1.33c3.86,0.12,4.71-0.76,8.21,0.09
		l0.15,1.2l-9.6,0.33c4.86,0.44,1.35,1.16,6.69,1.46c-5.96-1.37,4.23-0.62,4.82-1.73l3.92,0.71l-1-0.33
		c3.09-0.59,3.67,0.48,7.27,0.36c-4.25,0.63-7.04,1.44-12.44,0.54c3.93,0.71,11.74,1.53,13.65,1.59c4.13,0.54,7.02-0.34,10.89-0.44
		c-0.36-0.03-0.66-0.06-0.94-0.1l1.26-0.11l-1.03-0.33l-1.24,0.25c-3.44-0.93,2.83-3.23-10.3-2.6c0.27,0.23,1.48,0.19,1.95,0.05
		c-2,1.51-8.92-0.18-12.14-0.79c0.84-0.87-2.53-1.12,3.19-1.55c-1.88,0.54,4.8,2.01,10.25,1.34l-0.94-1.89l7.92-0.15l-0.74-0.1
		c2.99-1.19,8.45,0.31,13.91-0.35c3.93,0.71,19.05,0.32,12.53,2.23c3.91-0.9,7.42-0.11,11.39,0.41l-0.58,0.22
		c0.42-0.06,0.81-0.1,1.21-0.14c0.81,0.1,1.65,0.18,2.51,0.23l-6.67,0.71c7.26,1.31,5.89,0.66,10.59,2.28
		c-2.33-0.22-1.13-0.93-6.19-1.26c-1.36,1.04,7.37,1.37,5.82,2.79l2.8-1.47c-0.19,0-0.36,0-0.53,0c0.6-0.35,1.12-0.68,0.18-1.09
		c9.65,0,23.05-0.32,30.03,0.84v-10.6L1098.96,14.58L1098.96,14.58z M59.5,19.12c-0.15,0.35-0.21,0.67-0.18,0.95
		c-1.5,0.19-2.97,0.34-4.44,0.36c-0.63-0.22-1.19-0.45-1.84-0.67C55.17,19.74,57.27,19.44,59.5,19.12z M381.43,22.77
		c-1.52-0.17-3.04-0.45-4.45-1.07l6.17-0.57l4.47,1.18l-0.27-0.23c1.42-0.17,2.63-0.27,3.7-0.31c0.64,0.12,1.44,0.23,2.45,0.32
		l-3.78,0.35c0.24,0.11,0.49,0.19,0.74,0.28C387.85,22.84,384.57,22.87,381.43,22.77z M536.45,23.87c0.35,0,0.69,0.01,1.04,0.02
		c-0.06,0.01-0.13,0.02-0.2,0.03C537,23.92,536.72,23.9,536.45,23.87z M537.11,22.42c-0.1-0.01-0.21-0.01-0.31-0.02
		c0.19-0.04,0.39-0.07,0.59-0.11C537.32,22.34,537.23,22.38,537.11,22.42z M475.47,20.78c0.08,0.04,0.2,0.09,0.33,0.13
		c-1.74-0.06-3.62-0.13-5.48-0.24C471.79,20.57,473.5,20.57,475.47,20.78z M420.81,26.24c-0.86-0.75-0.61-1.22-2.37-1.62
		c0.84,0.01,1.64-0.01,2.42-0.04l-2.76-0.03c-0.38-0.07-0.82-0.15-1.37-0.22l5.72,0.17c-0.52,0.03-1.05,0.07-1.59,0.09l13.36,0.15
		c-0.72,0.14-1.43,0.29-2.17,0.45l-1.23-0.04c0.31,0.04,0.58,0.08,0.83,0.12C429.12,25.81,426.11,26.35,420.81,26.24z M892.38,25.82
		c0.04,0.02,0.07,0.05,0.11,0.07c-0.18-0.05-0.37-0.1-0.55-0.14C892.07,25.78,892.22,25.8,892.38,25.82z M908.18,26.77
		c-0.01,0.01-0.02,0.01-0.03,0.02c-2.2-0.29,4.46,1.17-2.99,1.18c-0.03,0-0.06,0-0.1,0.01l0.21-0.4c-1.41,0.34-2.7,0.45-3.9,0.41
		c-2.11-0.27-2.98-1.02-3.33-1.34c-0.02-0.15,0.45-0.27,1.12-0.38C902.51,26.36,905.9,26.38,908.18,26.77z M884.62,23.07
		c-0.41,1.11-2.28,2.25-4.9,3.01c-7.38-1.37-4.13-1.35-7.6-3.23l-6.89-0.78c7.46-0.12,14.8-0.09,21.9,0.01
		c0.91,0.78,1.88,1.46,2.82,2.09C887.6,23.91,885.73,23.55,884.62,23.07z"/>
	<path fill="#ebebeb" d="M806.97,22.69c0.14,0.09,0.34,0.18,0.55,0.28C807.7,22.87,807.46,22.76,806.97,22.69z"/>
	<path fill="#ebebeb" d="M870.2,29.52c-0.98,0.28-2.96,0.23-4.19,0.27C864.77,29.83,870.55,30.38,870.2,29.52z"/>
	<path fill="#ebebeb" d="M487.24,18.89l0.09,0.23c0.05,0,0.13,0.01,0.22,0.01L487.24,18.89z"/>
	<path fill="#ebebeb" d="M760.98,26.86c0.12-0.06,0.13-0.11,0.19-0.17C760.68,26.73,760.39,26.78,760.98,26.86z"/>
	<path fill="#ebebeb" d="M485.51,16.83C485.42,16.82,485.4,16.82,485.51,16.83L485.51,16.83z"/>
	<path fill="#ebebeb" d="M282.21,25.69c-1.36,1.04,7.37,1.37,5.82,2.79l2.8-1.47C285.12,27.09,288.48,26.1,282.21,25.69z"/>
	<polygon fill="#ebebeb" points="241.91,27.56 246.59,27.15 245.56,26.81 	"/>
	<path fill="#ebebeb" d="M105.48,28.06c0.35,0.86-1.37,1.04-8.04,1.39c8.56,0.39,10.03,0.01,17.19,0.24
		C110.82,29.31,111.81,27.84,105.48,28.06z"/>
	<polygon fill="#ebebeb" points="719.37,28.14 723.91,28.74 724.86,28.46 720.33,27.86 	"/>
	<path fill="#ebebeb" d="M773.02,29.32l-0.8,0.02C772.58,29.37,772.84,29.35,773.02,29.32z"/>
	<path fill="#ebebeb" d="M773.02,29.32l4.15-0.14l-3.32-0.64C772.07,27.96,774.21,29.1,773.02,29.32z"/>
	<path fill="#ebebeb" d="M395.14,28.23c1.52,0.2,4.35,0.98,4.76,0.22C398.11,28,396.38,28.19,395.14,28.23z"/>
	<path fill="#ebebeb" d="M895.59,29.78c-0.93-0.04-1.7-0.07-2.5-0.09C893.78,29.76,894.55,29.8,895.59,29.78z"/>
	<path fill="#ebebeb" d="M883.94,28.06c0.35,0.86-1.37,1.04-8.04,1.39c8.56,0.39,10.03,0.01,17.19,0.24
		C889.28,29.31,890.27,27.84,883.94,28.06z"/>
	<path fill="#ebebeb" d="M117.13,29.78c-0.93-0.04-1.7-0.07-2.5-0.09C115.32,29.76,116.09,29.8,117.13,29.78z"/>
	<path fill="#ebebeb" d="M898.42,28.93c-0.16-0.04-0.33-0.09-0.47-0.13c-0.08,0.01-0.14,0.02-0.23,0.03L898.42,28.93z"/>
	<path fill="#ebebeb" d="M815.29,21.54c0.45,0.09,1.03,0.16,1.64,0.21L815.29,21.54z"/>
	<path fill="#ebebeb" d="M884.58,23.05c0.01,0.01,0.03,0.01,0.04,0.02c0-0.01,0.01-0.01,0.01-0.02
		C884.61,23.05,884.6,23.05,884.58,23.05z"/>
	<path fill="#ebebeb" d="M1059.37,28.28c0.83,0.06,1.8,0.1,3.11,0.1C1061.35,28.27,1060.32,28.25,1059.37,28.28z"/>
	<path fill="#ebebeb" d="M898.42,28.93c1.14,0.26,2.33,0.46,3.85,0.5L898.42,28.93z"/>
	<path fill="#ebebeb" d="M518.31,20.62l1.51,0.2C519.44,20.74,518.95,20.67,518.31,20.62z"/>
	<path fill="#ebebeb" d="M91.74,29.52c-0.98,0.28-2.96,0.23-4.19,0.27C86.31,29.83,92.08,30.38,91.74,29.52z"/>
	<polygon fill="#ebebeb" points="990.92,26.56 995.48,27.15 995.94,27.01 991.39,26.42 	"/>
	<polygon fill="#ebebeb" points="749.97,26.24 755.95,26.41 750.47,26.1 	"/>
	<path fill="#ebebeb" d="M849.23,24.75c0.82,0.72-1.09,1.28-2.32,1.32C853.45,26.72,851.03,25.19,849.23,24.75z"/>
	<path fill="#ebebeb" d="M497.99,18.71c0.19,0.02,0.41,0.03,0.68,0.04L497.99,18.71z"/>
	<path fill="#ebebeb" d="M496.58,18.07l-3.42,0.37l4.83,0.27C496.72,18.6,496.85,18.28,496.58,18.07z"/>
	<path fill="#ebebeb" d="M38.46,21.75l-1.64-0.21C37.28,21.63,37.86,21.7,38.46,21.75z"/>
	<path fill="#ebebeb" d="M132.41,24.66c-0.96,0.28-1.44,0.42-1.15,0.67c-2.55-0.54-4.9-1.46-11.09-1.25l3.3,0.64
		c-7.68,0.01-14.65-0.5-17.31-1.64c-0.41,1.11-2.28,2.25-4.9,3.01c-7.38-1.37-4.13-1.35-7.6-3.23l-11.84-1.34l2.64,1.16
		c-5.92,0.44-11.59-1.11-11.17,0.37c3.12,1.01,8.28,0.47,11.38,1.48l-3.92,0.5c6.89,1.52,3.55-1.36,11.9-0.27
		c-3.08,1.23,0.76,0.1,4.33,0.97c-2.88,0.85-14.71-0.5-12.22,1.66c4.34,0.97,14.64-2.36,20.38-0.19l-0.28-0.24
		c8.49-0.2,11.46,1.05,14.63,1.84c3.62-0.66,8.59,0.36,12.5,0.48l-0.09-0.62l5.52,0.31c-2.62-1.16-6.47-0.03-11.21-0.24l0.6-1.15
		c-5.48,1.32-9.11-0.8-13.34-1.83c6.16,1.06,17.42-0.12,18.86,2.15l3.83-1.13l1.82,0.44C140.82,26.37,137.92,24.97,132.41,24.66z"/>
	<path fill="#ebebeb" d="M106.12,23.05c0.01,0.01,0.03,0.01,0.04,0.02c0-0.01,0.01-0.01,0.01-0.02
		C106.15,23.05,106.13,23.05,106.12,23.05z"/>
	<path fill="#ebebeb" d="M572.4,27.88c2.54-0.19,3.24-0.51,3.28-0.87l-6.2-0.07C570.82,27.24,572.02,27.55,572.4,27.88z"/>
	<path fill="#ebebeb" d="M290.3,22.68c3.79,0.5,3.92-0.51,2.12-0.94C293.45,22.08,291.25,22.4,290.3,22.68z"/>
	<path fill="#ebebeb" d="M119.96,28.93c-0.16-0.04-0.33-0.09-0.47-0.13c-0.08,0.01-0.13,0.02-0.23,0.03L119.96,28.93z"/>
	<path fill="#ebebeb" d="M119.96,28.93c1.14,0.26,2.33,0.46,3.85,0.5L119.96,28.93z"/>
	<path fill="#ebebeb" d="M280.91,28.28c0.83,0.06,1.8,0.1,3.11,0.1C282.89,28.27,281.86,28.25,280.91,28.28z"/>
</g>
</svg>
