<?xml version="1.0" encoding="utf-8"?>
<!-- Generator: Adobe Illustrator 23.0.1, SVG Export Plug-In . SVG Version: 6.00 Build 0)  -->
<svg version="1.1" id="Layer_1" xmlns="http://www.w3.org/2000/svg" xmlns:xlink="http://www.w3.org/1999/xlink" x="0px" y="0px"
	 viewBox="0 0 1099 30" style="enable-background:new 0 0 1099 30;" xml:space="preserve">
<style type="text/css">
	.st0{fill:#434A54;}
</style>
<g>
	<path class="st0" d="M486.23,8.64c1.51,0.1,3.27,0.09,5.32-0.12c0.08-0.05,0.2-0.09,0.34-0.13C490.09,8.45,488.14,8.53,486.23,8.64
		z"/>
	<path class="st0" d="M555.57,6.95c-0.3-0.18-0.92-0.31-1.73-0.35C554.36,6.73,554.93,6.85,555.57,6.95z"/>
	<path class="st0" d="M554.59,5.31c1.03,0,2.09-0.04,3.04-0.12C556.48,5.21,555.44,5.24,554.59,5.31z"/>
	<path class="st0" d="M1098.96,15.42v-1.61V3.21c-6.98,1.16-20.38,0.84-30.03,0.84c0.94-0.41,0.42-0.74-0.18-1.09
		c0.17,0,0.34,0,0.53,0l-2.8-1.47c1.55,1.42-7.18,1.75-5.82,2.79c5.06-0.33,3.86-1.04,6.19-1.26c-4.7,1.62-3.33,0.97-10.59,2.28
		l6.67,0.71c-0.86,0.05-1.7,0.13-2.51,0.23c-0.4-0.04-0.79-0.08-1.21-0.14l0.58,0.22c-3.97,0.52-7.48,1.31-11.39,0.41
		c6.52,1.91-8.6,1.52-12.53,2.23c-5.46-0.66-10.92,0.84-13.91-0.35l0.74-0.1l-7.92-0.15l0.94-1.89c-5.45-0.67-12.13,0.8-10.25,1.34
		c-5.72-0.43-2.35-0.68-3.19-1.55c3.22-0.61,10.14-2.3,12.14-0.79c-0.47-0.14-1.68-0.18-1.95,0.05c13.13,0.63,6.86-1.67,10.3-2.6
		l1.24,0.25l1.03-0.33l-1.26-0.11c0.28-0.04,0.58-0.07,0.94-0.1c-3.87-0.1-6.76-0.98-10.89-0.44c-1.91,0.06-9.72,0.88-13.65,1.59
		c5.4-0.9,8.19-0.09,12.44,0.54c-3.6-0.12-4.18,0.95-7.27,0.36l1-0.33l-3.92,0.71c-0.59-1.11-10.78-0.36-4.82-1.73
		c-5.34,0.3-1.83,1.02-6.69,1.46l9.6,0.33l-0.15,1.2c-3.5,0.85-4.35-0.03-8.21,0.09l0.34,1.33l-6.86-1.07
		c0.85,0.87-4.41,0.58-5.87,0.77c-3.79-0.49-1.35-2.58-7.77-1.35l0.41,0.11c-3.67,0.47-5.84,0.76-11.11,0.46
		c0.28-0.23,1.73-0.43,2.45-0.52c-7.37-0.61-19.17,1.52-22.54-0.4c0.59-1.07,3.66-0.48,3.81-1.68c11.36,1.47,7.93-2.02,21.31-1.21
		c0.63,2.68,11.26-1.66,13.82,0.96c-5.25-0.3-12.2,1.4-11.27,1.67c4.82-0.19,11.59-0.32,14.96-0.07c-2.96-0.85-2.03-2.33,0.12-3.27
		c-7.81,0.82-22.02-0.87-33.07-1l1.25,1.6c-9.53,1.24,1.15-1.53-6.3-1.54l-3.28,1.21l-0.47-0.14l-5.46,1.5
		c3.86-0.11,2.08-1.26,6.33-0.63c3.79,0.49-0.15,1.2-1.22,2.13c-2.59-0.45-11.78-0.03-6.11-1.17l-10.07,1.7
		c0.07-0.6,2.27-0.89,3.29-1.21l-7.28,0.35l0.26-0.23c-5.86,0.77-14.05,0.85-18.52,2.03c9.98,1.06-4.75,1.41-3.89,2.28
		c-3.27-0.11-4.46-2.46,1.13-3.77c0.44,0,0.87,0,1.31,0l-3.3,0.64c5.24,0.17,7.72-0.46,9.91-0.98c0.37-0.04,0.74-0.09,1.11-0.13
		c0.02,0.17,0.47,0.31,1.23,0.53c4.32-0.25,7.01-1.16,6.61-1.95c2.03-0.17,4.02-0.3,5.56-0.17c0.48,0.13-1,0.32-1.73,0.42
		c3.88-0.11,12.06-0.19,12.65-1.26l-9.71,0.88c-2.12-0.31,2.99-0.98-0.05-1.57c-2.2,0.29-4.85,0.44-7.73,0.23l0.54-0.47
		c-0.59-0.08-1.21-0.14-1.86-0.2c0.24-0.07,0.49-0.13,0.72-0.23l-2.18,0.12c-1.05-0.07-2.15-0.11-3.29-0.13l0.04-0.31
		c-1.26,0.04-2.64,0.17-4.04,0.31c-2.51,0.04-5.07,0.15-7.48,0.29c-0.33-0.03-0.67-0.06-0.98-0.12c-0.3,0.08-0.6,0.16-0.9,0.24
		c-0.66,0.04-1.31,0.08-1.93,0.13c-0.11,0.17-0.25,0.32-0.37,0.48c-2.47,0.6-5.68,1.13-11.44,1l0.28-0.24
		c-5.74,2.17-16.04-1.16-20.38-0.19c-2.49,2.16,9.34,0.81,12.22,1.66c-3.57,0.87-7.41-0.26-4.33,0.97
		c-8.35,1.09-5.01-1.79-11.9-0.27l3.92,0.5c-3.1,1.01-8.26,0.47-11.38,1.48c-0.42,1.48,5.25-0.07,11.17,0.37l-1.2,0.53
		c-2-0.04-4-0.08-6.01-0.15c0.18,0.5,0.05,0.99-0.46,1.43c-3.05-0.58-8.65-0.05-8.5-1.25c-1.56,0.59-4.5,1.12-6.95,1.65
		c-0.08-0.78,0.46-1.28,2.13-1.28c-1.03-0.06-1.88-0.06-2.64-0.04c-3.22,0.1-4.3,0.82-5.98,1.37c1.54,0.02,3.06,0.18,4.63,0.38
		c-1.65,0.43-2.63,0.85-1.94,1.3c-0.37,0.03-0.82,0.06-1.23,0.09c-3.91-1.25-9.79-2.21-20.36-2.38c-2.07,0-2.36,0.8-1.88,1.93
		c-2.24-0.32-4.34-0.61-6.46-0.64c1.62-0.53,2.67-1.23,5.78-1.32l-16.43-0.24l1.27-0.56l-6.46,0.85c3.65-0.34,9.29-0.07,7.92,1.13
		c-7.34,0.95-11.51-0.28-17.73,1.32c0.02-2.16-2.11-2.47-0.03-3.73c0.42,0.02,0.62,0.05,0.74,0.1c2.32-1.19,7.29-2.51,11.15-2.83
		c-13.65-0.58-10.12,0.14-22.1-0.26c-1.05-1.25,11.01-1.44,8.22-2.26l11.24,0.5c-1.9,0.11-2.14,0.39-3.05,0.6
		c7.74-0.98,10.56,0.14,16.37-1.36c3.69,0.55-5.73,1.02-1.69,1.19c-3.43,0.27-6.77,1.7-8.41,2.69c8.85,0.42,5.01-1.63,12.54-2.22
		l5.64,1.04c3.4-0.25-1.12-0.65-1.32-1.01c4.14-0.35,5.72,0.43,8.85,0.42c-0.92-0.27-3.04-0.58-2.51-1.05
		c5.2,0.9,10.31,0.23,15.14,1.96c-2.79-0.82,3.16-2.18,5.37-2.47l-9.92-1.66c-12.58,0.66-20.42-0.08-34,0.9l0.8-0.69
		c-21.41-1.93-17.73,3.5-36.03,3.72c-0.51-1.71-8.46,0.31-7.78-1.35c5.53,0.06,4.4-0.57,2.82-1.35c-3.2,0.61-5.28,1.87-11.47,1.3
		c2.28-0.89-3.17-1.56,2.89-1.95c-8.38-0.28-12.98-0.08-17.25,1.46c-13.67,1.59-4.11-1.81-17.69-0.83l1.99-0.66l-8.45,0.32
		l2.79,0.82l-9.99,1.11c-6.14,1,2.51,1.05,1.72,1.75l2.06-1.26c4.05,0.25,9.74-0.88,10.59-0.01c-6.6,0.25-5.01,1.21-7.63,1.73
		l6.29-0.56l2.06,0.91c6.25-0.03,11.06,0.13,14.78-0.95c-0.16-0.03-0.32-0.04-0.48-0.05c0.42-0.04,0.77-0.1,1.08-0.16l-1.44,0.13
		c-0.66-0.03-1.26,0.05-1.83,0.16l-0.28,0.02c0.06-0.01,0.12-0.01,0.18-0.01c-1.24,0.24-2.38,0.57-3.76,0.16
		c3.06-1.58,10.8-1.8,18.32-2.39c0.2,0.36,2.59,0.44,1.58,0.77c-0.15,0.15-1.47,0.15-2.2,0.09c0.57,0.69-3.62,1.17,3.46,1.52
		c-2.53,1.12-7.81,2.99-7.62,3.36c-4.12,0.34-9.92,0.51-13.23,0.15l0.26-0.23c-3.57-0.13-11.17,1.07-11.78-0.04
		c-2.19,0.29-8.25,0.69-2.07,1.26l-10.18,0.74c1.67-1.99-7.92-2.31,2.16-4.02c-0.34,0.04-4.05,0.31-9.99,0.73
		c0.09-0.07,0.16-0.13,0.27-0.2c0.35-0.1,0.62-0.21,0.78-0.36c1.21,0.05,1.94-0.05,2.14,0.32c2.93-1.19-0.14-1.61-4.43-1.75
		c0.62-0.16,1.22-0.34,1.84-0.51c0.96-0.12,1.77-0.18,2.58-0.25l8.18-2.37l1.88-1.06l-9.85,1.28c1.31-0.58-3.44-0.36-1.37-1.04
		c-0.75,0.09-4.27,0.35-3.31,0.63l2.01-0.06c-5.18,1.7-2.03,2.3-10.64,3.63c2.09,0.36,3.72,0.44,5.1,0.36l-0.53,0.46
		c-4.79-0.59-7.67-1.56-14.04-1.01l-14.89,4.31c-1.44,0.1-2.91,0.2-4.38,0.3c-1.95-0.63-8.51-0.08-5.94-1.4
		c-0.67-0.5,1.54-0.79,4.41-0.57c0.44,0.14-0.27,0.23,0.19,0.37c0.81-0.69,1.15-1.52-2.35-2.24c3.56,0.11,4.03,0.25,6.5-0.27
		l-3.59-0.12c5.33-0.3,13.47-1.96,13.35-2.92c-1.63,1.39-5.05,0.07-7.93-0.15c2.21-0.28,6.87-1.09,3.29-1.21
		c-1.27,0.56-11.01,1.44-4.09,1.91c-2.93,0.39-6.86,1.1-10.18,0.74c3.9-0.71,1.33-1.15,2.41-2.08c-3.47,0.85-3.34,1.82-3.9,2.28
		c-9.95-1.06-14-3.49-25.18-2.42c-1.46,0.19,6.79-0.5,5.73,0.43c-8.16,1.66-10.65-1.56-17.73-0.83l2,1.51
		c-2.19,0.29-7.54,0.59-10.18,0.74c-0.68-0.51-8.25-1.49-2.65-2.02c-4.9-0.31-7.59,0.17-9.97,0.84L575.67,3
		c0.05,0.48-1.06,1.03-0.83,1.46l2.65-0.05c-2.23,0.47-5.07,0.8-9.4,0.69c6.45,0.33,7.19,0.24,12.26,0.17
		c-5.4,0.9-0.82,0.69-1.41,1.75c-3.26-0.96-13.72,0.01-6.6-1.31c-4.32-0.02-12.97-0.07-14.97,0.58l3.79,0.49
		c-6.25,0.02-12.39,1.02-14.94,2.14c7.75-0.21,7.48-2.15,17.34-2.06c10.69,0.97-2.54,1.12,4.49,2.56l7.6-1.19l-3.59-0.12
		c1.14-1.52,11.77,0.04,10.8-1.8c7.74,1.35,10.03,0.46,18.54,1.71c2-0.65-1.12-0.64-3.52-0.72c4.31,0.03,4.53-1.77,10.18-0.74
		c2.87,0.21,0.88-1.3-4.18-1.23c4.32,0.03,8.46-0.31,13.24-0.15l-4.9-1.13l5.05-0.07l-4.26-0.63c9.65-0.27,20.71-0.14,25.81,1.36
		c-8.33,1.29-22.24,0.93-27.05,2.94c1.86,0.55,6.67-1.46,9.11,0.19l2.53-1.12c2.94-0.39,9.73-0.88,10.33,0.22
		c-8.04,0.88-10.14,1.87-14.22,2.86c-0.03,0.24-0.76,0.37-1.93,0.43c-0.05,0.01-0.07,0.02-0.12,0.03l0.07-0.03
		c-2.39,0.13-6.3,0.05-8.53,0.34c-2.84-0.21-0.89-0.87-0.59-1.1c-9.71-1.29-16.39,2.34-26.64,1.51c-0.11-0.96-8.04-1.11-5.57-1.63
		c-5.98-0.2-9.26,1.01-13.18,1.72c-0.87-0.87-9.12-0.19-6.12-1.17l-5.46,1.5c-3.78-0.49-11.59,0.32-12.91-0.68
		c-4.13,0.34-1.14,1.52-6.87,1.09c0.26-0.23-0.2-0.36,1-0.32c-2.58-0.45-8.86-0.42-11.58,0.33c4.04,0.25,0.94,0.27,5.73,0.43
		c-0.1,0.6-5.47,1.5-10.92,0.83c7.4-1.56-5.85-1.41-2.38-2.25c-11.77-0.04-18.51,2.02-28.31,3.5c-11.58,0.32-25.96-0.16-35.02,1.22
		l1.2,0.04l-1.83,0.3h-5.3c-0.23-0.39-0.45-0.79-3.18-0.54c1.55-1.33,7.89-0.4,12.76-1.24c7.3-0.02,10.45-2,16.58-1.1l-0.79,0.69
		c0.54-0.08,4.29-0.68,3.54-1.44c-5.33,0.3-6.34,0.63-11.11,0.47c1.95-0.65,6.2-1.21,9.33-1.24l0.33-1.21
		c4.01-1.31,8.12,0.51,12.11-0.79L480.82,9c1.77-0.2,3.14-0.34,4.24-0.44c0.14,0.04,0.25,0.08,0.32,0.13
		c0.08-0.07,0.39-0.15,0.85-0.23c4.34-0.32,4.1,0.13,14.07-0.33c-1.83,0.97-9.7,0.58-7.6,1.77c1.62-0.1,2.87-0.16,3.91-0.21
		c-0.03,0.96-7.95,0.21-5.38,1.29c1.79-0.44,6.17-0.41,5.4-1.29c2.82-0.13,4.06-0.2,6.77-0.99c0.26,0,0.5,0.01,0.75,0.01
		c-0.14,0.22,0.26,0.79-1.33,1.13l7.16-0.93c2.31,0.13,4.19,0.32,5.61,0.56c1.64-0.21,1.87-1,3.96-1.18
		c-0.46,0.02-0.89,0.05-1.42,0.06l-0.06-0.5l0.89-0.12c3.64-0.82,0.31-0.87-1.06-1.2l-0.01-0.12c-0.08,0.02-0.15,0.03-0.23,0.05
		c-0.09-0.03-0.16-0.06-0.21-0.1c1.3-0.67,6.89-0.5,8.88,0c-0.2,0.19-0.34,0.39-0.53,0.58c-1.38,0.24-3.03,0.5-1.59,0.81
		c-0.88,0.24-2.23,0.43-4.43,0.54c0.68-0.04,1.53-0.03,2.69,0.1c0.86-0.05,1.69-0.01,2.38,0.08c-1.77,0.26-3.4,0.48-4.39,0.66
		c2.47,0.05,4.41-0.03,6.16-0.17c0.12,0.1,0.08,0.21-0.17,0.29c4.32-0.72,5.26-0.25,5.82-0.88c1.54-0.16,3.23-0.3,5.29-0.37
		c-0.1,0.2-0.59,0.42-1.66,0.61L541.44,8c0.49,0,1,0,1.56-0.03c-0.39-0.01-0.75-0.02-1.11-0.02l4-0.44l-5.59-0.19
		c0.67-0.09,1.21-0.19,1.63-0.3c-0.33-0.08-0.5-0.14-0.55-0.21c2.88-0.38,8.44,0.51,9.98-0.81l-7.78,0.17
		c0.05-0.05,0.1-0.11,0.15-0.17c1.4,0,2.79,0,4.08-0.06c-3.69-0.55-1.56-1.06,1.12-1.61c0.48-0.05,0.8-0.13,1.03-0.22
		c0.31-0.07,0.61-0.13,0.91-0.2l-0.7,0.01c0.05-0.15-0.11-0.33-0.61-0.58c-4.86,0.44-8.59-0.65-11.72-0.64
		c3.11,2.16-10.65,0.61-14.58,1.32l-2.2,0.13c-0.66-0.3-1.51-0.49-2.48-0.62c0.33-0.08,0.7-0.15,1.16-0.23
		c-0.36,0.08-0.88,0.14-1.47,0.19c-3.86-0.44-9.38,0.06-11.99-0.48c3.08,1.12,0.1,1.08,1.05,1.4l-8.86,0.1
		c-0.02-0.03-0.04-0.05-0.07-0.08c-0.2,0.03-0.4,0.06-0.6,0.09l-3.24,0.04c-0.39-0.07-0.77-0.16-1.11-0.26
		c1.1-0.24,3.06-0.36,4.75-0.23c-3.53-0.73,4.46-1.18-0.53-1.71c-8.9,0.5-15.61,1-21.94,2.41l-34.11,0.39
		c-1.98-0.19-3.93-0.39-5.66-0.6l12.93-0.15c-3.35-0.64-6.45-1.71-13.86-1.56c-0.68,0.59-0.7,1.01-1.49,1.37
		c-2.35-0.37-3.88-0.78-3.74-1.26c-4.06-0.26-2.93,0.38-9.39,0.04c-2.99,0.99,0.25,1.94-6.8,2.66l5.57,0.43
		c1.13-0.19,2.08-0.44,3.31-0.6c2.88,0.2,5.54,0.56,8.62,0.73c-2.11,0.58-1.7,0.74-0.5,0.8c0.05,0.09,0.15,0.2,0.34,0.32
		c-4.39-0.97-4.93,0.96-9.86,0.18c2.48-0.31,4.8-0.71,3.3-1.4l-6.33,0.63l0.53-0.47l-7.72,0.22c0.84,0.4,1.56,0.61,2.01,0.83
		c-3.73,0.29-3.16,0.46-2.59,0.71c-3.37-0.17-3.21-0.47-3.8-0.86c0.57-0.06,1.21-0.11,1.94-0.16c-0.64-0.19-1.91-0.34-3.56-0.45
		c9.03-1.49-1.02-1.8,10.65-3.13c-0.06-1.57-4.84-1.73-11.36-1.47c4.25,0.62-2.69,2.32,2.97,3.35c-2.32,0.21-4.03,0.54-5.45,0.91
		l-10.72,0.24l0.93-0.26c-0.97,0.02-1.4,0.13-1.73,0.27l-2.25,0.05c0.19-0.05,0.38-0.1,0.56-0.16c-3.96-0.83-6.54-0.31-9.36,0.36
		l-10.78,0.25c2.02-0.56,10.22-0.54,10.18-1.66c-1.73,0.43-6.46-0.33-5.91-0.8c8.11,0.52,4.93-1.03,13.97-0.25
		c-4.4,0.57,0.68,0.5-0.14,1.2c1.28-0.56,9.74-0.88,15.72-0.68c1.35-1.16-5.19-0.9-8.97-1.39c-7.14,1.33-14.57-0.85-20.05,0.65
		c-7.71,0.22-0.58-1.1-1.05-1.24c-6.93-0.47-3,0.98-5.2,1.27c-10.46,0.97-11.64-1.24-19.1-1.25c-6.19,1.6-21.3,1.21-31.88,1.21
		c1.28-0.55-0.13-0.96-0.77-1.47c-5.46,1.91-4.48,1.49-9.28,2.28C294.79,4,290.69,7.5,280.73,6.1l4.03,1.51
		c7.74-0.67,11.91-1.72,18.54-2.3l6.61,0.7c-5.34,0.3-9.62,1.84-14.53,0.71c6.52,1.91-8.6,1.52-12.53,2.23
		c-5.46-0.66-10.92,0.84-13.91-0.35l0.74-0.1l-7.92-0.15l0.94-1.89c-5.45-0.67-12.13,0.8-10.25,1.34c-5.72-0.43-2.35-0.68-3.19-1.55
		c3.22-0.61,10.14-2.3,12.14-0.79c-0.47-0.14-1.68-0.18-1.95,0.05c14.89,0.72,4.84-2.33,12.26-2.88c-3.87-0.1-6.76-0.98-10.89-0.44
		c-1.91,0.06-9.72,0.88-13.65,1.59c5.4-0.9,8.19-0.09,12.44,0.54c-3.6-0.12-4.18,0.95-7.27,0.36l1-0.33l-3.92,0.71
		c-0.59-1.11-10.78-0.36-4.82-1.73c-4.75,0.26-2.5,0.86-5.37,1.3c-0.16-0.01-0.33-0.03-0.52-0.04c0.09,0.03,0.19,0.06,0.29,0.08
		c-0.31,0.04-0.65,0.08-1.08,0.12l1.93,0.07c0.31,0.06,0.63,0.11,1.01,0.16c-0.02-0.05-0.09-0.09-0.19-0.13l6.85,0.23l-0.15,1.2
		c-3.5,0.85-4.35-0.03-8.21,0.09l0.34,1.33l-6.86-1.07c0.85,0.87-4.41,0.58-5.87,0.77c-3.79-0.49-1.35-2.58-7.77-1.35l0.43,0.14
		c-3.67,0.47-5.84,0.76-11.11,0.46c0.28-0.23,1.73-0.43,2.45-0.52c-7.37-0.61-19.17,1.52-22.54-0.4c0.59-1.07,3.66-0.48,3.81-1.68
		c11.36,1.47,7.93-2.02,21.31-1.21c0.04,0.16,0.11,0.3,0.22,0.41l-1.15,0.15l0.47,0.14l0.89-0.12c2.13,1.35,11.08-2,13.4,0.38
		c-5.25-0.3-12.2,1.4-11.27,1.67c4.82-0.19,11.59-0.32,14.96-0.07c-2.96-0.85-2.03-2.33,0.12-3.27c-7.81,0.82-22.02-0.87-33.07-1
		l1.25,1.6c-9.53,1.24,1.15-1.53-6.3-1.54l-3.28,1.21l-0.47-0.14l-5.46,1.5c3.86-0.11,2.08-1.26,6.33-0.63
		c3.79,0.49-0.15,1.2-1.22,2.13c-2.59-0.45-11.78-0.03-6.11-1.17l-10.07,1.7c0.07-0.6,2.27-0.89,3.29-1.21l-7.28,0.35l0.26-0.23
		c-5.86,0.77-14.05,0.85-18.52,2.03c9.98,1.06-4.75,1.41-3.89,2.28c-3.59-0.12-4.7-2.93,2.9-4.12c2.06,0.92,7.27-0.35,11.12-0.46
		c-4.97-0.53-6.51,0.26-10.39,0.37c2.74-0.75-5.18-0.9-5.1-1.5c0.51-0.46,2.13-1.85,7.12-1.32c7.45,0.01,0.79,1.47,2.99,1.18
		c1.99,1.51,10.39-0.37,14.91,0.02c0.48,0.13-1,0.32-1.73,0.42c3.88-0.11,12.06-0.19,12.65-1.26l-9.71,0.88
		c-2.12-0.31,2.99-0.98-0.05-1.57c-2.2,0.29-4.85,0.44-7.73,0.23l0.54-0.47c-5.9-0.8-15.11-0.4-21.89,0.1
		c-1.5,2.36-5.03,3.8-7.99,6.35c-10.1,0.15-20.67,0.15-31.43-0.21c0.18,0.5,0.05,0.99-0.46,1.43c-3.05-0.58-8.65-0.05-8.5-1.25
		c-3.26,1.22-12.53,2.23-10.75,3.37c-0.37,0.03-0.82,0.06-1.23,0.09c-3.91-1.25-9.78-2.21-20.33-2.38c0.22-0.44,0.83-0.71,2.04-0.71
		c-1.03-0.06-1.88-0.06-2.64-0.04c-1.94,0.06-3.1,0.34-4.09,0.68L42.37,8.67l1.27-0.56l-6.46,0.85c3.65-0.34,9.29-0.07,7.92,1.13
		c-7.34,0.95-11.51-0.28-17.73,1.32c0.02-2.16-2.11-2.47-0.03-3.73c0.42,0.02,0.62,0.05,0.74,0.1c2.32-1.19,7.29-2.51,11.15-2.83
		c-13.65-0.58-10.12,0.14-22.1-0.26c-1.05-1.25,11.01-1.44,8.22-2.26l8.09,0.36c-0.15,0.02-0.29,0.04-0.45,0.06
		c0.25-0.01,0.46-0.03,0.65-0.05l2.96,0.13c-1.9,0.11-2.14,0.39-3.05,0.6c7.74-0.98,10.56,0.14,16.37-1.36
		c3.69,0.55-5.73,1.02-1.69,1.19c-3.43,0.27-6.77,1.7-8.41,2.69c8.85,0.42,5.01-1.63,12.54-2.22L58,4.87
		c3.4-0.25-1.12-0.65-1.32-1.01c4.14-0.35,5.72,0.43,8.85,0.42c-0.92-0.27-3.04-0.58-2.51-1.05c2.22,0.38,4.42,0.48,6.59,0.6
		c-0.36,0.02-0.74,0.06-1.17,0.1c1.23,0.04,3.14,0.6,2.32,1.32c1.02-0.25,2.23-0.84,1.91-1.2c1.86,0.18,3.7,0.49,5.49,1.13
		C75.37,4.36,81.32,3,83.53,2.71l-9.92-1.66c-12.58,0.66-20.42-0.08-34,0.9l0.8-0.69C19-0.67,22.68,4.76,4.38,4.98
		C4.12,4.12,1.98,4.21,0,4.29v15.82v0.83v8.89V30h1098.96v-2.69L1098.96,15.42L1098.96,15.42z M53.04,10.24
		c0.65-0.22,1.21-0.45,1.84-0.67c1.47,0.02,2.94,0.17,4.44,0.36c-0.03,0.28,0.03,0.6,0.18,0.95C57.27,10.56,55.17,10.26,53.04,10.24
		z M390.46,7.28c-0.25,0.09-0.5,0.17-0.74,0.28l3.78,0.35c-1.01,0.09-1.81,0.2-2.45,0.32c-1.07-0.04-2.28-0.14-3.7-0.31l0.27-0.23
		l-4.47,1.18l-6.17-0.57c1.41-0.62,2.93-0.9,4.45-1.07C384.57,7.13,387.85,7.16,390.46,7.28z M537.29,6.08
		c0.07,0.01,0.14,0.02,0.2,0.03c-0.35,0.01-0.69,0.02-1.04,0.02C536.72,6.1,537,6.08,537.29,6.08z M537.39,7.71
		c-0.2-0.04-0.4-0.07-0.59-0.11c0.1-0.01,0.21-0.01,0.31-0.02C537.23,7.62,537.32,7.66,537.39,7.71z M470.32,9.33
		c1.86-0.11,3.74-0.18,5.48-0.24c-0.13,0.04-0.25,0.09-0.33,0.13C473.5,9.43,471.79,9.43,470.32,9.33z M431.65,4.73
		c-0.25,0.04-0.52,0.08-0.83,0.12l1.23-0.04c0.74,0.16,1.45,0.31,2.17,0.45l-13.36,0.15c0.54,0.02,1.07,0.06,1.59,0.09l-5.72,0.17
		c0.55-0.07,0.99-0.15,1.37-0.22l2.76-0.03c-0.78-0.03-1.58-0.05-2.42-0.04c1.76-0.4,1.51-0.87,2.37-1.62
		C426.11,3.65,429.12,4.19,431.65,4.73z M891.94,4.25c0.18-0.04,0.37-0.09,0.55-0.14c-0.04,0.02-0.07,0.05-0.11,0.07
		C892.22,4.2,892.07,4.22,891.94,4.25z M899.16,3.73c-0.67-0.11-1.14-0.23-1.12-0.38c0.35-0.32,1.22-1.07,3.33-1.34
		c1.2-0.04,2.49,0.07,3.9,0.41l-0.21-0.4c0.04,0.01,0.07,0.01,0.1,0.01c7.45,0.01,0.79,1.47,2.99,1.18
		c0.01,0.01,0.02,0.01,0.03,0.02C905.9,3.62,902.51,3.64,899.16,3.73z M889.95,5.83c-0.94,0.63-1.91,1.31-2.82,2.09
		c-7.1,0.1-14.44,0.13-21.9,0.01l6.89-0.78c3.47-1.88,0.22-1.86,7.6-3.23c2.62,0.76,4.49,1.9,4.9,3.01
		C885.73,6.45,887.6,6.09,889.95,5.83z"/>
	<path class="st0" d="M807.52,7.03c-0.21,0.1-0.41,0.19-0.55,0.28C807.46,7.24,807.7,7.13,807.52,7.03z"/>
	<path class="st0" d="M866.01,0.21c1.23,0.04,3.21-0.01,4.19,0.27C870.55-0.38,864.77,0.17,866.01,0.21z"/>
	<path class="st0" d="M487.55,10.87c-0.09,0-0.17,0.01-0.22,0.01l-0.09,0.23L487.55,10.87z"/>
	<path class="st0" d="M761.17,3.31c-0.06-0.06-0.07-0.11-0.19-0.17C760.39,3.22,760.68,3.27,761.17,3.31z"/>
	<path class="st0" d="M485.51,13.17C485.4,13.18,485.42,13.18,485.51,13.17L485.51,13.17z"/>
	<path class="st0" d="M290.83,2.99l-2.8-1.47c1.55,1.42-7.18,1.75-5.82,2.79C288.48,3.9,285.12,2.91,290.83,2.99z"/>
	<polygon class="st0" points="245.56,3.19 246.59,2.85 241.91,2.44 	"/>
	<path class="st0" d="M114.63,0.31c-7.16,0.23-8.63-0.15-17.19,0.24c6.67,0.35,8.39,0.53,8.04,1.39
		C111.81,2.16,110.82,0.69,114.63,0.31z"/>
	<polygon class="st0" points="720.33,2.14 724.86,1.54 723.91,1.26 719.37,1.86 	"/>
	<path class="st0" d="M772.22,0.66l0.8,0.02C772.84,0.65,772.58,0.63,772.22,0.66z"/>
	<path class="st0" d="M773.85,1.46l3.32-0.64l-4.15-0.14C774.21,0.9,772.07,2.04,773.85,1.46z"/>
	<path class="st0" d="M399.9,1.55c-0.41-0.76-3.24,0.02-4.76,0.22C396.38,1.81,398.11,2,399.9,1.55z"/>
	<path class="st0" d="M893.09,0.31c0.8-0.02,1.57-0.05,2.5-0.09C894.55,0.2,893.78,0.24,893.09,0.31z"/>
	<path class="st0" d="M893.09,0.31c-7.16,0.23-8.63-0.15-17.19,0.24c6.67,0.35,8.39,0.53,8.04,1.39
		C890.27,2.16,889.28,0.69,893.09,0.31z"/>
	<path class="st0" d="M114.63,0.31c0.8-0.02,1.57-0.05,2.5-0.09C116.09,0.2,115.32,0.24,114.63,0.31z"/>
	<path class="st0" d="M897.72,1.17c0.09,0.01,0.15,0.02,0.23,0.03c0.14-0.04,0.31-0.09,0.47-0.13L897.72,1.17z"/>
	<path class="st0" d="M816.93,8.25c-0.61,0.05-1.19,0.12-1.64,0.21L816.93,8.25z"/>
	<path class="st0" d="M884.63,6.95c0-0.01-0.01-0.01-0.01-0.02c-0.01,0.01-0.03,0.01-0.04,0.02C884.6,6.95,884.61,6.95,884.63,6.95z
		"/>
	<path class="st0" d="M1062.48,1.62c-1.31,0-2.28,0.04-3.11,0.1C1060.32,1.75,1061.35,1.73,1062.48,1.62z"/>
	<path class="st0" d="M902.27,0.57c-1.52,0.04-2.71,0.24-3.85,0.5L902.27,0.57z"/>
	<path class="st0" d="M519.82,9.18l-1.51,0.2C518.95,9.33,519.44,9.26,519.82,9.18z"/>
	<path class="st0" d="M87.55,0.21c1.23,0.04,3.21-0.01,4.19,0.27C92.08-0.38,86.31,0.17,87.55,0.21z"/>
	<polygon class="st0" points="991.39,3.58 995.94,2.99 995.48,2.85 990.92,3.44 	"/>
	<polygon class="st0" points="750.47,3.9 755.95,3.59 749.97,3.76 	"/>
	<path class="st0" d="M846.91,3.93c1.23,0.04,3.14,0.6,2.32,1.32C851.03,4.81,853.45,3.28,846.91,3.93z"/>
	<path class="st0" d="M498.67,11.25c-0.27,0.01-0.49,0.02-0.68,0.04L498.67,11.25z"/>
	<path class="st0" d="M497.99,11.29l-4.83,0.27l3.42,0.37C496.85,11.72,496.72,11.4,497.99,11.29z"/>
	<path class="st0" d="M36.82,8.46l1.64-0.21C37.86,8.3,37.28,8.37,36.82,8.46z"/>
	<path class="st0" d="M137.98,2.79l-1.82,0.44l-3.83-1.13c-1.44,2.27-12.7,1.09-18.86,2.15c4.23-1.03,7.86-3.15,13.34-1.83
		l-0.6-1.15c4.74-0.21,8.59,0.92,11.21-0.24l-5.52,0.31l0.09-0.62c-3.91,0.12-8.88,1.14-12.5,0.48c-3.17,0.79-6.14,2.04-14.63,1.84
		l0.28-0.24C99.4,4.97,89.1,1.64,84.76,2.61c-2.49,2.16,9.34,0.81,12.22,1.66c-3.57,0.87-7.41-0.26-4.33,0.97
		c-8.35,1.09-5.01-1.79-11.9-0.27l3.92,0.5c-3.1,1.01-8.26,0.47-11.38,1.48c-0.42,1.48,5.25-0.07,11.17,0.37l-2.64,1.16l11.84-1.34
		c3.47-1.88,0.22-1.86,7.6-3.23c2.62,0.76,4.49,1.9,4.9,3.01c2.66-1.14,9.63-1.65,17.31-1.64l-3.3,0.64
		c6.19,0.21,8.54-0.71,11.09-1.25c-0.29,0.25,0.19,0.39,1.15,0.67C137.92,5.03,140.82,3.63,137.98,2.79z"/>
	<path class="st0" d="M106.17,6.95c0-0.01-0.01-0.01-0.01-0.02c-0.01,0.01-0.03,0.01-0.04,0.02C106.13,6.95,106.15,6.95,106.17,6.95
		z"/>
	<path class="st0" d="M569.48,3.06l6.2-0.07c-0.04-0.36-0.74-0.68-3.28-0.87C572.02,2.45,570.82,2.76,569.48,3.06z"/>
	<path class="st0" d="M292.42,8.26c1.8-0.43,1.67-1.44-2.12-0.94C291.25,7.6,293.45,7.92,292.42,8.26z"/>
	<path class="st0" d="M119.26,1.17c0.1,0.01,0.15,0.02,0.23,0.03c0.14-0.04,0.31-0.09,0.47-0.13L119.26,1.17z"/>
	<path class="st0" d="M123.81,0.57c-1.52,0.04-2.71,0.24-3.85,0.5L123.81,0.57z"/>
	<path class="st0" d="M284.02,1.62c-1.31,0-2.28,0.04-3.11,0.1C281.86,1.75,282.89,1.73,284.02,1.62z"/>
</g>
</svg>
