<?xml version="1.0" encoding="utf-8"?>
<!-- Generator: Adobe Illustrator 23.0.1, SVG Export Plug-In . SVG Version: 6.00 Build 0)  -->
<svg version="1.1" id="Layer_1" xmlns="http://www.w3.org/2000/svg" xmlns:xlink="http://www.w3.org/1999/xlink" x="0px" y="0px"
	 viewBox="0 0 50 52" style="enable-background:new 0 0 50 52;" xml:space="preserve">
<style type="text/css">
	.st0{fill:#FB6B47;}
</style>
<g>
	<path class="st0" d="M4.36,14.34h0.28c-0.08-1.13-0.14-2.27-0.19-3.41L4.36,14.34z"/>
	<path class="st0" d="M45.4,14.34l-0.09-3.41c-0.05,1.15-0.11,2.28-0.19,3.41H45.4z"/>
	<path class="st0" d="M49.74,4.34c0-0.01,0-0.03,0-0.04C49.72,1.91,47.75,0,45.37,0h-0.08H4.48H4.4C2.01,0,0.05,1.91,0.02,4.3
		c0,0.01,0,0.03,0,0.04C0.02,4.76,0,5.19,0,5.62c0,16.55,3.13,32.14,8.6,42.76c0.56,1.1,1.45,1.97,2.57,2.54
		c0.83,0.42,1.72,0.63,2.64,0.63h22.17c0.9,0,1.82-0.22,2.64-0.63c1.11-0.56,2-1.44,2.57-2.54c5.46-10.62,8.6-26.21,8.6-42.76
		C49.77,5.19,49.75,4.76,49.74,4.34z M45.4,14.34h-0.28c-0.87,12.52-3.61,23.89-7.81,32.05c-0.14,0.28-0.37,0.5-0.66,0.65
		c-0.22,0.11-0.45,0.17-0.68,0.17H13.8c-0.23,0-0.46-0.06-0.68-0.17c-0.2-0.1-0.48-0.3-0.66-0.65c-4.2-8.17-6.94-19.54-7.82-32.05
		H4.36l0.09-3.41C4.38,9.17,4.34,7.4,4.34,5.62c0-0.42,0.02-0.85,0.02-1.28H45.4c0,0.43,0.02,0.85,0.02,1.28
		c0,1.79-0.04,3.56-0.12,5.31L45.4,14.34z"/>
	<path class="st0" d="M45.28,10H13.32H8.98h-4.5l-0.03,0.93c0.05,1.15,0.11,2.28,0.19,3.41h4.4h4.34h31.75
		c0.08-1.13,0.14-2.27,0.19-3.41L45.28,10z"/>
	<g>
		<path class="st0" d="M9.19,17.34c0.22,3.44,0.67,7.38,1.53,11.19c2.23,9.92,4.83,14.42,5.12,14.9l3.72-2.23
			c-0.02-0.04-2.49-4.21-4.6-13.62c-0.78-3.47-1.2-7.07-1.42-10.24h-0.16H9.19z"/>
	</g>
</g>
</svg>
