<?xml version="1.0" encoding="utf-8"?>
<!-- Generator: Adobe Illustrator 23.0.1, SVG Export Plug-In . SVG Version: 6.00 Build 0)  -->
<svg version="1.1" id="Layer_1" xmlns="http://www.w3.org/2000/svg" xmlns:xlink="http://www.w3.org/1999/xlink" x="0px" y="0px"
	 viewBox="0 0 57 52" style="enable-background:new 0 0 57 52;" xml:space="preserve">
<style type="text/css">
	.st0{fill:#E6007D;}
</style>
<g>
	<polygon class="st0" points="9.99,18.64 8.37,15.5 28.66,5.08 48.95,15.5 47.33,18.64 28.66,9.06 	"/>
	<polygon class="st0" points="49.37,18.34 46.91,15.8 51.02,11.82 34.39,4.33 29.66,8.52 27.32,5.87 33.76,0.17 57.21,10.73 	"/>
	<polygon class="st0" points="32.34,35.94 27.03,29.01 29.83,26.86 33.27,31.34 49.08,22.32 46.6,17.94 49.68,16.2 53.89,23.64 	"/>
	<polygon class="st0" points="24.75,35.82 3.2,23.51 7.41,16.07 10.49,17.81 8.01,22.19 23.82,31.21 27.26,26.73 30.06,28.88 	"/>
	<polygon class="st0" points="28.66,29.82 7.87,18.3 -0.06,10.61 23.4,0.05 29.83,5.75 27.49,8.39 22.76,4.21 6.14,11.69 
		10.15,15.58 28.66,25.78 47.29,15.52 48.99,18.62 	"/>
	<rect x="26.66" y="27.93" class="st0" width="3.54" height="21.94"/>
	<polygon class="st0" points="28.43,51.92 7.05,39.55 7.05,24.91 10.59,24.91 10.59,37.51 28.43,47.83 46.27,37.51 46.27,24.91 
		49.8,24.91 49.8,39.55 	"/>
</g>
</svg>
