<?xml version="1.0" encoding="utf-8"?>
<!-- Generator: Adobe Illustrator 23.0.1, SVG Export Plug-In . SVG Version: 6.00 Build 0)  -->
<svg version="1.1" id="Layer_1" xmlns="http://www.w3.org/2000/svg" xmlns:xlink="http://www.w3.org/1999/xlink" x="0px" y="0px"
	 viewBox="0 0 67 52" style="enable-background:new 0 0 67 52;" xml:space="preserve">
<style type="text/css">
	.st0{fill:#63D2D8;}
</style>
<g>
	<path class="st0" d="M66.5,52.24H-0.24v-52H66.5V52.24z M3.91,48.09h58.44V4.39H3.91V48.09z"/>
	<rect x="1.84" y="37.72" class="st0" width="62.59" height="4.15"/>
	<rect x="1.84" y="10.62" class="st0" width="62.59" height="4.15"/>
	<rect x="12.28" y="40.99" class="st0" width="4.15" height="9.18"/>
	<rect x="24.8" y="40.99" class="st0" width="4.15" height="9.18"/>
	<rect x="37.32" y="40.99" class="st0" width="4.15" height="9.18"/>
	<rect x="49.84" y="40.99" class="st0" width="4.15" height="9.18"/>
	<rect x="12.28" y="3.6" class="st0" width="4.15" height="9.18"/>
	<rect x="24.8" y="3.6" class="st0" width="4.15" height="9.18"/>
	<rect x="37.32" y="3.6" class="st0" width="4.15" height="9.18"/>
	<rect x="49.84" y="3.6" class="st0" width="4.15" height="9.18"/>
	<polygon class="st0" points="43.61,26.24 25,35.55 25,16.94 	"/>
</g>
</svg>
