<?xml version="1.0" encoding="utf-8"?>
<!-- Generator: Adobe Illustrator 23.0.1, SVG Export Plug-In . SVG Version: 6.00 Build 0)  -->
<svg version="1.1" id="Layer_1" xmlns="http://www.w3.org/2000/svg" xmlns:xlink="http://www.w3.org/1999/xlink" x="0px" y="0px"
	 viewBox="0 0 47 52" style="enable-background:new 0 0 47 52;" xml:space="preserve">
<style type="text/css">
	.st0{fill:#F18500;}
</style>
<g>
	<path class="st0" d="M9.41,51.3c-4.94,0-8.95-3.63-8.95-8.1c0-4.47,4.02-8.1,8.95-8.1s8.95,3.63,8.95,8.1
		C18.36,47.67,14.35,51.3,9.41,51.3z M9.41,39.36c-2.59,0-4.7,1.73-4.7,3.85c0,2.12,2.11,3.85,4.7,3.85s4.7-1.73,4.7-3.85
		C14.11,41.08,12,39.36,9.41,39.36z M37.7,41.35c-4.94,0-8.95-3.63-8.95-8.1s4.02-8.1,8.95-8.1s8.95,3.63,8.95,8.1
		S42.63,41.35,37.7,41.35z M37.7,29.41c-2.59,0-4.7,1.73-4.7,3.85s2.11,3.85,4.7,3.85c2.59,0,4.7-1.73,4.7-3.85
		S40.29,29.41,37.7,29.41z M14.11,16.32V5.02l32.54-5.17v11.29L14.11,16.32z M18.36,8.76v2.72L42.4,7.41V4.69L18.36,8.76z"/>
	<rect x="14.11" y="11.28" class="st0" width="4.25" height="31.93"/>
	<rect x="42.4" y="9.86" class="st0" width="4.25" height="23.4"/>
</g>
</svg>
