<?xml version="1.0" encoding="utf-8"?>
<!-- Generator: Adobe Illustrator 23.0.1, SVG Export Plug-In . SVG Version: 6.00 Build 0)  -->
<svg version="1.1" id="Layer_1" xmlns="http://www.w3.org/2000/svg" xmlns:xlink="http://www.w3.org/1999/xlink" x="0px" y="0px"
	 viewBox="0 0 14.5 14.5" style="enable-background:new 0 0 14.5 14.5;" xml:space="preserve">
<style type="text/css">
	.st0{clip-path:url(#SVGID_2_);fill:#434A54;}
</style>
<g>
	<g>
		<g>
			<g>
				<defs>
					<rect id="SVGID_1_" width="14.5" height="14.5"/>
				</defs>
				<clipPath id="SVGID_2_">
					<use xlink:href="#SVGID_1_"  style="overflow:visible;"/>
				</clipPath>
				<path class="st0" d="M11.6,11.6c-0.8,0-1.4,0.7-1.4,1.4c0,0.8,0.7,1.4,1.4,1.4c0.8,0,1.4-0.6,1.4-1.4
					C13,12.2,12.4,11.6,11.6,11.6 M0,0v1.4h1.4L4,6.9L3,8.7c0,0.2-0.1,0.5-0.1,0.7c0,0.8,0.7,1.4,1.4,1.4H13V9.4H4.6
					c-0.1,0-0.1-0.1-0.1-0.1V9.2L5.1,8h5.4c0.6,0,1-0.3,1.2-0.7l2.6-4.7c0.1-0.1,0.1-0.2,0.1-0.4c0-0.4-0.3-0.7-0.7-0.7H3L2.4,0H0z
					 M4.3,11.6c-0.8,0-1.4,0.7-1.4,1.4c0,0.8,0.7,1.4,1.4,1.4s1.4-0.6,1.4-1.4C5.8,12.2,5.1,11.6,4.3,11.6"/>
			</g>
		</g>
	</g>
</g>
</svg>
