<?xml version="1.0" encoding="utf-8"?>
<!-- Generator: Adobe Illustrator 22.1.0, SVG Export Plug-In . SVG Version: 6.00 Build 0)  -->
<svg version="1.1" id="Layer_1" xmlns="http://www.w3.org/2000/svg" xmlns:xlink="http://www.w3.org/1999/xlink" x="0px" y="0px"
	 width="35px" height="55px" viewBox="0 0 35 55" style="enable-background:new 0 0 35 55;" xml:space="preserve">
<style type="text/css">
	.st0{fill:#42163F;}
</style>
<g>
	<path class="st0" d="M17.5,55c-0.1-0.1-0.1-0.2-0.2-0.3c-2.6-4.1-5.1-8.3-7.5-12.5c-2.1-3.7-4.1-7.5-5.9-11.3
		c-1.1-2.4-2.2-4.9-3-7.5c-0.4-1.1-0.7-2.3-0.8-3.5C0,19.2,0,18.4,0,17.7c0.1-0.9,0.1-1.9,0.3-2.8c0.5-3,1.5-5.8,3.4-8.3
		c1.7-2.2,3.8-3.9,6.4-5c1.6-0.7,3.3-1.2,5.1-1.4c4-0.5,7.8,0.2,11.4,2.2c2.7,1.5,4.8,3.7,6.2,6.4c1.1,2.1,1.7,4.3,2,6.6
		c0.2,1.3,0.2,2.5,0.2,3.8c0,1.1-0.3,2.1-0.5,3.2c-0.5,1.9-1.2,3.7-1.9,5.4c-1.5,3.5-3.2,7-5.1,10.4c-2.3,4.3-4.8,8.6-7.4,12.8
		c-0.8,1.4-1.7,2.7-2.5,4C17.6,54.9,17.6,54.9,17.5,55z M17.5,24.3c3.4,0,6.1-2.7,6.1-6.1c0-3.4-2.7-6.2-6.1-6.2
		c-3.4,0-6.1,2.7-6.1,6.1C11.4,21.5,14.1,24.3,17.5,24.3z"/>
</g>
</svg>
