<?xml version="1.0" encoding="utf-8"?>
<!-- Generator: Adobe Illustrator 23.0.1, SVG Export Plug-In . SVG Version: 6.00 Build 0)  -->
<svg version="1.1" id="Layer_1" xmlns="http://www.w3.org/2000/svg" xmlns:xlink="http://www.w3.org/1999/xlink" x="0px" y="0px"
	 viewBox="0 0 1400 880" style="enable-background:new 0 0 1400 880;" xml:space="preserve">
<style type="text/css">
	.st0{opacity:0.1;}
</style>
<g class="st0">
	<path d="M1297.92,531.87c-3.6-7.25-7.95-14.37-13.08-20.64c-6.42-7.87-13.75-15.12-21.11-22.21
		c-10.85-10.46-23.26-18.49-37.99-22.64c-9.91-2.78-19.54,0.43-25.34,8.81c-0.78,1.1-1.29,2.47-2.11,4.11
		c-7.95-14.61-19.9-21.35-32.43-26.63c1.06-3.09,1.8-5.4,2.62-7.72c2.82-7.99,6.07-15.43,13.43-20.84
		c21.78-15.94,42.69-33.06,66.31-46.33c4.15-2.31,5.87-11.83,2.66-17.15c-7.21-12.06-16.18-22.76-27.26-31.41
		c-13.75-10.69-28.36-20.01-45.39-24.64c-8.38-2.27-16.72-5.37-25.26-6.03c-9.48-0.74-19.35-1.8-28.59,1.72
		c-4.11,1.61-8.93,3.49-10.26,8.38c-2.9,10.61-5.48,21.35-7.87,32.12c-2.58,11.67-5.17,23.38-7.21,35.17
		c-1.68,9.67-2.51,19.5-3.96,29.22c-0.27,1.8-1.41,3.72-2.62,5.17c-6.15,7.28-12.38,14.53-18.76,21.62
		c-4.78,5.29-8.89,11.2-16.8,12.92c-15,3.25-28.16,10.3-38.42,21.85c-8.3,9.32-15.9,19.31-23.89,28.94
		c-3.72,4.46-7.6,8.77-13.83,10.54c-1.06-9.79-1.53-19.07-3.21-28.16c-2.78-14.84-6.19-29.65-9.75-44.34
		c-2.23-9.24-5.09-18.33-8.07-27.38c-3.37-10.18-6.23-20.68-11.12-30.12c-4.78-9.2-6.11-19.19-9.32-28.71
		c-2.51-7.36-3.64-15.16-5.76-22.68c-2-7.17-4.58-14.22-6.74-21.35c-1.64-5.56-2.62-11.36-4.62-16.76
		c-2.43-6.5-5.64-12.73-8.81-19.7c0.7-0.51,2.08-1.72,3.68-2.47c12.85-6.11,25.69-12.22,38.66-18.13c5.4-2.47,10.97-4.62,16.61-6.58
		c11.51-3.96,23.15-7.75,34.74-11.55c8.66-2.82,17.27-5.64,25.97-8.22c3.68-1.06,7.75-0.94,11.28-2.27
		c14.45-5.48,28.75-11.28,43.04-17.08c2.23-0.9,4.97-1.84,3.99-5.29c-1.29-4.62-4.58-7.28-8.89-6.58c1.45,2.04,2.7,3.8,3.96,5.56
		c-0.08,0.43-0.2,0.86-0.27,1.29c-1.72-0.47-3.99-0.43-5.13-1.53c-2.51-2.47-4.66-4.23-7.25-1.64c-2-0.82-3.45-1.45-4.93-2.08
		c-0.43,0.67-0.86,1.29-1.29,1.96c1.45,1.1,2.94,2.15,4.58,3.37c-3.25,2.43-5.33,3.37-7.68-1.14c-1.02-1.96-1.72-7.05-7.21-4.86
		c2.23,3.41,4.35,6.62,6.34,9.6c-12.53,4.31-24.13,8.5-35.88,12.26c-11.51,3.68-23.15,6.89-34.7,10.3
		c-0.23-0.39-0.51-0.78-0.74-1.17c2.08-3.13,3.56-6.97,6.31-9.28c10.54-8.85,15.78-20.64,19.58-33.33c0.86-2.9,4.82-4.86,7.44-3.56
		c1.37,0.67,2.94,0.94,4.54,1.45c0.51,2.19,1.1,4.86,1.76,7.91c4.43-1.72,4.39-5.37,3.72-8.19c-0.39-1.68-3.29-2.78-6.07-4.9
		c-0.43-6.34-0.43-6.34-3.68-6.78c-0.12,2.74-0.27,5.48-0.39,8.22c-0.47,0.16-0.94,0.35-1.41,0.55c-1.21-2.27-2.43-4.54-3.84-7.21
		c-0.43,0.98-0.74,1.49-0.94,2.04c-2.62,7.05-4.35,14.65-8.07,21.03c-7.56,12.96-16.18,25.34-24.48,37.87
		c-1.49,2.19-3.21,3.52-6.66,2.43c-8.66-2.74-17.59-4.7-26.4-7.05c-0.74-0.2-1.33-1.1-1.96-1.68c0.67-0.71,1.25-1.72,2.08-1.96
		c1.14-0.35,2.47,0,3.72-0.12c5.13-0.55,10.26-1.17,15.39-1.8c-4.78,0.31-9.56,0.74-14.45,1.25c-2.39,0.04-4.9-1.02-7.25-0.71
		c-1.61,0.23-3.02,1.96-4.54,3.05c1.21,0.94,2.31,2.23,3.68,2.78c6.54,2.62,13.16,5.05,19.9,7.6
		c-20.68,9.05-41.01,17.98-60.71,26.63c-4.39-9.09-8.5-17.7-12.85-26.71c27.77-12.65,56.56-22.32,85.93-30.2
		c0.31,0.39,0.63,0.78,0.94,1.17c-1.96,4.19-3.92,8.34-5.87,12.53c1.21-0.78,2.86-1.33,3.56-2.43c4.23-6.85,8.66-13.43,10.93-21.5
		c1.92-6.85,6.58-12.89,9.56-19.5c1.53-3.37,3.05-5.91,7.01-6.11c0.12,0,0.23-0.55,0.35-0.82c-6.42-0.67-12.65,1.1-12.45,3.68
		c0.78,0,1.61,0,3.84,0c-2.19,4.9-4.31,9.05-5.91,13.39c-2.27,6.27-5.05,11.67-13.12,10.89c-0.39-0.04-0.82,0.39-1.25,0.55
		c-10.46,3.33-20.91,6.62-31.37,9.99c-7.4,2.35-14.8,4.62-22.09,7.25c-11.24,4.07-22.36,8.46-33.6,12.49
		c-0.98,0.35-3.05-0.59-3.8-1.57c-9.6-12.65-18.88-25.58-28.71-38.07c-3.92-4.97-8.85-9.2-13.47-13.59
		c-8.22-7.83-16.18-16.06-25.03-23.15c-9.05-7.25-18.92-13.51-28.71-19.78c-5.44-3.49-11.36-6.34-17.23-9.05
		c-5.44-2.51-11.24-4.23-16.72-6.74c-13.63-6.23-27.3-12.38-41.75-16.41c-10.18-2.86-20.33-6.03-30.71-8.03
		c-9.05-1.76-18.33-2.47-27.53-2.98c-16.65-0.94-33.33-1.76-49.98-1.8c-14.14,0-28.32,0.86-42.46,1.84
		c-9.2,0.67-18.37,2.08-27.53,3.33c-7.68,1.06-15.31,2.19-22.95,3.49c-5.25,0.9-10.57,1.8-15.67,3.29
		c-6.66,1.92-13.24,4.35-19.78,6.74c-9.75,3.56-19.47,7.09-29.06,11.04c-5.33,2.19-10.3,5.21-16.18,8.22
		c-0.27-2.11-0.43-3.41-0.55-4.74c-0.59-6.31-1.02-12.65-1.8-18.96c-1.49-12.06-2.9-24.13-4.9-36.11
		c-1.02-6.15-1.65-12.69-6.27-18.56c-0.08,1.41-0.27,2.08-0.12,2.62c1.33,4.35,3.05,8.66,3.99,13.08c0.9,4.19,1.41,8.54,1.29,12.81
		c-0.16,5.99-1.76,12.02-1.41,17.98c0.59,9.2,2.19,18.33,3.56,27.49c0.86,5.8-0.08,7.79-4.86,10.54
		c-6.66,3.84-13.16,7.95-20.48,12.42c-2.55-8.54-5.09-16.96-7.56-25.38c-1.8-6.07-3.49-12.18-5.29-18.25c-0.2-0.71-0.59-1.49-1.1-2
		c-5.29-5.33-10.42-10.81-15.98-15.82c-2.7-2.43-6.07-4.27-9.4-5.76c-1.25-0.59-3.41,0.23-4.86,0.98c-0.43,0.23-0.2,2.47,0.23,3.6
		c0.98,2.74,2.51,5.33,3.41,8.11c2.82,8.66,8.85,15.9,10.5,25.07c0.35,1.88,1.61,3.64,1.72,5.52c0.51,7.13,0.86,14.3,0.98,21.42
		c0.16,9.56-3.88,17.86-10.46,24.17c-8.34,8.03-17.82,14.88-26.87,22.17c-0.9,0.7-2.27,0.82-4.11,1.45c1.1-2.66,1.84-4.5,2.62-6.31
		c4.66-10.73,7.87-21.78,7.13-33.6c-0.7-11.04-4.23-21.07-11.48-29.49c-4.93-5.72-9.71-11.83-15.67-16.29
		c-6.03-4.46-13.32-7.25-20.21-10.5c-2.94-1.37-6.19-0.78-7.99,2.04c-3.52,5.48-6.34,11.36-9.87,16.84
		c-5.4,8.42-11.16,16.65-17.04,25.38c-3.37-23.42-1.29-46.29-1.37-69.32c-1.41,1.64-2.9,3.45-3.02,5.33
		c-0.55,10.3-0.82,20.6-1.02,30.9c-0.04,2.47,0.78,4.9,0.78,7.36c0.04,11.04-0.08,22.05-0.2,33.06c0,0.94-0.59,1.96-1.1,2.82
		c-4.23,6.78-8.5,13.55-12.77,20.29c-9.05,14.3-18.09,28.59-27.3,43.12c8.07,9.91,19.82,12.26,31.02,15.47
		c11.63,3.37,23.42,2.86,34.82-0.55c4.5,7.6,8.97,14.77,13.08,22.13c1.02,1.84,1.45,4.39,1.25,6.5c-0.67,7.01-2.31,13.59-5.52,20.17
		c-3.92,8.03-5.91,16.96-8.81,25.5c-1.49,4.43-3.6,8.69-4.5,13.24c-0.98,4.82-0.98,9.87-1.17,14.84c-0.2,5.05-0.39,10.1-0.04,15.12
		c0.27,4.39,1.29,8.69,2,13.04c1.68,10.46,2.43,21.15,5.25,31.29c2.66,9.63,5.95,19.23,10.73,28.24
		c4.78,9.01,8.58,18.56,12.89,27.81c2.31,4.97,4.78,9.87,7.32,14.73c1.17,2.27,2.15,5.25,4.11,6.46c5.44,3.37,4.7,9.63,7.56,14.18
		c1.92,2.98,2.7,6.66,4.15,9.95c0.27,0.7,1.84,1.29,1.76,1.57c-1.21,3.45,0,5.44,3.02,5.87c-0.2,1.41-0.71,2.58-0.39,3.45
		c1.21,3.56,5.44,5.76,4.86,10.26c-0.04,0.27,0.94,0.59,1.25,1.02c0.86,1.06,1.88,2.11,2.35,3.37c2.04,5.6,4.11,11.2,5.84,16.92
		c2,6.66,4.5,13.36,5.21,20.17c0.82,7.91-0.08,16.02-0.23,23.62c-11.44,2-21.89,3.52-31.22,8.42c-9.32,4.9-18.76,9.99-27.1,16.33
		c-6.19,4.74-10.85,11.55-15.98,17.62c-2.08,2.43-1.49,4.58,1.64,6.27c7.83,4.23,15.51,8.77,23.23,13.2
		c1.53,0.86,2.94,1.92,5.99,3.88c-8.69,4.93-16.45,8.77-23.62,13.55c-10.69,7.17-22.4,11.63-34.7,15.04
		c-11.98,3.29-11.95,3.41-17.62-7.83c-0.27-0.55-0.82-0.98-1.1-1.53c-2.58-5.48-2.9-5.4-8.38-2.35
		c-10.65,5.91-21.38,12.1-34.19,11.01c-10.81-0.9-21.35-3.02-31.88-5.99c-12.69-3.6-24.05-9.83-35.29-15.94
		c-16.61-9.05-31.02-21.35-44.45-34.62c-5.52-5.48-10.61-11.44-15.59-17.43c-6.97-8.46-13.86-17-20.37-25.85
		c-7.6-10.34-15.27-20.72-21.93-31.69c-6.15-10.07-10.97-20.91-16.49-31.37c-0.82-1.53-2.19-2.78-3.29-4.15
		c-0.82,1.61-2.35,3.21-2.39,4.82c-0.2,9.75-0.12,19.54,0,29.34c0.2,17.23,1.06,34.43,0.63,51.62c-0.27,10.14,2.7,18.6,9.13,25.93
		c7.32,8.34,14.57,16.92,22.87,24.28c10.46,9.28,21.85,17.62,33.06,26.05c11.44,8.62,23.5,16.29,36.74,21.93
		c6.93,2.94,13.71,6.23,20.68,9.09c4.11,1.68,8.46,2.9,13.32,4.5c-4.93,2.82-9.36,5.29-13.63,7.95c-0.74,0.43-1.57,2.08-1.29,2.66
		c2.55,5.37,5.17,10.73,8.15,15.86c2.86,4.97,6.54,9.52,9.2,14.61c5.76,10.97,16.14,32.35,16.14,32.35s10.72,18.99,12.48,18.33
		c0,0,0,0,0,0c1,1.74,2.16,3.42,3.06,5.1c3.76,7.05,8.89,13.32,13.08,20.13c1.8,2.9,3.8,3.99,7.6,3.37
		c-4.03-4.7-5.44-10.38-9.91-14.53c-3.17-2.94-4.31-7.99-7.13-11.48c-2.98-3.64-3.13-4.39,1.41-6.23c0-0.03,0-0.07,0-0.1
		c3.79-1.79,8.68-4.12,14.16-6.74c-0.08,0.14-0.17,0.28-0.25,0.42c5.6-2.58,11.24-5.17,16.8-7.75c-0.29-0.08-0.58-0.14-0.86-0.2
		c23.51-11.32,49.58-23.96,51.66-25.02c5.95-3.05,12.02-5.95,18.41-9.13c6.5,10.54,12.85,20.6,18.96,30.82
		c0.59,0.98,0.16,3.56-0.67,4.15c-4.43,3.13-9.01,6.15-13.79,8.69c-3.53,1.88-18.73,9.95-28.91,15.39
		c-4.45,0.05-7.94,1.92-9.76,5.29c-12.75,6.19-32.01,15.23-36.84,17.93c0.31,0.51,0.63,1.06,0.94,1.61
		c6.7-3.6,31.37-11.08,38.07-14.69c5.8-3.29,33.84-19.74,39.64-23.07c5.91-3.41,11.98-6.58,18.06-9.91
		c-11.28-19.86-22.79-40.18-34.54-60.86c4.43-1.29,8.81-2.11,12.81-3.88c9.13-4.03,18.21-8.22,26.99-13
		c9.09-4.97,18.02-10.3,26.52-16.21c6.34-4.43,12.06-9.83,17.74-15.12c1.96-1.84,3.33-2.19,5.48-0.82c4.58,2.9,9.13,5.87,13.86,8.46
		c12.26,6.66,24.56,13.2,36.97,19.54c3.02,1.53,5.13,6.31,9.32,3.92c3.29-1.88,5.99-4.86,8.81-7.48c1.1-1.02,1.8-2.43,2.78-3.64
		c8.46-10.5,10.46-23.07,10.69-35.88c0.2-8.77-1.72-17.27-5.21-25.61c-5.48-13.08-13.59-23.85-24.64-32.47
		c-3.88-3.05-8.42-5.33-5.76-11.51c0.27-0.67,0.04-1.57,0.04-2.35c0.2-11.16,0-22.25-3.64-33.1c-4.07-12.14-6.5-24.83-11.2-36.7
		c-3.99-10.03-10.03-19.23-15.35-28.67c-9.48-16.84-19.23-33.57-28.51-50.48c-3.76-6.81-7.13-13.94-9.79-21.23
		c-2.66-7.4-4.46-15.12-6.27-22.79c-1.92-8.19-4.19-16.41-4.93-24.75c-0.86-9.79-0.43-19.78-0.12-29.65
		c0.16-4.9,0.78-9.87,2.08-14.61c1.53-5.68,3.84-11.16,6.07-16.65c3.84-9.4,6.93-19.31,12.06-27.96
		c6.85-11.63,15.04-22.52,23.34-33.17c4.58-5.87,10.46-10.81,16.02-15.9c4.7-4.31,9.75-8.3,14.77-12.53
		c0.08,0.51,0.47,1.37,0.27,2.08c-0.71,2.66-1.61,5.25-2.39,7.87c-2.74,9.09-5.37,18.21-8.26,27.22c-2.7,8.42-5.6,16.76-8.69,25.07
		c-1.53,4.03-2.7,8.85-5.68,11.48c-4.03,3.56-9.52,5.68-14.57,7.95c-3.96,1.76-7.87,3.21-9.44,7.75
		c26.16,20.09,56.28,33.33,84.64,50.72c1.84-2.66,3.88-4.7,4.86-7.17c2.58-6.46,4.82-13.12,6.97-19.74
		c3.49-10.77,6.85-21.58,10.3-32.35c1.88-5.91,3.88-11.79,5.64-17.7c1.96-6.66,3.56-13.47,5.68-20.09
		c1.8-5.72,4.39-11.16,6.19-16.88c0.55-1.68,0.27-4.58-0.82-5.48c-1.06-0.86-3.84-0.31-5.52,0.39c-4.23,1.84-8.3,3.96-12.34,6.23
		c-10.26,5.76-20.44,11.67-30.67,17.47c-1.61,0.9-3.37,1.49-5.05,2.19c-0.31-0.31-0.67-0.67-0.98-0.98
		c3.49-10.38,7.01-20.72,10.46-31.1c1.37-4.03,2.55-8.11,3.92-12.14c2.47-7.21,5.09-14.41,7.56-21.62
		c2.39-7.01,1.37-15.16,10.93-18.96c9.48-3.76,18.02-10.07,26.99-15.2c0.51-0.27,1.25-0.08,1.84-0.23c3.21-0.86,6.5-1.57,9.63-2.7
		c10.18-3.72,20.17-7.87,30.43-11.32c7.13-2.39,14.57-3.88,21.89-5.8c9.4-2.43,18.76-4.9,28.55-7.44c0.2,1.96,0.55,2.78,0.35,3.45
		c-2.66,8.89-4.97,17.94-8.26,26.63c-1.17,3.02-4.35,5.4-8.77,4.82c-8.89-1.17-17.82-1.84-26.75-2.7
		c-4.54-0.43-8.93-0.39-13.24,3.45c1.88,2.04,3.37,4.11,5.33,5.68c4.19,3.37,8.85,6.19,12.85,9.75c3.84,3.45,3.25,7.99-1.17,10.5
		c-3.84,2.19-8.11,3.68-12.14,5.6c-2.86,1.37-5.6,2.98-8.38,4.5c0.23,0.7,0.43,1.41,0.63,2.11c5.68,0.2,11.36,0.12,17,0.59
		c5.52,0.43,11.71,2,13.43,7.4c2.7,8.42,3.49,17.43,5.09,26.16c0.59,3.25,1.17,6.5,1.76,9.75c0.47-0.08,0.98-0.12,1.45-0.2
		c0.27-0.82,0.51-1.64,0.82-2.43c6.27-16.96,15.43-20.64,31.57-21.7c9.99-0.67,19.35,3.96,28.55,7.83c2.7,1.1,5.52,1.88,9.36,3.13
		c-5.64-7.68-10.61-14.06-15.2-20.68c-4.5-6.5-7.32-12.57,0.55-20.72c7.83-8.11,15.94-15.94,23.85-23.97
		c1.84-1.88,3.37-4.11,5.05-6.15c-0.27-0.51-0.55-1.06-0.82-1.57c-11.91,1.57-23.81,2.9-35.64,4.86
		c-7.68,1.25-12.73-0.47-15.63-7.72c-3.52-8.81-6.34-17.94-9.56-27.18c1.37-0.47,2.35-1.1,3.37-1.17c5.25-0.43,10.57-0.31,15.74-1.1
		c16.29-2.47,32.63-0.98,48.84,0.31c13.51,1.06,26.91,3.41,40.34,5.48c6.31,0.98,12.65,2.11,18.68,4.03
		c8.03,2.55,15.78,5.99,23.7,9.01c14.41,5.48,28.83,10.89,41.59,19.9c8.81,6.19,18.41,11.28,26.87,17.9
		c9.56,7.48,19.27,15.24,27.02,24.48c9.4,11.2,18.84,22.68,24.75,36.39c1.29,2.98,2.9,5.76,4.35,8.66c-0.47,0.35-0.9,0.67-1.37,1.02
		c-5.13-3.84-10.34-7.64-15.47-11.51c-5.8-4.39-11.44-8.97-17.31-13.24c-10.65-7.68-21.38-15.35-32.31-22.64
		c-1.61-1.06-4.97-0.74-6.93,0.2c-9.95,4.66-19.7,9.79-29.53,14.69c-2.19,1.1-5.48,1.45-6.34,3.13c-0.82,1.57,0.78,4.5,1.57,6.74
		c3.02,8.38,6.15,16.72,9.48,25.73c-8.54,7.68-17.9,15.98-27.26,24.36c6.81,7.25,13.59,14.45,19.74,21.03
		c-9.13,4.15-18.53,8.34-27.89,12.61c-4.74,2.19-9.71,4.11-14.18,6.78c-13.98,8.34-26.87,18.29-38.19,29.96
		c-9.75,10.03-19.47,19.97-26.32,32.74c-5.99,11.2-8.54,23.11-10.3,34.9c-1.25,8.5-1.57,18.02,1.8,27.02
		c3.13,8.34,3.6,17.78,7.17,25.85c3.92,8.81,9.28,17.31,15.43,24.79c6.38,7.75,14.18,14.41,21.82,21.07
		c7.09,6.19,14.3,12.57,22.36,17.35c11.24,6.66,23.3,11.98,35.09,17.66c7.83,3.76,15.67,7.56,23.73,10.65
		c6.81,2.58,13.98,4.23,21.03,6.19c6.74,1.84,13.43,3.72,20.25,5.25c5.44,1.25,11.32,1.17,16.53,3.02
		c10.42,3.68,21.15,3.05,31.72,3.33c18.09,0.43,36.23,0.08,54.28-0.9c13.67-0.74,27.26-3.02,41.08-4.62c0,0.82-0.04,2.04,0,3.29
		c0.43,9.67-1.53,19-3.64,28.4c-2.66,11.91-4.07,24.13-6.93,35.99c-2.35,9.67-6.11,18.96-9.16,28.43
		c-1.14,3.52-1.64,7.28-3.17,10.61c-2.66,5.8-5.87,11.36-8.85,17c-4.43,8.34-8.66,16.76-13.32,24.95
		c-6.54,11.51-16.53,20.05-26.79,28c-11.04,8.58-22.05,17.55-34.27,24.05c-13.39,7.13-28.04,12.22-42.46,17.23
		c-10.93,3.84-22.29,6.93-33.68,8.85c-7.52,1.25-15.63,0.74-23.15-0.63c-6.58-1.21-12.77-4.78-19.15-7.28
		c-5.56-2.19-11.79-10.89-11.28-16.18c1.41-14.06,8.54-24.95,19.78-32.86c7.4-5.21,15.74-9.16,23.58-13.86
		c11.24-6.81,23.5-11.36,36.03-14.61c9.4-2.47,18.6-5.09,27.49-8.85c10.22-4.31,20.48-8.73,26.71-18.8
		c3.84-6.23,9.28-11.55,5.72-20.41c-2.78-6.89-11.51-15.43-19-15.2c-5.76,0.2-11.51,1.76-17.23,1.64
		c-7.64-0.16-14.22,2.23-20.41,6.27c-6.38,4.19-12.69,8.5-19,12.77c-9.32,6.34-19.11,12.1-27.77,19.23
		c-12.77,10.57-25.18,21.58-39.64,29.84c-7.6,4.35-15.35,8.54-24.32,9.4c-8.26,0.78-14.26-3.56-13.28-10.03
		c0.67-4.39,2.31-8.77,4.19-12.85c4.5-9.75,12.92-15.98,21.7-21.35c10.07-6.15,20.6-11.55,31.06-17
		c7.36-3.84,14.88-7.36,22.48-10.65c4.03-1.72,8.54-2.31,12.53-4.11c11.48-5.17,22.95-10.42,34.07-16.25
		c4.62-2.43,8.89-5.95,12.42-9.79c3.29-3.52,3.56-8.3,4.03-13.39c0.67-7.56-1.65-12.53-7.01-16.53c-7.91-5.91-17.35-5.56-26.28-4.07
		c-9.95,1.64-19.97,3.72-28.55,9.83c-8.11,5.76-16.68,10.89-24.6,16.88c-6.27,4.74-11.71,10.57-17.82,15.63
		c-11.04,9.13-22.72,17.55-33.33,27.1c-10.57,9.48-22.44,15.98-35.99,19.78c-20.88,5.87-41.08,6.19-59.69-7.17
		c-14.61-10.46-26.67-23.3-35.92-38.7c-7.4-12.3-11.48-25.77-13.39-39.95c-1.61-12.1-3.02-24.13,0.55-36.15
		c3.72-12.53,10.42-23.42,19.66-32.31c9.09-8.77,19.47-15.98,32.98-16.72c5.37-0.31,10.34-0.78,15.78,1.1
		c13.86,4.82,22.44,23.23,21.03,36.15c-0.98,9.2-2.74,18.53-5.84,27.22c-4.39,12.42-9.28,24.83-23.46,30.24
		c-4.11,1.57-7.72,2.11-11.44,0.67c-15.82-6.11-22.52-22.6-22.87-37.09c-0.08-2.66,0.94-5.33,1.25-6.97
		c1.8,6.38,3.17,13.59,5.8,20.25c6.31,16.02,26.4,15.78,35.29,3.37c3.02-4.19,5.68-8.73,7.87-13.39c5.8-12.45,5.56-25.22-0.08-37.52
		c-5.72-12.42-25.34-18.49-38.85-13.47c-8.66,3.25-15.59,7.91-21.46,15.16c-6.03,7.4-8.42,16.1-10.34,24.79
		c-1.37,6.15-0.67,12.89-0.2,19.31c1.41,19.66,11.12,34.15,28.59,43.12c10.73,5.52,22.6,6.46,33.96,3.49
		c14.3-3.72,24.95-13.55,33.29-25.42c4.58-6.5,8.19-13.71,12.02-20.72c6.42-11.83,5.99-24.75,5.72-37.6
		c-0.08-3.05-0.23-6.31-1.17-9.16c-3.41-10.22-9.83-18.68-16.88-26.59c-7.6-8.54-17.39-14.02-28.04-17.43
		c-9.63-3.05-19.7-5.76-29.88-1.72c-7.6,3.02-15.24,5.99-22.68,9.44c-13.79,6.34-24.09,17.08-31.49,29.73
		c-8.15,13.94-15.43,28.4-16.8,45.35c-1.17,14.96,0.16,29.45,2.7,43.94c1.29,7.28,4.23,14.33,6.85,21.31
		c3.96,10.54,8.15,20.95,15.39,29.92c8.73,10.85,16.37,22.56,25.42,33.1c7.05,8.19,15.43,15.24,23.34,22.68
		c6.03,5.68,12.14,11.32,18.49,16.68c8.07,6.85,16.41,13.39,24.71,19.97c9.91,7.83,19.66,15.9,29.96,23.19
		c7.36,5.21,15.35,9.56,23.34,13.75c7.83,4.11,16.02,7.6,24.13,11.2c7.83,3.49,27.49,10.73,38.5,13.39
		c28.51,6.89,58.91,1.68,65.64-0.78c10.07-3.72,23.89-8.77,34.07-12.65c6.7-2.55,12.81-6.58,19.19-9.95
		c11.2-5.95,22.91-11.12,33.45-18.06c11.36-7.44,22.44-15.71,32.12-25.14c10.61-10.34,19.78-22.17,28.94-33.84
		c7.52-9.56,13.16-20.37,17.78-31.65c2.62-6.42,5.56-12.73,8.11-19.19c2.39-6.07,4.9-12.18,6.54-18.49
		c2.31-8.81,4.27-17.82,5.64-26.83c1.45-9.48,2.04-19.07,2.98-28.59c0.12-1.57-0.08-3.17,0.31-4.66c2.23-8.3,4.39-16.49,2.78-25.3
		c-0.67-3.45-2.19-8.03,2.19-10.65c4.54-2.74,9.28-5.13,13.86-7.79c11.32-6.62,20.68-15.63,30.28-24.4
		c5.64-5.17,11.24-10.46,17.19-15.27c6.5-5.25,7.95-5.01,14.53,0.23c10.69,8.5,22.79,14.06,35.76,18.25
		c12.14,3.92,24.17,2.78,36.27,0.98c4.39-0.67,8.81-1.61,10.54-7.25c2.11-6.97,5.29-13.59,8.07-20.6
		c10.1,3.41,16.37,10.81,22.01,19.5c-5.84,9.52-12.06,18.92-17.47,28.75c-2.9,5.25-7.32,7.32-12.38,9.09
		c-11.44,3.96-22.99,7.56-34.23,11.98c-16.37,6.42-32.39,13.79-48.88,19.97c-6.7,2.51-11.48,4.62-12.49,13.04
		c-1.41,11.63-0.71,22.72,3.76,33.45c2.51,6.03,6.93,10.77,10.97,15.9c7.21,9.13,16.61,14.1,26.59,18.53
		c7.25,3.21,14.69,6.27,22.36,8.03c3.8,0.86,7.99,2.23,12.81-0.43c4.58-2.55,7.87-5.99,11.51-9.32
		c10.97-10.03,21.89-20.05,32.86-30.04c9.91-9.05,19.86-18.06,29.84-27.02c0.67-0.59,1.57-1.1,2.39-1.21c5.25-0.7,10.5-1.33,15.9-2
		c1.49,10.3,0.16,20.33-3.8,29.14c-3.45,7.68-5.68,15.86-10.42,23.07c-5.09,7.75-8.93,16.41-13.51,24.56
		c-1.33,2.39-2.82,5.29-5.01,6.5c-7.79,4.27-15.9,8.07-24.01,11.75c-3.72,1.68-7.95,2.31-11.67,3.99
		c-5.05,2.23-9.44,4.11-15.67,2.98c-12.81-2.39-25.97-2.78-38.97-4.15c-6.85-0.74-13.71-1.8-20.56-2.74
		c-6.7-0.94-13.43-1.68-20.09-2.94c-4.54-0.86-7.99,0.35-11.08,3.56c-1.84,1.92-4.07,3.56-6.07,5.37
		c-9.16,8.3-15.74,18.56-19.58,30.04c-3.52,10.65-0.67,21.78,4.15,31.41c5.91,11.79,13.67,22.48,24.75,30.47
		c5.4,3.88,10.26,7.13,17.04,4.54c1.49-0.55,2.86-1.45,4.35-1.8c8.54-1.96,17.08-3.76,25.58-5.76c5.33-1.25,10.65-2.66,15.94-4.11
		c4.97-1.37,9.83-3.17,14.84-4.19c8.58-1.72,17.35-2.78,25.93-4.58c4.27-0.9,8.22-0.16,12.14,1.02c0.7,0.23,1.57,2.9,1.17,3.29
		c-3.25,3.37-2.08,7.56-2.27,11.4c-0.78,14.88,0.82,29.57,4.78,43.9c1.41,5.17,2.04,11.55,9.63,12.14c0.74,0.04,1.41,0.78,2.74,1.57
		c-1.45-3.88-2.78-6.85-3.76-9.99c-1.88-6.07-3.6-12.22-5.4-18.33c-0.51-1.72-1.41-3.49-1.37-5.21c0.16-8.77,0.7-17.55,0.82-26.32
		c0.04-3.13-0.63-6.31-1.06-10.5c6.27,1.61,11.87,2.7,17.23,4.46c8.85,2.86,17.51,6.27,26.32,9.16c2.66,0.86,3.76,1.68,3.49,4.78
		c-0.59,6.31-0.98,12.69-0.59,19c0.31,4.97,1.88,9.83,2.98,14.77c1.88,8.42,6.85,15.04,12.06,21.42c3.41-2.9,3.8-5.29,1.14-8.77
		c-2.11-2.82-3.21-6.58-4.15-10.07c-2.04-7.52-3.99-15.12-5.44-22.79c-0.86-4.62-0.71-9.44-1.02-14.69
		c1.88,0.27,3.45,0.27,4.82,0.74c7.95,2.82,15.86,5.76,23.77,8.62c4.46,1.61,8.93,4.39,13.39,4.39c3.64,0,8.34-2.43,10.77-5.29
		c6.38-7.56,12.3-15.63,17.47-24.09c4.46-7.25,8.62-14.88,8.85-23.89c0.12-4.11,1.1-8.22,1.72-12.3c0.35-2.47,0.98-4.9,1.1-7.36
		c0.35-6.97-0.74-13.79-1.65-20.68c-1.21-9.75-4.86-18.53-7.87-27.49c-3.17-9.32-9.13-17.35-15.39-25.07
		c-3.49-4.31-6.62-9.13-12.61-9.32c-5.33-0.16-11.24-1.92-15.59,3.45c-0.7,0.86-2.51,0.82-3.8,1.17c-0.35-0.27-0.74-0.55-1.14-0.82
		c7.48-9.63,14.02-19.94,18.13-31.22c4.27-11.71,6.81-23.97,10.3-36.7c4.11-0.82,9.36-1.76,14.61-2.9
		c5.21-1.14,10.5-2.08,15.51-3.76c6.19-2.11,11.2-6.27,11.63-13.08c0.39-5.99,0.23-12.42-1.65-18.02
		C1307.24,551.76,1302.81,541.66,1297.92,531.87z M246.51,690.8c-6.85,3.45-13.98,6.38-20.95,9.63c-10.1,4.7-20.21,9.32-30.24,14.22
		c-11.44,5.6-22.76,11.4-34.15,17.12c-3.56,1.8-7.17,3.52-10.65,5.4c-3.33,1.76-5.91,1.17-7.91-2.08c-1.92-3.09-3.99-6.11-5.72-9.32
		c-3.49-6.38-6.62-12.96-10.14-19.31c-1.64-2.98,0.31-3.99,2.27-4.97c11.51-5.68,23.03-11.36,34.58-16.92
		c9.91-4.74,19.82-9.48,29.84-14.02c6.66-3.05,13.51-5.64,20.17-8.62c5.56-2.51,10.97-5.29,16.25-7.83
		c4.97,8.07,9.52,15.35,13.98,22.64c1.88,3.05,3.92,6.11,5.09,9.44C249.33,687.36,247.84,690.14,246.51,690.8z M374.7,573.11
		c10.69,1.84,20.84,6.81,29.88,13.39c10.69,7.83,18.6,17.78,23.19,30.16c2.7,7.25,4.7,14.73,6.38,20.09
		c-1.92,11.63-0.43,21.54-5.29,30c-3.49,6.19-8.22,11.63-12.61,17.23c-0.43,0.51-2.66,0.04-3.72-0.55
		c-13.28-7.36-26.52-14.88-39.83-22.25c-2.62-1.45-5.6-2.23-8.22-3.68c-9.4-5.21-18.76-10.5-28.04-15.9
		c-14.53-8.5-29.02-17.12-43.51-25.69c-0.16-0.08-0.23-0.23-0.35-0.31c-7.05-4.11-7.17-4.27-1.41-10.18
		c9.32-9.56,19.82-17.23,32.23-22.76c7.56-3.33,15.39-5.95,23.15-7.87C355.59,572.56,365.61,571.54,374.7,573.11z M305.02,242.98
		c-4.78-8.15-9.4-15.9-13.83-23.81c-0.43-0.78,0.08-3.09,0.78-3.41c3.05-1.49,6.38-2.51,9.99-3.84c2.11,5.17,3.56,10.77,6.58,15.39
		C312.9,234.01,307.69,237.73,305.02,242.98z M316.15,226.45c-1.68-4.35-2.86-7.25-3.92-10.22c-0.98-2.82-1.88-5.68-2.39-7.25
		c7.75-7.87,14.96-15.24,22.32-22.48c1.21-1.21,3.05-1.76,4.58-2.66c5.33-3.09,10.73-5.95,15.94-9.36
		c6.03-3.96,10.14-9.24,14.96-14.06c5.76-5.76,8.62-13.04,11.55-20.6c3.09-8.03,3.02-15.71,1.45-23.5
		c-1.45-7.05-4.11-13.9-6.46-20.76c-2.08-6.03-4.39-11.91-6.62-17.86c0.31-0.23,0.63-0.47,0.94-0.7c2.39,2.27,4.93,4.39,7.13,6.81
		c4.23,4.7,9.2,9.05,12.14,14.49c2.62,4.82,2.78,10.89,4.27,16.37c2.39,8.69,4.93,17.31,7.44,26.08
		C368.98,166.53,339.49,192.69,316.15,226.45z M422.25,254.22c13.39-7.13,26.59-14.61,39.87-21.93c0.82-0.47,1.84-0.59,3.05-0.98
		c-9.16,35.45-21.23,69.52-31.41,105.16c-4.35-1.92-8.62-3.41-12.53-5.56c-7.6-4.15-15.12-8.5-22.44-13.08
		c-10.46-6.58-20.76-13.43-31.1-20.21c-2.55-1.68-5.29-3.21-7.48-5.29c-0.78-0.74-0.9-3.84-0.27-4.23c3.6-2.35,7.52-4.23,11.4-6.31
		c3.49,8.34,9.44,6.78,15.35-1.14c1.21,2.11,2.62,3.88,3.37,5.87c3.02,7.99,5.8,16.1,8.85,24.09c0.51,1.37,1.96,2.35,3.88,4.46
		c2.47-3.37,4.66-6.34,6.81-9.28c2.98,2.94,5.87,5.87,8.85,8.77c2.35,2.31,4.86,1.06,6.5-0.67c2.19-2.31,3.99-5.13,5.4-7.99
		c0.35-0.78-1.33-2.58-1.61-3.09c-0.16-2.9-0.27-5.05-0.35-6.46c2.74-0.47,6.78,0.04,8.22-1.64c2.43-2.82-0.51-5.91-2.39-8.54
		c-2.23-3.09-4.35-6.31-6.62-9.4c-1.61-2.19-4.5-3.13-5.37-6.19c-0.82-2.9-2.9-5.44-3.68-8.38
		C417.67,258.88,418.61,256.14,422.25,254.22z M419.27,277.25c-1.1,0.71-2.15,1.45-3.25,2.11c-0.63,0.35-1.33,0.63-2.58,1.17
		c2,4.78,4.11,9.32,5.76,14.02c1.53,4.39,5.21,8.5,2,14.61c-1.41-2.04-2.74-3.6-3.68-5.37c-2.66-5.01-5.13-10.14-7.83-15.16
		c-4.31-7.91-6.46-8.03-12.22-0.47c-2.08-6.38-3.02-12.81-9.99-15.82c8.03-4.03,15.12-7.56,22.48-11.24
		c1.33,3.45,2.35,6.54,3.72,9.52c0.67,1.41,1.96,2.55,3.02,3.76C417.51,275.37,418.41,276.31,419.27,277.25z M428.44,196.3
		c-3.41,9.79-7.32,19.43-10.81,29.18c-2.11,5.99-3.99,12.1-5.6,18.29c-0.55,2.04,0.51,4.46,0.12,6.62
		c-1.21,6.66-7.36,8.34-12.1,11.16c-5.09,3.02-10.61,5.29-16.33,8.07c0.12-1.14,0.04-2.31,0.39-3.33
		c3.29-9.28,7.09-18.45,9.95-27.85c3.21-10.61,5.17-21.58,8.62-32.08c1.72-5.13,3.52-10.5,9.28-13.86
		c7.44-4.39,13.94-10.38,20.84-15.71c0.39,0.23,0.74,0.51,1.14,0.78C432.12,183.84,430.55,190.15,428.44,196.3z M590.39,184.62
		c0.2,11.63-9.87,20.48-22.91,20.48c-13.12,1.14-20.99-10.61-21.15-18.84c-0.23-10.57,12.18-22.48,23.15-21.38
		C580.67,165.98,590.19,172.25,590.39,184.62z M550.56,552c3.25-5.72,7.28-10.97,14.02-12.53c3.88-0.94,8.26-0.2,10.57,3.64
		c6.03,10.07,6.03,23.07-1.29,32.39c-0.27,0.31-0.78,0.51-1.92,1.21c-3.17-4.66-3.76-9.44-2.55-14.53c0.7-3.09,2.35-6.31,2-9.28
		c-0.7-5.87-9.56-7.83-15.31-3.56c-2,1.53-3.56,3.68-5.87,6.15C550.32,554.15,550.05,552.86,550.56,552z M914.41,431.6
		c0.35-0.67,1.1-1.06,2.98-2.74c6.31,32.55,12.38,63.8,18.72,96.23c-9.83,1.84-19.11,3.6-28.36,5.37
		c-4.58,0.86-9.09,2.11-13.71,2.51c-5.33,0.47-10.69,0.24-16.06,0.27c-4.54,0.04-9.09,0.23-13.59,0
		c-9.87-0.51-19.78-0.98-29.61-1.96c-11.51-1.17-22.95-2.82-34.39-4.39c-5.37-0.7-10.77-1.21-15.94-2.62
		c-8.5-2.39-16.88-5.33-25.26-8.22c-1.25-0.43-2.23-1.76-3.37-2.66c0.86-0.94,1.57-2.15,2.58-2.86
		c8.97-6.15,13.28-15.63,16.88-25.11c2.19-5.68,0.67-12.06-3.25-17.39c-3.29-4.46-8.46-3.92-12.73-4.11
		c-10.22-0.47-20.52,0.59-28.28,8.46c-3.56,3.64-7.28,7.56-7.17,13.47c0.04,1.33-0.74,3.41-1.72,3.84c-0.98,0.43-2.9-0.47-4.03-1.33
		c-8.07-6.07-16.45-11.83-23.85-18.64c-4.07-3.8-6.78-9.24-9.52-14.26c-5.17-9.48-8.03-19.74-8.66-30.55
		c-0.31-5.33-0.24-10.73,0.04-16.06c0.08-1.68,1.33-3.33,2-5.01c1.57-4.03,2.39-8.54,4.82-11.98c4.78-6.85,9.91-13.67,15.9-19.39
		c5.8-5.56,12.49-10.54,19.58-14.3c7.99-4.23,16.8-6.93,25.34-10.1c1.65-0.59,3.56-0.27,6.27-0.47
		c-7.79,11.63-14.92,22.25-22.56,33.6c7.05,2,12.92,3.68,18.8,5.4c3.13,0.9,6.42,1.61,9.24,3.17c0.86,0.47,0.86,3.68,0.27,5.25
		c-2.7,7.25-5.8,14.37-8.73,21.54c5.37,1.61,10.54,3.13,15.71,4.74c2.15,0.67,4.46,1.21,6.23,2.47c1.02,0.7,1.61,2.78,1.45,4.15
		c-1.02,8.54-2.27,17.04-3.56,26.28c4.03,0,7.25,0,10.5,0c5.52,0.04,11.04-0.04,16.57,0.23c0.86,0.04,2.39,1.72,2.31,2.51
		c-0.63,5.84-1.57,11.67-2.55,17.47c-0.23,1.41-1.06,2.74-1.88,4.82c0.9,0.59,2.11,1.8,3.52,2.15c7.25,1.88,14.53,3.8,21.89,5.25
		c4.86,0.98,4.93,4.54,5.52,8.11c0.9,5.6,1.1,11.48,3.09,16.65c1.02,2.58,5.29,5.37,8.15,5.44c7.32,0.2,14.69-0.9,22.01-1.76
		c4.78-0.55,9.56-1.57,14.26-2.62c1.25-0.27,2.74-1.33,3.33-2.43c7.21-13.71,14.3-27.49,21.42-41.24
		C901.44,456.36,907.9,443.98,914.41,431.6z M743.68,511.66c-10.65-0.27-13.32-4.03-15.82-12.06c-2.23-7.05-1.06-13.55,3.45-19.62
		c4.31-5.84,9.52-9.83,16.84-10.85c1.61-0.24,3.05-1.37,4.66-1.72c1.53-0.35,3.17-0.47,4.74-0.31c2.11,0.2,4.19,1.06,6.27,1.1
		c4.19,0.04,6.07,2.27,6.62,6.11c1.61,11.48-3.29,20.99-10.34,28.98C755.67,508.33,749.09,511.5,743.68,511.66z M908.61,413
		c-15.35,19.58-30.51,39.28-45.9,58.83c-6.07,7.68-12.57,15.04-18.72,22.68c-2.94,3.64-5.44,7.72-8.42,11.36
		c-1.1,1.33-2.98,2-4.93,3.29c-1.72-7.83-3.21-15-4.86-22.05c-0.55-2.27-0.39-3.72,1.68-5.48c5.44-4.58,10.5-9.71,15.74-14.57
		c16.72-15.47,33.41-30.94,50.13-46.37c4.9-4.5,9.87-8.93,15-13.55C910.72,409.08,910.37,410.77,908.61,413z M897.8,375.09
		c5.48,8.73-2.15,12.14-6.42,16.21c-7.32,6.93-15.55,12.89-23.03,19.62c-10.46,9.4-20.64,19.15-30.82,28.87
		c-9.63,9.16-19.11,18.53-28.75,27.73c-2.74,2.62-5.76,4.97-8.66,7.48c-0.55-0.31-1.14-0.59-1.68-0.9
		c0.63-5.21,0.31-10.73,2.04-15.51c1.33-3.52,5.13-6.27,8.11-9.05c8.07-7.44,16.18-14.84,24.48-21.97
		c7.6-6.46,16.29-11.83,22.91-19.15c4.07-4.5,9.2-7.28,13.32-11.55c4.15-4.35,8.85-8.22,13.67-11.87
		C887.73,381.39,892.9,378.34,897.8,375.09z M888.12,359.58c-12.02,8.3-23.66,17.27-35.17,26.28c-8.22,6.42-15.86,13.51-24.01,20.01
		c-7.32,5.87-14.96,11.28-22.4,16.92c-10.54,7.99-21.03,16.06-31.53,24.09c-0.43-0.23-0.82-0.47-1.25-0.7
		c1.18-6.19,2.15-12.45,3.68-18.6c0.35-1.45,2.23-2.74,3.68-3.76c11.75-8.42,23.46-16.88,35.41-25.03
		c5.72-3.92,13.2-5.95,17.55-10.89c5.17-5.91,11.67-9.56,17.7-13.75c11.79-8.19,24.6-14.84,37.13-22.25
		C891.41,355.43,891.96,356.91,888.12,359.58z M885.31,336.67c0.47,1.61,0.94,3.21,1.17,3.99c-22.44,12.73-45.51,23.07-67.29,36.03
		c-21.62,12.89-44.14,24.17-66.27,36.15c-0.35-0.16-0.67-0.35-1.02-0.51c1.06-3.05,2-6.19,3.13-9.16c1.1-2.74,2.27-5.48,3.72-8.03
		c0.7-1.21,1.96-2.35,3.25-2.94c10.81-4.97,21.74-9.79,32.55-14.77c13.04-6.03,26.16-11.95,39.05-18.29
		c11.24-5.56,22.21-11.67,33.33-17.51c4.43-2.31,8.89-4.5,13.24-6.93C882.88,333.18,884.48,333.69,885.31,336.67z M881.08,322.1
		c-48.33,17.98-94.98,39.13-143.35,55.81c-0.23-0.47-0.51-0.98-0.74-1.45c2.43-3.88,4.86-7.75,7.13-11.63
		c2.66-4.46,5.17-9.01,7.95-13.39c0.67-1.06,2.08-2.39,3.13-2.39c9.67-0.12,18.41-3.72,27.42-6.62c6.11-1.96,12.61-2.86,18.92-4.27
		c4.03-0.9,8.85-0.35,10.1-4.86c2.23,0.23,3.99,0.67,5.76,0.55c8.34-0.51,15.59-4.5,23.26-7.21c1.02-0.35,2.04-0.74,3.05-0.98
		c10.73-2.58,21.42-5.29,32.23-7.48C877.43,317.87,879.47,320.26,881.08,322.1z M744.31,219.8c1.65-0.86,3.13-1.8,4.7-2.47
		c8.66-3.76,17.31-7.52,26.05-11.04c1.49-0.59,3.96-0.63,5.17,0.23c15.12,10.81,30.08,21.85,45.16,32.78
		c3.84,2.78,7.91,5.21,11.79,7.95c5.72,4.07,11.55,8.03,16.84,12.61c1.96,1.72,2.47,5.05,3.76,7.83
		C818.25,254.54,781.01,238.59,744.31,219.8z M730.91,276.43c-0.98-0.12-1.8-1.53-2.7-2.31c7.52-5.99,14.37-11.75,21.54-17.12
		c1.49-1.14,4.23-1.53,6.11-1.06c11.87,2.94,23.58,6.46,35.45,9.36c21.58,5.25,43.24,10.07,64.78,15.27
		c4.07,0.98,9.16,1.37,9.6,8.58c-6.27-0.86-12.34-1.68-18.37-2.55c-1.64-0.23-3.33-0.59-4.97-0.67c-9.36-0.35-18.68-0.39-28-1.06
		c-6.93-0.51-13.79-1.96-20.72-2.66c-3.56-0.35-7.25,0.23-10.81-0.12c-9.32-0.9-18.64-2.11-27.96-3.21
		c-0.59-0.08-1.18-0.31-1.76-0.35C745.68,277.88,738.28,277.29,730.91,276.43z M756.1,300.48c9.13,0.35,18.29-0.08,27.42,0.12
		c9.95,0.24,19.86,1.02,29.77,1.17c7.01,0.12,14.06-0.63,21.07-0.63c7.91,0,15.86,0.47,23.77,0.67c3.41,0.08,6.89-0.16,10.3,0.2
		c1.37,0.16,2.62,1.41,3.92,2.15c-1.25,0.82-2.39,2.15-3.72,2.39c-9.83,1.76-19.66,3.33-29.53,4.93
		c-5.95,0.98-12.02,3.41-17.66-1.53c-0.27,0.31-0.51,0.59-0.78,0.9c0.55,1.25,1.14,2.51,1.68,3.72
		c-13.32,2.04-26.67,3.99-39.95,6.19c-7.32,1.21-14.57,3.05-21.89,4.31c-4.11,0.71-8.34,0.94-12.49,1.21
		c-7.4,0.55-14.8,0.94-23.66,1.45c5.95-7.44,11.36-13.63,15.98-20.33C744.35,301.61,749.52,300.24,756.1,300.48z M933.17,564.18
		c-5.76,0.08-11.51,0.82-17.27,1.29c-2.51,0.23-5.01,0.55-7.52,0.78c-3.25,0.27-6.5,0.31-9.71,0.74
		c-5.56,0.74-11.12,1.76-16.68,2.66c-0.47,0.04-0.94,0.04-1.41,0.08c-7.13,0.31-14.3,0.59-21.42,0.94
		c-15.43,0.78-30.55-2.23-45.82-3.6c-10.46-0.94-19.58-5.72-29.41-8.3c-6.03-1.61-12.02-3.37-18.06-4.97
		c-8.66-2.27-17.51-4.03-25.97-6.85c-4.74-1.57-8.93-4.9-13.39-7.36c-11.79-6.58-23.66-13-35.37-19.7c-3.17-1.8-5.91-4.39-8.89-6.58
		c-4.78-3.49-9.75-6.74-14.33-10.5c-2.51-2.04-4.66-4.7-6.46-7.4c-5.87-8.73-11.79-17.47-17.08-26.52
		c-3.21-5.44-5.09-11.59-7.95-17.23c-2.04-3.96-4.11-7.72-4.03-12.34c0.12-5.21-0.04-10.46,0.2-15.67c0.16-3.84,1.1-7.68,1.02-11.51
		c-0.23-8.38,3.52-15.51,6.74-22.79c2.43-5.56,4.82-11.28,8.3-16.14c4.27-5.99,9.56-11.36,14.65-16.72
		c5.6-5.91,10.97-12.22,17.35-17.15c10.26-7.95,21.19-15.08,32-22.29c4.23-2.86,8.89-5.17,13.47-7.44c2.39-1.17,5.05-1.76,7.56-2.62
		c0.24,0.43,0.43,0.86,0.67,1.29c-3.84,4.82-7.75,9.56-11.55,14.37c-1.68,2.15-3.72,4.19-4.74,6.66c-0.43,1.06,1.02,3.68,2.31,4.43
		c5.76,3.33,11.79,6.23,18.72,9.79c-3.52,1.41-6.23,2.47-8.89,3.52c-12.26,4.74-23.97,10.54-33.68,19.58
		c-5.64,5.25-11.55,10.54-15.67,16.88c-4.78,7.36-9.56,15.12-10.61,24.4c-0.51,4.35-2.43,8.5-3.29,12.85
		c-0.43,2.23-0.39,4.7,0.08,6.93c1.25,5.8,2.55,11.59,4.43,17.19c1.02,2.98,3.17,5.6,4.9,8.3c3.6,5.68,6.74,11.75,11.08,16.8
		c5.29,6.11,11.48,11.48,17.47,16.96c2.66,2.43,5.72,4.43,8.69,6.46c3.05,2.11,6.31,3.96,9.36,6.11c1.17,0.82,2.19,2.04,2.9,3.29
		c4.15,7.6,9.16,13.67,19.11,12.53c1.61-0.2,3.41,0.94,5.01,1.68c11.4,5.25,22.83,10.3,35.41,12.42c6.7,1.14,13.28,3.17,19.9,4.78
		c1.33,0.31,2.7,0.59,4.07,0.74c7.44,0.86,14.88,1.8,22.36,2.51c5.01,0.47,10.1,0.55,15.16,0.78c6.66,0.31,13.28,0.86,19.9,0.78
		c9.44-0.16,18.88-0.74,28.32-1.17c2.82-0.12,5.64-0.51,8.42-0.39c8.03,0.31,15.63-1.45,23.15-4.11c2.86-1.02,6.11-0.82,9.87-1.25
		c0.31,4.11,0.67,8.11,0.9,12.06c0.27,4.97,0.43,9.95,0.74,14.92C938.37,562.57,936.42,564.14,933.17,564.18z M1237.21,544.91
		c11.55,12.18,24.24,23.3,37.13,35.56c-25.5,3.76-51.35,7.6-77.27,11.44c-0.31-0.47-0.63-0.9-0.94-1.37
		c2.11-2.66,3.99-5.56,6.31-8.03c6.15-6.58,12.45-13,18.72-19.5c1.41-1.49,2.7-3.02,4.19-4.43c2.15-2,4.15-4.19,2.08-7.13
		c-2.11-3.05-4.9-5.25-9.09-3.76c-7.01,2.47-14.02,4.93-21.07,7.25c-8.03,2.66-16.1,5.17-25.03,8.03c1.84-8.19,5.68-14.3,9.75-20.21
		c8.97-13.04,18.06-25.97,27.38-39.36C1215.86,518.71,1225.54,532.61,1237.21,544.91z M1123.63,325.19
		c1.45,0.39,2.94,0.43,3.84,1.14c9.52,7.48,18.33,16.1,28.59,22.36c10.73,6.58,22.68,11.32,34.35,16.18
		c8.97,3.76,18.37,6.42,28.32,9.83c-19.54,13.9-39.01,27.77-58.47,41.55c-0.35-0.27-0.7-0.59-1.06-0.86
		c0.63-3.37,1.14-6.78,1.92-10.14c3.02-12.73,6.27-25.42,9.01-38.19c0.59-2.62,0.08-7.72-1.02-8.03c-3.37-1.02-8.42-1.72-10.73,0.08
		c-7.13,5.64-13.32,12.53-19.9,18.92c-6.89,6.66-13.79,13.32-21.78,21.03c-0.78-3.72-1.92-6.11-1.61-8.26
		c1.18-8.34,3.17-16.57,4.27-24.91c1.33-10.1,2.08-20.33,3.09-30.47C1122.77,332.2,1123.2,328.99,1123.63,325.19z M1027.91,514.01
		c-8.5,7.32-15.9,15.9-24.32,23.26c-5.68,4.97-12.38,8.81-18.64,13.16c-0.55-0.31-1.1-0.59-1.64-0.86c0-4.11,0.23-8.22-0.04-12.34
		c-0.39-6.11-1.17-12.18-1.72-18.25c-0.23-2.31-0.35-4.39,2.43-5.8c15.24-7.75,24.24-21.93,34.98-34.31
		c9.99-11.55,20.6-22.13,35.01-28.04c0.67-0.27,1.41-0.27,3.29-0.59c-2.98,3.76-5.25,6.74-7.64,9.6c-4.11,4.86-8.58,9.4-12.38,14.45
		c-2.27,3.02-0.43,6.31,1.29,9.16c3.37,5.56,6.78,11.12,9.75,16.02C1041.5,504.26,1034.21,508.56,1027.91,514.01z M1144.11,503.75
		c-1.1,3.52-2.27,6.97-3.17,10.54c-1.45,5.87-5.72,7.25-11.01,7.68c-5.37,0.43-10.69,1.53-16.06,1.76
		c-8.54,0.35-16.76-1.53-24.71-4.66c-12.92-5.09-24.44-12.3-33.88-22.56c-5.76-6.27-10.77-13.08-9.87-22.32
		c0.16-1.41,0.67-3.02,1.57-4.07c9.71-11.44,19.62-22.72,29.3-34.15c7.36-8.69,15.08-17.23,21.5-26.63
		c2.55-3.76,2.19-9.52,3.02-14.41c1.37-8.3,2.62-16.65,4.03-24.95c1.1-6.42,2.27-12.89,3.52-19.27c1.37-7.01,3.02-13.98,4.39-20.99
		c0.63-3.17,0.63-6.42,1.29-9.6c0.59-2.7,1.68-5.29,2.9-9.05c4.11,6.78,4.07,11.87,2.15,18.09c-2.39,7.68-2.7,16.02-4.03,24.05
		c-1.37,8.3-2.94,16.57-4.31,24.87c-0.63,3.88-0.7,7.83-1.49,11.63c-0.39,2-1.76,3.8-2.66,5.6c0.94,0.94,2.47,2.31,3.88,3.8
		c2.31,2.43,8.46,3.05,11.51,0.35c8.34-7.4,16.53-15,24.64-22.68c5.17-4.9,10.1-10.07,15.12-15.08c0.55,0.23,1.1,0.51,1.65,0.78
		c-0.51,3.41-0.82,6.89-1.53,10.26c-1.25,6.15-2.7,12.26-4.15,18.37c-1.76,7.44-3.84,14.8-5.33,22.29
		c-0.43,2.08,0.12,5.21,1.49,6.46c1.92,1.76,4.86,3.13,7.87,1.06c8.73-5.99,17.51-11.95,26.24-17.94c2.66-1.84,5.17-3.88,7.83-5.72
		c9.75-6.66,19.39-13.55,29.45-19.74c2.47-1.53,6.42-0.71,9.67-0.98c0.12,0.59,0.27,1.14,0.43,1.68c-4.97,3.68-9.91,7.4-14.92,11.04
		c-12.06,8.69-24.28,17.19-36.15,26.16c-5.84,4.43-12.61,8.81-16.1,14.84c-4.54,7.91-6.27,17.47-9.13,26.36
		C1154.02,472.34,1149.09,488.04,1144.11,503.75z M1161.89,498.97c-2.55-2.23-7.09-3.29-8.03-5.84c-0.86-2.39,2-6.03,2.98-9.2
		c2.08-6.85,3.96-13.75,5.99-20.6c0.47-1.53,1.33-2.98,2.15-4.78c11.55,4.9,21.15,11.55,27.73,21.89c1.02,1.57,1.02,4.74,0.12,6.38
		c-4.7,8.5-9.87,16.76-14.92,25.11c-0.31,0.51-0.86,0.86-0.98,0.98C1171.76,508.02,1166.99,503.32,1161.89,498.97z M1244.49,673.8
		c0.67-0.27,1.41-0.43,2.55-0.78c0.2,4.43-4.11,11.28-7.52,12.53c-13.16,5.01-26.4,9.83-39.44,15.16
		c-12.85,5.25-25.5,11.01-38.19,16.72c-2.04,0.94-3.96,2.55-5.37,4.27c-2.62,3.25-0.86,7.13,4.19,8.66
		c5.4,1.64,11.01,2.74,16.53,3.96c10.93,2.43,21.82,4.86,32.74,7.13c3.96,0.82,7.99,1.17,11.98,1.72c0,0.43,0.04,0.82,0.04,1.25
		c-2.19,0.7-4.39,1.53-6.66,2.11c-7.68,1.96-15.43,3.6-23.03,5.8c-7.91,2.27-15.67,5.09-23.46,7.68c-0.43,0.16-0.82,0.59-1.25,0.59
		c-4.86,0.04-8.03,2.04-8.46,7.21c-0.35,4.35,1.8,7.01,7.75,8.81c8.97,2.66,18.09,4.82,27.02,7.6c6.89,2.11,13.51,5.05,20.37,7.28
		c10.26,3.37,20.68,6.15,30.82,9.87c2.78,1.02,4.66,4.39,6.97,6.7c-0.35,0.55-0.74,1.06-1.14,1.57c-4.23-1.1-8.5-1.96-12.61-3.33
		c-14.06-4.7-28-9.83-42.1-14.33c-7.64-2.47-15.63-3.88-23.34-6.03c-7.17-2-14.22-4.46-21.38-6.62c-0.9-0.27-2-0.08-2.94,0.12
		c-7.25,1.53-14.49,3.09-21.74,4.7c-8.3,1.84-16.65,3.49-24.83,5.76c-11.12,3.09-22.01,7.05-33.17,9.87
		c-7.52,1.88-14.53,2.15-21.54-4.27c-9.6-8.77-18.41-18.09-23.42-29.84c-4.66-11.01-7.17-22.99,0.31-34.39
		c2.9-4.43,4.74-9.87,8.46-13.32c5.95-5.52,11.24-13.47,20.84-12.61c7.09,0.63,14.02,2.82,21.07,4.07c3.8,0.71,7.64,1.02,11.48,1.37
		c7.21,0.7,14.41,1.17,21.58,2c7.4,0.86,14.73,2.31,22.13,3.02c4.19,0.39,8.85,0.78,12.69-0.59c9.67-3.45,18.96-8.03,28.47-11.95
		c11.87-4.86,23.85-9.48,35.76-14.26C1219.27,683.95,1231.88,678.86,1244.49,673.8z M1224.25,738.35
		c-3.05-1.57-6.62-2.31-10.03-3.02c-13.98-2.9-28-5.64-42.02-8.42c-3.6-0.7-7.21-1.33-10.81-2c-0.16-0.55-0.35-1.06-0.51-1.61
		c4.78-2,9.52-4.07,14.33-5.95c7.4-2.86,14.84-5.52,22.21-8.42c13.08-5.21,26.16-10.54,39.24-15.78c0.51-0.2,1.17-0.12,1.68-0.16
		c-1.29,17.19-4.78,33.76-3.02,50.76c1.61,16.76,5.48,33.02,10.85,50.64c-5.01-1.14-9.24-1.76-13.24-3.05
		c-9.13-2.94-17.82-6.93-27.49-8.42c-7.36-1.14-14.37-4.62-21.62-6.78c-5.52-1.64-11.24-2.78-16.84-4.27
		c-1.8-0.47-3.45-1.37-5.17-2.08c0.08-0.47,0.12-0.94,0.16-1.41c9.75-2.9,19.5-5.95,29.34-8.66c6.78-1.84,13.75-3.02,20.56-4.82
		c4.19-1.1,8.5-2.31,12.18-4.46c1.88-1.1,3.29-4.31,3.49-6.7C1227.65,741.99,1225.89,739.21,1224.25,738.35z M1259.49,620.74
		c-3.56,13.28-10.57,24.99-17.74,36.54c-2.86,4.58-5.25,9.6-8.66,13.75c-2.15,2.62-5.68,4.39-8.89,5.84
		c-6.93,3.09-14.06,5.84-21.23,8.5c-2.15,0.82-4.62,0.82-7.6,1.29c2.62-4.23,4.5-7.72,6.78-10.89c9.4-13.08,14.22-28.16,19.11-43.2
		c1.92-5.84,2.62-12.14,3.49-18.29c0.27-1.92-0.67-3.99-1.25-6.93c12.42-1.96,25.3-3.99,39.79-6.31
		C1261.92,608.55,1261.18,614.78,1259.49,620.74z M1290.4,590.93c-4.5,0.47-9.01,0.78-13.39,1.61c-5.44,0.94-10.77,2.43-16.18,3.37
		c-11.75,2.08-23.5,4.07-35.25,5.91c-9.24,1.45-18.56,2.47-27.85,3.88c-1.61,0.23-3.33,1.06-4.5,2.15
		c-11.08,10.26-22.01,20.64-33.02,30.98c-5.21,4.9-10.5,9.71-15.63,14.73c-6.31,6.15-12.38,12.53-18.8,18.56
		c-1.37,1.29-3.76,2.04-5.68,2.04c-9.56-0.08-18.33-3.37-26.59-7.87c-8.42-4.58-17.27-8.89-24.64-14.92
		c-8.66-7.09-13.47-17.27-15.9-28.24c-1.68-7.68-3.02-15.47,0-23.15c0.59-1.41,1.76-3.09,3.09-3.64c9.63-3.88,19.43-7.44,29.1-11.24
		c10.18-3.99,20.17-8.42,30.43-12.18c11.4-4.19,23.07-7.68,34.47-11.95c3.09-1.14,6.27-3.56,8.03-6.31
		c14.26-22.01,28.16-44.26,42.14-66.43c1.06-1.65,1.96-3.41,2.98-5.09c0.2-0.31,0.78-0.39,1.29-0.67c3.17,9.13-0.16,16.8-5.01,24.01
		c-8.93,13.2-18.06,26.24-26.95,39.48c-2.66,3.92-4.7,8.22-7.01,12.38c-1.65,2.98,2.35,8.97,6.34,8.54
		c5.91-0.63,11.91-1.61,17.55-3.41c9.6-3.05,18.92-6.89,28.4-10.3c0.51-0.2,1.33,0.35,3.72,1.06c-4.62,4.15-8.66,7.36-12.14,11.12
		c-6.38,6.93-12.73,13.94-18.56,21.35c-3.49,4.43-0.86,9.32,4.86,9.67c4.35,0.27,8.77,0.35,13.04-0.27
		c13.2-1.96,26.36-4.35,39.56-6.38c11.08-1.72,22.13-3.56,33.29-4.54c2.78-0.27,5.87,2.62,8.81,4.07
		C1290.4,589.79,1290.4,590.38,1290.4,590.93z"/>
	<path d="M174.13,319.75c6.93-5.05,12.85-9.24,18.56-13.63c2.27-1.72,4.86-3.84,1.57-6.85c-9.28,3.33-17.66,8.5-27.46,9.44
		c8.42-4.7,17.12-8.66,25.73-12.81c3.84-1.84,3.92-4.62,0.7-7.17c-3.52-2.78-6.89-5.76-10.42-8.58c-0.9-0.7-2.04-1.49-3.09-1.57
		c-3.92-0.2-7.87-0.16-11.83-0.2c-9.63-0.08-18.21-3.68-26.67-7.83c-11.59-5.64-23.26-11.12-34.98-16.49
		c-1.21-0.55-3.68-0.47-4.39,0.35c-5.29,6.27-13.59,10.61-13.59,20.48c0,1.06-1.06,2.19-1.8,3.13
		c-8.62,10.89-17.66,21.46-25.81,32.66c-6.19,8.54-14.84,10.14-24.13,11.2c-1.17,0.16-2.27,0.78-3.41,1.21
		c1.17,0.74,2.31,2.11,3.52,2.15c3.33,0.12,6.74-0.67,10.07-0.47c7.21,0.43,12.89-0.82,17.12-7.91
		c7.05-11.87,16.49-21.93,26.55-31.33c2.62-2.47,5.76-5.21,9.09-5.95c6.15-1.41,12.49-0.04,17.66,3.64
		c13.63,9.75,27.02,19.86,40.46,29.88c0.63,0.47,1.14,2.39,0.78,2.7c-7.68,7.6-15.27,15.24-23.26,22.44
		c-6.7,6.03-14.02,11.44-20.84,17.35c-11.16,9.71-21.85,20.01-33.37,29.34C71.99,392.2,64,401.33,51.03,402.9
		c2.23,7.95,9.16,9.79,14.45,13.39c0.47,0.35,1.92,0.04,2.47-0.47c4.9-4.62,9.83-9.28,14.53-14.1c3.05-3.09,5.52-6.7,8.62-9.75
		c6.81-6.7,14.02-13.04,20.76-19.86c7.17-7.21,14.02-14.8,20.99-22.21c-3.05,5.72-6.89,10.81-10.85,15.74
		c-9.16,11.44-18.21,22.99-27.69,34.15c-5.17,6.11-11.36,11.2-19.58,13.08c-3.8,0.86-5.56,4.82-2.74,6.19
		c5.25,2.55,10.97,4.07,16.57,5.87c1.96,0.63,4.31,0.39,6.15,1.25c9.09,4.31,18.06,9.01,28.4,2.74c-0.39,3.68,1.76,5.29,4.9,5.44
		c3.88,0.2,7.99,0.74,11.67-0.2c2.98-0.74,7.44,0.9,8.85-4.11c2.94-10.3,6.19-20.52,9.2-30.78c1.45-4.93,3.02-9.87,3.92-14.88
		c1.29-7.13,1.88-14.33,2.94-21.5c1.17-7.87,2.47-15.71,3.84-23.54c0.74-4.31,1.76-8.58,2.86-13.9c0.98,1.72,1.68,2.39,1.64,2.98
		c-0.82,9.83-1.76,19.7-2.66,29.53c-0.31,3.64-0.35,7.4-1.1,10.97c-1.61,7.75-0.43,15.82-4.15,23.5c-2.15,4.46-0.59,10.61-1.45,15.9
		c-0.7,4.31-2.04,8.69-4.03,12.53c-1.17,2.23-4.31,3.37-6.38,5.21c-2.62,2.31-2.15,4.46,1.17,5.56c2.35,0.74,4.74,1.17,7.09,1.88
		c6.85,2.04,13.43-2.35,20.6-0.35c4.23,1.17,9.36-0.82,14.06-1.57c5.68-0.9,6.7-2.86,5.6-8.42c-1.29-6.46-2.23-13-3.21-19.54
		c-1.25-8.34-2.27-16.72-3.56-25.07c-1.53-9.95-3.21-19.9-4.82-29.84c0.51-0.12,1.02-0.23,1.53-0.35c0.39,0.59,0.98,1.14,1.14,1.76
		c1.45,5.99,2.82,11.95,4.19,17.94c1.8,7.91,3.6,15.78,5.29,23.73c1.1,5.29,2,10.61,3.05,15.9c1.17,6.11,5.52,12.18-0.12,18.29
		c-0.43,0.47-0.04,1.68-0.04,4.03c7.64-2.23,14.49-4.23,21.89-6.38c-2.94-3.17-5.44-5.87-7.99-8.58c-7.36-7.79-7.4-11.59-0.12-19.39
		c1.17-1.25,2.51-2.39,3.64-3.68c4.11-4.62,8.77-8.93,12.02-14.1c5.4-8.62,3.09-17.82-1.61-25.69
		c-8.03-13.47-17.19-26.24-25.69-39.4c-1.37-2.15-1.76-4.97-2.78-7.99c-0.67,0.35-2.19,0.9-3.56,1.72
		c-7.72,4.5-15.35,9.09-23.07,13.51C177.23,320.41,176.09,319.94,174.13,319.75z M108.84,413.2c-2.94,4.39-7.95,7.05-14.18,8.46
		c16.14-23.42,31.76-46.1,47.43-68.81c0.31,0.12,0.63,0.23,0.94,0.35c-1.25,2.47-2.43,4.93-3.72,7.4
		c-3.84,7.25-7.48,14.57-11.59,21.66C121.65,392.71,115.62,403.21,108.84,413.2z M152.12,368.27c-4.31,13.08-8.77,26.08-13.2,39.13
		c-1.06,3.02-2.58,5.91-3.33,9.01c-1.57,6.46-6.78,8.77-12.45,11.83c5.72-12.77,11.87-24.32,15.63-37.17
		c3.6-12.26,10.1-23.7,15.31-35.48c0.43,0.12,0.86,0.27,1.29,0.43C154.32,360.09,153.45,364.24,152.12,368.27z M179.58,324.8
		c0.7-0.04,1.41-0.08,2.11-0.12c0.55,3.8,1.37,7.6,1.57,11.48c0.27,6.03,0.08,12.14,0.12,18.21c0,3.92-0.12,7.83,0.12,11.71
		c0.51,8.66,1.72,17.27,1.68,25.89c-0.04,9.48-0.74,19.03-1.96,28.43c-0.43,3.25-3.29,6.15-5.01,9.24c-0.67-0.2-1.29-0.39-1.96-0.59
		c0.82-17.51,1.84-35.05,2.39-52.56C179.19,359.26,179.3,342.03,179.58,324.8z"/>
	<path d="M415.79,474.18c3.09,10.54,6.34,21.03,9.09,31.65c1.06,4.07,4.15,4.93,6.93,4.54c6.31-0.86,12.53-2.58,18.76-4.11
		c17.27-4.27,34.54-8.58,51.78-12.96c18.21-4.62,36.42-9.36,55.62-14.3c-1.14-5.72-2.15-11.32-3.52-16.8
		c-1.96-7.99-4.23-15.94-6.31-23.93c-2.11-8.11-4.23-16.29-6.23-24.44c-1.17-4.7-2.15-9.44-3.21-14.18
		c-1.25-5.48-2.35-11.04-3.92-16.45c-0.31-1.02-2.74-2.35-3.76-2.04c-6.11,1.84-12.02,4.27-18.09,6.15
		c-11.75,3.64-23.54,7.17-35.37,10.5c-6.31,1.76-12.77,3.05-19.15,4.54c-16.41,3.84-32.74,7.91-49.23,11.48
		c-8.66,1.88-10.03,3.09-7.64,11.63C406.07,441.75,411.01,457.92,415.79,474.18z M454.48,408.89c15.63-4.07,31.1-8.81,46.57-13.43
		c5.76-1.72,11.4-3.96,17.15-5.8c0.82-0.27,2.23,0.08,2.86,0.67c0.43,0.39,0.27,2.04-0.23,2.62c-5.01,5.99-10.22,11.83-15.24,17.78
		c-7.87,9.36-15.67,18.8-23.5,28.16c-9.71,11.63-19.58,23.19-29.22,34.94c-7.09,8.66-13.9,17.59-20.88,26.4
		c-0.55,0.71-1.33,1.17-1.84,1.57c-7.91-27.42-15.74-54.71-23.54-81.62C422.48,416.45,438.58,413.04,454.48,408.89z"/>
	<path d="M38.23,527.56c5.99-2.82,12.02-5.6,18.84-8.77c0,4.78,0,9.05,0,13.71c-2.19,1.49-5.17,3.29-7.79,5.33
		c-4.93,3.8-7.75,9.16-4.03,14.84c1.17,1.8,1.76,4.19,3.29,5.48c2.58,2.19,5.37,6.78,9.09,3.84c4.97-3.92,9.63-8.66,13.08-13.9
		c3.92-5.99,6.46-12.92,12.85-17c4.5-2.9,9.13-5.64,13.71-8.46c0.31,0.39,0.67,0.78,0.98,1.17c-0.63,0.94-1.06,2.08-1.88,2.74
		c-3.88,3.02-7.79,5.91-11.79,8.77c-3.17,2.27-5.33,8.38-3.76,10.93c1.68,2.74,5.91,2.86,10.5,0.74c2.04-0.94,4.5-0.86,6.62-1.68
		c4.58-1.8,4.78,0.63,4.82,4.15c0.12,8.89,0.43,17.78,0.94,26.63c0.16,2.66,1.21,5.29,1.84,7.95c0.59-0.04,1.14-0.08,1.72-0.12
		c2-6.23,4.35-12.34,3.76-19.27c-0.23-2.51,0.55-5.09,0.86-7.64c2.27,0.55,4.78,0.67,6.74,1.76c2.9,1.64,5.29,2.7,7.48-0.67
		c-1.72-7.48-9.16-6.81-13.71-9.79c0-1.96,0-3.72,0-5.52c5.84-0.82,12.06,1.53,16.76-4.07c-0.63-0.9-1.1-2.19-2-2.82
		c-3.05-2.11-6.31-3.99-9.44-5.99c-3.64-2.31-4.27-2.04-5.33,2.39c-0.86-0.98-1.64-2.47-1.21-3.25c1.88-3.49,4.07-6.81,6.19-10.18
		c2.55-3.99,2.19-6.85-2.23-8.19c-3.76-1.14-3.17-2.94-2.82-5.72c1.64,0,3.05-0.08,4.43,0c4.78,0.27,9.56,0.67,14.37,0.9
		c2.66,0.12,4.82-0.9,4.27-4.03c-0.59-3.21-11.44-7.68-14.53-6.19c-3.96,1.92-9.95,1.1-11.48-1.49c-0.9-1.49-1.84-2.94-2.78-4.46
		c0.86-1.33,1.88-2.94,3.29-5.21c-3.6-2.19-6.74-4.07-9.91-5.99c1.64-1.45,3.29-3.02,5.13-4.39c1.96-1.41,4.11-2.55,6.07-3.96
		c4.7-3.29,4.03-8.5-0.9-11.32c-4.74-2.7-8.85-1.21-13.28,0.51c-4.97,1.92-7.52,0.67-9.32-4.11c-1.84-4.9-6.7-7.28-12.06-5.95
		c0.98,3.41-2.74,11.95-5.84,13.36c-5.21,2.35-7.64,7.79-5.25,12.73c1.21,2.55,3.02,5.33,6.85,3.88c5.76-2.19,11.51-4.39,17.27-6.54
		c0.16-0.04,0.51,0.27,0.74,0.43c-4.86,5.72-11.48,10.22-18.64,12.14c-4.15,1.1-5.44,3.68-4.82,7.52c0.55,3.21,2.62,4.74,5.87,4.7
		c0.82,0,1.68,0.23,2.51,0.35c0.16,0.43,0.31,0.9,0.47,1.33c-7.79,4.11-15.47,8.58-23.46,12.3c-7.4,3.41-15.2,6.03-23.5,6.81
		c-1.45,0.12-3.6,1.49-3.88,2.66c-0.35,1.45,0.43,3.68,1.49,4.9C29.06,530.07,32.35,530.34,38.23,527.56z M75.44,516.55
		c6.54-8.54,16.21-10.1,25.93-11.44c0.63-0.08,2.08,1.14,2,1.29c-0.74,1.8-1.25,4.27-2.62,5.01c-4.31,2.31-9.05,3.88-13.55,5.84
		c-2.55,1.1-4.93,2.47-7.44,3.68c-0.82,0.39-1.72,0.67-3.02,1.14c-0.98-0.86-2.27-1.72-3.09-2.94
		C73.44,518.79,74.77,517.42,75.44,516.55z M62.75,544.79c-5.64,7.05-7.6,7.72-12.38,4.39C53.35,543.66,57.85,542.05,62.75,544.79z"
		/>
	<path d="M38.23,88.09c5.99-2.82,12.02-5.6,18.84-8.77c0,4.78,0,9.05,0,13.71c-2.19,1.49-5.17,3.29-7.79,5.33
		c-4.93,3.8-7.75,9.16-4.03,14.84c1.17,1.8,1.76,4.19,3.29,5.48c2.58,2.19,5.37,6.78,9.09,3.84c4.97-3.92,9.63-8.66,13.08-13.9
		c3.92-5.99,6.46-12.92,12.85-17c4.5-2.9,9.13-5.64,13.71-8.46c0.31,0.39,0.67,0.78,0.98,1.17c-0.63,0.94-1.06,2.08-1.88,2.74
		c-3.88,3.02-7.79,5.91-11.79,8.77c-3.17,2.27-5.33,8.38-3.76,10.93c1.68,2.74,5.91,2.86,10.5,0.74c2.04-0.94,4.5-0.86,6.62-1.68
		c4.58-1.8,4.78,0.63,4.82,4.15c0.12,8.89,0.43,17.78,0.94,26.63c0.16,2.66,1.21,5.29,1.84,7.95c0.59-0.04,1.14-0.08,1.72-0.12
		c2-6.23,4.35-12.34,3.76-19.27c-0.23-2.51,0.55-5.09,0.86-7.64c2.27,0.55,4.78,0.67,6.74,1.76c2.9,1.64,5.29,2.7,7.48-0.67
		c-1.72-7.48-9.16-6.81-13.71-9.79c0-1.96,0-3.72,0-5.52c5.84-0.82,12.06,1.53,16.76-4.07c-0.63-0.9-1.1-2.19-2-2.82
		c-3.05-2.11-6.31-3.99-9.44-5.99c-3.64-2.31-4.27-2.04-5.33,2.39c-0.86-0.98-1.64-2.47-1.21-3.25c1.88-3.49,4.07-6.81,6.19-10.18
		c2.55-3.99,2.19-6.85-2.23-8.19c-3.76-1.14-3.17-2.94-2.82-5.72c1.64,0,3.05-0.08,4.43,0c4.78,0.27,9.56,0.67,14.37,0.9
		c2.66,0.12,4.82-0.9,4.27-4.03c-0.59-3.21-11.44-7.68-14.53-6.19c-3.96,1.92-9.95,1.1-11.48-1.49c-0.9-1.49-1.84-2.94-2.78-4.46
		c0.86-1.33,1.88-2.94,3.29-5.21c-3.6-2.19-6.74-4.07-9.91-5.99c1.64-1.45,3.29-3.02,5.13-4.39c1.96-1.41,4.11-2.55,6.07-3.96
		c4.7-3.29,4.03-8.5-0.9-11.32c-4.74-2.7-8.85-1.21-13.28,0.51c-4.97,1.92-7.52,0.67-9.32-4.11c-1.84-4.9-6.7-7.28-12.06-5.95
		c0.98,3.41-2.74,11.95-5.84,13.36c-5.21,2.35-7.64,7.79-5.25,12.73c1.21,2.55,3.02,5.33,6.85,3.88c5.76-2.19,11.51-4.39,17.27-6.54
		c0.16-0.04,0.51,0.27,0.74,0.43c-4.86,5.72-11.48,10.22-18.64,12.14c-4.15,1.1-5.44,3.68-4.82,7.52c0.55,3.21,2.62,4.74,5.87,4.7
		c0.82,0,1.68,0.23,2.51,0.35c0.16,0.43,0.31,0.9,0.47,1.33c-7.79,4.11-15.47,8.58-23.46,12.3c-7.4,3.41-15.2,6.03-23.5,6.81
		c-1.45,0.12-3.6,1.49-3.88,2.66c-0.35,1.45,0.43,3.68,1.49,4.9C29.06,90.59,32.35,90.87,38.23,88.09z M75.44,77.08
		c6.54-8.54,16.21-10.1,25.93-11.44c0.63-0.08,2.08,1.14,2,1.29c-0.74,1.8-1.25,4.27-2.62,5.01c-4.31,2.31-9.05,3.88-13.55,5.84
		c-2.55,1.1-4.93,2.47-7.44,3.68c-0.82,0.39-1.72,0.67-3.02,1.14c-0.98-0.86-2.27-1.72-3.09-2.94
		C73.44,79.31,74.77,77.94,75.44,77.08z M62.75,105.32c-5.64,7.05-7.6,7.72-12.38,4.39C53.35,104.18,57.85,102.58,62.75,105.32z"/>
	<path d="M1335.55,153.88c-7.87-4.15-15.74,0.74-23.66,0.82c-5.48,0.08-10.93,1.92-16.41,2.35c-4.19,0.31-8.19-1.33-10.22-5.25
		c-2.04-3.88-3.49-8.11-4.9-12.3c-2.15-6.27-4.03-12.61-6.03-18.96c-0.43,0-0.9,0-1.37,0.08c-1.61,6.34-3.02,12.73-4.9,19
		c-1.29,4.35-2.94,8.66-4.97,12.69c-1.84,3.68-5.01,4.23-9.28,3.56c-7.01-1.1-14.22-1.21-21.35-1.49
		c-5.29-0.2-10.57-0.04-15.86-0.04c-0.31,0.43-0.63,0.9-0.94,1.33c1.25,2,2.15,4.46,3.88,5.87c3.8,3.09,8.11,5.56,12.06,8.5
		c4.43,3.25,5.56,9.87-0.67,12.77c-2.74,1.25-5.52,2.39-8.22,3.68c-4.07,1.92-8.15,3.92-12.22,5.91c0.08,0.59,0.2,1.14,0.27,1.72
		c2.11,0.55,4.27,1.41,6.42,1.53c4.39,0.23,8.77-0.04,13.16,0.08c6.34,0.16,12.65,4.27,13.32,8.85c1.06,7.48,1.76,15,2.94,22.44
		c0.71,4.39,1.96,8.66,2.98,13c0.47-0.04,0.9-0.04,1.37-0.04c0.98-1.88,2.23-3.64,2.9-5.6c4.23-12.89,18.21-21.85,31.57-19.86
		c9.79,1.45,19.35,3.6,27.85,9.16c2.15,1.37,5.13,1.49,7.72,2.15c0.2-0.47,0.43-0.9,0.63-1.37c-0.78-1.21-1.49-2.55-2.43-3.64
		c-3.76-4.46-7.87-8.62-11.32-13.32c-6.89-9.4-7.95-14.84-1.14-22.56C1316.09,174.44,1325.88,164.3,1335.55,153.88z M1269.72,204.01
		c-10.3-0.2-20.44-7.21-20.37-18.92c0-10.73,10.61-21.62,20.8-21.38c11.4,0.35,21.5,9.71,21.5,19.94
		C1291.65,194.69,1281.86,204.25,1269.72,204.01z"/>
	<path d="M96.47,167.16c3.33-0.98,5.52-1.61,7.52-2.19c-0.24,1.8-0.43,3.41-0.63,5.01c1.76-1.1,3.52-2.19,5.6-3.45
		c0.55,1.1,1.14,2.31,2.11,4.35c1.21-2,2.27-3.49,3.13-5.09c0.9-1.72,1.8-3.02,3.76-1.17c7.44,7.01,14.96,13.98,22.36,21.03
		c1.14,1.1,2.74,2.66,2.7,3.99c-0.12,6.46,0.35,13.24-1.37,19.35c-2.43,8.58-6.78,16.61-9.95,24.99c-0.63,1.64-0.23,4.07,0.47,5.84
		c3.49,8.58,7.09,17.08,10.97,25.46c0.98,2.11,2.94,4.62,4.93,5.21c7.32,2.11,14.84,3.6,22.32,5.09c1.41,0.27,3.02-0.47,4.54-0.74
		c-0.9-1.41-1.49-3.13-2.7-4.19c-8-7.07-14.62-15.18-19.84-24.51c1.62,1.36,3.34,2.58,4.72,4.14c3.72,4.27,6.89,9.09,10.93,13.04
		c8.89,8.77,18.17,17.15,27.38,25.58c1.14,1.06,2.86,1.45,4.35,2.15c0.23-0.39,0.51-0.78,0.74-1.17c-0.86-1.02-1.64-2.11-2.62-3.02
		c-10.85-10.26-21.62-20.72-32.7-30.75c-7.99-7.21-10.03-16.21-8.3-26.12c1.76-10.22,4.11-20.44,2.86-30.78
		c-0.71-5.68-0.55-11.98-5.76-16.49c-7.28-6.31-13.83-13.63-21.58-19.27c-6.74-4.9-12.85-12.81-23.34-9.09
		c-5.17,1.8-10.3,3.41-14.92,8.26c2.58,0,4.07,0,5.99,0C98.93,164.1,98.11,165.16,96.47,167.16z M123.41,159.71
		c4.7,3.56,9.28,7.25,14.1,10.65c6.7,4.74,12.65,9.95,17.04,17.15c4.03,6.66,2.94,13.67,2.43,20.41
		c-0.94,12.63-3.11,25.23-4.79,37.82c-3.77-3.33-1.47-7.67-1.43-11.3c0.04-5.95,1.06-11.87,1.68-17.82
		c0.55-5.37,1.45-10.73,1.57-16.1c0.16-6.89-1.29-13.67-6.58-18.49c-6.62-6.07-13.75-11.55-20.64-17.31
		c-1.49-1.25-2.86-2.58-4.31-3.88C122.79,160.46,123.1,160.11,123.41,159.71z"/>
	<path d="M1266.98,98.46c-9.2,6.78-18.64,13.28-28.08,19.78c-9.4,6.46-18.76,13.04-28.4,19.15c-7.36,4.66-15,8.97-22.83,12.81
		c-2.98,1.45-6.11,4.07-10.14-0.9c-6.62-8.15-15.51-14.02-26.2-16.18c-1.1-0.24-2.43,0.59-3.05,0.74
		c8.54,5.99,16.84,11.71,24.99,17.62c2.9,2.11,6.54,4.39,2.58,8.85c2.66,1.84,4.58,5.48,8.5,2.27c-1.02-1.41-1.92-2.58-2.23-3.02
		c2.51-1.53,4.54-3.25,6.89-4.15c11.51-4.46,22.32-10.34,32.7-17c8.73-5.6,17.66-10.89,26.12-16.88
		c8.42-5.95,15.78-13.63,24.67-18.72c10.14-5.8,17.27-14.45,25.5-22.13c2.58-2.43,4.9-5.21,7.09-7.99
		c7.4-9.44,14.88-18.76,21.89-28.47c2.7-3.76,3.52-8.97,6.42-12.53c4.31-5.33,6.74-11.08,7.83-17.74c1.37-8.3-1.41-15.59-8.26-13.67
		c-1.33,7.36-1.72,14.61-4.03,21.11c-2.47,6.97-6.66,13.28-10.22,19.82c-3.6,6.62-9.16,11.63-14.06,17.23
		c-9.44,10.81-18.25,22.09-29.1,31.61C1272.58,92.74,1270.15,96.11,1266.98,98.46z"/>
	<path d="M539.08,740.78c-9.13,0-15.35,3.41-20.76,8.07c-8.07,6.93-14.92,14.22-14.8,26.59c0.12,10.5,13.63,22.52,22.72,21.93
		c7.79-0.47,14.14-4.03,20.25-8.26c8.93-6.19,14.61-14.8,14.61-25.73C561.09,752.06,553.38,739.72,539.08,740.78z M552.44,775.36
		c-2.08,5.29-5.37,8.73-9.16,12.26c-9.6,8.85-25.97,7.13-33.21-3.64c-1.02-1.53-1.17-3.6-1.37-5.52
		c3.29,7.95,12.96,12.42,22.79,10.22c10.5-2.35,21.97-16.8,21.15-27.69c-0.23-3.05-2.39-6.74-4.82-8.69
		c-10.3-8.26-17.62-5.64-26.99,2.58c-4.97,4.35-8.54,10.26-12.18,14.77c0.63-8.26,5.21-15.82,13.08-21.03
		c3.96-2.66,8.77-4.35,13.43-5.68c5.44-1.57,13.79,3.41,16.88,8.42C557.06,759.46,555.76,766.94,552.44,775.36z M527.13,768.47
		c1.17,4.66,0.23,9.05-3.45,12.22c-1.53,1.33-4.5,2.58-6.03,1.96c-1.61-0.63-2.82-3.49-3.25-5.56c-1.96-9.16,7.36-20.95,15.04-24.87
		C526.59,757.89,525.72,762.99,527.13,768.47z M546.95,762.99c-2.98,4.66-7.91,4.03-15.39-1.84
		C536.65,761.73,541.78,762.36,546.95,762.99z M533.17,756.56c4.82,0,9.32,0,14.1,0C545.19,760.87,538.22,760.6,533.17,756.56z
		 M546.36,768.63c-4.5,4.66-10.65,3.99-14.8-1.37C536.53,767.72,541.23,768.16,546.36,768.63z M543.47,775.05
		c-4.86,3.45-7.83,3.13-11.24-1.53C535.59,773.99,538.96,774.42,543.47,775.05z"/>
	<path d="M260.96,473.94c5.21,0,16.33-2.94,20.6-5.76c5.44-3.72,10.57-7.72,14.14-13.67c3.49-5.87,2.19-15.71-1.96-20.21
		c-6.11-6.66-14.37-8.97-22.36-11.91c-0.98-0.39-2.43,0.16-3.56,0.51c-2.04,0.63-4.07,1.37-6.03,2.19
		c-10.07,4.19-18.17,9.91-21.58,21.35C236.37,459.37,246.43,475.47,260.96,473.94z M246.2,459.84c6.03,7.28,13.47,7.95,21.89,8.62
		C260.14,473.24,249.53,470.65,246.2,459.84z M251.25,452.52c2.51-10.81,13.28-17.7,23.46-15.98c-1.96,3.02-4.27,5.84-5.68,9.09
		c-2.47,5.44-6.07,9.67-11.4,12.26c-1.57,0.74-4.5,1.14-5.44,0.23C251.09,457.06,250.82,454.28,251.25,452.52z M270.72,462
		c-3.21-0.9-3.84-3.21-2-7.05c1.68,1.25,3.17,2.11,4.35,3.29c0.71,0.74,0.86,2,1.29,3.02C273.14,461.53,271.77,462.31,270.72,462z
		 M277.02,456.83c-3.37-1.21-4.7-4.9-3.6-7.99c2.39,1.72,4.9,3.52,7.44,5.33c-0.12,0.47-0.27,0.98-0.39,1.49
		C279.33,456.08,277.92,457.14,277.02,456.83z M278.39,442.26c0.08-1.06,1.06-2,1.61-3.02c0.9,0.67,2.11,1.1,2.58,1.96
		c1.76,3.17,3.37,6.5,0.55,10.26C279.57,449.38,278.12,446.21,278.39,442.26z M247.29,441.71c4.62-7.32,11.67-11.67,19.78-14.26
		c9.6-3.05,23.42,5.4,25.97,15.55c1.45,5.87-6.5,17.98-13.08,19.39c2.11-2.43,4.15-4.58,5.99-6.89c6.15-7.75,2.27-19.27-7.4-22.01
		c-14.26-4.03-26.32,2.58-31.33,17.08c-0.43,1.25-1.45,2.31-2.7,4.27C243.53,449.42,244.98,445.35,247.29,441.71z"/>
	<path d="M505.24,811.32c-0.27-0.82-0.86-1.57-1.64-2.94c-2.08,5.48-2.9,6.11-5.29,5.4c-7.44-2.27-14.65-2.86-22.29,0.23
		c-9.48,3.84-14.65,11.44-19.23,19.7c-4.74,8.58-3.17,17.62,3.49,24.83c2.58,2.82,5.8,4.31,9.13,6.15
		c7.48,4.11,21.85,0.82,26.01-3.33c5.33-5.37,9.75-11.75,14.06-18.06c3.84-5.6,3.56-12.77,1.33-18.17
		C508.92,820.6,506.89,816.02,505.24,811.32z M506.18,840.81c-3.84,8.69-10.73,15.04-18.49,20.21c-8.03,5.37-21.03,2.31-25.03-5.13
		c-5.56-10.38-2.98-19.43,3.72-27.96c2.47-3.17,5.4-6.03,8.03-9.09c5.84-6.85,13.67-5.87,20.91-4.27c2.9,0.67,5.21,4.7,3.25,9.4
		c-5.8-5.05-11.36-4.15-18.21-2.78c-8.46,1.64-9.83,8.54-13.32,13.39c-2.58,3.6-3.29,10.18-1.92,14.53
		c1.17,3.76,6.03,7.05,9.99,9.13c9.95,5.25,14.92-3.02,20.17-8.89c5.84-6.54,6.78-14.84,5.91-23.26c3.72-2.04,5.91,0.7,6.19,3.05
		C507.83,832.97,507.71,837.36,506.18,840.81z M488.71,844.49c-1.45-0.39-2.62-1.68-3.96-2.58c0.31-0.51,0.59-1.06,0.86-1.57
		c1.57,0.35,3.25,0.39,4.58,1.06c1.21,0.59,2.04,1.88,3.05,2.86C491.73,844.37,490.08,844.88,488.71,844.49z M490.08,850.05
		c-1.88,0.47-3.8,1.33-5.68,1.21c-0.7-0.04-1.25-2.35-1.88-3.6c2.43,0,4.82,0,7.25,0C489.89,848.44,489.97,849.27,490.08,850.05z
		 M486.52,836.46c-0.04-0.47-0.04-0.94-0.04-1.41c3.76-0.43,7.52-0.82,11.4-1.21C497.68,839.2,495.92,839.52,486.52,836.46z
		 M489.18,828.31c5.6-2.47,7.79-0.04,9.01,4.39C493.73,834.11,492,830.82,489.18,828.31z M473.9,851.69
		c-5.49-0.68-7.39-3.92-5.32-8.96c0.43-1.14,0.2-2.66,0.86-3.52c1.45-1.88,3.02-4.11,5.05-5.01c1.57-0.7,5.48,0.04,5.68,0.86
		c0.67,2.55,0.82,5.76-0.2,8.11C478.6,846.29,476,848.87,473.9,851.69z M482.29,855.81c-5.95,2.16-8.24,1.08-8.34-3.92
		C477.35,851.81,481.1,850.97,482.29,855.81z"/>
	<path d="M1156.25,114.32c2.9,1.88,5.6,3.96,8.58,5.44c1.53,0.78,3.88,1.14,5.37,0.55c4.78-1.92,9.52-4.11,13.98-6.7
		c6.85-3.96,13.47-8.3,20.21-12.53c7.56-4.74,15.63-8.81,22.48-14.37c9.4-7.64,18.25-16.02,26.63-24.79
		c5.99-6.27,12.45-12.34,16.18-20.56c2.51-5.52,6.27-10.5,8.38-16.14c2.31-6.15,3.56-12.73,5.05-19.19c1.02-4.5-1.57-6.81-6.03-5.64
		c-1.02,0.27-1.96,0.78-2,0.78c-1.88,6.7-3.21,12.42-5.13,17.82c-6.66,19.03-18.06,34.9-33.29,47.94
		c-10.61,9.05-21.27,18.09-32.39,26.48c-9.28,7.01-19.23,13.08-28.98,19.43c-1.29,0.86-3.33,1.76-4.46,1.29
		c-3.49-1.45-6.62-3.72-10.07-5.33c-1.76-0.82-3.88-0.86-5.84-1.25C1159.5,111.7,1159.5,111.7,1156.25,114.32z"/>
	<path d="M410.54,381.98c3.09-5.01,1.37-14.06-4.86-18.41c-5.13-3.56-9.48-8.66-16.37-7.99c-10.89,1.1-21.03,4.11-28.67,12.92
		c-6.66,7.72-5.6,19.43,2.66,25.3c4.46,3.17,9.28,4.78,14.84,4.31c4.15-0.43,8.38-0.51,12.42-1.37
		C399.41,394.94,405.99,389.34,410.54,381.98z M366.52,380.88c5.95-7.72,13.63-11.87,23.77-12.18
		C384.49,378.96,372.04,385.23,366.52,380.88z M388.33,393.57c-0.2-0.35-0.43-0.74-0.67-1.1c3.92-2.47,7.87-4.97,11.79-7.44
		c0.39,0.55,0.74,1.06,1.14,1.61C396.52,388.95,392.4,391.3,388.33,393.57z M394.75,374.54c2.9,6.58,2.82,7.13-1.61,11.12
		C389.62,382.69,390.56,377.2,394.75,374.54z M401.65,382.69c3.56-10.85,2.9-12.34-7.83-16.8c-9.24-3.88-17.23-0.35-24.79,4.78
		c-1.92,1.29-3.68,2.94-5.52,4.43c2.78-6.27,8.03-9.63,13.9-12.1c11.32-4.78,19.47-3.17,27.1,4.39c4.19,4.15,2.66,11.4-0.67,15.08
		C403.53,382.84,402.51,382.61,401.65,382.69z"/>
	<path d="M87.34,227.04c0.35,1.61,0.94,3.33,1.92,4.62c5.44,7.21,12.45,11.98,22.01,13.24c-3.02,4.46-2.15,7.05,3.17,7.48
		c0.55,0.04,1.1,0.47,1.64,0.78c6.5,3.72,13,7.4,19.5,11.12c0.63-0.27,1.21-0.55,1.8-0.86c-2.62-6.27-5.33-12.45-7.83-18.72
		c-1.92-4.78-4.15-9.56-5.29-14.57c-2.27-9.75-11.12-20.68-21.15-22.56c-3.29-0.63-6.46-2.15-9.56-3.52
		c-3.49-1.53-7.05-1.57-9.28,1.29c-1.65,2.11-3.13,7.09-2.15,7.95C86.48,217.17,86.28,222.22,87.34,227.04z M102.5,231.62
		c0.74-1.53,1.45-3.09,1.76-4.74s0.08-3.41,0.08-6.31c2.62,0.74,4.54,1.25,7.21,2.08c-3.52,3.45-2.47,6.03-0.27,8.62
		c1.06,1.25,1.76,2.78,2.74,4.35c3.64-1.88,3.76-2.62,0.23-5.29c-2.66-2.04-3.6-4.39-1.06-7.05c1.92-2,4.27-1.68,5.21,0.82
		c1.37,3.52,2.51,7.28,2.86,11.04c0.51,5.37-0.67,6.46-6.23,6.58c-2.58,0.08-5.21-0.35-7.75-0.9
		C100.19,239.3,99.48,237.81,102.5,231.62z"/>
	<path d="M489.5,364.98c8.54-5.68,12.85-17.35,3.29-26.01c-9.16-8.26-20.6-10.54-32.12-5.05c-8.62,4.07-15.59,9.6-16.02,20.64
		c-1.84,7.05,9.36,17.98,19.23,17.74C472.93,372.07,481.74,370.15,489.5,364.98z M447.74,353.12c2.55-7.17,6.81-12.85,14.14-15.51
		c10.77-3.92,20.99-2.58,29.69,5.37c5.01,4.58,4.86,12.57-1.14,16.8c-5.37,3.84-11.75,6.27-17.94,8.73
		c-2.04,0.78-4.78-0.31-7.21-0.55c-0.04-0.31-0.08-0.63-0.12-0.94c4.27-1.84,8.77-3.33,12.77-5.64c4.35-2.55,8.5-5.56,12.3-8.93
		c2.47-2.19,1.68-7.09-0.98-9.09c-4.62-3.45-9.83-5.76-15.74-5.68c-7.56,0.08-14.33,2.82-19.43,8.19c-6.19,6.54-4.9,13.55,2.7,20.09
		C452.09,366.51,445.79,358.68,447.74,353.12z M469.09,353.59c0.51,0.04,1.02,0.08,1.53,0.12c0.35,2.58,0.71,5.13,1.06,7.72
		c-0.31,0.31-0.63,0.63-0.94,0.94c-0.82-1.06-2.19-2.08-2.35-3.25C468.15,357.31,468.82,355.43,469.09,353.59z M475.51,352.88
		c0.47,0.04,0.94,0.08,1.41,0.12c0.71,2.08,1.41,4.15,2.35,6.89c-1.33-0.08-3.56-0.04-3.6-0.23
		C475.44,357.42,475.51,355.15,475.51,352.88z M479.63,355.82c1.64-3.56,2.86-6.19,4.07-8.85c0.43,0.16,0.86,0.31,1.29,0.47
		C484.91,350.65,486.6,354.72,479.63,355.82z M478.14,343.17c-7.56,3.64-14.45,6.93-21.35,10.22
		C460.43,344.62,468.82,340.97,478.14,343.17z M462.24,355.9c0.23-0.04,0.47-0.04,0.7-0.04c1.14,2.43,2.27,4.86,3.6,7.79
		c-1.72,0.12-3.09,0.23-4.31,0.31C462.24,361.03,462.24,358.48,462.24,355.9z"/>
	<path d="M1135.65,158.38c2.15-4.5,3.05-7.95,0.98-12.18c-2.62-5.37-7.99-7.48-13.04-8.42c-6.27-1.17-12.45,1.37-17.04,5.91
		c-3.84,3.8-7.32,7.72-6.89,14.3c0.39,6.5-1.21,13.12-2.04,19.7c-0.43,3.41-1.06,6.81-1.65,10.38c-6.78-5.72-6.78-5.72-9.75-3.29
		c3.68,3.64,7.13,6.97,10.46,10.38c0.59,0.63,1.18,1.64,1.18,2.47c-0.04,5.37,0.82,11.08-0.71,16.02
		c-2.43,7.72-6.7,14.88-9.87,22.44c-0.98,2.39-2.15,5.95-1.1,7.68c3.37,5.48,16.33,8.19,22.29,5.44c4.11-1.88,5.37-5.17,3.92-9.6
		c-0.9-2.74-2.47-5.84-2-8.42c1.65-8.85,4.07-17.59,6.23-26.32c0.27-1.02,0.86-1.92,1.14-2.94c2.04-7.75,3.37-15.59,2.94-23.7
		c-0.08-1.88,0.98-4.07,2.04-5.76C1126.14,167.08,1132.6,164.77,1135.65,158.38z M1117.68,179.26c0.78,10.22-0.59,20.25-4.9,29.34
		c-3.52,7.48-5.68,14.96-5.76,23.03c0,2.43,1.17,4.86,1.8,7.28c1.49,5.87-2.66,10.89-8.38,9.28c-4.58-1.29-8.77-3.96-12.53-5.72
		c4.43-8.97,8.66-16.84,12.18-24.99c3.33-7.56,2.31-15.47,1.25-23.5c-0.7-5.33,0.63-10.93,0.98-16.41
		c0.43-7.09,1.06-14.18,1.21-21.31c0.24-10.26,12.81-18.53,21.93-14.14c9.09,4.35,9.83,14.77,1.61,22.44c-1.1,1.06-2.35,2-3.6,2.9
		C1119.4,170.37,1117.32,174.36,1117.68,179.26z"/>
	<path d="M1213.59,278.43c-2.43,3.45-3.68,8.03-1.02,12.77c2.04,3.6,1.92,8.81,4.58,11.55c8.77,9.13,19.9,14.14,30.78,15.12
		c10.38,0.16,18.02-2.94,21.74-10.3c3.72-7.36,3.88-16.02-1.49-23.26c-6.07-8.19-13.67-15.08-23.77-17.55
		c-6.07-1.49-13.08-2.94-18.88,0.47C1220.92,269.97,1216.69,274.04,1213.59,278.43z M1231.61,270.91c1.41-0.04,2.82,0,4.23,0
		c14.02,0.39,24.05,8.15,30.78,19.19c6.19,10.1-1.37,21.46-13.86,22.09c-13.47,0.67-24.67-4.93-33.49-14.77
		c-3.41-3.84-6.03-9.56-3.45-14.49C1219,276.86,1223.58,271.26,1231.61,270.91z"/>
	<path d="M1345.11,348.53c-7.52-11.08-18.56-15.71-31.8-15.98c-3.02,0.43-6.38,0.12-9.05,1.41c-10.07,4.86-14.61,16.53-12.14,27.42
		c3.02,13.2,10.34,22.36,23.11,26.79c12.1,4.19,22.99,2.11,30.08-10.07c2.7-4.62,2.23-9.52,3.09-14.33
		C1349.5,357.82,1348.09,352.92,1345.11,348.53z M1343.9,372.93c-0.63,3.29-3.96,6.54-6.85,8.81c-2.58,2-6.23,2.62-9.4,3.84
		c-14.18-1.1-24.48-7.44-29.69-19.97c-2.82-6.81-5.44-15.08,1.14-21.7c2.47-2.51,6.03-4.74,9.44-5.4c8.15-1.57,16.33,0,23.46,4.11
		c5.13,2.98,10.5,6.85,11.71,13.04C1344.8,361.26,1344.95,367.37,1343.9,372.93z"/>
	<path d="M212.67,536.53c10.65-1.21,19.86-4.7,25.69-14.53c4.19-7.01,7.09-14.69,5.52-22.56c-2.47-12.3-10.77-17.98-23.42-17.98
		c-17.9-1.25-30.12,11.51-34,27.22C183.02,522.62,198.02,538.21,212.67,536.53z M194.38,502.77c6.89-14.49,18.13-19.7,32.63-17.08
		c3.99,0.7,8.81,5.95,10.26,10.14c4.97,14.53-6.27,37.21-25.85,37.33C196.5,534.02,187.49,517.18,194.38,502.77z"/>
	<path d="M1398.85,426.24c-3.05-11.95-12.42-19.94-25.38-19.03c-0.16-0.43-0.31-0.82-0.51-1.25c-4.62,1.8-9.56,2.98-13.79,5.44
		c-8.66,5.05-13.51,19.19-10.69,28.75c2.9,9.75,9.75,15.74,18.09,20.95c11.98,7.48,23.81,0.43,26.79-9.28
		c0.82-2.58,1.21-5.64,2.9-7.52C1401.27,438.73,1400.26,431.64,1398.85,426.24z M1391.68,445.9c-3.33,16.61-14.3,15.59-25.42,8.11
		c-6.46-4.35-12.26-9.67-13.55-17.9c-1.76-11.04,4.82-25.07,19.35-24.2c13.39,0.31,20.52,8.11,22.64,19.39
		C1395.56,435.79,1392.66,440.96,1391.68,445.9z"/>
	<path d="M166.77,553.8c-8.97-0.51-26.52,10.85-29.49,26.16c-1.8,9.28-0.51,17.39,7.05,23.34c8.58,6.74,21.42,7.44,29.77,2.27
		c6.19-3.84,10.42-9.44,13.83-15.74c3.76-6.93,5.8-14.73,2.31-21.58C185.84,559.64,178.17,553.88,166.77,553.8z M185.77,578.4
		c-1.84,9.75-6.42,17.86-14.49,23.58c-3.02,2.11-6.97,2.86-9.16,3.72c-12.3-1.1-21.19-8.03-19.47-21.66
		c1.57-12.42,8.38-19.9,18.64-25.07c6.23-3.13,12.49-1.61,17.82,2.43C184.63,565.59,187.1,571.27,185.77,578.4z"/>
	<path d="M1036.84,292.68c8.46,5.56,18.49,6.11,27.81,5.72c6.54-0.27,13.24-4.46,19.27-7.95c7.32-4.23,9.28-12.3,6.15-20.01
		c-3.6-8.85-9.13-15.2-18.41-19.15c-14.1-5.99-34.19-3.45-42.42,12.69c-3.45,6.74-1.61,20.01,3.99,24.87
		c0.16,0.16,0.59,0.04,0.9,0.04c0,0,0-0.01,0-0.01C1034.98,290.22,1035.64,291.9,1036.84,292.68z M1031.47,274.78
		c0.23-10.22,11.83-21.35,21.78-21.82c2.94-0.12,5.84-0.51,8.77-0.78c0.43-0.04,0.98-0.16,1.37,0c9.91,4.23,19.94,8.3,24.13,19.5
		c0.47,1.21,0.35,2.86,0,4.15c-2.7,9.75-11.71,16.84-22.09,17.62c-3.56,0.23-7.09,0.63-10.65,1.06c-7.68,0.94-14.31-2.01-20.67-5.79
		C1033.15,284.12,1031.36,279.43,1031.47,274.78z"/>
	<path d="M700.6,595.94c8.54-3.33,15.86-8.62,20.72-16.65c4.9-8.07,6.81-16.76,1.21-25.07c-4.03-5.99-10.34-9.05-17.98-9.44
		c-5.48,1.21-11.24,1.76-16.45,3.72c-10.22,3.99-17.66,19.7-15.43,31.18C675.18,592.57,688.58,600.6,700.6,595.94z M688.34,552.94
		c2.19-1.61,5.25-2.43,7.99-2.78c3.76-0.47,7.68-0.23,11.51-0.08c8.93,0.35,12.45,4.07,12.42,12.89c0.43,0.2,0.82,0.39,1.25,0.59
		c-2.47,5.44-4.11,11.48-7.52,16.18c-5.25,7.4-12.42,12.89-21.78,14.41c-5.64,0.94-12.53-5.09-14.33-12.14
		C674.95,570.41,678.78,559.91,688.34,552.94z"/>
	<path d="M992.5,280.03c-4.58-2-9.28-4.82-14.02-5.09c-9.36-0.55-16.72,4.43-23.7,10.61c-11.12,9.87-6.54,27.89,5.25,34.04
		c5.4,2.82,11.95,3.37,17.98,4.97c9.01-0.16,15.82-4.66,22.25-9.48c3.09-2.31,6.46-5.87,7.25-9.4
		C1009.77,295.27,1003.51,284.81,992.5,280.03z M994.54,314.18c-5.33,3.92-11.48,4.86-17.9,4.7c-1.25-0.04-2.51-0.04-3.72,0.23
		c-7.4,1.64-15.43-2.9-18.45-9.83c-5.37-12.38,3.21-21.54,11.59-26.91c8.03-5.17,15.74-2.78,23.5,0.63c2.11,0.9,4.35,1.45,6.5,2.19
		c4.66,1.64,7.95,7.64,7.95,15.27C1005.58,307.72,999.43,310.62,994.54,314.18z"/>
	<path d="M539.51,301.93c-2.55,10.18,0.08,17.39,9.48,22.01c5.72,2.82,11.36,2.94,17.9,2.04c11.01-1.53,19.97-6.03,27.96-13.12
		c4.78-4.27,6.78-14.84,3.49-19.19c-6.38-8.38-14.3-14.49-25.85-15.24c-6.27,1.72-12.77,2.82-18.64,5.48
		C546.25,287.28,541.63,293.47,539.51,301.93z M586.51,286.96c2.7,1.41,6.07,2.82,7.44,5.21c4.66,8.03,2.43,11.44-4.74,17.39
		c-5.91,4.9-12.57,9.09-19.39,12.57c-3.33,1.68-7.83,1.17-9.91,1.41c-13.08,0-19.62-9.75-15.35-20.21c1.88-4.62,3.41-9.87,6.7-13.32
		c3.13-3.29,8.19-4.9,12.61-6.81C572.14,279.64,579.42,283.32,586.51,286.96z"/>
	<path d="M1042.83,87.34c3.84,2.19,7.44,1.02,10.03-3.41c-3.88-0.35-8.54,3.17-11.16-2.35c1.45-0.47,2.9-0.98,4.19-1.41
		c-1.64-1.92-3.05-3.52-4.74-5.48c-0.59,0.12-1.18,0.35-1.76,0.51c-3.49,0.27-5.17-1.37-5.29-4.82c-0.16-3.68,2.47-3.17,4.82-3.37
		c1.92-0.16,3.8-0.63,5.68-0.98c-1.8-0.9-3.52-0.67-5.17-0.94c-1.92-0.31-5.21-0.74-5.4-1.68c-0.59-2.47-0.55-5.6,0.63-7.75
		c3.13-5.8,12.49-8.58,19.35-6.38c6.66,2.11,10.42,7.25,10.1,14.73c-0.24,6.03,0.94,11.2,6.19,15.51c0.74-1.76,1.02-4.19,2.11-4.66
		c3.33-1.45,6.97-2.9,10.54-2.98c7.48-0.2,14.1-2.94,20.44-6.23c8.81-4.58,17.55-9.16,27.53-10.85c6.54-1.1,14.49,3.6,16.61,10.65
		c-1.8-1.25-3.25-2.23-6.07-4.23c0.35,4.03,0.55,6.78,0.78,9.52c0.23,0,0.47-0.04,0.7-0.04c0.16-1.49,0.31-2.98,0.47-4.78
		c1.41,0.59,2.74,1.61,3.6,1.33c1.14-0.39,2.78-2,2.62-2.78c-1.06-5.84-8.54-11.04-14.41-11.75c-11.28-1.33-20.09,4.66-29.57,8.93
		c-5.25,2.35-10.65,4.5-16.18,6.15c-6.89,2.04-13.94,3.45-21.7,5.33c-0.23-3.29-0.23-6.54-0.82-9.63c-0.74-3.84-0.9-8.42-3.17-11.2
		c-7.75-9.6-26.08-6.38-31.61,1.29c-3.13,4.35-2.31,8.54-1.88,13.16C1031.16,75.7,1034.92,82.75,1042.83,87.34z"/>
	<path d="M615.96,265.66c7.64,8.03,17.59,6.66,27.18,5.48c5.05-0.59,9.32-3.21,12.96-7.09c5.56-5.87,8.15-13.12,11.12-20.37
		c2.27-5.52,0.59-10.42-1.02-15.12c-3.29-9.67-12.42-10.97-20.84-13.08c-5.13-1.25-8.85,2.04-12.92,3.88
		c-11.63,5.29-22.79,17.39-22.29,32.31C609.7,257.32,612.32,261.9,615.96,265.66z M630.14,222.69c7.99-6.11,21.78-4.5,29.73,2.31
		c4.07,3.49,4.74,8.97,3.72,14.06c-0.82,3.99-2.55,7.91-4.39,11.59c-4.54,9.05-11.95,15.08-21.11,19.07
		c-4.7,2.04-14.77-0.16-18.37-3.84c-4.58-4.66-5.84-7.79-5.8-16.84C612.79,238.16,621.05,229.66,630.14,222.69z"/>
	<path d="M1128.05,282.34c6.19,7.28,15.16,8.03,23.7,8.42c9.56,0.08,18.02-2.9,26.2-6.78c6.66-3.13,11.04-7.87,9.36-15.98
		c-0.51-2.35-1.02-4.7-1.96-6.89c-2.7-6.23-7.21-10.69-13.86-12.57c-1.92-0.55-4.27,0.31-6.03-0.43
		c-11.32-4.82-22.05-2.35-32.08,3.17c-6.89,3.8-13.32,9.28-11.63,18.41C1122.57,274.16,1125.08,278.82,1128.05,282.34z
		 M1127.74,263.31c3.92-8.81,11.4-13.71,20.52-14.57c6.58-0.63,13.43,0.98,20.13,2c3.02,0.47,6.34,1.25,8.77,2.98
		c5.84,4.11,7.36,14.84,3.52,20.95c-0.31,0.51-0.63,1.14-1.1,1.45c-9.24,6.03-18.6,11.83-30.2,11.79c-0.12,0.39-0.27,0.74-0.43,1.14
		c-5.64-2-11.48-3.56-16.92-6.15C1125.08,279.6,1125.39,268.6,1127.74,263.31z"/>
	<path d="M232.96,343.48c4.5,6.5,7.99,13.71,7.75,21.74c-0.23,7.83-3.88,14.77-8.58,20.91c-4.11,5.4-8.73,10.42-12.81,15.82
		c-1.1,1.49-2.08,4.35-1.37,5.68c3.33,6.31,7.44,12.06,14.61,14.73c1.29,0.47,2.27,1.8,3.37,2.74c-1.41,0.63-2.78,1.57-4.23,1.76
		c-3.84,0.47-7.68,0.63-11.51,0.9c0.04,0.51,0.08,1.06,0.12,1.57c5.87,1.64,11.83,1.64,17.62-0.67c1.49-0.59,3.45-2.23,3.49-3.49
		c0.04-1.25-1.76-3.17-3.17-3.76c-8.03-3.29-14.41-8.26-18.09-16.41c9.13-9.24,17.7-18.96,22.64-31.33
		c2.15-5.37,3.05-10.85,1.1-16.33c-1.49-4.15-3.33-8.3-5.76-11.95c-7.13-10.73-14.49-21.27-21.97-31.76
		c-1.92-2.7-4.54-4.93-6.85-7.4c-0.39,0.35-0.78,0.67-1.17,0.98c0.63,1.57,0.98,3.29,1.92,4.62
		C217.65,322.41,225.48,332.83,232.96,343.48z"/>
	<path d="M650.19,656.77c9.44-6.03,17.15-13.98,18.33-26.24c0.39-3.76-0.51-6.7-2.98-9.52c-7.44-8.54-17.51-7.91-26.79-6.34
		c-9.67,1.64-16.72,8.03-19.62,18.09c-2.9,10.03-1.57,16.49,5.05,21.35c0-1.57,0.51-3.21-0.08-4.23
		c-3.37-5.99-1.88-11.75,0.16-17.62c2.74-7.91,8.93-12.34,16.41-14.18c4.46-1.1,9.52,0.39,14.3,0.63c4.9,0.2,8.46,3.72,8.54,8.58
		c0.16,10.61-10.61,25.34-21.03,27.96c-3.99,1.02-8.34,0.71-13.51,1.06c1.45,1.17,2.35,2.39,3.49,2.82
		C638.72,661.11,645.22,659.94,650.19,656.77z"/>
	<path d="M724.14,71.67c15.04-2.82,27.96-18.37,28.98-34.31c-1.33-4.39-1.8-9.4-4.27-12.96c-3.13-4.54-7.32-10.03-12.1-11.4
		c-6.89-1.96-14.8-1.21-21.54,3.29c-7.28,4.9-12.1,11.36-14.3,19.9c-2.55,9.87-3.33,19.54,3.8,27.89
		C709.69,69.87,715.95,73.2,724.14,71.67z M714.58,20.99c4.54-3.99,8.03-6.46,16.49-6.11c2.7,0.39,6.5-0.2,7.87,1.33
		c3.84,4.46,7.91,8.77,8.66,15.51c1.29,11.71-2.62,21.38-9.79,29.92c-5.48,6.62-13,9.71-21.5,7.79c-2.9-0.67-5.52-3.68-7.72-6.11
		C696.96,50.48,702.52,31.64,714.58,20.99z"/>
	<path d="M681.13,198.53c10.14,1.17,21.19-6.27,26.44-14.73c3.45-5.52,6.11-11.91,7.52-18.25c0.78-3.49-0.55-9.01-3.02-11.36
		c-8.89-8.42-20.05-9.87-31.57-6.7c-10.61,2.94-20.84,16.37-21.42,27.34c-0.16,3.13-0.74,6.62,0.39,9.28
		C663.86,194.34,669.11,197.86,681.13,198.53z M662.18,173.27c2.66-11.16,8.62-19.9,19.27-24.64c2.58-1.14,6.03-0.63,9.05-0.43
		c2.74,0.16,5.4,1.17,8.11,1.41c8.73,0.7,13.39,7.28,12.22,15.94c-1.72,12.53-9.6,20.52-19.39,27.06c-3.45,2.31-7.6,3.56-11.4,5.29
		c-0.16-0.43-0.35-0.82-0.55-1.25C668.05,197.47,659.2,186,662.18,173.27z"/>
	<path d="M653.56,641.81c1.45-1.88,3.09-3.56,4.15-5.56c2.9-5.21,2.35-10.5-1.88-12.38c-3.37-1.49-7.44-2.15-11.12-1.88
		c-10.77,0.82-16.02,8.07-18.21,17.78c-0.43,1.88,1.02,4.35,2,6.34c0.27,0.51,2.08,0.78,2.86,0.47c5.01-2.11,9.95-4.43,14.65-6.58
		c-0.59-1.84-1.37-4.39-2.19-6.93c0.39-0.16,0.74-0.35,1.14-0.51c1.06,2.82,7.72,1.33,4.82,7.05
		C650.94,640.28,651.99,640.91,653.56,641.81z M632.45,642.08c-0.55-0.31-1.06-0.67-1.57-0.98c2.51-4.46,5.01-8.89,8.03-14.14
		C641.5,634.09,638.36,640.44,632.45,642.08z M648.59,630.37c-0.59-0.47-0.82-2.55-0.59-2.66c1.72-0.9,3.64-1.53,6.23-2.51
		c0,3.21,0,5.05,0,8.34C651.92,632.29,650.11,631.54,648.59,630.37z"/>
	<path d="M44.34,426.86c5.33,3.88,7.64,3.25,11.63-2.19c0.78-1.06,2.27-1.61,2.94-2.7c0.98-1.61,1.92-3.45,2-5.21
		c0.04-0.63-2.51-1.68-3.99-2c-5.8-1.25-11.71-2.11-17.47-3.49c-4.5-1.06-8.89-2.7-13.36-4.07c-0.35,0.23-0.7,0.47-1.06,0.67
		c0.98,2.04,1.53,4.62,3.09,5.99C33.29,418.44,38.74,422.75,44.34,426.86z"/>
	<path d="M1286.6,232.6c-0.23-8.26-3.33-12.38-9.4-12.42c-4.94-0.08-9.05,4.03-9.05,8.97c0.04,5.56,3.8,8.89,10.07,8.85
		C1282.92,238.01,1286.68,235.54,1286.6,232.6z"/>
	<path d="M1260.63,144.52c0-6.74-3.96-10.81-10.54-10.81c-4.58-0.04-7.25,2.35-7.32,6.54c-0.12,6.5,5.25,12.26,11.28,12.14
		C1257.85,152.31,1260.63,148.98,1260.63,144.52z"/>
	<path d="M1306.69,142.44c0.08-4.11-4.03-7.87-8.54-7.79c-5.48,0.08-10.07,4.15-10.26,9.05c-0.16,4.54,3.76,8.66,8.3,8.77
		C1300.54,152.55,1306.61,146.79,1306.69,142.44z"/>
	<path d="M59.18,309.05c7.21-9.32,14.73-18.41,22.05-27.61c2.35-2.94,5.29-5.64,4.54-10.1c-0.2-1.14,0.74-2.66,1.57-3.64
		c4.82-5.8,9.75-11.44,14.65-17.15c-0.04-0.43-0.12-0.82-0.27-1.17c-1.25,0.47-2.66,0.74-3.76,1.49c-0.94,0.67-1.64,1.76-2.23,2.82
		c-4.19,7.21-13.75,11.12-13.12,21.35c0.04,0.59-0.9,1.21-1.37,1.8c-8.19,10.42-16.49,20.72-24.44,31.29
		c-3.76,5.01-8.3,7.75-14.61,8.19c-3.09,0.2-6.07,1.64-9.13,2.51C43.44,319.82,52.48,317.71,59.18,309.05z"/>
	<path d="M576.05,238.95c5.4,0.04,8.69-3.29,8.73-8.81c0.04-5.29-2.86-8.03-8.5-8.07c-6.07-0.08-10.22,2.86-9.75,7.56
		C567,234.25,570.06,239.03,576.05,238.95z"/>
	<path d="M1064.06,113.58c-0.9-0.31-1.84-0.63-2.74-0.94c-3.8-1.33-7.79-2.23-11.28-4.07c-5.95-3.17-11.48-7.13-17.39-10.38
		c-2.23-1.25-5.01-1.49-7.56-2.15c-0.04,0.27-0.04,0.55-0.08,0.82c2.27,1.37,4.58,2.74,6.85,4.11c-0.2,0.47-0.43,0.98-0.67,1.45
		c-3.76,0.51-7.48,1.06-11.2,1.57c2.62,0.35,5.44,0.98,7.83,0.23c8.58-2.7,14.02,1.76,20.01,8.07c-5.37,0.35-9.83,0.59-14.26,0.86
		c-0.08,0.24-0.12,0.43-0.16,0.67c2.15,0.82,4.35,1.61,6.5,2.43c0,0.59-0.04,1.14-0.04,1.72c-4.43,1.02-8.89,2-12.77,2.86
		c6.85,2.19,14.3-0.43,23.3-9.13c4.74,2.98,9.67,6.15,14.65,9.2c3.22,2,6.54,3.86,9.83,5.77c-4.05-3.67-8.1-7.35-12.18-11.06
		C1063,115.14,1063.55,114.36,1064.06,113.58z"/>
	<path d="M558.47,146.01c-0.12-7.6-4.7-10.69-10.77-11.28c-3.96-0.39-6.11,2.19-6.15,6.34c-0.08,6.62,4.07,11.32,10.03,11.4
		C556.63,152.55,558.43,150.82,558.47,146.01z"/>
	<path d="M586.67,145.11c0.16,4.35,3.41,7.36,7.99,7.36c5.25,0,10.46-4.23,10.77-8.73c0.16-2.86-5.44-8.07-8.77-8.15
		C591.72,135.43,586.51,140.37,586.67,145.11z"/>
	<path d="M950.48,112.95c11.51-3.13,22.99-6.46,33.6-12.1c7.4-3.92,15.27-6.7,23.62-7.52c6.07-0.59,11.98-1.1,16.96-4.86
		c3.05-2.31,5.84-4.93,8.73-7.44c-0.31-0.47-0.63-0.9-0.94-1.37c-1.41,0.67-3.02,1.06-4.15,2.04c-6.78,5.87-14.02,9.87-23.54,10.07
		c-5.56,0.12-11.2,2.39-16.61,4.35c-4.82,1.76-9.24,4.66-14.06,6.5c-7.99,3.05-16.18,5.6-24.24,8.46c-1.57,0.55-2.94,1.64-4.39,2.47
		c0.27,0.31,0.51,0.63,0.74,0.9C947.62,113.93,949.03,113.34,950.48,112.95z"/>
	<path d="M1103.26,107c-2.47,0.94-5.09,1.49-7.6,2.31c-0.9,0.31-1.68,1.02-3.6,2.23c4.54,1.14,7.83,2,11.12,2.82
		c0.39-0.7,0.74-1.45,1.14-2.15c-1.41-0.55-2.82-1.06-4.23-1.61c5.84-1.76,5.99-2.58,6.66-6.89c1.21-8.03-3.72-13.75-7.09-20.99
		c5.68-3.64,11.48-7.28,17.15-11.12c2.82-1.88,5.37-4.46,8.26-0.2c0.12,0.12,1.02-0.31,1.57-0.51c-0.43-0.27-0.86-0.55-1.29-0.82
		c1.14-2.55,2.31-5.09,3.45-7.6c-1.1,0.2-2.43,0.59-3.76,0.59c-0.98-0.04-2-0.55-2.98-0.86c0.23,1.21,0.43,2.39,0.7,4.15
		c-11.24,4.74-21.03,11.67-28.79,21.97c1.45-0.47,2.9-0.9,4.93-1.53c1.84,5.91,3.8,11.95,5.56,18.02
		C1104.67,105.39,1103.89,106.76,1103.26,107z"/>
	<path d="M1238.89,209.26c0.23-2.86-4.74-6.97-8.42-6.97c-4.19,0-9.36,4.74-9.32,8.5c0.04,3.6,3.56,6.54,7.91,6.54
		C1233.33,217.33,1238.58,212.98,1238.89,209.26z"/>
	<path d="M535.91,210.16c-0.04-4.19-2.98-6.93-7.44-6.93c-4.39,0-8.5,3.84-8.54,7.95c0,3.8,3.56,7.13,7.6,7.09
		C531.76,218.23,535.95,214.16,535.91,210.16z"/>
	<path d="M1131.81,97.28c-1.29-0.39-2.47-3.09-3.25-2.9c-6.58,1.53-13.04,3.52-19.5,5.4c-0.04,0,0.04,0.51,0.08,0.94
		c1.72,0,3.56,0.39,5.13-0.08c5.01-1.49,9.52-2.55,15.04-0.2c5.33,2.27,11.71,2.31,17.66,3.02c3.02,0.39,6.15,0.08,9.2,0.08
		c0-0.7,0.04-1.41,0.12-2.11c-5.29-0.86-10.54-1.72-15.82-2.58C1137.57,98.38,1134.6,98.15,1131.81,97.28z"/>
	<path d="M1229.49,177.03c-0.35-3.17-1.72-6.03-5.44-5.8c-4.27,0-6.38,1.68-6.7,5.76c-0.35,4.27,2,5.48,5.56,5.56
		C1226.79,182.63,1229.89,180.28,1229.49,177.03z"/>
	<path d="M1089.75,92.66c-0.94,3.37-1.41,5.29-2.04,7.17c-2.66,8.15-11.87,11.48-19,6.97c-0.67-0.43-1.8-0.23-2.7-0.31
		c0.39,0.94,0.47,2.15,1.14,2.7c3.33,2.62,7.09,2.47,11.16,2.04c7.87-0.86,14.53-7.6,13.94-15.24
		C1092.18,94.9,1090.73,93.92,1089.75,92.66z"/>
	<path d="M960.74,119.45c0,0.04,0.12,0.16,0.12,0.16c0.07-0.07,0.13-0.15,0.19-0.22C960.94,119.41,960.84,119.43,960.74,119.45z"/>
	<path d="M1006.76,108.64c-0.12-0.43-0.23-0.9-0.35-1.37c-1.14,0.2-2.27,0.31-3.37,0.59c-2.78,0.74-5.48,1.92-8.3,2.23
		c-10.61,1.17-21.11,2.78-31.14,6.66c-1.05,0.4-1.74,1.67-2.55,2.63c9.73-2.17,19.49-4.22,29.22-6.47
		C995.79,111.66,1001.27,110.09,1006.76,108.64z"/>
	<path d="M527.25,177.46c-0.55-2-2.7-3.56-4.11-5.33c-4.66,0.51-7.4,2-7.64,5.56c-0.27,3.37,2.55,5.05,5.52,5.56
		C523.84,183.76,527.96,180.08,527.25,177.46z"/>
	<path d="M996.85,149.85c1.25,0.74,2.55,1.45,3.84,2.19c-1.14,1.17-1.88,1.17-2.58,1.41c-0.78,0.27-1.53,0.7-2.31,1.06
		c0.2,0.51,0.35,1.02,0.55,1.53c3.41-1.17,6.85-2.35,10.3-3.52c-0.08-0.51-0.2-0.98-0.27-1.49c-1.64,0-3.29,0-6.19,0
		c6.62-2.58,11.83-4.66,17.86-7.01C1013.49,141.62,999.55,146.16,996.85,149.85z"/>
	<path d="M1186.37,874.57c-3.76-2.74-7.75-5.13-11.63-7.68c-0.39,0.31-0.82,0.63-1.17,0.94c2.78,4.27,5.29,8.73,8.54,12.57
		c0.55,0.63,4.15-1.29,6.34-2.04C1187.78,877.08,1187.43,875.35,1186.37,874.57z"/>
	<path d="M938.84,127.64c-0.2,2.58-0.31,4.15-0.51,6.93c2.98-3.09,5.8-5.01,9.13-1.92c0.23,0.2,1.57-0.31,2.04-0.82
		c3.5-3.75,6.93-7.57,10.36-11.36c-2.91,2.18-5.83,4.39-8.87,6.7c-0.39-0.86-0.71-1.68-0.9-2.11c-1.96,1.21-3.72,2.31-6.34,3.96
		c0.27-2.47,0.39-3.52,0.63-5.72C941.66,125.44,939.71,126.97,938.84,127.64z"/>
	<path d="M960.74,119.49c-0.29,0.32-0.59,0.65-0.88,0.97c0.35-0.26,0.69-0.52,1.04-0.78C960.86,119.61,960.74,119.49,960.74,119.49z
		"/>
	<path d="M1148.89,171.39c2.35,3.84,3.72,7.72,6.42,9.87c1.76,1.41,5.48,0.27,9.2,0.27c-3.02-3.84-5.44-6.89-7.13-9.01
		C1154.37,172.13,1152.22,171.82,1148.89,171.39z"/>
	<path d="M1052.15,194.02c0.7,0.35,1.76,0.47,2.47,0.2c0.47-0.16,1.06-1.37,0.86-1.84c-1.21-3.33-2.66-6.62-4.35-10.69
		C1047.96,185.68,1049.1,192.54,1052.15,194.02z"/>
	<path d="M1009.34,135.9c5.76,2.51,10.42,0.04,15.47-1.68C1022.58,131.75,1012.79,132.89,1009.34,135.9z"/>
	<path d="M1133.77,72.45c0.16-0.82,0.35-1.64,0.59-2.66c1.96,0.86,3.88,1.68,5.76,2.51c-0.47-2.62-0.94-5.25-1.45-8.26
		c-1.84,2.08-3.25,3.6-5.25,5.84c-0.39-2.51-0.63-3.84-0.86-5.33c-4.82,1.64-1.37,4.35-1.21,6.42
		C1131.34,71.51,1132.91,71.94,1133.77,72.45z"/>
	<path d="M1160.76,129.52c-3.88-4.15-7.87-2.43-13.39-0.35c2.78,1.17,4.39,1.84,6.03,2.55
		C1154.8,127.91,1158.29,130.73,1160.76,129.52z"/>
	<path d="M1046.63,190.77c-1.25-4.31-2.19-7.6-3.25-10.89c-0.04-0.08-1.06,0.12-1.76,0.23
		C1041.85,183.96,1040.21,188.11,1046.63,190.77z"/>
	<path d="M1099.97,124.15c0.08-0.55,0.16-1.1,0.27-1.64c-4-0.04-7.99-4.58-12.42,0.35C1092.18,123.33,1096.1,123.72,1099.97,124.15z
		"/>
	<path d="M1075.57,127.23c-0.02-0.07-0.05-0.14-0.07-0.22c-0.19-0.11-0.39-0.23-0.58-0.34c0.16,0.15,0.32,0.29,0.48,0.44l-0.02,0.02
		C1075.44,127.16,1075.5,127.19,1075.57,127.23z"/>
	<path d="M1085.17,134.61c0.39-0.63,0.74-1.25,1.14-1.88c-3.58-1.85-7.16-3.66-10.74-5.5
		C1077.1,132.17,1081.93,132.22,1085.17,134.61z"/>
	<path d="M636.52,652.34c3.72-1.29,7.4-2.55,11.12-3.84c-0.2-0.59-0.43-1.17-0.67-1.76c-3.68,1.21-7.4,2.47-11.12,3.68
		C636.09,651.05,636.29,651.72,636.52,652.34z"/>
	<path d="M946.4,119.45c-0.08-0.2-0.12-0.39-0.2-0.59c-1.02,0.2-2.04,0.39-3.6,0.7c0.74-1.53,1.17-2.43,2.19-4.62
		c-3.02,2.31-4.93,3.72-6.58,4.97c0.47,1.02,0.9,1.92,1.37,2.9C941.9,121.68,944.17,120.55,946.4,119.45z"/>
	<path d="M1160.56,170.52c2.23,2.55,4.43,5.13,6.62,7.68c0.55-0.51,1.1-1.02,1.61-1.53c-2.23-2.51-4.43-5.05-6.66-7.56
		C1161.62,169.58,1161.07,170.05,1160.56,170.52z"/>
	<path d="M1017.84,128.46c0,0.43,0.04,0.86,0.04,1.29c3.45-1.1,6.93,3.25,11.24-1.29C1024.7,128.46,1021.29,128.46,1017.84,128.46z"
		/>
	<path d="M1100.64,117.18c-3.09,0.86-5.72-4.43-9.16,0.63c3.02,0.31,5.99,0.67,9.01,0.98
		C1100.56,118.28,1100.6,117.73,1100.64,117.18z"/>
	<path d="M1176.23,173.38c-2.55-1.88-5.09-3.8-7.64-5.68c-0.43,0.67-0.9,1.33-1.37,2c2.66,1.76,5.29,3.49,7.95,5.25
		C1175.52,174.4,1175.88,173.89,1176.23,173.38z"/>
	<path d="M1035.9,124c-3.88-1.06-8.07,1.25-11.91,0.08c-0.12,0.47-0.2,0.94-0.31,1.41c4.03,0.27,8.03,0.51,12.02,0.78
		C1035.78,125.52,1035.82,124.74,1035.9,124z"/>
	<path d="M1221.35,760.6c-0.59-0.39-1.88-0.55-2.27-0.16c-2.04,2.04-3.92,4.27-6.66,7.36c6.03,0.82,7.4-2.7,9.36-5.25
		C1222.05,762.2,1221.78,760.87,1221.35,760.6z"/>
	<path d="M754.57,470.14c-10.46-0.51-22.72,10.89-22.25,22.68c-0.12,6.42,1.76,11.2,6.58,13.83c4.31,2.35,9.71,2.04,12.96-1.33
		c5.13-5.33,9.75-11.4,13.36-17.82C769.26,480.29,762.72,470.53,754.57,470.14z M759.94,482.24c-2.66-2.27-4.93-4.23-7.64-6.54
		C759.19,474.26,760.91,475.7,759.94,482.24z M741.14,497.13c-1.06,0.98-3.05,2.15-4.03,1.76c-1.8-0.71-2.11-2.11-0.7-4.43
		c1.84-2.98,2.15-6.89,3.6-10.14c0.98-2.19,2.82-4.03,4.31-6.03C744.93,485.22,746.7,492,741.14,497.13z M752.18,493.6
		c-1.41-0.94-2.23-2.78-3.29-4.23c0.35-0.31,0.74-0.63,1.1-0.94c2.35,1.1,4.74,2.15,7.44,3.41
		C756.45,495.4,754.06,494.82,752.18,493.6z M749.36,482.36c1.96-1.76,1.96-1.76,11.16,3.33
		C755.94,488.24,753.28,487.38,749.36,482.36z"/>
	<path d="M1247.59,307.57c1.57,0,3.17,0.23,4.66-0.08c4.5-0.9,9.48-1.37,11.51-6.42c1.88-4.58,2.27-10.38-0.86-13.63
		c-8.15-8.38-17.19-15.78-30.39-14.57c-8.66,0.82-15,11.83-11.2,19.5C1226.79,303.41,1236.07,307.29,1247.59,307.57z
		 M1240.15,303.49c-1.65-1.88-3.64-3.56-4.82-5.72c-0.51-0.94,0.67-2.82,1.1-4.27c1.14,0.9,2.74,1.61,3.33,2.82
		c0.9,1.84,1.02,4.03,1.49,6.07C1240.89,302.79,1240.5,303.14,1240.15,303.49z M1243.59,298.44c-1.41-4.03-1.21-4.5,2.9-6.07
		c-0.04,4.46-0.86,8.97,5.6,10.38C1246.26,305.14,1244.81,301.93,1243.59,298.44z M1253.42,302.55c-1.06-1.33-2.55-2.55-3.02-4.03
		c-0.55-1.64-0.39-3.68-0.08-5.44c0.12-0.55,1.68-0.82,2.58-1.25c0.55,1.49,1.02,3.02,1.68,4.46c0.82,1.84,1.88,3.56,2.86,5.4
		C1256.13,302,1254.79,302.28,1253.42,302.55z M1227.77,278.9c4.07-2.66,8.5-3.52,13.12-1.41c4.74,2.15,9.44,4.46,14.14,6.7
		c-0.24,0.39-0.51,0.74-0.78,1.1c-4.46,0.9-9.01,1.57-13.43,2.78c-5.41,1.45-9.48-1.02-13.47-3.92
		C1224.79,282.3,1225.62,280.31,1227.77,278.9z"/>
	<path d="M1313.54,341.13c-8.77-1.72-14.73,7.21-14.33,15.98c0.51,10.18,5.87,17.66,14.88,22.09c4.82,2.39,10.34,3.88,15.67,1.68
		c9.13-3.72,13.47-15.94,8.81-24.79C1333.6,346.65,1325.76,341.44,1313.54,341.13z M1335.28,363.46c-4.93-1.61-10.5-2.94-15.63-5.21
		c-3.68-1.68-6.89-4.46-10.07-7.05c-0.82-0.67-0.82-2.39-1.21-3.64C1321.77,343.87,1332.5,350.77,1335.28,363.46z M1306.14,366.55
		c0.2-2.27-0.12-4.74,0.78-6.7c0.35-0.74,3.33-0.27,5.13-0.39c0.16,0.59,0.27,1.17,0.43,1.76c-1.53,1.96-3.05,3.88-4.62,5.76
		C1307.32,366.82,1306.73,366.71,1306.14,366.55z M1313.97,373.01c-0.47,0-0.94,0-1.41,0c-0.08-1.92-0.71-4.03-0.12-5.72
		c0.86-2.39,2.47-4.86,6.23-3.41C1317.03,367.06,1315.5,370.03,1313.97,373.01z M1323.69,376.42c-0.98-0.39-3.84-0.63-4.46-1.92
		c-1.53-3.33,0.47-6.5,2.98-8.5c1.29-1.02,3.92-0.35,5.8-0.43C1326.35,369.72,1325.21,372.66,1323.69,376.42z M1328.23,376.77
		c-0.43-0.51-0.9-1.06-1.37-1.57c1.25-1.92,2.47-3.8,3.8-5.87c1.53,0.86,2.66,1.49,4.9,2.74
		C1332.7,373.87,1330.46,375.32,1328.23,376.77z"/>
	<path d="M212.95,527.99c12.1-1.33,26.63-18.17,18.64-32c-3.29-5.72-5.44-7.95-13.59-7.95c-0.27,0.04-2.04,0-3.56,0.59
		c-8.66,3.25-14.96,9.16-17.94,17.94c-1.68,4.86-1.8,9.87,1.57,14.45C201.78,526.11,207.42,528.58,212.95,527.99z M223.91,494.19
		c0.94,1.14,1.92,2.27,2.82,3.45c0.7,0.9,1.29,1.92,1.92,2.9c-0.27,0.35-0.51,0.67-0.78,0.98c-1.17-0.51-2.66-0.7-3.45-1.57
		c-1.06-1.1-1.76-2.62-2.31-4.11C222.03,495.56,223.29,494.74,223.91,494.19z M221.41,502.06c1.57,0.51,3.02,1.37,4.54,2
		c2.94,1.25,3.72,2.98,0.7,6.03c-2.47-1.84-5.05-3.64-7.4-5.68c-0.47-0.39-0.35-1.53-0.51-2.31
		C219.64,502.06,220.58,501.79,221.41,502.06z M218.51,509.07c2.66,1.88,4.78,3.41,6.89,4.9c-0.86,0.74-2.19,2.31-2.58,2.11
		c-2-1.06-3.8-2.51-5.48-4.03C217.1,511.82,217.96,510.41,218.51,509.07z M211.93,493.99c0.94-0.31,2.04-0.16,2.43-0.2
		c-0.39,4.7-0.94,8.89-0.98,13c-0.08,3.49-4.74,11.2-8.07,11.98c-1.14,0.27-3.37-0.51-3.76-1.41
		C198.77,511.15,205.47,496.34,211.93,493.99z"/>
	<path d="M212.67,104.51c10.65-1.21,19.86-4.7,25.69-14.53c4.19-7.01,7.09-14.69,5.52-22.56c-2.47-12.3-10.77-17.98-23.42-17.98
		c-17.9-1.25-30.12,11.51-34,27.22C183.02,90.61,198.02,106.19,212.67,104.51z M194.38,70.75c6.89-14.49,18.13-19.7,32.63-17.08
		c3.99,0.7,8.81,5.95,10.26,10.14c4.97,14.53-6.27,37.21-25.85,37.33C196.5,102,187.49,85.16,194.38,70.75z"/>
	<path d="M212.95,95.97c12.1-1.33,26.63-18.17,18.64-32c-3.29-5.72-5.44-7.95-13.59-7.95c-0.27,0.04-2.04,0-3.56,0.59
		c-8.66,3.25-14.96,9.16-17.94,17.94c-1.68,4.86-1.8,9.87,1.57,14.45C201.78,94.09,207.42,96.56,212.95,95.97z M223.91,62.17
		c0.94,1.14,1.92,2.27,2.82,3.45c0.7,0.9,1.29,1.92,1.92,2.9c-0.27,0.35-0.51,0.67-0.78,0.98c-1.17-0.51-2.66-0.7-3.45-1.57
		c-1.06-1.1-1.76-2.62-2.31-4.11C222.03,63.54,223.29,62.72,223.91,62.17z M221.41,70.04c1.57,0.51,3.02,1.37,4.54,2
		c2.94,1.25,3.72,2.98,0.7,6.03c-2.47-1.84-5.05-3.64-7.4-5.68c-0.47-0.39-0.35-1.53-0.51-2.31
		C219.64,70.04,220.58,69.77,221.41,70.04z M218.51,77.05c2.66,1.88,4.78,3.41,6.89,4.9c-0.86,0.74-2.19,2.31-2.58,2.11
		c-2-1.06-3.8-2.51-5.48-4.03C217.1,79.8,217.96,78.39,218.51,77.05z M211.93,61.98c0.94-0.31,2.04-0.16,2.43-0.2
		c-0.39,4.7-0.94,8.89-0.98,13c-0.08,3.49-4.74,11.2-8.07,11.98c-1.14,0.27-3.37-0.51-3.76-1.41
		C198.77,79.13,205.47,64.33,211.93,61.98z"/>
	<path d="M1382.75,419.27c-3.84-2.55-9.09-5.09-13.24-4.5c-8.73,1.25-13.94,14.22-11.71,21.5c2.23,7.21,7.13,12.18,13.32,16.21
		c3.92,2.55,8.34,2.43,11.75-0.67c5.17-4.7,5.72-10.93,5.56-18.06C1389.29,428.35,1387.88,422.63,1382.75,419.27z M1361.33,427.41
		c2.51,0.74,4.62,1.37,7.75,2.31c-3.37,2.35-5.4,3.76-7.75,5.4C1361.33,432.74,1361.33,430.66,1361.33,427.41z M1363.56,440.77
		c0.78-2.31,0.86-4.43,1.76-4.86c2.04-0.94,4.43-1.02,6.7-1.45c0,0.31,0,0.67,0,0.98C1369.59,436.97,1367.12,438.5,1363.56,440.77z
		 M1368.02,442.06c0.04-2.62,6.15-3.52,9.83-1.68c-2.04,2.58-3.76,4.82-6.42,8.22C1370.1,446.17,1367.98,444.1,1368.02,442.06z
		 M1376.33,450.4c-0.55-0.82-1.1-1.64-1.65-2.47c1.96-1.61,3.88-3.21,5.84-4.78c0.74,1.21,1.49,2.47,2.23,3.68
		C1380.6,448.05,1378.48,449.23,1376.33,450.4z M1384.08,440.34c-5.44-5.91-10.18-10.89-14.57-16.14c-0.67-0.74,0.2-2.82,0.35-4.23
		C1380.6,417.93,1386.2,425.38,1384.08,440.34z"/>
	<path d="M161.44,562.77c-8.03,2.98-16.84,15.71-14.84,26.4c1.06,5.72,4.23,9.36,8.77,11.48c5.01,2.31,10.57,2.15,15.24-1.64
		c7.21-5.84,11.79-13.04,10.89-22.01C181.61,564.02,172.96,558.54,161.44,562.77z M161.64,590.73c-1.49,1.88-3.17,3.6-4.78,5.37
		c-1.53-1.68-3.45-3.17-4.5-5.13c-2.9-5.25,0.86-17.43,6.97-21.03c0.23,0.2,0.67,0.35,0.67,0.51c0.63,6.15,1.21,12.3,1.8,18.45
		C161.87,589.52,161.95,590.34,161.64,590.73z M169.59,565.24c3.68,0.08,5.4,2.62,6.66,6.15c-3.76,0.47-6.93,0.51-8.62-2.86
		C167.28,567.86,168.92,565.24,169.59,565.24z M166.06,593.32c-0.04-7.4,4.11-4.23,6.7-4.5c0.2,0.47,0.43,0.98,0.63,1.45
		C171.12,591.24,168.85,592.18,166.06,593.32z M166.5,582.35c3.29,0,6.19,0,9.24,0C172.84,586.78,169.86,586.78,166.5,582.35z
		 M170.92,579.06c-3.21,0.43-5.76-1.14-5.68-5.44c3.76,0.39,7.52,0.82,11.32,1.17c0.23,0.43,0.43,0.82,0.67,1.21
		C175.15,577.1,173.11,578.79,170.92,579.06z"/>
	<path d="M1073.69,283.87c3.6-3.56,6.74-7.05,7.32-12.92c-1.21-2.35-2-5.05-3.68-6.97c-7.56-8.42-17.59-9.91-27.73-7.48
		c-9.83,2.35-20.21,12.57-12.14,26.4c1.88,3.25,5.56,6.03,9.05,7.52c3.37,1.45,7.6,0.98,11.44,1.17
		C1064.57,291.9,1069.23,288.3,1073.69,283.87z M1065.86,284.65c-2.23-0.7-4.46-3.52-5.25-5.91c-0.63-2,0.82-4.66,1.41-7.25
		c3.44,3.09,6.08,5.5,8.71,7.89C1071.76,283.61,1067.22,285.04,1065.86,284.65z M1076.2,268.4c1.06,1.29,1.53,4.15,0.78,5.52
		c-1.25,2.38-1.88,6.31-6.22,5.41c-1.54-3.44-3.09-6.87-4.63-10.35C1070.25,267.42,1073.46,264.99,1076.2,268.4z M1046.63,286.3
		c-0.7-1.45-1.02-3.21-1.06-4.82c0-0.67,1.37-2.04,1.84-1.92c0.98,0.2,2.19,1.02,2.58,1.92c0.78,1.84,1.1,3.88,1.65,6.11
		C1049.53,290.14,1047.84,288.53,1046.63,286.3z M1038.91,275.49c0.67-2.82,1.18-5.17,1.84-7.44c1.49-5.17,10.61-11.98,15.94-11.01
		c4.03,0.74,7.83,3.09,11.67,4.9c0.27,0.12,0.27,2-0.16,2.31c-5.05,3.56-9.91,7.6-15.43,10.26
		C1048.74,276.43,1043.97,279.17,1038.91,275.49z M1055.52,286.02c-1.29-2.11-3.33-5.05,0-7.68c2.27,3.13,4.23,5.84,6.19,8.62
		c-0.31,0.47-0.59,0.94-0.9,1.41C1058.97,287.63,1056.34,287.36,1055.52,286.02z"/>
	<path d="M688.03,586.54c4.62,2.35,9.6,1.92,14.06-0.98c6.78-4.39,10.93-10.46,12.57-18.53c1.06-5.17-0.67-10.18-5.52-11.91
		c-4.78-1.68-9.36-1.8-14.41,0.43c-7.64,3.33-14.06,11.32-14.06,19.47C679.92,580.79,683.52,584.27,688.03,586.54z M704.2,556.03
		c2.39,1.1,4.31,3.33,6.23,5.33c0.43,0.47,0.35,1.92-0.08,2.55c-0.31,0.43-1.65,0.55-2.35,0.27c-2.86-1.1-5.68-2.35-9.83-4.11
		C701.07,558.03,703.26,555.6,704.2,556.03z M698.41,562.06c3.88,2.78,6.97,5.01,10.03,7.21c-3.99,2.86-7.28,0.35-10.26-1.64
		C697.39,567.08,698.25,564.22,698.41,562.06z M694.1,557.13c0.63-0.2,2.35,1.14,2.31,1.64c-0.51,4.74-1.1,9.48-2.04,14.14
		c-0.39,2.04-1.17,4.31-2.55,5.76c-1.37,1.41-3.68,1.96-5.56,2.86c-0.82-2.19-1.8-4.39-2.43-6.66c-0.23-0.86,0.39-1.96,0.35-1.76
		C683.72,567.31,689.67,558.34,694.1,557.13z"/>
	<path d="M982.08,283.91c-7.68,0.55-14.33,1.37-19.86,6.42c-3.92,3.6-6.81,10.07-5.6,14.53c1.65,6.15,9.44,11.59,17.04,12.1
		c9.6,0.63,16.41-4.07,21.62-11.4c1.57-2.19,3.13-5.4,2.74-7.83C996.81,290.37,988.51,282.58,982.08,283.91z M970.41,289.08
		c5.68-1.8,12.42-0.31,18.68-0.2c0.27,0,0.82,1.33,0.7,1.41c-0.59,0.55-1.57,1.37-2.04,1.17c-8.54-3.45-12.69,2.9-17.12,7.87
		c-2.98,3.37-6.34,4.19-10.42,4.39C961.09,296.87,964.65,290.96,970.41,289.08z M960.23,308.98c4.27-2.78,4.43-2.7,6.89,4.11
		C964.18,311.33,962.38,310.23,960.23,308.98z M967.63,306.16c2-0.82,3.64-1.53,5.37-2.23c1.84,2.82,3.72,5.64,5.56,8.5
		C971.47,314.34,967.32,311.95,967.63,306.16z M986.27,310.03c-0.94,0.67-2.51,1.29-3.45,0.94c-4.43-1.72-6.07-8.22-3.17-13.04
		c2.19,3.33,4.27,6.23,6.19,9.24C986.31,307.96,986.67,309.76,986.27,310.03z M990.9,305.92c-0.78,0.67-3.02,0.9-3.41,0.39
		c-1.37-1.76-2.27-3.88-3.17-5.91c-0.63-1.41-0.94-2.98-1.37-4.46c0.08-0.51,0.2-1.06,0.31-1.57c1.33,0.63,2.94,0.98,3.88,1.92
		c1.72,1.88,3.25,4.03,4.46,6.31C992.03,303.41,991.6,305.29,990.9,305.92z M994.46,301.61c-0.43,0.2-0.82,0.39-1.25,0.59
		c-1.14-2.27-2.23-4.5-3.52-7.09c1.76-0.31,2.98-0.51,4.78-0.82C994.46,297.03,994.46,299.34,994.46,301.61z"/>
	<path d="M545.74,312.15c1.17,5.05,4.93,7.87,9.05,7.25c-0.12-2.58-0.43-4.97-0.12-7.32c0.08-0.43,3.76-1.02,3.92-0.67
		c1.17,2.47,1.88,5.17,3.02,8.62c2.19-0.63,5.64-1.72,9.13-2.58c8.22-2,13.75-7.25,17.08-14.61c1.33-2.98,2.31-7.36-1.25-9.71
		c-7.48-4.9-15.12-8.77-24.83-5.25C552.44,291.27,543.39,302.12,545.74,312.15z M563.52,317.71c0-2.82,0-4.97,0-7.17
		c0.47-0.31,0.98-0.59,1.45-0.86c1.61,1.72,3.21,3.45,5.56,6.03C567.91,316.46,565.99,317,563.52,317.71z M583.65,294.13
		c0.82,0.2,1.61,0.43,2.39,0.63c2.35,4.5-3.88,6.15-3.52,9.95c-0.59-0.16-1.17-0.35-1.76-0.51
		C581.73,300.83,582.67,297.5,583.65,294.13z M578.13,309.68c-0.78,1.92-3.25,3.21-5.25,4.39c-0.31,0.16-1.88-1.88-3.72-3.76
		c2.19-2.31,3.8-3.96,5.44-5.6C575.9,306.39,578.56,308.7,578.13,309.68z M552.4,302.98c3.49-3.92,7.13-7.72,11.12-11.08
		c3.68-3.09,8.15-4.03,14.49-2.47c-1.14,1.57-1.96,2.66-2.82,3.76c-2.39,3.05-5.25,5.84-7.01,9.2c-2.23,4.31-10.3,7.52-14.8,5.44
		C550.48,306.51,551.18,304.35,552.4,302.98z"/>
	<path d="M619.13,257.43c4.58,8.3,15.27,10.3,23.62,4.93c7.17-4.62,10.73-11.63,13.75-19.19c2.98-7.48-1.92-16.1-9.67-17.43
		c-13.71-2.31-28.98,14.1-28.36,25.3C618.66,253.2,618.19,255.67,619.13,257.43z M636.88,262.21c-1.02,0.51-2.82,1.25-3.33,0.82
		c-1.64-1.37-2.86-3.29-4.23-5.01c0.51-0.55,1.06-1.14,1.57-1.72c2.11,1.29,4.27,2.55,6.31,3.92
		C637.46,260.41,637.27,262.02,636.88,262.21z M649.68,227.63c1.96,2.74,3.41,4.74,4.9,6.78
		C648.55,232.95,648.55,232.95,649.68,227.63z M656.22,239.69c-0.16,0.59-0.31,1.21-0.47,1.84c-3.33-0.86-7.05-1.14-9.91-2.9
		c-1.57-0.98-1.64-4.39-2.74-7.83C648.35,234.36,652.27,237.03,656.22,239.69z M652.19,243.26c0.59,0.24,1.21,2.08,0.9,2.58
		c-0.67,1.02-2.31,2.51-2.94,2.23c-3.56-1.49-8.07-2.31-8.03-8.22C645.81,241.06,649.06,242,652.19,243.26z M639.77,248.31
		c0.31-0.47,1.29-0.67,1.96-0.67c0.55,0,1.1,0.55,1.64,0.78c1.76,0.74,3.56,1.49,6.03,2.51c-3.21,2.11-8.26,1.49-9.44-0.59
		C639.66,249.76,639.46,248.74,639.77,248.31z M639.07,253.52c1.57,0.23,3.05,1.25,4.54,1.96c0.27,0.47,0.55,0.94,0.82,1.41
		c-1.37,0.59-2.98,1.96-3.99,1.61c-1.61-0.55-2.86-2.23-4.27-3.45C637.15,254.5,638.21,253.36,639.07,253.52z M622.62,249.21
		c1.76-8.07,7.09-13.59,15-17.31c-1.88,6.5-3.76,13-5.72,19.54c-0.12,0.43-0.43,0.9-0.78,1.14c-2.31,1.45-4.7,2.78-7.05,4.19
		C623.52,254.22,622.11,251.52,622.62,249.21z"/>
	<path d="M1143.8,282.19c9.2,1.72,18.06,0.74,26.52-3.25c8.11-3.84,10.81-11.51,4.54-18.56c-4.27-4.78-10.14-7.79-17.12-7.52
		c-3.68,0.39-7.56,0.23-11.01,1.37c-4.5,1.49-9.95,1.37-12.92,6.11C1128.88,268.2,1134.6,280.5,1143.8,282.19z M1137.85,274.12
		c0.43-0.35,0.9-0.74,1.33-1.1c1.61,1.92,3.21,3.84,4.78,5.72C1138.55,278.7,1137.73,277.8,1137.85,274.12z M1150.77,281.05
		c-1.88-1.02-3.72-2.08-5.56-3.05c0.59-1.1,1.21-2.15,1.84-3.25c1.68,1.45,3.41,2.94,5.13,4.43
		C1151.71,279.8,1151.24,280.42,1150.77,281.05z M1152.18,276.55c-1.45-2.82-1.14-5.4,2.78-6.15c1.57,2.82,2.98,5.33,4.43,7.99
		C1155.82,281.36,1153.63,279.41,1152.18,276.55z M1162.48,276.12c-1.68-1.1-2.66-4.43-2.58-6.74c0.08-1.88,2.08-3.72,3.92-6.66
		c2.19,4.74,3.64,7.91,5.76,12.53C1167.1,275.65,1164.01,277.09,1162.48,276.12z M1174.94,264.25c-0.98,3.13-1.65,5.33-2.31,7.56
		c-0.43-0.04-0.86-0.12-1.29-0.16c-0.7-2.23-1.45-4.43-2.27-7.09C1170.78,264.48,1172.23,264.4,1174.94,264.25z M1137.18,264.84
		c4.31-7.01,8.77-9.16,17.51-8.07c4.58,0.59,9.2,0.98,13.79,1.45c-0.2,0.27-0.43,0.55-0.63,0.82c-5.09,1.92-10.34,3.6-15.27,5.91
		c-3.25,1.53-5.84,4.46-9.13,5.84c-1.76,0.74-4.58-0.04-6.46-1.02C1134.36,268.4,1136.04,266.68,1137.18,264.84z"/>
	<path d="M727.15,62.11c10.03-5.44,14.8-14.92,15.63-26.24c0.71-6.66-2.94-10.34-8.3-13.08c-5.91-3.02-11.08-2.31-16.06,2.11
		c-7.68,6.85-11.63,15.2-11.44,25.5C707.18,60.55,718.73,66.66,727.15,62.11z M728.29,52.64c-0.55-3.64,1.8-5.37,6.62-4.97
		C734.95,52.36,734.09,53.03,728.29,52.64z M726.61,47.07c-1.1-0.08-2.08-1.37-3.84-2.62c6.19-2.23,11.24-4.07,16.25-5.91
		c0.2,0.51,0.39,0.98,0.59,1.49C736.48,44.45,732.44,47.5,726.61,47.07z M739.53,33.25c0.08,0.86-0.16,2.35-0.7,2.62
		c-4.78,2.23-9.56,4.54-14.57,6.19c-2.43,0.78-3.25-0.98-2.9-4.15c5.84-2,10.89-3.76,15.98-5.33
		C737.96,32.39,739.49,32.94,739.53,33.25z M725.74,24.16c1.49-0.9,3.52-0.78,5.33-1.1c0.2,0.74,0.39,1.49,0.59,2.23
		c-2.19,1.21-4.43,2.43-6.66,3.68c-0.43-0.31-0.86-0.59-1.29-0.9C724.33,26.75,724.65,24.79,725.74,24.16z M724.53,30.15
		c2.7-0.39,5.17-2.11,7.83-3.05c1.25-0.47,2.66-0.55,3.99-0.78c-0.27,1.41-0.08,3.21-0.86,4.19c-3.72,4.58-5.29,4.93-14.18,4.15
		C720.73,31.8,721.47,30.59,724.53,30.15z M712.94,37.64c0.98-1.53,0.04-5.48,4.35-3.21c-0.67,5.37,1.8,9.4,4.23,13.59
		c1.45,2.55,2.51,6.07,2,8.81c-0.98,5.05-5.25,5.76-8.69,1.96C710.04,53.54,709.14,43.71,712.94,37.64z"/>
	<path d="M697.9,184.23c3.25-5.4,7.25-11.04,6.27-17.74c0-9.01-3.99-13.04-12.57-13.04c-10.5-0.04-17.98,5.05-23.23,13.86
		c-3.29,5.52-3.6,14.41-0.55,18.21C674.59,193.95,692.3,193.59,697.9,184.23z M685.91,189.48c-2.31-1.64-6.62-0.63-6.97-4.74
		c-0.08-0.82,0.82-2.11,1.64-2.55c0.74-0.43,2.08-0.31,2.94,0.08c1.88,0.82,3.56,2,6.27,3.56
		C688.5,187.09,686.23,189.64,685.91,189.48z M688.58,183.29c-3.49-1.02-4.46-3.92-3.88-8.22c4.23,1.29,8.11,2.47,12.18,3.72
		C695.19,183.29,692.22,184.39,688.58,183.29z M700.52,159.4c0.39,0.55,0.51,1.76,0.16,2.35c-0.27,0.43-1.61,0.74-2.15,0.47
		c-2.43-1.25-4.7-2.74-7.05-4.11C695.63,155.21,698.33,156.62,700.52,159.4z M689.79,160.22c3.17,1.29,6.31,2.39,9.28,3.76
		c0.94,0.47,1.49,1.72,2.19,2.58c-0.86,0.59-1.84,1.84-2.62,1.72c-2.78-0.35-5.72-0.78-8.19-2
		C687.6,164.88,687.52,162.38,689.79,160.22z M701.42,171.11c-1.96,2.11-3.37,5.09-5.13,5.37c-5.09,0.78-7.52-2.9-9.36-7.95
		C691.63,169.39,695.82,170.13,701.42,171.11z M679.65,159.09c1.53-0.94,3.13-1.76,6.15-3.49c-1.45,6.85-2.04,12.89-4.15,18.33
		c-1.37,3.56-4.86,6.42-7.56,9.4c-1.72,1.92-2.9,2.08-3.88-1.1C667.78,174.36,671.85,163.71,679.65,159.09z"/>
</g>
</svg>
