<?xml version="1.0" encoding="utf-8"?>
<!-- Generator: Adobe Illustrator 16.0.0, SVG Export Plug-In . SVG Version: 6.00 Build 0)  -->
<!DOCTYPE svg PUBLIC "-//W3C//DTD SVG 1.1//EN" "http://www.w3.org/Graphics/SVG/1.1/DTD/svg11.dtd">
<svg version="1.1" id="Capa_1" xmlns="http://www.w3.org/2000/svg" xmlns:xlink="http://www.w3.org/1999/xlink" x="0px" y="0px"
	 width="48px" height="48px" viewBox="0 0 48 48" enable-background="new 0 0 48 48" xml:space="preserve">
<g>
	<path fill="#434A54" d="M35.058,5.929H19.524c-2.271,0-4.118,1.844-4.124,4.113h-1.223c-2.954,0-5.357,2.404-5.357,5.358v21.314
		c0,2.954,2.403,5.357,5.357,5.357h15.534c2.954,0,5.357-2.403,5.357-5.357V35.49c2.27-0.006,4.113-1.854,4.113-4.124V10.052
		C39.182,7.779,37.332,5.929,35.058,5.929z M32.602,18.289v15.536v2.89c0,1.596-1.294,2.89-2.89,2.89H14.177
		c-1.597,0-2.89-1.294-2.89-2.89V15.399c0-1.596,1.294-2.89,2.89-2.89h15.534c1.596,0,2.89,1.294,2.89,2.89L32.602,18.289
		L32.602,18.289z M36.714,31.366c0,0.91-0.737,1.65-1.646,1.655V18.289v-2.889c0-2.954-2.403-5.358-5.357-5.358H17.868
		c0.006-0.908,0.746-1.645,1.656-1.645h15.535c0.913,0,1.655,0.743,1.655,1.656V31.366L36.714,31.366z"/>
	<rect x="14.542" y="17.162" fill="#434A54" width="14.805" height="2.468"/>
	<rect x="14.542" y="22.456" fill="#434A54" width="14.805" height="2.468"/>
	<rect x="14.542" y="27.751" fill="#434A54" width="14.805" height="2.468"/>
	<rect x="14.542" y="33.046" fill="#434A54" width="14.805" height="2.468"/>
</g>
</svg>
