<?xml version="1.0" encoding="utf-8"?>
<!-- Generator: Adobe Illustrator 16.0.0, SVG Export Plug-In . SVG Version: 6.00 Build 0)  -->
<!DOCTYPE svg PUBLIC "-//W3C//DTD SVG 1.1//EN" "http://www.w3.org/Graphics/SVG/1.1/DTD/svg11.dtd">
<svg version="1.1" id="Layer_1" xmlns="http://www.w3.org/2000/svg" xmlns:xlink="http://www.w3.org/1999/xlink" x="0px" y="0px"
	 width="200px" height="200px" viewBox="0 0 200 200" enable-background="new 0 0 200 200" xml:space="preserve">
<g>
	<path fill="#EE3424" d="M113.154,96.536c-0.109,0.042-0.217,0.088-0.316,0.135c-0.131,0.01-0.27,0.017-0.438,0.045
		c0.275-0.068,0.583-0.167,0.855-0.278c0.308-0.116,0.59-0.268,0.867-0.426l-0.094,0.063c-0.029,0.022-0.092,0.058-0.049,0.054
		C113.724,96.281,113.443,96.409,113.154,96.536 M112.109,96.101c0.439-1.023,1.085-1.998,1.852-2.734
		c0.174-0.088,0.426-0.228,0.67-0.341c0.121-0.052,0.242-0.093,0.318-0.103c0.03-0.007,0.047-0.005,0.061-0.005l0.022,0.014
		l0.13,0.093c-0.024-0.041-0.061-0.075-0.095-0.116c0.12,0.099,0.208,0.179,0.287,0.319l0.005,0.042
		c0.041,0.359-0.13,0.982-0.543,1.46l0.063-0.007c-0.082,0.084-0.145,0.121-0.237,0.211l0.096-0.058l-0.005,0.006
		c-0.109,0.089-0.23,0.204-0.365,0.321c-0.338,0.229-0.787,0.471-1.29,0.684c-0.069,0.015-0.165,0.046-0.274,0.088
		c-0.051,0.015-0.109,0.034-0.146,0.039C112.488,96.04,112.305,96.071,112.109,96.101 M111.91,96.132
		c0.311-0.694,0.713-1.344,1.176-1.921c-0.428,0.588-0.789,1.236-1.058,1.903C111.99,96.121,111.95,96.126,111.91,96.132
		 M111.844,96.805c0.006-0.014,0.011-0.026,0.014-0.042c0.02-0.003,0.041-0.005,0.061-0.008c0.021-0.002-0.008,0.027,0.031,0.026
		l0.059-0.005C111.957,96.788,111.901,96.795,111.844,96.805 M111.895,97.268c-0.025-0.003-0.055-0.006-0.094-0.011
		C111.801,97.257,111.84,97.262,111.895,97.268z M111.784,96.822c-0.062,0.02-0.112,0.038-0.157,0.053l0.027-0.082
		c0.048-0.006,0.096-0.013,0.145-0.021C111.793,96.788,111.789,96.804,111.784,96.822 M114.418,95.402l-0.174,0.119l0.037-0.016
		c-0.214,0.164-0.449,0.307-0.695,0.433c-0.353,0.163-0.748,0.305-1.16,0.43c0.107-0.052,0.205-0.103,0.293-0.157
		c0.531-0.159,1.021-0.367,1.477-0.693l0.092-0.06l0.148-0.069L114.418,95.402z M110.058,96.765c0,0-0.001,0-0.003,0
		c0.005-0.016,0.01-0.034,0.016-0.049h0.001L110.058,96.765z M109.988,97.059c-0.005-0.002-0.01-0.002-0.018-0.002
		c0.003-0.008,0.005-0.015,0.008-0.023c0.005,0,0.009,0.001,0.014,0.001C109.99,97.042,109.988,97.051,109.988,97.059
		 M109.983,97.103c-0.005,0.003-0.015,0.009-0.026,0.016c0.002-0.013,0.006-0.023,0.008-0.034c0.008,0,0.014,0,0.021,0
		C109.984,97.089,109.983,97.096,109.983,97.103 M113.2,98.367c0.16,0.104,1.083-0.098,1.963-0.697
		c1.148-0.782,2.256-1.908,2.527-3.654c0.133-0.844-0.089-1.958-0.853-2.71c-0.187-0.182-0.388-0.338-0.601-0.468
		c-0.301-0.174-0.66-0.294-0.998-0.317c-0.671-0.039-1.149,0.163-1.542,0.356c-1.102,0.622-1.67,1.36-2.24,2.104
		c-0.545,0.754-0.99,1.546-1.369,2.423c-0.181,0.477-0.334,0.964-0.439,1.468c-0.008,0.009-0.009,0.017-0.005,0.025
		c-0.015,0.063-0.026,0.125-0.038,0.189c-0.007,0.001-0.016,0.004-0.025,0.008c-0.003,0.007-0.003,0.007-0.076,0.034
		c0,0-0.002,0.009,0.006,0.016c0.022,0.01,0.022,0.01,0.029,0.032c0,0,0.021,0.006,0.051,0.012
		c-0.051,0.301-0.084,0.607-0.096,0.922c-0.035,0.939,0.153,2.032,0.829,2.902c0.552,0.73,1.312,1.098,1.921,1.27
		c0.633,0.189,1.303,0.277,2.006,0.176c0.041-0.006,0.043-0.014,0.022-0.018c-0.033-0.006-0.091-0.002-0.126,0.006
		c-1.137,0.047-2.145-0.244-3.114-0.982c-0.963-0.792-1.333-2.13-1.247-3.262c0.01-0.267,0.053-0.519,0.092-0.769l0.019-0.078
		c0.002,0.001,0.003,0.002,0.004,0.002c0-0.001,0.036,0.01,0.097,0.021c-0.072,0.498-0.091,1.005-0.027,1.514
		c0.021,0.177,0.043,0.336,0.08,0.472c0.097,0.676,0.401,1.376,0.91,1.904l0.123,0.137c0.183,0.15,0.368,0.287,0.479,0.316
		c0.036,0.01,0.06,0.014,0.073,0.012c1.273,0.77,3.134,0.906,4.288-0.021c0.058-0.041,0.084-0.07,0.067-0.074
		c0.024-0.012,0.055-0.029,0.079-0.049c0.123-0.111,0.263-0.23,0.402-0.361c0.028-0.029,0.041-0.051,0.021-0.043
		c-0.019,0.008-0.055,0.039-0.081,0.064c-0.15,0.125-0.285,0.264-0.431,0.371c-0.016,0.01-0.023,0.02-0.025,0.025
		c-0.038,0.016-0.094,0.045-0.146,0.08c-1.242,0.82-2.911,0.658-4.139-0.096c0.656,0.34,1.33,0.564,2.119,0.594
		c0.943,0.037,1.785-0.361,2.461-0.928c0.037-0.029,0.06-0.051,0.051-0.055c-0.01-0.002-0.043,0.018-0.079,0.047
		c-1.407,1.23-3.542,1.199-5.065-0.125l-0.167-0.178c0.47,0.446,1.046,0.694,1.587,0.842c0.807,0.303,1.756,0.377,2.572,0.041
		c0.821-0.32,1.455-0.931,1.952-1.583c0.051-0.063,0.084-0.121,0.072-0.127c-0.014-0.008-0.064,0.04-0.115,0.101
		c-0.592,0.709-1.367,1.33-2.289,1.55c0.063-0.016,0.122-0.049,0.183-0.074l0.184-0.066c0.563-0.211,1.045-0.592,1.459-1.023
		c0.155-0.161,0.259-0.316,0.232-0.353c-0.024-0.025-0.154,0.077-0.303,0.227l0.065-0.08c0.022-0.026,0.033-0.048,0.022-0.046
		c-0.014,0.005-0.047,0.034-0.069,0.06c-0.076,0.097-0.152,0.189-0.237,0.274c-0.801,0.763-1.922,1.173-3.004,0.904
		c1.178,0.256,2.353-0.271,3.15-1.171c-0.014,0.021-0.01,0.029,0.015,0.01c0.021-0.014,0.057-0.052,0.069-0.074
		c0.017-0.023,0.007-0.025-0.014-0.011l-0.002,0.002c0.437-0.477,0.811-1.021,1.152-1.59c0.02-0.034,0.031-0.064,0.025-0.067
		c-0.008-0.003-0.03,0.023-0.053,0.061c-0.563,0.935-1.219,1.832-2.098,2.392c-0.869,0.586-1.992,0.611-2.973,0.215
		c-0.105-0.047-0.214-0.086-0.316-0.139v-0.002c-0.019-0.043-0.07-0.104-0.146-0.17c0.634,0.34,1.365,0.578,2.065,0.51
		c0.585-0.027,1.152-0.24,1.636-0.602c0.07-0.054,0.12-0.106,0.111-0.121s-0.072,0.02-0.145,0.072
		c-0.115,0.094-0.245,0.155-0.365,0.235c0.093-0.08,0.142-0.145,0.132-0.174c-0.01-0.031-0.074-0.024-0.166,0.008
		c0.507-0.332,0.934-0.801,1.28-1.317c0.021-0.03,0.026-0.051,0.014-0.045c-0.014,0.007-0.038,0.035-0.061,0.064
		c-0.54,0.712-1.188,1.311-1.954,1.538c-0.621,0.105-1.238,0.002-1.896-0.302c-0.966-0.396-1.489-1.104-1.607-2.084
		c-0.006-0.219-0.001-0.439,0.019-0.662c0.023,0.003,0.046,0.006,0.07,0.009c-0.018,0.199-0.021,0.399-0.015,0.596
		c0.047,0.704,0.312,1.311,0.813,1.688c0.478,0.371,1.237,0.642,1.84,0.646c1.257,0.057,2.265-1.013,3.002-2.273
		c0.098-0.16,0.138-0.297,0.099-0.294c-0.042-0.001-0.148,0.14-0.248,0.292c-0.76,1.152-1.596,2.063-2.698,2.123
		c-0.772,0.019-1.724-0.308-2.215-0.865c-0.414-0.482-0.547-1.168-0.49-1.903c0.051,0.005,0.105,0.011,0.157,0.016
		c-0.071,0.758,0.06,1.464,0.486,1.912c0.021,0.021,0.041,0.035,0.046,0.03c0.006-0.002-0.004-0.022-0.023-0.042
		c-0.425-0.442-0.554-1.143-0.482-1.897c0.163,0.014,0.324,0.025,0.458,0.04l0.26,0.004c0.188,0.004,0.485-0.031,0.821-0.128
		c0.117-0.036,0.236-0.065,0.355-0.108l0.219-0.085C113.287,98.167,113.103,98.304,113.2,98.367 M116.307,100.629
		c-0.019,0.022-0.012,0.028,0.014,0.01c0.021-0.014,0.058-0.044,0.074-0.067c0.014-0.021,0.007-0.028-0.014-0.013
		C116.356,100.578,116.32,100.608,116.307,100.629 M128.954,90.447c0.01-0.022,0.02-0.043,0.03-0.064l-0.001-0.004
		C128.973,90.401,128.964,90.423,128.954,90.447 M129.094,90.093c-0.019,0.002-0.039,0.003-0.064,0.003
		c0.008,0.02,0.018,0.036,0.025,0.054C129.068,90.129,129.082,90.109,129.094,90.093 M129.078,90.201L129.078,90.201
		c0.004,0,0.007,0.001,0.013,0.001c0.012-0.021,0.023-0.039,0.036-0.055c0.035-0.072,0.091-0.069,0.026-0.06
		c-0.013,0.012-0.028,0.03-0.039,0.056C129.104,90.161,129.092,90.179,129.078,90.201 M128.881,90.418
		c0.008,0.002,0.014,0.005,0.02,0.008c0.013-0.027,0.025-0.055,0.039-0.081c0.005-0.01,0.01-0.02,0.015-0.029
		c-0.002-0.005-0.005-0.011-0.008-0.016c-0.028-0.003-0.052-0.009-0.075-0.016c-0.008,0.019-0.015,0.038-0.023,0.056
		C128.859,90.367,128.87,90.392,128.881,90.418 M128.992,90.167c0.003,0.007,0.008,0.018,0.012,0.024
		c0.008,0.002,0.015,0.004,0.021,0.005c0.003-0.006,0.005-0.01,0.009-0.015c-0.006-0.011-0.013-0.022-0.019-0.034
		c-0.007-0.024-0.021-0.047-0.034-0.064c-0.006,0.008-0.012,0.018-0.017,0.026C128.976,90.126,128.986,90.144,128.992,90.167
		 M129.093,90.41c0.006,0.015,0.01,0.027,0.014,0.042c0.012,0,0.026-0.001,0.037-0.001c-0.009-0.028-0.021-0.056-0.029-0.082
		C129.108,90.382,129.1,90.395,129.093,90.41 M131.03,97.501c0.008,0.049,0.034,0.132,0.055,0.183
		c0.019,0.043,0.026,0.038,0.016-0.009c-0.011-0.057-0.038-0.14-0.056-0.184C131.025,97.44,131.02,97.446,131.03,97.501
		 M129.133,90.335c0.014,0.036,0.027,0.074,0.041,0.112c0.014-0.002,0.025-0.003,0.039-0.006c0.02-0.038,0.038-0.075,0.059-0.108
		l-0.011-0.044c-0.026,0.009-0.067,0.015-0.112,0.018C129.144,90.316,129.138,90.326,129.133,90.335 M126.319,100.416
		c0.041-0.014,0.087-0.025,0.129-0.035v0.006C126.426,100.389,126.377,100.399,126.319,100.416z M126.506,100.37
		C126.508,100.38,126.508,100.379,126.506,100.37L126.506,100.37z M126.946,100.104c0.091-0.253,0.145-0.472,0.129-0.497
		c-0.01-0.006-0.031,0.027-0.058,0.083c0.289-0.932,0.535-1.837,0.788-2.735c0.083-0.267,0.152-0.513,0.209-0.726
		c0.351-1.015,0.703-2.037,1.117-3.003l0.105-0.234c0.064-0.146,0.126-0.283,0.178-0.404c0.011,0.039,0.02,0.079,0.027,0.12
		c-0.045,0.103-0.089,0.206-0.13,0.308c-0.618,1.566-1.11,3.292-1.665,5.047c-0.126,0.404-0.254,0.803-0.386,1.197
		c-0.017,0.042-0.034,0.09-0.053,0.143c-0.127,0.357-0.256,0.718-0.404,1.088L126.946,100.104z M129.299,92.168
		c0.01,0.031,0.021,0.063,0.029,0.096c-0.127,0.246-0.245,0.513-0.36,0.788l-0.146,0.35
		C128.966,92.974,129.117,92.551,129.299,92.168 M129.203,91.941c0.007,0.012,0.012,0.025,0.018,0.036
		C129.151,91.92,129.206,91.913,129.203,91.941 M129.328,91.888c0.004,0.026,0.034,0.047,0.074,0.063
		c0.013-0.021,0.025-0.043,0.037-0.064c0.011,0.025,0.024,0.054,0.037,0.085c0.005,0.001,0.009,0.003,0.014,0.004
		c-0.002,0.004-0.005,0.008-0.007,0.013c0.008,0.02,0.016,0.042,0.025,0.063c0.013-0.022,0.026-0.046,0.04-0.068l0.006,0.001
		c-0.016,0.023-0.031,0.047-0.046,0.071c0.01,0.025,0.019,0.048,0.026,0.074c-0.014-0.001-0.026-0.002-0.041-0.002
		c-0.007-0.004-0.013-0.008-0.02-0.011c-0.002,0.006-0.006,0.011-0.009,0.015c0.003-0.004,0.005-0.009,0.009-0.015
		c-0.02-0.008-0.036-0.016-0.052-0.023c-0.004,0.006-0.008,0.013-0.013,0.021c-0.001-0.012-0.004-0.021-0.008-0.03
		c-0.019-0.01-0.037-0.02-0.053-0.027c0.002-0.005,0.004-0.01,0.006-0.015c0.007-0.012,0.014-0.024,0.019-0.037
		C129.329,91.899,129.274,91.814,129.328,91.888 M129.524,91.755L129.524,91.755c0.011,0.006,0.021,0.013,0.034,0.02
		c0.005,0,0.009,0,0.015,0c-0.002-0.002-0.002-0.004-0.003-0.007c-0.005-0.009-0.01-0.017-0.015-0.024
		c-0.006-0.002-0.011-0.006-0.016-0.009c0.002-0.002,0.004-0.005,0.005-0.007c-0.021-0.035-0.042-0.055-0.027-0.044
		c0.006,0.016,0.021,0.024,0.039,0.03c0.027-0.038,0.053-0.069,0.07-0.088c0.018,0.021,0.045,0.052,0.067,0.089
		c-0.013,0.001-0.089,0.013-0.138-0.001c-0.003,0.003-0.007,0.009-0.012,0.014c0.004,0.004,0.008,0.012,0.011,0.016
		c0.006,0.004,0.012,0.007,0.019,0.011c0.035-0.001,0.063-0.001,0.083-0.002c0.02-0.021,0.032-0.034,0.036-0.036h0.001
		c0.008,0.011,0.015,0.021,0.022,0.034c-0.008-0.001-0.024,0-0.06,0.002c-0.007,0.007-0.013,0.014-0.02,0.022
		c0.025,0,0.044,0,0.059-0.002c0.011-0.01,0.02-0.015,0.023-0.019c0.017,0.033,0.034,0.069,0.046,0.11
		c-0.026,0.01-0.073,0.021-0.14,0.018c-0.004,0.004-0.005,0.005-0.008,0.009c-0.001-0.003-0.002-0.007-0.004-0.011
		c-0.006-0.017-0.013-0.033-0.02-0.05c-0.009,0.009-0.015,0.018-0.023,0.028c0.003,0.006,0.005,0.012,0.007,0.018
		c-0.005-0.001-0.011-0.002-0.017-0.003c-0.004,0.004-0.008,0.01-0.012,0.016c-0.002-0.009-0.006-0.014-0.009-0.021
		c-0.023-0.006-0.048-0.017-0.072-0.026c0.012-0.02,0.024-0.041,0.039-0.059C129.473,91.723,129.426,91.703,129.524,91.755
		 M129.772,91.889c0.007,0.031,0.013,0.063,0.019,0.094c0.021-0.006,0.034-0.013,0.035-0.021c0.067-0.041,0.015-0.004-0.016,0.046
		c-0.004,0.006-0.008,0.013-0.012,0.019c0.005,0.031,0.011,0.063,0.018,0.097c-0.025,0.002-0.052,0.006-0.084,0.009
		c-0.01,0.014-0.019,0.029-0.028,0.044c-0.003-0.013-0.007-0.028-0.011-0.043c-0.01,0-0.02,0-0.03,0.001
		c0.005,0.016,0.009,0.033,0.014,0.049c0.002,0.01,0.004,0.021,0.006,0.031c-0.009,0.016-0.019,0.034-0.026,0.051
		c-0.006-0.024-0.012-0.05-0.017-0.075c-0.005-0.019-0.009-0.036-0.014-0.057h-0.034c0.007-0.014,0.015-0.029,0.023-0.041
		c-0.009-0.036-0.019-0.07-0.031-0.104c0.015,0.001,0.025,0.003,0.037,0.003c0.006,0.02,0.014,0.04,0.019,0.061
		c0.007-0.011,0.014-0.022,0.021-0.033c-0.003-0.008-0.005-0.018-0.007-0.026c0.008,0,0.016,0.001,0.024,0
		c0.03-0.044,0.059-0.083,0.085-0.115c0.002-0.002,0.004-0.003,0.007-0.005C129.77,91.877,129.772,91.882,129.772,91.889
		 M129.571,91.947c0.009-0.014,0.015-0.023,0.022-0.035c0.002,0.003,0.003,0.007,0.004,0.01c-0.008,0.011-0.016,0.021-0.023,0.033
		C129.573,91.952,129.573,91.949,129.571,91.947 M129.508,92.561c-0.008-0.044-0.016-0.09-0.023-0.132
		c0.03-0.071,0.054-0.134,0.07-0.179c0.002-0.006,0.003-0.011,0.005-0.017c0.002,0.017,0.004,0.033,0.006,0.05
		c0.008,0.037,0.015,0.075,0.021,0.113C129.562,92.452,129.535,92.504,129.508,92.561 M126.243,97.883
		c0.002-0.076,0-0.15,0.002-0.226c0.021-0.064,0.042-0.128,0.063-0.192c0,0.072,0.001,0.143,0.002,0.215
		C126.288,97.75,126.266,97.815,126.243,97.883 M125.957,100.568c0.014-0.006,0.024-0.013,0.037-0.019
		c0.018-0.007,0.034-0.016,0.051-0.024C126.014,100.543,125.983,100.558,125.957,100.568 M126.297,96.627
		c-0.015,0.042-0.027,0.081-0.041,0.122c0.008-0.613,0.014-1.23,0.001-1.835C126.277,95.49,126.288,96.06,126.297,96.627
		 M126.304,97.173c-0.019,0.056-0.036,0.114-0.055,0.172c0.002-0.17,0.004-0.34,0.005-0.509c0.016-0.044,0.029-0.087,0.044-0.129
		C126.301,96.863,126.302,97.017,126.304,97.173 M125.73,100.717L125.73,100.717c0.003-0.001,0.004-0.004,0.007-0.007h0.003
		C125.735,100.716,125.733,100.718,125.73,100.717 M125.676,100.618c0.005,0.007,0.011,0.014,0.015,0.021
		c0.004,0.009,0.009,0.018,0.012,0.026c0.002,0.003,0.003,0.006,0.004,0.009C125.699,100.659,125.689,100.64,125.676,100.618
		 M125.583,100.536c0.007,0.002,0.014,0.005,0.019,0.007c0.02,0.017,0.04,0.033,0.056,0.05
		C125.64,100.579,125.615,100.559,125.583,100.536 M125.274,100.294c0.014,0.011,0.028,0.02,0.041,0.03
		c0.046,0.032,0.102,0.075,0.154,0.122C125.411,100.401,125.345,100.35,125.274,100.294 M125.23,100.265l-0.005-0.003
		C125.227,100.264,125.229,100.264,125.23,100.265 M125.229,100.268c-0.012-0.008-0.013-0.011-0.011-0.009
		c0.005,0.001,0.008,0.004,0.012,0.007C125.229,100.266,125.229,100.267,125.229,100.268 M125.115,100.203
		c-0.004,0.007-0.005,0.012,0.001-0.002c0-0.001,0-0.002,0-0.003l0.002,0.001L125.115,100.203z M125.065,100.185
		c-0.027-0.022-0.022-0.024,0.006-0.012L125.065,100.185z M123.945,92.597c0.003,0.009,0.007,0.021,0.011,0.035
		C123.945,92.61,123.945,92.6,123.945,92.597 M120.443,102.646v-0.002C120.465,102.648,120.469,102.648,120.443,102.646
		 M131.191,94.333c-0.043-0.508-0.083-1.003-0.146-1.511c-0.087-0.524-0.082-0.987-0.451-1.712
		c-0.057-0.114-0.359-0.596-0.968-0.603c-0.604,0.055-0.733,0.313-0.884,0.44c-0.257,0.295-0.372,0.531-0.501,0.777
		c-0.244,0.486-0.429,0.961-0.613,1.453c-0.464,1.275-0.854,2.511-1.238,3.728c0-0.028-0.001-0.057,0-0.084
		c-0.005-0.123-0.007-0.246-0.009-0.368c0.393-1.196,0.797-2.406,1.275-3.609c0.031-0.074,0.053-0.142,0.048-0.147
		c-0.005-0.007-0.036,0.051-0.063,0.121c-0.475,1.187-0.873,2.38-1.263,3.557c-0.018-1.335,0.01-2.63-0.284-4.145
		c-0.01-0.12-0.044-0.28-0.099-0.464c-0.124-0.161-0.047-0.577-0.92-0.894c-0.877-0.083-1.041,0.278-1.278,0.414
		c-0.201,0.178-0.346,0.347-0.477,0.515c-0.201,0.262-0.477,0.646-0.852,1.326c-0.009,0.013-0.017,0.028-0.024,0.042
		c0.024-0.474-0.179-1.426-0.226-1.561c-0.146-0.413-0.466-0.729-0.899-0.668c-0.432,0.063-0.73,0.466-0.668,0.898
		c0.037,0.252,0.044,0.63,0.014,1.076c-0.215,3.189-1.847,6.183-2.235,7.714c-0.139,0.562-0.262,0.906-0.408,1.71l-0.014,0.113
		c-0.026,0.273,0.05,0.625,0.194,0.871c0.025,0.029,0.21,0.404,0.737,0.596c0.579,0.225,1.22-0.074,1.391-0.264
		c0.134-0.119,0.16-0.162,0.147-0.146l0.017-0.021l0.034-0.043l0.124-0.184c0.091-0.162,0.109-0.209,0.154-0.301
		c0.065-0.141,0.125-0.275,0.175-0.395l0.313-0.732c0.405-0.971,0.796-1.93,1.193-2.886c0.556-1.313,1.114-2.688,1.729-3.96
		c0.062,1.478,0.034,2.958,0.077,4.587c0.04,0.435,0.008,0.704,0.189,1.425c0.071,0.135,0.006,0.208,0.377,0.625
		c0.11,0.088,0.081,0.107,0.347,0.238c0.222,0.104,0.527,0.141,0.769,0.09c0.402-0.105,0.421-0.18,0.619-0.326
		c0.354-0.381,0.335-0.482,0.412-0.615c0.109-0.254,0.157-0.408,0.229-0.606c0.249-0.738,0.454-1.443,0.66-2.148
		c0.408-1.404,0.795-2.794,1.24-4.141c0.125-0.374,0.248-0.732,0.373-1.063c0.09,0.527,0.156,1.129,0.227,1.68
		c0.008,0.063,0.016,0.068,0.021,0.034c0.003-0.05-0.003-0.138-0.011-0.193c-0.056-0.559-0.101-1.136-0.179-1.668
		c0.025-0.065,0.051-0.127,0.076-0.189c0.064,0.429,0.104,0.885,0.145,1.335c0.104,1.217,0.204,2.445,0.401,3.616
		c0.02,0.119,0.039,0.181,0.047,0.16c0.004,0.045,0.01,0.103,0.021,0.154c0.059,0.279,0.118,0.591,0.189,0.918
		c0.016,0.071,0.032,0.109,0.031,0.074c0-0.035-0.012-0.117-0.026-0.181c-0.071-0.334-0.135-0.663-0.193-0.964
		c-0.005-0.033-0.013-0.055-0.018-0.06c0-0.068-0.013-0.175-0.028-0.281c-0.16-1.214-0.243-2.411-0.346-3.591
		c-0.042-0.453-0.082-0.914-0.154-1.343c0.011-0.022,0.019-0.046,0.029-0.066c0.087,0.467,0.134,0.979,0.185,1.497
		c0.138,1.536,0.262,2.975,0.539,4.531c0.015,0.082,0.031,0.134,0.035,0.124c0.005-0.011-0.001-0.078-0.016-0.158
		c-0.276-1.594-0.392-3.107-0.534-4.607c-0.053-0.472-0.096-0.984-0.185-1.439c0.025-0.056,0.052-0.109,0.077-0.157
		c0.449,2.751,0.285,5.799,1.293,8.521c0.049,0.139,0.1,0.248,0.11,0.242c0.013-0.008-0.02-0.13-0.068-0.269
		c-0.521-1.634-0.695-3.351-0.806-5.056l0.046,0.356l0.035,0.354c0.101,1.096,0.24,2.191,0.509,3.263
		c0.095,0.401,0.223,0.72,0.268,0.729c0.036-0.006-0.023-0.305-0.117-0.687l0.056,0.184c0.018,0.061,0.037,0.103,0.038,0.085
		c0-0.026-0.016-0.106-0.035-0.165c-0.063-0.221-0.126-0.438-0.179-0.659c-0.417-2.042-0.441-4.139-0.633-6.241
		c0.24,2.259,0.282,4.552,0.84,6.762c-0.015-0.043-0.023-0.048-0.016,0.01c0.006,0.047,0.033,0.14,0.051,0.184
		c0.017,0.05,0.023,0.04,0.014-0.01l-0.001-0.004c0.313,1.169,0.78,2.318,1.551,3.238c0.043,0.055,0.086,0.098,0.09,0.09
		c0.005-0.006-0.031-0.059-0.08-0.119c-1.268-1.539-1.711-3.606-1.988-5.581c-0.134-1.001-0.214-2.008-0.291-3.015
		c-0.113-1.005-0.072-2.02-0.503-3.021c-0.062-0.099-0.128-0.234-0.313-0.287c-0.181-0.035-0.328,0.063-0.41,0.145
		c-0.086,0.03-0.209,0.141-0.343,0.304c0.106-0.158,0.208-0.32,0.417-0.461c0.101-0.069,0.312-0.123,0.461-0.025
		c0.141,0.08,0.208,0.193,0.26,0.28c0.196,0.374,0.24,0.734,0.304,1.093c0.103,0.714,0.143,1.42,0.198,2.123
		c0.068,1.173,0.146,2.339,0.317,3.492c0.025,0.166,0.058,0.303,0.077,0.303c0.016,0.003,0.006-0.136-0.02-0.31
		c-0.042-0.281-0.077-0.564-0.109-0.848c0.045,0.23,0.096,0.38,0.128,0.392c0.033,0.011,0.044-0.108,0.042-0.308
		c0.176,1.237,0.438,2.447,0.889,3.522c0.023,0.063,0.046,0.094,0.042,0.069c-0.005-0.023-0.024-0.091-0.049-0.154
		c-0.594-1.586-0.821-3.322-0.973-5.064c-0.033-0.693-0.048-1.383-0.082-2.098c-0.072-0.739,0.005-1.401-0.408-2.395
		c-0.049-0.116-0.337-0.607-0.926-0.55c-0.473,0.096-0.608,0.328-0.727,0.451c-0.234,0.293-0.363,0.553-0.497,0.813
		c-0.252,0.518-0.447,1.023-0.629,1.529c-0.362,1.009-0.666,2.003-0.966,2.994c-0.106,0.319-0.212,0.636-0.315,0.951
		c-0.001-0.076-0.001-0.15-0.001-0.227c0.067-0.213,0.136-0.426,0.207-0.643c0.482-1.464,0.923-2.905,1.547-4.344
		c0.171-0.364,0.317-0.713,0.646-1.125c0.088-0.1,0.183-0.218,0.405-0.341c0.161-0.139,0.709-0.171,0.966,0.059
		c0.421,0.386,0.401,0.578,0.507,0.818c0.246,0.875,0.265,1.595,0.338,2.344c0.225,2.897,0.416,5.869,1.81,8.095
		c0.173,0.277,0.346,0.438,0.346,0.389c0.01-0.055-0.147-0.297-0.313-0.574C131.645,99.735,131.428,97.13,131.191,94.333
		 M133.89,92.551c0.011-0.026,0.022-0.052,0.033-0.078c-0.013,0.019-0.024,0.037-0.036,0.057c-0.006,0.016-0.012,0.031-0.015,0.045
		C133.877,92.567,133.884,92.558,133.89,92.551 M139.035,92.554l-0.143-0.254l0.021,0.051c-0.208-0.317-0.429-0.635-0.761-0.954
		c-0.575-0.6-1.439-0.792-2.227-0.652c0.207-0.057,0.414-0.09,0.608-0.103c0.466,0.025,0.925,0.144,1.409,0.495
		c0.461,0.371,0.695,0.73,0.949,1.101l0.076,0.134l0.083,0.208L139.035,92.554z M136.91,100.418
		c-0.819-0.051-1.657-1.242-1.715-2.438c-0.013-0.232,0.005-0.44,0.026-0.556c0.01-0.054,0.016-0.078-0.007-0.085
		c0.06-0.05,0.101-0.121,0.173-0.179c0.284-0.239,0.765-0.428,1.313-0.56c0.034-0.006,0.035-0.016,0.019-0.021
		c-0.029-0.003-0.074,0.002-0.104,0.01c-0.868,0.163-1.691,0.508-1.622,0.938c-0.117,0.647,0.076,1.561,0.475,2.229
		c0.09,0.159,0.191,0.297,0.3,0.426l0.036,0.047c0.094,0.121,0.203,0.221,0.313,0.316l-0.121-0.094
		c-0.074-0.069-0.151-0.118-0.177-0.104c-0.009,0.008-0.005,0.025,0.008,0.048c-0.303-0.259-0.559-0.605-0.754-0.998
		c-0.048-0.12-0.097-0.231-0.138-0.328c-0.122-0.491-0.155-1.03-0.054-1.461c0.012-0.032,0.017-0.07,0.029-0.101
		c0.037-0.134,0.072-0.219,0.066-0.279c0-0.018-0.004-0.026-0.011-0.035c0.143-0.252,0.773-0.548,1.374-0.644
		c0.542-0.114,1.124-0.184,1.695-0.284c0.274,0.882,0.441,1.797,0.455,2.614C138.435,100.34,138.144,100.482,136.91,100.418
		 M134.659,97.52c-0.01,0.058-0.025,0.114-0.032,0.172c0.002-0.513,0.115-0.819,0.57-1.104c0.818-0.378,1.785-0.439,2.763-0.558
		c0.008,0.019,0.013,0.037,0.02,0.059c-0.614,0.087-1.2,0.162-1.756,0.292C135.447,96.596,134.736,96.828,134.659,97.52
		 M134.537,96.508c-0.05-0.006-0.143,0.047-0.242,0.135c0.63-0.712,1.504-0.833,2.271-0.968c0.414-0.05,0.823-0.081,1.225-0.118
		c0.002,0.005,0.006,0.011,0.008,0.018c-0.997,0.115-2.033,0.223-2.945,0.71c-0.107,0.067-0.21,0.149-0.314,0.226L134.537,96.508z
		 M134.406,100.994l-0.004,0.016c-0.256-0.343-0.456-0.718-0.608-1.112c-0.328-0.922-0.501-1.865-0.201-2.929
		c0.09-0.266,0.222-0.555,0.486-0.82c0.233-0.198,0.446-0.361,0.686-0.472c0.47-0.241,0.934-0.351,1.366-0.432
		c0.49-0.083,0.98-0.143,1.446-0.206c0.032,0.072,0.063,0.142,0.093,0.216c-0.167,0.019-0.338,0.039-0.51,0.06
		c-0.774,0.049-1.598,0.027-2.565,0.515c-0.306,0.163-0.745,0.527-0.894,0.945c-0.161,0.387-0.21,0.749-0.222,1.096
		c-0.015,0.689,0.127,1.33,0.372,1.931c0.151,0.441,0.374,0.863,0.665,1.244C134.464,101.002,134.423,100.98,134.406,100.994
		 M135.634,95.969c0.718-0.207,1.456-0.278,2.178-0.363c0.008,0.02,0.014,0.039,0.02,0.061
		C137.106,95.732,136.369,95.782,135.634,95.969 M137.381,95.892l0.194-0.024c0.108-0.012,0.212-0.021,0.318-0.033
		c0.005,0.014,0.009,0.027,0.015,0.041c-0.242,0.018-0.483,0.036-0.722,0.055L137.381,95.892z M138.018,96.208
		c-1.238,0.158-2.659,0.286-3.154,0.93c0.158-0.304,0.783-0.619,1.423-0.731c0.56-0.122,1.119-0.196,1.703-0.286
		C137.998,96.148,138.009,96.178,138.018,96.208 M136.975,91.193c-0.161-0.046-0.337-0.043-0.497-0.049
		c-0.185-0.029-0.386-0.061-0.646-0.022c0.422-0.093,0.937-0.078,1.347,0.065c0.607,0.227,0.862,0.593,1.123,0.904l-0.097-0.108
		c-0.031-0.034-0.097-0.105-0.076-0.053C137.912,91.66,137.474,91.274,136.975,91.193 M135.248,91.87
		c-0.028,0.009-0.062,0.019-0.105,0.034c0,0,0.045-0.017,0.107-0.035L135.248,91.87z M134.974,93.105l-0.035-0.229l0.049,0.221
		L134.974,93.105z M133.973,93.068c0.011-0.021,0.021-0.037,0.04-0.062C134.007,93.013,133.996,93.029,133.973,93.068 M140.854,96.8
		l0.06,0.438c-0.071-0.435-0.182-0.79-0.305-1.134l-0.02-0.095c-0.06-0.342-0.153-0.7-0.268-1.059
		c0.275-0.16,0.521-0.358,0.721-0.604c0.025-0.024,0.041-0.053,0.035-0.057c-0.007-0.005-0.035,0.016-0.063,0.045
		c-0.208,0.246-0.443,0.437-0.701,0.589c-0.066-0.205-0.136-0.409-0.215-0.613c0.063-0.049,0.125-0.1,0.181-0.154
		c0.11-0.087,0.132-0.197,0.099-0.205c-0.042-0.018-0.124,0.063-0.231,0.136c-0.033,0.028-0.069,0.053-0.104,0.079
		c-0.102-0.256-0.208-0.51-0.317-0.756l-0.019,0.078c-0.059-0.159-0.082-0.263-0.162-0.435l0.041,0.156l-0.006-0.011
		c-0.064-0.191-0.177-0.414-0.307-0.637c-0.302-0.525-0.457-1.15-1.585-1.838c-0.045-0.02-0.089-0.038-0.136-0.056
		c-0.167-0.086-0.413-0.179-0.636-0.206c-0.105-0.018-0.231-0.032-0.311-0.045c-0.703-0.137-1.677,0.099-2.384,0.678
		c0.137-0.106,0.305-0.201,0.461-0.287c-0.235,0.135-0.448,0.289-0.656,0.491c0.026-0.016,0.064-0.035,0.091-0.049
		c-0.724,0.55-1.189,1.673-1.157,2.28c0.028,0.607,0.146,0.365,0.396-0.367l0.053-0.115c-0.118,0.383-0.156,0.737-0.084,0.945
		c0.026,0.105,0.071,0.017,0.107-0.003c0.052,0.032,0.103-0.264,0.207-0.628c0.023-0.092,0.05-0.18,0.073-0.261
		c0.164-0.414,0.402-0.802,0.711-1.109c0.061-0.059,0.126-0.138,0.147-0.179c0.021-0.034-0.018-0.021-0.081,0.041
		c-0.233,0.209-0.435,0.441-0.602,0.694c-0.009,0.021-0.02,0.043-0.026,0.066c0.001-0.012,0.005-0.026,0.009-0.043
		c-0.018,0.027-0.032,0.057-0.05,0.084c0.008-0.021,0.013-0.04,0.022-0.062c0.014-0.022,0.026-0.046,0.042-0.067
		c0.013-0.04,0.032-0.088,0.059-0.14c0.297-0.454,0.7-0.836,1.176-1.077c0.028-0.013-0.007,0.032,0.049,0.013l0.083-0.03
		c-0.086,0.038-0.177,0.083-0.264,0.142c-0.31,0.255-0.391,0.377-0.455,0.452l-0.002,0.001c0,0,0,0.001-0.018,0.026
		c-0.027,0.035-0.054,0.066-0.087,0.113l0.002,0.002l-0.021,0.027c-0.041,0.04-0.073,0.086-0.108,0.129
		c-0.039,0.051-0.073,0.103-0.085,0.132c-0.017,0.014-0.037,0.028-0.057,0.051c-0.177,0.265-0.175,0.266-0.323,0.559
		c0,0,0.007,0.002,0.018-0.005c-0.005,0.011-0.035,0.117-0.082,0.235c-0.04,0.115-0.039,0.115-0.122,0.413c0,0,0-0.002,0.058-0.14
		l-0.047,0.122l0.035-0.028c0,0-0.001,0-0.042,0.053l0.012,0.06c0,0.001-0.001-0.002-0.101,0.25c-0.003,0.021,0,0.071,0.002,0.194
		c0,0,0.005,0.035,0.011,0.06c0.008,0.003,0.008,0.003,0.033,0.108c0,0,0.009,0.001,0.018-0.009
		c0.011-0.032,0.011-0.032,0.036-0.039c0,0,0.01-0.036,0.02-0.087c0.009-0.05,0.004-0.063,0.037-0.24l0.007,0.043
		c0.043,0.042,0.039,0.033,0.178-0.162c0,0,0.039-0.115,0.111-0.288c0.061-0.208,0.072-0.205,0.169-0.433
		c0,0,0.025-0.048,0.069-0.129c0.047-0.055,0.056-0.068,0.095-0.104h0.001c-0.023,0.04-0.039,0.084-0.052,0.119
		c-0.032,0.106-0.016,0.13,0.04,0.056c0.014,0.138,0.103,0.097,0.217-0.003c0.003,0.05,0.016,0.078,0.041,0.084
		c-0.019,0.17,0.011,0.282,0.063,0.343l0.049,0.036c0.06-0.022,0.146-0.118,0.255-0.255l0.036-0.038l0.021,0.065
		c0.21-0.135,0.535-0.384,0.773-0.396l0.156-0.028c0.113,0.002,0.253-0.036,0.395-0.034c0.053,0.005,0.1,0,0.149,0.011l0.098,0.008
		c-0.177,0.045-0.22,0.155-0.188,0.243c0.029,0.077,0.081,0.133,0.152,0.197c0.119,0.061-0.137-0.014-0.093,0.004
		c0.014,0.026,0.09,0.091,0.181,0.197c0.311,0.409,0.601,0.909,0.856,1.457c-0.375,0.052-0.77,0.104-1.178,0.17
		c-0.597,0.106-1.22,0.241-1.851,0.621c-0.155,0.106-0.303,0.22-0.453,0.343c-0.188,0.181-0.332,0.384-0.416,0.573
		c-0.187,0.386-0.248,0.747-0.276,1.101c-0.045,1.604,0.441,3.041,1.703,4.122c0.119,0.109,0.258,0.197,0.398,0.287
		c0.147,0.076,0.294,0.158,0.452,0.215c0.604,0.262,1.261,0.324,1.86,0.271c0.558-0.043,1.283-0.213,1.834-0.676
		c-0.679,0.57-1.481,0.736-2.177,0.771c-0.737,0.041-1.548-0.139-2.205-0.559c-0.095-0.061-0.165-0.092-0.164-0.072
		c0.007,0.023,0.087,0.088,0.182,0.148c0.942,0.611,2.141,0.684,3.087,0.453c1.143-0.189,2.134-1.293,2.352-2.283
		c0.317-0.509,0.497-1.657,0.384-2.589C140.996,97.421,140.934,97.107,140.854,96.8 M133.199,90.454
		c-0.029,0.075-0.044,0.152-0.06,0.268c0,0.029,0.001,0.043,0.001,0.05c0.013-0.042,0.026-0.098,0.043-0.153
		C133.211,90.506,133.217,90.451,133.199,90.454 M133.141,90.771c-0.012,0.039-0.015,0.066-0.015,0.066l0.015-0.044v-0.012V90.771z
		 M134.805,101.859c-1.264-1.199-1.741-2.758-1.554-4.415c0.008-0.058,0.015-0.108,0.007-0.112
		c-0.007-0.004-0.022,0.041-0.029,0.095c-0.196,1.67,0.278,3.225,1.542,4.44c0.045,0.035,0.086,0.063,0.097,0.063
		C134.874,101.924,134.848,101.893,134.805,101.859 M104.219,98.933l-0.002-0.028l-0.016-0.269l-0.006,0.051l-0.098-1.029
		c-0.027-0.495-0.072-1.025-0.133-1.562c0.033,0.151,0.07,0.294,0.106,0.429c0.052,0.688,0.083,1.348,0.158,2.061l0.005,0.142
		L104.219,98.933z M103.801,98.074c-0.006-0.042-0.016-0.126-0.028-0.079c-0.035-0.351-0.072-0.706-0.116-1.07
		c-0.016-0.136-0.035-0.269-0.061-0.396c0.018-0.149,0.031-0.305,0.033-0.504c0.024,0.329,0.064,0.703,0.095,1.049
		c0.034,0.382,0.065,0.757,0.099,1.132L103.801,98.074z M103.127,95.373L103.127,95.373c0.006-0.027,0.01-0.061,0.017-0.104
		C103.144,95.269,103.137,95.312,103.127,95.373 M103.137,93.748c0.003,0.022,0,0.041-0.002,0.073
		C103.135,93.821,103.135,93.818,103.137,93.748 M102.361,94.306l0.003-0.017l0.169,0.181L102.361,94.306z M109.393,91.868
		c0.055-0.15,0.119-0.318,0.201-0.489c0.016-0.037,0.02-0.062,0.006-0.047c-0.016,0.014-0.04,0.055-0.055,0.088
		c-0.078,0.176-0.148,0.353-0.211,0.514c-0.006,0.019-0.009,0.031-0.006,0.035c-0.023,0.032-0.054,0.084-0.076,0.141
		c-0.569,1.264-1.009,2.533-1.457,3.858c0.186-0.66,0.404-1.328,0.653-2.021c0.302-0.838,0.589-1.608,0.974-2.418
		c0.021-0.044,0.028-0.073,0.02-0.072c-0.009,0.002-0.029,0.034-0.05,0.076c-0.798,1.662-1.241,3.223-1.853,5.02l-0.072,0.211
		c0.132-0.574,0.265-1.139,0.414-1.697c0.594-1.648,1.266-3.262,2.082-4.78c0.043-0.073,0.067-0.138,0.056-0.142
		c-0.013-0.006-0.06,0.051-0.101,0.122c-0.508,0.839-0.963,1.718-1.381,2.616l0.069-0.196l0.079-0.191
		c0.266-0.578,0.546-1.152,0.843-1.719c0.117-0.209,0.188-0.396,0.161-0.426c-0.031-0.021-0.145,0.119-0.26,0.32l0.049-0.101
		c0.016-0.035,0.023-0.062,0.014-0.056c-0.014,0.009-0.042,0.049-0.058,0.082c-0.06,0.122-0.111,0.244-0.166,0.366
		c-0.585,1.074-1.077,2.196-1.517,3.334c0.438-1.239,0.959-2.472,1.592-3.663c-0.01,0.025-0.004,0.033,0.018,0.005
		c0.018-0.022,0.045-0.072,0.055-0.099c0.01-0.031,0-0.029-0.017-0.007l-0.002,0.004c0.344-0.639,0.721-1.262,1.144-1.858
		c0.025-0.035,0.041-0.068,0.034-0.072c-0.006-0.004-0.034,0.026-0.059,0.065c-1.396,1.99-2.337,4.215-3.062,6.419l-0.13,0.358
		h-0.001c-0.041,0.027-0.093,0.098-0.15,0.198c0.264-0.78,0.543-1.551,0.849-2.316c0.269-0.631,0.558-1.255,0.868-1.871
		c0.045-0.089,0.07-0.168,0.056-0.178c-0.012-0.011-0.06,0.059-0.108,0.15l-0.225,0.455c0.041-0.135,0.057-0.228,0.033-0.252
		c-0.021-0.02-0.081,0.03-0.15,0.127c0.301-0.688,0.622-1.362,0.957-2.015c0.02-0.037,0.026-0.061,0.014-0.051
		c-0.015,0.01-0.041,0.046-0.061,0.084c-0.527,0.927-0.965,1.879-1.373,2.839c-0.369,0.737-0.71,1.471-1.031,2.301
		c-0.47,1.208-0.804,2.378-1.103,3.55c-0.132,0.415-0.256,0.831-0.37,1.245c0.001-0.062-0.007-0.101-0.023-0.106l-0.017,0.006
		c0.101-0.366,0.203-0.732,0.313-1.104c1.033-3.437,2.084-6.68,3.912-9.732c0.123-0.192,0.189-0.346,0.145-0.342
		c-0.041,0.002-0.186,0.161-0.303,0.356c-0.926,1.443-1.561,2.869-2.161,4.448c-0.422,1.127-0.756,2.124-1.104,3.27
		c-0.404,1.342-0.769,2.591-1.111,3.916c-0.038,0.13-0.073,0.26-0.104,0.394l-0.093,0.4c-0.08,0.322-0.156,0.641-0.234,0.959
		c-0.008-0.1-0.016-0.201-0.025-0.303c0.084-0.414,0.169-0.828,0.257-1.237c0.019-0.086,0.021-0.146,0.005-0.141
		c-0.016,0.011-0.044,0.086-0.064,0.174c-0.076,0.317-0.148,0.641-0.22,0.967c-0.058-0.57-0.131-1.169-0.184-1.743l-0.037,0.066
		c-0.011-0.163,0.006-0.261-0.009-0.439l-0.014,0.15v-0.01c0-0.193-0.018-0.423-0.045-0.661c0-0.548-0.039-1.212-0.109-1.908
		c0.006-0.092,0-0.227-0.018-0.385c-0.003-0.068-0.01-0.146-0.008-0.194c0.016-0.441-0.004-0.976-0.054-1.568l0.009,0.35
		c-0.014-0.171-0.025-0.34-0.053-0.529l-0.016,0.07c-0.023-0.593-0.182-1.4-0.359-1.807c-0.184-0.411-0.264-0.224-0.211,0.384
		l0.007,0.091c-0.07-0.301-0.152-0.564-0.241-0.708c-0.047-0.076-0.066,0.004-0.095,0.029c-0.052-0.014-0.039,0.238,0.018,0.554
		c0.015,0.083,0.032,0.162,0.05,0.235c0.047,0.365,0.094,0.734,0.125,1.086c0.006,0.069,0.022,0.152,0.039,0.188
		c0.016,0.029,0.025-0.003,0.019-0.075c-0.017-0.254-0.032-0.502-0.048-0.75l-0.018-0.056c0.006,0.007,0.012,0.019,0.016,0.029
		c-0.002-0.023-0.002-0.047-0.004-0.07c0.006,0.019,0.01,0.035,0.016,0.052l0.006,0.058c0.011,0.029,0.021,0.063,0.033,0.101
		c0.055,0.44,0.1,0.873,0.125,1.282c0.002,0.023-0.025-0.013-0.027,0.031l-0.001,0.068c-0.006-0.072-0.012-0.149-0.022-0.232
		c-0.074-0.306-0.103-0.42-0.123-0.5v-0.001c0,0,0-0.001-0.006-0.024c-0.011-0.037-0.02-0.069-0.031-0.116l-0.002,0.001
		l-0.008-0.028l-0.017-0.141c-0.006-0.052-0.019-0.103-0.028-0.128l0.006-0.064c-0.033-0.268-0.031-0.268-0.071-0.542
		c0,0-0.005,0.002-0.011,0.011c-0.002-0.01-0.025-0.1-0.041-0.207c-0.02-0.104-0.018-0.102-0.061-0.363c0,0,0,0,0.003,0.129
		l-0.008-0.111l-0.019,0.032l0.018-0.056l-0.029-0.042c-0.002-0.002,0.002,0,0.012-0.229c-0.004-0.018-0.017-0.059-0.047-0.159
		c0,0-0.014-0.028-0.024-0.046c-0.007-0.002-0.007-0.002-0.052-0.083c0,0-0.008,0-0.016,0.011c-0.002,0.029-0.002,0.029-0.021,0.041
		c0,0-0.002,0.032,0,0.078c0.006,0.043,0.007,0.054,0.029,0.213l-0.022-0.036c-0.048-0.021-0.044-0.019-0.101,0.191
		c0,0-0.006,0.111,0.01,0.287c0.027,0.199,0.025,0.198,0.058,0.43c0,0,0.006,0.051,0.017,0.138
		c-0.008,0.065-0.008,0.081-0.015,0.131v0.001c-0.008-0.044-0.019-0.086-0.028-0.12c-0.031-0.101-0.057-0.111-0.059-0.022
		c-0.084-0.103-0.13-0.023-0.162,0.128c-0.027-0.039-0.054-0.056-0.074-0.046c-0.084-0.158-0.162-0.25-0.231-0.282l-0.058-0.01
		c-0.039,0.057-0.053,0.201-0.053,0.412l-0.002,0.065l-0.055-0.052c-0.075,0.283-0.088,0.819-0.156,1.159l-0.025,0.251
		c-0.022,0.183-0.019,0.469,0.008,0.801l0.031,0.352l0.026,0.22c-0.104-0.364-0.215-0.557-0.292-0.478
		c-0.127,0.137-0.119,0.975,0.014,1.877c0.332,2.44,0.537,4.716,1.117,7.351c0.09,0.291,0.075,0.443,0.371,1.02l0.064,0.107
		c0.031,0.051,0.164,0.211,0.273,0.297c0.262,0.162,0.391,0.396,1.195,0.289c0.302-0.045,0.676-0.355,0.654-0.361
		c0.053-0.057,0.104-0.119,0.149-0.182c0.082-0.105,0.196-0.33,0.196-0.354c0.085-0.232,0.13-0.428,0.148-0.551
		c0.09-0.52,0.139-0.883,0.217-1.326c0.146-0.85,0.313-1.691,0.518-2.559c0.329-1.674,0.688-3.28,1.107-4.887
		c0.356-1.352,0.576-2.407,0.943-3.596c0.01-0.033,0.006-0.041-0.007-0.025c-0.019,0.024-0.038,0.069-0.047,0.101
		c-0.66,1.853-1.201,3.761-1.746,5.799l-0.187,0.691l-0.025,0.081l-0.178,0.62l0.053-0.218c0.038-0.145,0.052-0.272,0.031-0.288
		c-0.01-0.003-0.025,0.015-0.04,0.047c0.114-0.539,0.223-1.068,0.339-1.592c0.042-0.154,0.074-0.3,0.1-0.425
		c0.192-0.589,0.394-1.177,0.606-1.763l0.056-0.143c0.07-0.193,0.12-0.385,0.127-0.485c0.002-0.032,0-0.053-0.005-0.065
		c0.421-1.354,0.933-2.698,1.431-3.941c0.025-0.064,0.032-0.101,0.017-0.095C109.366,91.924,109.381,91.895,109.393,91.868
		 M103.18,92.966c-0.004-0.037-0.006-0.062-0.006-0.062v0.043l0.002,0.011C103.176,92.958,103.176,92.959,103.18,92.966
		 M103.234,93.258c-0.007-0.075-0.012-0.146-0.034-0.25c-0.01-0.024-0.017-0.037-0.021-0.042c0.005,0.04,0.009,0.093,0.013,0.146
		C103.198,93.217,103.219,93.267,103.234,93.258 M105.041,100.279c0.365-1.33,0.769-2.656,1.217-3.971
		c0.015-0.043,0.022-0.082,0.017-0.087c-0.004-0.004-0.022,0.029-0.036,0.069c-0.449,1.314-0.854,2.635-1.219,3.964
		c-0.012,0.046-0.016,0.084-0.012,0.092C105.015,100.35,105.029,100.32,105.041,100.279 M109.293,90.763
		c-0.021,0.027-0.045,0.074-0.053,0.101c-0.011,0.031-0.004,0.032,0.018,0.006c0.017-0.023,0.041-0.069,0.051-0.101
		C109.317,90.743,109.311,90.74,109.293,90.763 M103.467,94.066l0.021,0.066l-0.005-0.054c-0.006-0.014-0.012-0.028-0.018-0.039
		L103.467,94.066z M91.762,99.722c-0.003,0.03,0.003,0.076,0.009,0.101c0.007,0.026,0.015,0.025,0.018-0.006
		c0.003-0.025-0.003-0.07-0.009-0.099C91.773,99.695,91.765,99.697,91.762,99.722 M91.526,97.166
		c-0.013,0.032-0.022,0.053-0.022,0.053l0.02-0.034l0.002-0.01V97.166z M95.04,92.252l-0.25,0.099l0.05-0.012
		c-0.314,0.144-0.614,0.31-0.891,0.5c-0.426,0.249-0.836,0.589-1.197,0.982c0.093-0.129,0.184-0.248,0.271-0.36
		c0.511-0.45,1.064-0.804,1.71-1.12l0.133-0.05l0.201-0.05L95.04,92.252z M94.438,92.923c-0.034,0.021-0.101,0.063-0.055,0.056
		c-0.277,0.175-0.547,0.369-0.804,0.595c-0.096,0.08-0.179,0.175-0.262,0.263c-0.121,0.065-0.247,0.144-0.385,0.27
		c0.214-0.224,0.471-0.465,0.726-0.663c0.281-0.222,0.576-0.418,0.886-0.587L94.438,92.923z M92.774,94.921
		c0,0,0.032-0.024,0.075-0.055C92.83,94.881,92.804,94.899,92.774,94.921 M92.85,96.029L92.8,95.813l0.062,0.205L92.85,96.029z
		 M91.929,96.002c0.01-0.02,0.021-0.033,0.037-0.056C91.966,95.947,91.966,95.948,91.929,96.002 M99.683,92.641
		c0.119,0.13,0.24,0.254,0.341,0.396c-0.329-0.396-0.701-0.664-1.077-0.821l-0.096-0.058c-0.785-0.476-1.931-0.618-2.857-0.404
		l0.07,0.03c-0.169,0.029-0.278,0.021-0.462,0.067c0.051-0.009,0.105-0.007,0.158-0.009l-0.01,0.002
		c-0.203,0.026-0.433,0.104-0.667,0.191c-0.551,0.146-1.156,0.472-1.711,0.904c-0.082,0.044-0.199,0.126-0.325,0.237
		c-0.053,0.044-0.112,0.096-0.153,0.125c-0.375,0.25-0.758,0.645-1.134,1.124l0.239-0.267c-0.11,0.136-0.225,0.267-0.323,0.438
		l0.058-0.045c-0.396,0.464-0.699,1.274-0.73,1.704c-0.019,0.44,0.121,0.306,0.37-0.223l0.036-0.069
		c-0.092,0.28-0.142,0.534-0.116,0.691c0.008,0.083,0.06,0.024,0.098,0.018c0.045,0.034,0.133-0.178,0.234-0.458
		c0.028-0.073,0.052-0.144,0.073-0.211c0.143-0.315,0.304-0.627,0.493-0.9c0.039-0.053,0.075-0.122,0.084-0.156
		c0.006-0.032-0.02-0.015-0.06,0.041c-0.147,0.189-0.274,0.387-0.396,0.588l-0.017,0.053c0-0.009,0.002-0.021,0.004-0.032
		c-0.012,0.021-0.025,0.042-0.037,0.063c0.005-0.019,0.009-0.033,0.015-0.05l0.031-0.055c0.007-0.027,0.016-0.06,0.028-0.096
		c0.199-0.372,0.43-0.716,0.69-1.003c0.015-0.019,0.011,0.024,0.042-0.003l0.046-0.045c-0.044,0.053-0.09,0.108-0.138,0.17
		c-0.151,0.255-0.188,0.361-0.222,0.43l-0.002,0.002c0,0,0,0-0.01,0.021c-0.014,0.031-0.027,0.061-0.047,0.101h0.002l-0.011,0.027
		l-0.071,0.109c-0.028,0.041-0.043,0.088-0.048,0.112l-0.041,0.045c-0.117,0.224-0.125,0.219-0.234,0.454
		c0,0,0.006,0.001,0.016-0.002c-0.003,0.009-0.029,0.091-0.066,0.185c-0.033,0.092-0.038,0.09-0.125,0.317
		c0,0-0.004-0.003,0.058-0.105c0.002,0-0.003-0.001-0.047,0.093l0.03-0.018l-0.039,0.037l0.009,0.048c0,0.001-0.001,0-0.111,0.183
		c-0.004,0.015-0.011,0.054-0.028,0.146c0,0-0.001,0.026,0,0.047c0.007,0.004,0.006,0.004,0.01,0.087c0,0,0.008,0.006,0.018-0.001
		c0.015-0.021,0.015-0.021,0.039-0.022c0,0,0.016-0.025,0.034-0.063c0.015-0.036,0.017-0.046,0.069-0.18l0.002,0.037
		c0.034,0.038,0.034,0.036,0.175-0.105c0.004,0.001,0.043-0.091,0.119-0.228c0.074-0.165,0.073-0.165,0.156-0.355
		c0,0,0.017-0.042,0.057-0.108c0.039-0.045,0.049-0.056,0.081-0.088l0.001-0.001l-0.042,0.102c-0.027,0.09-0.01,0.11,0.038,0.048
		c0.017,0.116,0.097,0.084,0.202-0.004c0.004,0.043,0.017,0.068,0.04,0.072c-0.012,0.152,0.02,0.26,0.063,0.315l0.046,0.035
		c0.062-0.018,0.128-0.114,0.237-0.249l0.035-0.041l0.02,0.063c0.195-0.146,0.478-0.455,0.713-0.591l0.157-0.114
		c0.112-0.083,0.277-0.218,0.446-0.39l0.192-0.171l0.115-0.112c-0.153,0.233-0.195,0.39-0.096,0.416
		c0.169,0.043,0.613-0.308,1.102-0.613c1.347-0.815,2.715-0.581,2.916,0.604c0.201,1.046,0.003,2.629-0.482,3.667
		c-0.466,1.083-1.289,2.021-2.278,2.328c-0.778,0.248-1.648,0.154-2.342-0.302c-0.022-0.013-0.029-0.009-0.023,0.005
		c0.011,0.017,0.036,0.039,0.055,0.051c1.139,0.846,2.725,0.706,3.811-0.378c0.128-0.118,0.253-0.237,0.365-0.37l0.045-0.045
		c0.113-0.108,0.205-0.239,0.31-0.36l-0.1,0.132c-0.067,0.087-0.111,0.175-0.096,0.197c0.008,0.007,0.025,0,0.047-0.017
		c-0.245,0.332-0.511,0.637-0.815,0.899c-0.098,0.065-0.185,0.129-0.258,0.194c-0.404,0.211-0.836,0.348-1.264,0.365l-0.106,0.002
		c-0.139-0.01-0.273,0.01-0.342,0.029c-0.023,0.004-0.037,0.012-0.045,0.021c-1.05-0.066-1.99-0.674-2.376-1.632
		c-0.021-0.047-0.035-0.07-0.045-0.06l-0.018-0.066c-0.053-0.112-0.099-0.244-0.13-0.394c-0.009-0.031-0.019-0.047-0.022-0.031
		c-0.004,0.017,0,0.053,0.006,0.082c0.032,0.151,0.092,0.288,0.144,0.413c0.005,0.014,0.011,0.022,0.015,0.023
		c-0.001,0.03,0.016,0.075,0.035,0.117c0.376,1.02,1.357,1.553,2.395,1.657c-0.497-0.012-1.053-0.17-1.511-0.463
		c-0.557-0.363-0.941-0.913-1.117-1.615c-0.006-0.038-0.016-0.062-0.023-0.057c-0.005,0.007-0.006,0.038,0.003,0.075
		c0.327,1.5,1.727,2.182,3.113,2.12l0.164-0.018c-0.427,0.113-0.87,0.125-1.334,0.037c-1.416-0.35-2.17-1.811-2.132-3.253
		c-0.001-0.069-0.004-0.127-0.019-0.126c-0.012,0.001-0.031,0.06-0.029,0.131c-0.031,0.816,0.091,1.684,0.578,2.369l-0.115-0.133
		c-0.037-0.046-0.063-0.1-0.094-0.148c-0.261-0.473-0.395-1.009-0.444-1.55c-0.021-0.201-0.039-0.37-0.08-0.38
		c-0.034-0.004-0.078,0.15-0.06,0.352l-0.015-0.098c-0.005-0.033-0.011-0.056-0.017-0.047c-0.009,0.013-0.009,0.056-0.003,0.088
		l0.056,0.346c0.086,1.058,0.709,2.125,1.703,2.596c-1.103-0.463-1.759-1.697-1.816-2.871c0.007,0.021,0.015,0.023,0.017-0.005
		c0.003-0.025-0.002-0.075-0.008-0.1c-0.008-0.027-0.015-0.022-0.019,0.003v0.003c-0.038-0.636,0.036-1.27,0.173-1.883
		c0.008-0.036,0.008-0.068,0-0.069c-0.007,0-0.02,0.031-0.027,0.071c-0.216,1.015-0.286,2.109,0.081,3.127
		c0.349,1.034,1.3,1.784,2.294,1.989c0.109,0.025,0.213,0.064,0.325,0.078c0.03,0.033,0.099,0.07,0.199,0.105
		c-0.732-0.09-1.447-0.359-2.017-0.873c-0.466-0.434-0.758-1.023-0.908-1.619c-0.025-0.086-0.053-0.156-0.068-0.154
		c-0.018,0-0.014,0.076,0.012,0.167c0.039,0.148,0.076,0.299,0.138,0.442c-0.066-0.112-0.122-0.183-0.152-0.183
		c-0.032,0.002-0.042,0.073-0.019,0.186c-0.279-0.663-0.357-1.36-0.369-2.02c0-0.039-0.005-0.061-0.012-0.046
		c-0.008,0.012-0.014,0.052-0.014,0.091c-0.024,0.953,0.152,1.992,0.778,2.836c0.433,0.695,1.152,1.215,1.972,1.453
		c1.237,0.402,2.568,0.016,3.459-0.672c0.342-0.229,0.659-0.49,0.933-0.785c-0.027,0.053-0.038,0.09-0.025,0.102l0.017,0.004
		c-0.249,0.258-0.526,0.492-0.827,0.711c-1.401,1.047-3.491,1.129-4.928,0.066c-0.745-0.527-1.238-1.365-1.445-2.195
		c-0.202-0.837-0.202-1.667-0.105-2.457c0.031-0.201,0.029-0.353-0.009-0.334c-0.037,0.018-0.104,0.195-0.127,0.402
		c-0.218,1.471-0.075,3.324,1.41,4.564c1.041,0.777,2.132,1.045,3.38,0.848c1.434-0.285,2.479-1.145,3.244-2.176
		c0.085-0.097,0.153-0.204,0.222-0.313c0.066-0.112,0.143-0.219,0.199-0.334c0.505-0.865,0.804-1.866,0.958-2.76
		c-0.131,1.076-0.489,2.302-1.12,3.29c-0.043,0.073-0.066,0.127-0.051,0.127c0.022-0.004,0.07-0.063,0.115-0.137
		c0.451-0.704,0.774-1.475,0.964-2.277c0.176-0.772,0.299-1.518,0.311-2.343c0.123-0.427,0.209-1.465-0.295-2.436
		C100.22,93.182,99.964,92.89,99.683,92.641 M91.819,96.143l0.019-0.062l-0.023,0.042c-0.004,0.015-0.007,0.027-0.009,0.041
		C91.811,96.157,91.815,96.15,91.819,96.143 M99.163,101.094c-0.815,1.039-2.011,1.938-3.493,2.105
		c-0.049,0.004-0.09,0.014-0.092,0.02c-0.001,0.008,0.037,0.01,0.083,0.006c1.493-0.166,2.69-1.061,3.513-2.102
		c0.027-0.037,0.046-0.07,0.045-0.078C99.212,101.039,99.188,101.061,99.163,101.094 M91.606,96.902
		c-0.027,0.065-0.054,0.125-0.077,0.222c-0.002,0.023-0.002,0.036-0.003,0.042c0.015-0.033,0.034-0.078,0.054-0.123
		C91.618,96.954,91.624,96.902,91.606,96.902 M88.524,92.716C88.537,92.695,88.547,92.7,88.524,92.716 M87.088,91.271
		c0.079-0.076,0.167-0.164,0.295-0.249C87.258,91.115,87.172,91.215,87.088,91.271 M87.32,92.4c0-0.001,0.001,0.001,0.002,0.006
		C87.319,92.397,87.319,92.396,87.32,92.4 M82.289,99.631L82.289,99.631l0.01,0.057l0.003,0.028v0.016l0.002,0.008v0.003
		C82.297,99.703,82.292,99.666,82.289,99.631 M81.446,96.567l-0.08-0.43l0.008,0.082c-0.063-0.279-0.13-0.564-0.247-0.887
		c-0.062-0.163-0.13-0.334-0.27-0.544c-0.166-0.188-0.284-0.503-0.973-0.623c-0.633-0.021-0.902,0.287-1.06,0.425
		c-0.177,0.174-0.274,0.32-0.377,0.47c-0.186,0.291-0.316,0.567-0.437,0.846c-0.12,0.281-0.224,0.563-0.316,0.847
		c0.059-0.228,0.117-0.445,0.177-0.653c0.197-0.493,0.38-0.958,0.968-1.592c0.119-0.099,0.234-0.217,0.51-0.318
		c0.227-0.104,0.665-0.113,0.954,0.039c0.491,0.266,0.593,0.542,0.715,0.745c0.21,0.424,0.275,0.744,0.362,1.08l0.043,0.23
		l0.032,0.329L81.446,96.567z M80.712,95.206c-0.04-0.078-0.14-0.242-0.101-0.144c-0.118-0.163-0.215-0.378-0.624-0.515
		c-0.472-0.102-0.753,0.162-0.885,0.288c-0.297,0.303-0.424,0.577-0.567,0.861c-0.096,0.209-0.182,0.418-0.246,0.617
		c-0.117,0.208-0.227,0.434-0.347,0.729c0.174-0.504,0.376-1.076,0.671-1.609c0.224-0.288,0.239-0.624,0.965-0.926
		c0.215-0.059,0.498-0.002,0.653,0.105c0.149,0.094,0.24,0.197,0.316,0.295c0.145,0.196,0.205,0.362,0.272,0.527
		C80.789,95.362,80.752,95.284,80.712,95.206 M80.45,96.227c-0.004,0.003-0.009,0.008-0.015,0.013
		C80.471,96.195,80.487,96.178,80.45,96.227 M79.692,94.68c0.174-0.017,0.32,0.004,0.303,0.036
		C79.869,94.695,79.771,94.683,79.692,94.68 M79.391,94.75c0.003,0,0.005-0.002,0.009-0.003
		C79.393,94.756,79.394,94.761,79.391,94.75 M79.229,94.855c0.034-0.035,0.078-0.065,0.128-0.09
		C79.308,94.797,79.265,94.827,79.229,94.855 M78.977,96.099C78.945,96.062,78.963,96.071,78.977,96.099 M78.326,100.148
		l-0.098-0.331l0.107,0.308L78.326,100.148z M78.05,98.244c-0.018,0.04-0.038,0.086-0.063,0.145
		C77.987,98.388,78.012,98.328,78.05,98.244L78.05,98.244z M77.422,100.702c0.006-0.037,0.013-0.065,0.023-0.111
		C77.445,100.59,77.445,100.59,77.422,100.702 M94.143,114.076c-1.597-1.564-2.534-3.643-3.226-5.992
		c-0.483-1.689-0.749-3.24-0.975-5.021c-0.25-2.093-0.326-4.065-0.383-6.153c0.001-0.207-0.002-0.413-0.009-0.621l-0.023-0.631
		c-0.022-0.823-0.035-1.639-0.089-2.479c-0.033-0.427-0.053-0.832-0.194-1.359c-0.102-0.233-0.14-0.726-0.906-0.995
		c-0.337-0.038-0.57,0.004-0.742,0.076c0.001-0.001,0.004-0.003,0.004-0.003c0.21-0.138,0.791-0.183,1.132,0.087
		c0.563,0.485,0.519,0.851,0.62,1.124c0.117,0.563,0.146,1.045,0.187,1.539c0.069,0.978,0.104,1.927,0.155,2.867
		c0.004,0.136,0.02,0.226,0.033,0.21c0.013-0.023,0.019-0.146,0.014-0.28c-0.064-1.325-0.055-2.604-0.246-4.052
		c-0.127-0.354,0.041-0.788-0.743-1.509c-0.284-0.185-0.615-0.235-0.929-0.169c-0.219,0.06-0.44,0.173-0.535,0.256
		c-0.26,0.189-0.385,0.351-0.52,0.512c-0.495,0.634-0.802,1.224-1.128,1.824c-0.459,0.594-1.199,1.946-1.811,3.131
		c-0.228,0.437-0.428,0.844-0.632,1.242c0.107-0.181,0.212-0.356,0.316-0.543c-0.294,0.553-0.529,1.025-0.776,1.449l-0.077,0.105
		c-0.119,0.151-0.251,0.306-0.365,0.415c-0.032-0.058-0.067-0.128-0.101-0.214c-0.096-0.237-0.178-0.539-0.246-0.844l-0.023,0.094
		c-0.046-0.229-0.05-0.369-0.099-0.632l0.015,0.222l-0.003-0.015c-0.038-0.281-0.096-0.625-0.174-0.997
		c-0.059-0.421-0.109-0.87-0.312-1.481c-0.055-0.156-0.125-0.328-0.251-0.536c-0.149-0.198-0.281-0.495-0.891-0.729
		c-0.733-0.217-1.278,0.176-1.467,0.352c-0.221,0.199-0.345,0.375-0.448,0.529c-0.02,0.032-0.037,0.063-0.054,0.094
		c-0.118,0.154-0.275,0.407-0.392,0.689c-0.052,0.109-0.108,0.237-0.146,0.313c-0.341,0.685-0.629,1.518-0.859,2.463l0.162-0.547
		c-0.075,0.27-0.143,0.539-0.202,0.846l0.046-0.101c-0.253,0.929-0.365,2.278-0.224,3.036c0.165,0.781,0.21,0.432,0.274-0.572
		l0.017-0.156c-0.006,0.509,0.034,0.97,0.144,1.255c0.05,0.145,0.068,0.008,0.097-0.027c0.052,0.035,0.03-0.398,0.039-0.918
		c0.001-0.133,0.004-0.258,0.005-0.375c0.043-0.599,0.132-1.19,0.248-1.746c0.024-0.107,0.041-0.24,0.042-0.301
		c-0.002-0.05-0.024-0.006-0.049,0.106c-0.093,0.394-0.174,0.781-0.24,1.172l-0.002,0.094c-0.003-0.013-0.004-0.03-0.006-0.049
		c-0.007,0.039-0.012,0.079-0.018,0.117c0-0.029,0-0.059,0.003-0.089l0.012-0.089c-0.001-0.051,0-0.107,0.003-0.172
		c0.1-0.705,0.248-1.384,0.43-2.016c0.012-0.037,0.018,0.03,0.042-0.035l0.037-0.104c-0.033,0.112-0.065,0.231-0.097,0.359
		c-0.079,0.495-0.098,0.683-0.114,0.812l-0.001,0.002c0,0,0,0.002-0.004,0.039c-0.007,0.062-0.012,0.113-0.02,0.188l0.001-0.001
		l-0.004,0.05l-0.04,0.219c-0.014,0.083-0.022,0.165-0.02,0.207c-0.01,0.028-0.018,0.059-0.029,0.097
		c-0.063,0.425-0.064,0.425-0.109,0.868c0,0,0.006-0.002,0.014-0.016c0,0.019-0.006,0.165-0.014,0.341
		c-0.003,0.169-0.011,0.166-0.013,0.597c0.002,0.002-0.004-0.002,0.019-0.209c0,0-0.002,0-0.013,0.182l0.023-0.047
		c0,0,0-0.002-0.025,0.084l0.024,0.078c0.003,0.002-0.008-0.004-0.033,0.377c0.003,0.027,0.018,0.102,0.05,0.279
		c-0.002-0.002,0.015,0.049,0.029,0.086c0.009,0.002,0.008,0.004,0.066,0.156c0,0,0.009,0.002,0.013-0.018
		c0-0.049,0-0.049,0.018-0.064c0,0-0.002-0.057-0.01-0.137c-0.009-0.074-0.013-0.094-0.029-0.359l0.018,0.063
		c0.049,0.047,0.043,0.039,0.117-0.283c0.002,0,0.014-0.18,0.036-0.453c0.014-0.322,0.014-0.322,0.045-0.688
		c0,0,0.011-0.078,0.027-0.215c0.026-0.1,0.031-0.122,0.054-0.196v-0.001c-0.005,0.069-0.01,0.138-0.009,0.194
		c-0.001,0.165,0.021,0.188,0.049,0.053c0.049,0.185,0.117,0.081,0.193-0.136c0.015,0.07,0.036,0.103,0.06,0.096
		c0.03,0.267,0.083,0.432,0.141,0.5l0.053,0.034c0.051-0.073,0.104-0.283,0.168-0.595l0.023-0.094l0.036,0.094
		c0.155-0.391,0.373-1.164,0.591-1.617l0.139-0.345c0.07-0.159,0.152-0.385,0.245-0.645c0.066,0.316,0.136,0.645,0.217,0.961
		c0.134,0.505,0.266,1.029,0.619,1.668c0.187,0.313,0.45,0.71,1.001,1.027c0.606,0.305,1.199,0.393,1.925,0.072
		c0.983-0.572,1.151-1.036,1.505-1.483c0.301-0.45,0.549-0.887,0.785-1.325c0.471-0.871,0.888-1.743,1.308-2.611
		c0.27-0.56,0.531-1.101,0.796-1.616c0.009,0.204,0.016,0.41,0.023,0.618c0.135,2.659,0.267,5.296,0.63,7.939
		c0.31,2.223,0.741,3.908,1.382,5.803c0.018,0.057,0.027,0.059,0.025,0.027c-0.007-0.047-0.028-0.123-0.044-0.174
		c-0.92-3.033-1.294-6.201-1.464-9.533c-0.02-0.382-0.032-0.757-0.045-1.128v-0.135l-0.01-1.014l0.011,0.353
		c0.006,0.232,0.031,0.432,0.055,0.448c0.01,0,0.019-0.032,0.025-0.088c0.052,0.863,0.116,1.71,0.199,2.552
		c0.015,0.253,0.036,0.485,0.064,0.683c0.04,0.979,0.114,1.961,0.209,2.948l0.022,0.242c0.03,0.324,0.089,0.633,0.14,0.783
		c0.015,0.049,0.028,0.078,0.039,0.092c0.36,2.221,0.907,4.482,1.841,6.43c0.049,0.098,0.081,0.146,0.084,0.127
		c0.013,0.037,0.034,0.086,0.056,0.131c0.111,0.23,0.262,0.477,0.405,0.744c0.033,0.057,0.056,0.084,0.047,0.057
		c-0.008-0.033-0.039-0.102-0.069-0.152c-0.152-0.27-0.297-0.535-0.418-0.785c-0.014-0.025-0.025-0.043-0.031-0.045
		c-0.017-0.061-0.053-0.152-0.095-0.238c-0.866-2.041-1.394-4.129-1.717-6.316c0.196,1.064,0.412,2.154,0.726,3.281
		c0.377,1.361,0.835,2.584,1.48,3.859c0.034,0.066,0.062,0.107,0.064,0.098c0.002-0.012-0.02-0.068-0.054-0.133
		c-1.281-2.625-1.918-5.143-2.293-8.107l-0.04-0.35c0.16,0.91,0.342,1.801,0.555,2.68c0.506,2.686,1.324,5.395,2.963,7.592
		c0.076,0.105,0.147,0.189,0.157,0.176c0.008-0.008-0.048-0.109-0.124-0.215c-0.887-1.258-1.506-2.689-1.952-4.158l0.114,0.301
		c0.032,0.104,0.075,0.201,0.113,0.301c0.325,0.934,0.741,1.836,1.257,2.682c0.18,0.326,0.39,0.553,0.431,0.549
		c0.038-0.021-0.109-0.25-0.277-0.559l0.092,0.143c0.031,0.049,0.058,0.08,0.056,0.064c-0.007-0.023-0.04-0.09-0.07-0.137
		l-0.335-0.512c-0.877-1.645-1.436-3.449-1.836-5.277c0.473,1.955,1.096,3.926,2.165,5.658c-0.025-0.033-0.034-0.033-0.012,0.014
		c0.018,0.039,0.062,0.113,0.088,0.146c0.027,0.039,0.031,0.029,0.012-0.012l-0.001-0.004c0.581,0.918,1.297,1.754,2.162,2.408
		c0.049,0.041,0.096,0.07,0.098,0.064c0.004-0.008-0.039-0.049-0.092-0.092c-2.868-2.264-3.963-6.029-4.666-9.463l-0.099-0.576
		c0.021-0.066,0.029-0.197,0.024-0.373c0.194,1.246,0.444,2.477,0.791,3.684c0.273,1.006,0.608,1.998,1.042,2.943
		c0.065,0.135,0.133,0.24,0.15,0.236s-0.03-0.119-0.098-0.26l-0.3-0.701c0.103,0.186,0.182,0.299,0.217,0.299
		c0.033,0.002,0.018-0.105-0.032-0.273c0.449,1.014,1.003,1.965,1.678,2.762c0.04,0.045,0.066,0.064,0.057,0.045
		c-0.007-0.021-0.046-0.07-0.087-0.115c-0.918-1.203-1.6-2.596-2.085-4.068c-0.338-1.178-0.57-2.361-0.78-3.678
		c-0.307-1.92-0.502-3.746-0.645-5.584c-0.027-0.662-0.048-1.321-0.066-1.979c0.019,0.093,0.037,0.147,0.055,0.146
		c0.006,0,0.01-0.007,0.015-0.015c0.018,0.577,0.04,1.156,0.071,1.745c0.14,2.723,0.443,5.356,1.099,7.844
		c0.654,2.461,1.703,4.85,3.469,6.438c0.223,0.203,0.421,0.301,0.412,0.256C94.56,114.459,94.346,114.293,94.143,114.076
		 M77.202,100.087l0.003-0.109l-0.014,0.094c0,0.021,0.002,0.042,0.003,0.061C77.196,100.117,77.2,100.102,77.202,100.087
		 M77.243,101.938c-0.001,0.063,0.003,0.105,0.003,0.105l0.002-0.07l-0.002-0.02C77.247,101.953,77.247,101.951,77.243,101.938
		 M90.066,103.324c0.008,0.068,0.02,0.125,0.027,0.129c0.006,0.002,0.007-0.053-0.001-0.117c-0.215-2.064-0.296-4.141-0.329-6.238
		c-0.001-0.069-0.009-0.128-0.016-0.137c-0.007-0.004-0.012,0.046-0.011,0.112C89.769,99.169,89.852,101.258,90.066,103.324
		 M91.861,112.371c0.018,0.041,0.059,0.107,0.088,0.146c0.025,0.035,0.032,0.029,0.013-0.012c-0.021-0.045-0.062-0.113-0.088-0.146
		C91.845,112.32,91.839,112.326,91.861,112.371 M77.243,101.691c0.007-0.172-0.007-0.26-0.022-0.248
		c-0.003,0.123-0.013,0.238,0.006,0.42c0.009,0.043,0.013,0.064,0.016,0.074C77.243,101.871,77.241,101.781,77.243,101.691"/>
	<path fill="#F6891F" d="M72.232,91.741c0.685,0.37,1.573,0.056,1.985-0.705c0.41-0.758,0.189-1.674-0.496-2.045
		c-0.685-0.37-1.573-0.056-1.983,0.703C71.326,90.454,71.547,91.37,72.232,91.741"/>
	<path fill="#F6891F" d="M69.441,103.32c-0.768,0.266-1.158,1.152-0.871,1.982c0.286,0.828,1.141,1.283,1.911,1.018
		c0.768-0.268,1.158-1.152,0.871-1.98C71.066,103.51,70.21,103.053,69.441,103.32"/>
	<path fill="#F6891F" d="M66.923,91.712c0.616-0.377,0.715-1.333,0.225-2.138c-0.491-0.804-1.388-1.149-2.004-0.774
		c-0.615,0.376-0.715,1.332-0.225,2.136C65.411,91.74,66.308,92.087,66.923,91.712"/>
	<path fill="#F6891F" d="M62.562,96.471c0.269-0.497,0.105-1.108-0.368-1.365c-0.473-0.256-1.076-0.06-1.344,0.438
		c-0.27,0.498-0.105,1.107,0.367,1.365C61.689,97.166,62.292,96.97,62.562,96.471"/>
	<path fill="#F6891F" d="M63.376,100.293c-0.61-0.329-1.405-0.043-1.774,0.642c-0.371,0.684-0.178,1.508,0.432,1.838
		c0.61,0.328,1.405,0.043,1.776-0.643C64.18,101.447,63.986,100.624,63.376,100.293"/>
	<path fill="#F6891F" d="M69.467,86.572c-0.428-0.931-0.812,5.914-2.624,5.925c-1.813,0.009-6.066-1.07-6.332,0.066
		c-0.267,1.139,3.299,2.196,3.022,3.678c-0.278,1.481-3.947,1.745-3.596,2.659c0.349,0.915,4.142-0.439,4.758,1.76
		c0.616,2.198,0.711,7.729,1.473,5.459c0.762-2.268,1.571-3.113,3.97-3.563c2.4-0.449,5.36,1.621,6.341,1.744
		c0.983,0.123-2.842-3.58-2.781-5.413c0.06-1.833,5.311-6.041,5.199-6.802c-0.113-0.761-6.161,1.152-7.259,0.383
		C70.539,91.701,69.896,87.504,69.467,86.572"/>
	<path fill="#FFFFFF" d="M71.662,98.805c-0.875,1.616-2.841,2.246-4.392,1.406c-1.551-0.842-2.098-2.831-1.223-4.448
		c0.875-1.616,2.841-2.245,4.393-1.405C71.99,95.197,72.538,97.188,71.662,98.805"/>
</g>
</svg>
