<?xml version="1.0" encoding="utf-8"?>
<!-- Generator: Adobe Illustrator 16.0.0, SVG Export Plug-In . SVG Version: 6.00 Build 0)  -->
<!DOCTYPE svg PUBLIC "-//W3C//DTD SVG 1.1//EN" "http://www.w3.org/Graphics/SVG/1.1/DTD/svg11.dtd">
<svg version="1.1" id="Layer_1" xmlns="http://www.w3.org/2000/svg" xmlns:xlink="http://www.w3.org/1999/xlink" x="0px" y="0px"
	 width="1009.333px" height="104px" viewBox="0 0 1009.333 104" enable-background="new 0 0 1009.333 104" xml:space="preserve">
<g>
	<path fill="#FCEE1E" d="M917.311,92.613c1.655-0.725,3.284-1.812,4.924-3.496c0.442-0.239,0.847-0.343,1.223-0.343
		c1.451,0,2.506,1.54,3.871,2.935L917.311,92.613z"/>
	<path fill="#FCEE1E" d="M906.268,93.665c-0.552-0.24-1.075-0.492-1.553-0.767c1.107,0.249,2.225,0.442,3.33,0.604L906.268,93.665z"
		/>
	<path fill="#FCEE1E" d="M895.19,92.51c-1.445,0-3.01-0.212-4.704-0.674c1.374-0.287,2.733-0.401,4.07-0.401
		c1.642,0,3.255,0.175,4.843,0.434C898.114,92.275,896.715,92.51,895.19,92.51"/>
	<path fill="#FCEE1E" d="M904.715,92.895c-1.762-0.354-3.503-0.748-5.32-1.033c1.869-0.61,3.519-1.588,4.921-2.814
		c-1.017,1.401-1.495,2.854,0.323,3.817L904.715,92.895z"/>
	<path fill="#FCEE1E" d="M904.322,89.047c0.941-1.302,2.448-2.557,3.046-3.347C906.485,86.92,905.468,88.046,904.322,89.047
		 M907.368,85.701c0.025-0.037,0.048-0.067,0.063-0.103C907.417,85.633,907.395,85.664,907.368,85.701"/>
	<path fill="#FCEE1E" d="M923.476,67.442c-6.62,0-14.867-9.19-24.776-10.658c-0.093-0.049-0.174-0.075-0.25-0.075
		c-0.671,0-0.93,1.661-1.318,3.314c-0.396,1.658-0.922,3.314-2.113,3.314c-0.262,0-0.559-0.086-0.898-0.266
		c-7.986-2.183-14.901-5.894-22.253-5.894c-0.23,0-0.462,0-0.688,0.005c-0.305-0.166-0.622-0.238-0.945-0.238
		c-1.563,0-3.363,1.742-5.156,3.491c-1.79,1.745-3.591,3.489-5.151,3.494c-0.328,0-0.645-0.079-0.942-0.245
		c-8.188-2.286-29.021-13.867-17.418-13.867c0.101,0,0.201,0,0.305,0.004c18.451,0.819,30.536,2.892,47.135,3.969
		c13.56,3.172,26.663,7.027,40.591,9.732c0.474,0.033,0.946,0.049,1.412,0.049c3.344,0,6.479-0.758,9.636-1.45
		c-4.67,1.651-9.462,3.281-14.787,4.874C925.088,67.302,924.295,67.442,923.476,67.442"/>
	<path fill="#FCEE1E" d="M983.425,84.42c-3.912,0-7.922-1.031-11.932-2.066l3.395-4.771c4.165,0.247,5.162,2.273,2.51,4.284
		c7.838-4.849,15.491-6.351,23.325-6.351c0.958,0,1.916,0.021,2.879,0.061c-0.431,2.523-0.157,5.392-2.677,6.814l-5.395-2.787
		C991.693,83.243,987.617,84.42,983.425,84.42"/>
	<path fill="#FCEE1E" d="M1009.037,76.013c-1.817-0.191-3.649-0.334-5.435-0.437l0.152-0.812l5.466,1.02L1009.037,76.013z"/>
	<path fill="#FCEE1E" d="M327.363,104.383c-28.716,0-56.484-2.826-84.375-5.07c-18.882-1.532-37.812-2.782-57.261-2.782
		c-17.291,0-35,0.989-53.475,3.659c-3.443,0.413-7.188,0.6-11.167,0.6c-13.383,0-29.388-2.144-45.222-5.189
		c-20.548-3.925-40.787-9.394-54.857-13.018C3.565,70.882,1.774,56.12,4.96,44.561c3.616-11.474,10.947-20.36,12.054-21.244
		C30.045,11.181,39.594,8.555,50.646,8.555c1.43,0,2.892,0.042,4.381,0.114c6.628,0.31,13.953,1.189,22.747,1.189
		c7.322,0,15.673-0.611,25.484-2.67c-10.741,3.139-5.769,8.542,5.85,11.577c4.98,1.299,11.179,2.127,17.838,2.127
		c10.661,0,22.508-2.125,32.417-7.824c13.734-8.363,28.164-11.239,43.105-11.239c10.527,0,21.299,1.427,32.268,3.358
		c23.495,4.17,47.865,10.705,71.528,10.705c3.022,0,6.033-0.107,9.028-0.343c2.013-0.154,4.039-0.219,6.078-0.219
		c11.356,0,23.224,2.087,36.491,2.563c10.537-0.693,20.947-0.996,31.271-0.996c29.689,0,58.661,2.5,88.001,5.338
		c37.526,3.638,75.626,7.836,116.006,7.836c2.138,0,4.277-0.012,6.433-0.033c22.64,0.555,42.445,9.313,61.568,14.126
		c2.199,0.266,4.433,0.375,6.666,0.375c11.938,0,24.054-3.176,33.618-3.179c17.856,0.054,33.259,3.158,48.049,7.043
		c-16.503-1.509-28.554-3.895-46.911-5.243c-0.264-0.012-0.508-0.016-0.739-0.016c-10.636,0,9.438,11.853,17.424,14.338
		c0.32,0.189,0.657,0.271,1.007,0.271c1.554,0,3.374-1.672,5.188-3.347c1.813-1.67,3.632-3.342,5.188-3.342
		c0.35,0,0.682,0.082,1.008,0.268c0.037,0,0.077,0,0.118,0c7.508,0,14.458,4.028,22.57,6.51c0.345,0.196,0.659,0.287,0.929,0.287
		c1.174,0,1.742-1.639,2.173-3.279c0.429-1.638,0.734-3.277,1.387-3.277c0.08,0,0.165,0.03,0.254,0.077
		c9.951,1.744,18.012,11.327,24.663,11.327c0.751,0,1.479-0.121,2.191-0.387c5.352-1.464,10.176-2.978,14.879-4.489
		c2.354-0.45,4.695-0.847,7.146-0.847c0.64,0,1.294,0.03,1.955,0.086l6.077,2.169c-1.543,2.852-2.049,6.288-2.516,9.762
		c0.466-3.475,0.969-6.91,2.516-9.762c14.707,5.038,31.688,9.419,47.491,12.855l-0.186,0.818c-1.465-0.103-2.919-0.154-4.376-0.154
		c-7.313,0-14.52,1.428-22.013,5.823c2.801-1.975,1.902-4.06-2.321-4.426l-3.479,4.689c4.17,1.192,8.343,2.391,12.424,2.391
		c3.99,0,7.893-1.143,11.623-4.529l5.331,2.92c2.548-1.35,2.34-4.235,2.811-6.709c1.79,0.104,3.609,0.31,5.434,0.548
		c-3.661,4.699-15.531,10.975-15.551,10.975c-23.218,0.346-45.057,1.325-66.388,2.614c-1.341-1.418-2.372-3.022-3.858-3.022
		c-0.364,0-0.754,0.099-1.187,0.322c-1.638,1.621-3.298,2.666-4.956,3.358l-9.317,0.622c-1.085-0.19-2.184-0.427-3.3-0.671
		l-0.088-0.042c-1.761-1.017-1.26-2.439-0.195-3.815c-1.451,1.191-3.077,2.129-4.984,2.68c-1.335-0.255-2.696-0.455-4.086-0.529
		c-1.018-0.168-2.025-0.278-2.981-0.278c-2.568,0-4.861,0.77-6.556,3.212l17.846-1.46c-1.642-0.208-3.177-0.388-4.437-0.677
		c-0.139-0.032-0.28-0.067-0.422-0.098c0.213-0.051,0.422-0.109,0.627-0.168c1.808,0.341,3.542,0.779,5.276,1.18l1.532,0.808
		l-21.275,1.581c-1.627-0.229-3.188-0.415-4.456-0.714c-2.358-0.536-4.711-1.08-6.873-1.08c-2.549,0-4.839,0.759-6.544,3.187
		l-3.802,0.31c0.229-0.289,0.495-0.516,0.731-0.832c-0.563,0.284-1.042,0.587-1.423,0.879l-16.108,1.25
		c-3.486-1.732-7.072-3.899-10.676-5.205l-3.61,4.582c-1.458-2.297-3.547-3.815-5.987-4.589c-1.301-0.425-2.707-0.637-4.164-0.637
		c-4.212,0-8.859,1.746-12.815,5.054c1.925,1.154,3.776,1.642,5.543,1.642c4.233,0,8.017-2.819,11.437-6.059
		c2.44,0.773,4.529,2.29,5.987,4.589l3.61-4.582c3.604,1.306,7.189,3.473,10.676,5.21l-32.028,2.322
		c-38.857,3.061-76.052,3.61-113.905,3.61c-10.642,0-21.327-0.044-32.127-0.081c-10.781-0.05-21.664-0.092-32.708-0.092
		c-9.4,0-18.919,0.035-28.582,0.122c-39.472,0.646-77.512,2.089-115.07,4.459C343.385,104.171,335.338,104.383,327.363,104.383
		 M767.093,80.701c-0.592,0.776-2.18,2.043-3.217,3.374C765.07,83.088,766.164,81.932,767.093,80.701 M695.353,79.478
		c1.153,0,2.371,1.108,3.618,2.221c1.251,1.105,2.534,2.213,3.823,2.213c-1.289,0-2.572-1.107-3.822-2.213
		C697.717,80.586,696.505,79.478,695.353,79.478 M702.919,83.912c-0.022,0-0.045,0-0.063,0
		C702.875,83.912,702.897,83.912,702.919,83.912 M705.9,81.174c-0.906,1.776-1.823,2.549-2.739,2.71
		C704.077,83.723,704.994,82.951,705.9,81.174 M705.995,80.985c-0.027,0.045-0.046,0.086-0.065,0.131
		C705.949,81.076,705.967,81.03,705.995,80.985 M694.577,79.669c-0.304,0.149-0.602,0.399-0.895,0.772
		C693.975,80.069,694.273,79.819,694.577,79.669 M694.62,79.649c-0.009,0.009-0.024,0.009-0.036,0.012
		C694.595,79.658,694.611,79.658,694.62,79.649 M835.794,79.525c0.366-0.23,0.736-0.455,1.104-0.667
		C836.577,79.082,836.208,79.303,835.794,79.525 M103.259,7.186c1.245-0.364,2.692-0.695,4.369-0.991
		C106.141,6.556,104.685,6.888,103.259,7.186"/>
	<path fill="#FCEE1E" d="M745.268,89.157c1.697-2.441,3.992-3.211,6.561-3.211c0.956,0,1.959,0.107,2.979,0.272
		c1.131,0.185,2.293,0.437,3.452,0.702c0.149,0.032,0.292,0.067,0.43,0.096c1.252,0.287,2.791,0.471,4.435,0.674L745.268,89.157z"/>
</g>
</svg>
